<svg width="218" height="197" viewBox="0 0 218 197" fill="none" xmlns="http://www.w3.org/2000/svg">
<g opacity="0.05">
<path d="M179.596 115.48V122.533L266.448 147.722V143.757L179.596 115.48ZM179.596 115.48V122.533L266.448 147.722V143.757L179.596 115.48ZM179.596 115.48V122.533L266.448 147.722V143.757L179.596 115.48ZM179.596 115.48V122.533L266.448 147.722V143.757L179.596 115.48ZM179.596 115.48V122.533L266.448 147.722V143.757L179.596 115.48ZM179.596 115.48V122.533L266.448 147.722V143.757L179.596 115.48ZM179.596 115.48V122.533L266.448 147.722V143.757L179.596 115.48ZM179.596 115.48V122.533L266.448 147.722V143.757L179.596 115.48ZM179.596 115.48V122.533L266.448 147.722V143.757L179.596 115.48ZM179.596 115.48V122.533L266.448 147.722V143.757L179.596 115.48ZM179.596 115.48V122.533L266.448 147.722V143.757L179.596 115.48ZM179.596 115.48V122.533L266.448 147.722V143.757L179.596 115.48ZM179.596 115.48V122.533L266.448 147.722V143.757L179.596 115.48ZM179.596 115.48V122.533L266.448 147.722V143.757L179.596 115.48ZM179.596 115.48V122.533L266.448 147.722V143.757L179.596 115.48ZM179.596 115.48V122.533L266.448 147.722V143.757L179.596 115.48ZM86.5213 142.458V196.054H301.008L282.648 191.274V137.777L167.321 98.3504V79.1108L144.267 87.3331L112.768 76.5756L108.841 47.7124H101.025L100.194 53.7587L95.7683 85.9342L77.0084 93.3131L72.9508 63.5734H65.1668L64.6322 67.4081L64.6296 67.431L60.1417 99.976L40.915 107.551L37.0582 79.437H29.2742L24.5151 113.985L22.2881 114.861V189.098L0 196.054H36.6592V154.742C36.6592 147.233 42.9125 141.125 50.5949 141.125C51.9274 141.222 53.1243 141.905 53.9223 142.945C54.6864 143.984 54.9863 145.317 54.6864 146.586C54.2222 150.354 52.0265 152.826 48.1671 154.028V196.054H74.2129V143.205C74.2129 135.176 80.8991 128.643 89.0821 128.643C90.5137 128.773 91.8124 129.456 92.6756 130.595C93.5074 131.698 93.8073 133.127 93.4735 134.493C92.9754 138.524 90.6467 141.156 86.5213 142.458ZM33.1649 89.4147C32.0671 90.1282 31.0683 91.0072 30.1712 91.9805C31.17 91.527 32.1688 91.104 33.1649 90.7142V94.7756C31.8689 95.5247 30.6719 96.4981 29.6393 97.6676C30.8049 97.1172 31.968 96.628 33.1649 96.205V101.958C31.303 102.804 29.6393 104.04 28.2754 105.566C29.8401 104.787 31.5012 104.17 33.1649 103.683V110.573L26.7447 113.108L31.1022 81.483H33.1649V89.4147ZM66.6923 67.7189L66.6949 67.7011L66.9948 65.622H69.0575V76.9323C68.0587 77.6152 67.1617 78.3948 66.3637 79.3045C67.2608 78.8841 68.1265 78.4917 69.0575 78.135V82.2626C67.8605 83.0117 66.7627 83.9214 65.8317 84.9609C66.8957 84.4743 67.9596 84.0182 69.0575 83.6283V89.4147C67.2947 90.2581 65.7639 91.4302 64.4679 92.8596C65.9647 92.1436 67.4929 91.5601 69.0575 91.0709V96.4675L62.3713 99.0664L66.6923 67.7189ZM49.6978 158.09V155.328C49.9977 155.361 50.2637 155.391 50.5636 155.391C54.1544 155.391 57.0829 151.557 57.0829 146.812C57.0829 142.099 54.1544 138.264 50.5636 138.264C48.8008 138.264 47.2022 139.174 46.0053 140.702C44.9413 140.995 43.9087 141.416 42.9464 141.969C44.3077 137.678 47.5699 134.689 51.3276 134.689C56.3501 134.689 60.4416 139.953 60.4416 146.486C60.4416 152.989 56.3501 158.286 51.3276 158.286C50.7957 158.286 50.2298 158.22 49.6978 158.09ZM69.1905 190.884H53.5233V187.406H69.1905V190.884ZM141.74 97.637L158.64 92.2073V99.8155L141.74 105.209V97.637ZM141.74 115.87L158.64 110.443V118.016L141.74 123.443V115.87ZM141.74 134.103L158.64 128.676V136.249L141.74 141.676V134.103ZM113.099 81.9365L136.816 90.0313L113.099 98.5135V81.9365ZM113.764 132.414V124.841L130.662 119.412V127.017L113.764 132.414ZM130.662 137.647V145.251L113.764 150.647V143.075L130.662 137.647ZM113.764 114.181V106.606L130.662 101.179V108.784L113.764 114.181ZM167.321 187.406V103.844L175.038 106.476L277.356 141.416V190.884H266.448V154.385L234.381 146V190.884H221.974V142.652L179.596 131.568V190.884H91.9089V187.406H167.321ZM102.488 52.4567V52.4465L102.853 49.7584H104.916V64.4499C104.053 65.0665 103.286 65.8156 102.554 66.5953C103.354 66.236 104.118 65.8793 104.916 65.5532V69.7471C103.852 70.4631 102.887 71.3064 102.022 72.2823C102.986 71.8262 103.951 71.4033 104.916 71.0466V76.8661C103.32 77.6763 101.857 78.8153 100.658 80.181C102.055 79.4981 103.453 78.9452 104.916 78.4585V82.0333L103.886 82.7162L97.9979 85.0552L102.488 52.4567ZM89.0821 125.588C87.1863 125.588 85.4574 126.564 84.2265 128.189C83.0609 128.513 81.9631 128.969 80.933 129.553C82.3959 124.971 85.8564 121.753 89.914 121.753C95.2702 121.753 99.6277 127.407 99.6277 134.363C99.6277 141.352 95.2702 146.976 89.914 146.976C89.3168 146.976 88.717 146.909 88.1512 146.779V143.821C88.451 143.887 88.7822 143.921 89.0821 143.921C92.9415 143.921 96.0682 139.793 96.0682 134.756C96.0682 129.683 92.9415 125.588 89.0821 125.588ZM266.448 143.757L179.596 115.48V122.533L266.448 147.722V143.757ZM179.596 115.48V122.533L266.448 147.722V143.757L179.596 115.48ZM179.596 115.48V122.533L266.448 147.722V143.757L179.596 115.48ZM179.596 115.48V122.533L266.448 147.722V143.757L179.596 115.48ZM179.596 115.48V122.533L266.448 147.722V143.757L179.596 115.48ZM179.596 115.48V122.533L266.448 147.722V143.757L179.596 115.48ZM179.596 115.48V122.533L266.448 147.722V143.757L179.596 115.48ZM179.596 115.48V122.533L266.448 147.722V143.757L179.596 115.48ZM179.596 115.48V122.533L266.448 147.722V143.757L179.596 115.48ZM179.596 115.48V122.533L266.448 147.722V143.757L179.596 115.48ZM179.596 115.48V122.533L266.448 147.722V143.757L179.596 115.48ZM179.596 115.48V122.533L266.448 147.722V143.757L179.596 115.48ZM179.596 115.48V122.533L266.448 147.722V143.757L179.596 115.48ZM179.596 115.48V122.533L266.448 147.722V143.757L179.596 115.48ZM179.596 115.48V122.533L266.448 147.722V143.757L179.596 115.48ZM179.596 115.48V122.533L266.448 147.722V143.757L179.596 115.48ZM179.596 115.48V122.533L266.448 147.722V143.757L179.596 115.48Z" fill="#FB521E"/>
<path d="M69.1243 59.5074C69.8571 57.8818 69.492 55.9963 68.1934 54.73C66.8973 53.4943 64.9337 53.1681 63.27 53.8841C62.472 52.7477 61.1082 52.0649 59.6792 52.1617C58.2476 52.2279 56.9515 53.0051 56.2865 54.2408C55.9528 53.428 55.2878 52.7783 54.4559 52.4547C53.6241 52.1286 52.6592 52.1948 51.8613 52.5846C50.1323 50.0163 47.2039 48.457 44.0433 48.457C40.8854 48.457 37.9569 50.0163 36.228 52.5846C33.8315 50.796 30.4728 51.0227 28.3449 53.1375C26.2483 55.2167 26.0814 58.5316 27.9772 60.84C26.4804 62.0426 25.8154 63.9587 26.2483 65.8136C26.6812 67.666 28.178 69.1285 30.0399 69.5489C31.9357 69.9719 33.9332 69.3221 35.1615 67.8596C36.1263 68.7387 37.524 69.0291 38.7888 68.6724C40.0535 68.2826 41.0523 67.2736 41.3496 66.0073C41.6155 66.6264 42.1475 67.0799 42.8151 67.243C43.4801 67.4035 44.1763 67.243 44.677 66.8201C44.7761 69.1285 46.7397 70.9809 49.1336 70.9809C51.5301 70.9809 53.4911 69.1285 53.5928 66.8201C54.555 68.5093 56.4195 69.5183 58.4144 69.3884C60.3754 69.2253 62.107 67.9896 62.8397 66.2034C63.3352 66.7563 63.9506 67.1691 64.6312 67.4265C65.2806 67.6685 65.9846 67.7704 66.6939 67.7144L66.707 67.7118C66.9912 67.6914 67.2781 67.6405 67.5623 67.5666C67.7631 67.5029 67.9613 67.4366 68.1621 67.3398C67.9509 66.3818 68.0552 66.2901 68.123 65.6174C68.1412 65.4467 68.1543 65.2378 68.1621 64.9677C68.1751 64.4785 68.2507 64.0122 68.342 63.5689C68.4828 62.858 68.6601 62.2134 68.6601 61.6528L70.6889 61.5229C70.3578 60.7432 69.8232 60.0629 69.1243 59.5074ZM54.8888 47.4505C54.7219 46.7677 53.9579 46.3473 53.259 46.5409C52.5601 46.7345 52.1272 47.4505 52.328 48.1334C52.4923 48.8493 53.2251 49.2392 53.9579 49.0761C54.6567 48.8799 55.087 48.1665 54.8888 47.4505ZM34.3635 47.5473C34.0975 47.0581 33.4664 46.8951 32.9658 47.1881C32.4677 47.448 32.3034 48.0671 32.6007 48.5538C32.8667 49.0404 33.5003 49.2035 33.9984 48.9436C34.4991 48.6531 34.6634 48.0365 34.3635 47.5473ZM45.1099 71.5338C44.4423 71.1465 43.6783 71.0471 42.9481 71.2433C42.5152 70.5604 41.6494 70.2037 40.7837 70.4305C39.7536 70.6904 39.1226 71.7631 39.4199 72.7721C39.5867 73.4524 40.1187 73.9416 40.7524 74.1352C40.8176 75.078 41.3157 75.9545 42.2153 76.4437C43.6105 77.2233 45.3759 76.7673 46.1738 75.4016C46.9718 74.0384 46.505 72.316 45.1099 71.5338ZM59.0794 72.4459C58.8473 71.6331 57.9816 71.1133 57.1184 71.3401C56.2865 71.5669 55.7859 72.4128 56.018 73.2587C56.2187 74.0715 57.1184 74.5582 57.9503 74.362C58.8134 74.1352 59.3141 73.2893 59.0794 72.4459ZM89.7826 54.2765C89.4175 52.977 88.0198 52.1974 86.6899 52.5209C85.326 52.8777 84.5281 54.2434 84.8932 55.5454C85.2609 56.8754 86.6221 57.6576 87.9859 57.2984C89.3185 56.9416 90.1164 55.6065 89.7826 54.2765ZM107.911 22.1315C107.512 20.6333 105.95 19.7568 104.42 20.1467C102.889 20.5696 101.992 22.0984 102.391 23.5915C102.79 25.0871 104.386 25.9662 105.917 25.5738C107.447 25.1534 108.344 23.6272 107.911 22.1315ZM81.2006 23.5303C80.9998 22.7812 80.2358 22.3583 79.503 22.5545C78.739 22.7481 78.3061 23.4998 78.5069 24.2463C78.7051 24.9572 79.4717 25.3827 80.2358 25.1865C80.9686 24.9929 81.4014 24.2463 81.2006 23.5303ZM133.759 38.153C133.261 37.3071 132.129 36.9835 131.23 37.5033C130.333 37.99 130.033 39.0958 130.565 39.9748C131.065 40.8182 132.194 41.1112 133.094 40.622C133.96 40.1379 134.257 39.0295 133.759 38.153ZM158.707 41.5367C157.776 40.0079 155.747 39.455 154.183 40.3647C152.587 41.2437 152.055 43.226 152.952 44.7854C153.883 46.3141 155.88 46.867 157.476 45.9574C159.072 45.0784 159.604 43.0961 158.707 41.5367ZM194.566 16.8674C194.201 15.4712 192.704 14.6227 191.272 14.982C189.809 15.3743 188.977 16.8369 189.343 18.2331C189.742 19.632 191.207 20.4753 192.67 20.0855C194.102 19.7262 194.965 18.2637 194.566 16.8674ZM208.838 34.8713C208.838 32.2367 206.642 30.1244 203.946 30.1244C201.351 30.1244 199.223 32.1399 199.09 34.642C198.357 34.6088 197.627 34.6751 196.894 34.8713C194.433 35.521 192.602 37.3402 191.838 39.5519C191.572 39.3888 191.272 39.2589 190.938 39.1595C190.873 38.576 190.706 37.99 190.375 37.4371C189.144 35.3248 186.383 34.6088 184.221 35.8471C182.059 37.0472 181.326 39.7455 182.557 41.8578C182.891 42.3775 183.321 42.8336 183.822 43.1903C183.522 44.4592 183.723 45.8555 184.419 47.0913C185.984 49.6927 189.376 50.5692 192.039 49.0736C192.902 48.5869 193.567 47.9372 194.034 47.155C195.797 48.6175 198.258 49.2698 200.655 48.6175C204.545 47.611 206.84 43.7101 205.808 39.9086C205.742 39.7124 205.675 39.5187 205.609 39.3557C207.505 38.6754 208.838 36.9198 208.838 34.8713ZM184.818 18.6561C186.052 15.9247 185.418 12.7066 183.222 10.5944C181.027 8.51526 177.767 7.92923 174.974 9.19556C173.61 7.21325 171.315 6.10744 168.885 6.23739C166.457 6.33676 164.295 7.69991 163.164 9.77904C162.632 8.38276 161.5 7.27695 160.105 6.72659C158.673 6.20681 157.077 6.27051 155.747 6.95336C152.819 2.59891 147.862 0 142.539 0C137.251 0 132.294 2.59891 129.368 6.95336C125.344 3.93149 119.654 4.32133 116.094 7.86298C112.538 11.4378 112.269 16.9974 115.463 20.8652C113.036 22.8169 111.904 25.8694 112.436 28.8275C110.574 28.9575 108.876 30.0302 107.979 31.6558C107.546 30.5474 106.681 29.6734 105.551 29.2174C104.42 28.797 103.155 28.8607 102.091 29.411C99.7962 25.9687 95.8377 23.8845 91.6445 23.8845C87.4226 23.8845 83.4954 25.9687 81.1667 29.411C77.9749 27.0057 73.4505 27.3344 70.655 30.127C67.8283 32.9578 67.5962 37.3759 70.1231 40.464C68.1282 42.0565 67.2285 44.6554 67.8283 47.1269C68.4281 49.5959 70.3891 51.5145 72.9185 52.1005C75.4454 52.684 78.074 51.8075 79.7377 49.8252C81.0676 50.9947 82.8983 51.4177 84.5933 50.8953C86.2909 50.4087 87.6208 49.043 88.0198 47.3868C88.3536 48.1996 89.0838 48.8162 89.9834 49.0099C90.8466 49.2392 91.7801 49.0099 92.4764 48.4264C92.6094 51.5476 95.238 54.0166 98.4324 54.0166C99.0452 54.0166 99.6372 53.9249 100.195 53.7567C101.058 53.4943 101.838 53.0458 102.485 52.4547L102.49 52.447C103.28 51.7336 103.869 50.8062 104.169 49.759C104.292 49.3335 104.368 48.8876 104.386 48.4264C104.918 49.4022 105.684 50.1819 106.615 50.7679L106.879 47.7104L107.147 44.5917L112.736 44.9815L112.934 51.3846C114.665 50.7017 116.063 49.336 116.762 47.6136C118.324 49.336 120.786 50.052 123.081 49.4328C125.375 48.8162 127.107 46.997 127.54 44.6885C128.004 42.4132 127.073 40.0742 125.143 38.6754C125.74 37.3428 125.808 35.8803 125.344 34.5808C126.173 34.0942 126.94 33.475 127.571 32.7284C129.235 34.191 131.563 34.7108 133.691 34.061C135.822 33.4113 137.486 31.7195 138.015 29.6072C138.448 30.6468 139.347 31.4264 140.445 31.6889C141.577 31.9488 142.74 31.6889 143.606 30.9423C143.773 34.8738 147.098 37.9925 151.121 37.9925C155.148 37.9925 158.441 34.8738 158.608 30.9423C160.238 33.8011 163.398 35.4904 166.757 35.2637C170.082 35.0343 173.01 32.9578 174.207 29.9002C176.205 32.1093 179.298 32.9858 182.192 32.2061C185.084 31.4264 187.249 29.118 187.814 26.2261C188.378 23.3673 187.215 20.4116 184.818 18.6561Z" fill="#FB521E"/>
</g>
</svg>
