<svg width="41" height="198" viewBox="0 0 41 198" fill="none" xmlns="http://www.w3.org/2000/svg">
<path d="M4.93907 193.367C6.21505 193.969 7.52025 194.158 8.83519 194.275C9.06895 194.275 9.30759 194.246 9.53649 194.178C12.7995 193.498 16.0625 192.799 19.3255 192.1C19.6595 192.015 19.9782 191.879 20.2703 191.697C20.7914 191.395 21.2833 191.046 21.7946 190.725C21.931 190.633 22.0771 190.575 22.2524 190.483L22.2135 191.993C23.7719 194.105 25.4765 196.111 27.3076 198C27.6314 198.008 27.947 197.898 28.194 197.689C28.3547 197.567 28.5252 197.461 28.7054 197.363C29.6989 196.849 30.4684 196.072 31.2086 195.261C31.3206 195.139 31.418 195.003 31.4911 194.858C32.0463 193.668 32.7573 192.541 33.0982 191.264C33.371 190.225 33.5707 189.167 33.7995 188.113C33.8385 187.953 33.8629 187.792 33.8969 187.598L37.1307 186.807C37.0333 186.03 36.9359 185.292 36.8483 184.549C36.6194 182.548 36.1129 180.601 35.621 178.649C35.5303 178.296 35.5187 177.928 35.5869 177.571C36.1908 174.21 36.8239 170.855 37.3645 167.48C38.0611 163.079 38.4242 158.631 38.4505 154.175C38.4846 149.892 38.2314 145.619 37.7005 141.375C37.3109 138.253 36.746 135.159 36.0496 132.095C35.8304 131.11 35.5966 130.133 35.4067 129.143C35.3682 128.876 35.3831 128.603 35.4505 128.342C35.9473 126.035 36.4586 123.738 36.9603 121.437C37.6549 118.427 38.1157 115.368 38.3385 112.288C38.4457 110.559 38.4359 108.816 38.4457 107.087C38.4554 104.8 38.4116 102.523 38.4018 100.236C38.397 98.6284 38.4018 97.0211 38.4067 95.3361C38.7184 94.8942 39.0934 94.4184 39.41 93.9085C39.9097 93.0749 40.1598 92.1162 40.1307 91.1455C40.082 88.13 40.0723 85.1145 40.0577 82.1038L39.9457 54.4737L39.7703 13.0335C39.7703 12.2663 39.7801 11.499 39.7509 10.7318C39.7216 10.3676 39.6632 10.0083 39.5658 9.65865C39.3126 8.51752 38.6064 7.61917 37.8953 6.74026C37.759 6.59458 37.608 6.45861 37.4473 6.33236C36.1132 5.18705 34.6971 4.14025 33.2103 3.20031C31.6459 2.20858 29.9375 1.46334 28.1453 0.990873C25.7 0.332744 23.1781 -0.000339058 20.6453 0.000269803C18.3174 -0.00944199 15.9943 0.243065 13.7248 0.752934C12.3612 1.04914 11.0316 1.47646 9.75077 2.02032C8.92285 2.36995 8.13389 2.79727 7.38875 3.29742C5.95515 4.28555 4.55812 5.3254 3.20043 6.41491C2.37567 7.08739 1.72859 7.95099 1.31568 8.93027C1.00886 9.62952 0.85789 10.387 0.86763 11.1543C0.901721 17.3698 0.921202 23.5805 0.930942 29.7863L1.07705 66.6766L1.16958 89.8635C1.16958 90.5385 1.12088 91.2183 1.19393 91.8836C1.33516 93.1121 1.8514 94.263 2.67932 95.1759L2.89848 95.4381L2.90822 99.08L2.88387 99.1966H2.90822V99.5122L2.84491 99.5559L2.90335 99.653L2.91309 102.401C2.91309 104.616 2.90822 106.825 2.93744 109.035C2.96179 109.617 3.03972 110.2 3.16634 110.773C3.37088 111.807 3.60465 112.842 3.83842 113.881C3.90173 114.182 3.98452 114.483 4.09167 114.774C4.56894 116.027 4.81732 117.338 5.09005 118.644C5.20693 119.198 5.31894 119.761 5.47966 120.295C6.27836 122.971 6.60466 125.734 7.12577 128.463C7.4959 130.42 7.74427 132.396 8.03648 134.256L7.93908 134.48C7.30109 135.985 6.68258 137.393 6.13713 138.821C4.69069 142.55 3.60465 146.372 3.33679 150.383C3.15173 153.083 3.30882 155.796 3.80433 158.458C4.87937 164.226 5.93457 169.998 6.96992 175.774C7.43259 178.362 7.81733 180.97 8.24103 183.611C7.8222 184.583 7.37414 185.583 6.95044 186.593C6.46343 187.778 5.94719 188.953 5.53323 190.157C5.27024 190.91 5.15336 191.716 5.00238 192.498C4.96342 192.789 4.93907 193.08 4.93907 193.372V193.367ZM8.56733 183.403C8.72804 183.306 8.8985 183.228 9.07382 183.165C9.23941 183.136 9.40499 183.14 9.56571 183.174C9.89201 183.238 10.2232 183.247 10.5543 183.213L13.3547 186.481L13.8612 187.083C13.7248 187.113 13.5836 187.083 13.4618 187.011C12.6242 186.525 11.7914 186.03 10.9488 185.544C10.1453 185.107 9.42935 184.524 8.83519 183.82C8.73778 183.684 8.65012 183.548 8.56733 183.403ZM15.1225 187.865L14.7962 187.477L14.8352 187.448L11.1144 183.111C11.4066 183.034 11.6842 182.927 11.9521 182.791C12.7167 182.412 13.5738 182.388 14.4212 182.213L19.2329 188.123L19.1696 188.239L15.3855 188.132C15.2735 188.021 15.1907 187.943 15.1274 187.86L15.1225 187.865ZM5.28485 163.931C5.36277 164.115 5.4407 164.3 5.50401 164.479C5.90823 165.538 6.26375 166.616 6.72154 167.65C8.35304 171.404 10.228 175.046 12.3173 178.566C12.9602 179.639 13.5008 180.776 14.1047 181.917C13.9342 181.956 13.7784 181.999 13.6128 182.024C12.7118 182.184 11.8108 182.33 10.9829 182.762C10.9391 182.781 10.8953 182.801 10.8514 182.81L10.5592 182.844C9.87253 182.844 9.18097 182.82 8.49428 182.81L5.21667 163.94L5.28485 163.931ZM8.06083 135.397C8.07545 135.407 8.07057 135.446 8.07544 135.46C8.28973 137.053 8.70369 140.219 9.09818 143.793C7.22804 152.84 8.43096 161.012 9.82383 166.242C10.6701 169.499 11.8619 172.657 13.379 175.662L13.3693 175.677C13.6323 176.056 13.8807 176.43 14.1534 176.799C15.9322 179.261 17.4856 181.877 18.7946 184.617C19.2329 185.53 19.2329 186.481 19.2719 187.467L19.1258 187.312L14.8596 182.077C14.7135 181.892 14.5966 181.689 14.4992 181.47C13.9245 180.285 13.4326 179.057 12.78 177.92C10.2329 173.511 7.92934 168.99 6.15661 164.212C4.91959 160.866 4.04296 157.448 3.87738 153.869C3.74102 150.907 4.01374 147.945 4.69556 145.056C5.34816 142.336 6.22966 139.68 7.34005 137.116C7.58356 136.558 7.82707 135.965 8.06083 135.392V135.397ZM19.4813 184.49C18.7508 183.15 18.03 181.732 17.2313 180.363C16.4375 178.994 15.5609 177.682 14.6745 176.269C15.556 176.502 16.2475 176.017 16.9975 175.808C17.2703 176.318 17.5576 176.74 17.7183 177.216C18.1079 178.416 18.6485 179.557 19.3303 180.615C19.5008 180.878 19.6615 181.15 19.8076 181.426L21.4635 184.636C21.5073 184.733 21.5414 184.84 21.5706 184.942L19.4813 184.495V184.49ZM18.629 178.615C18.7118 178.566 18.8044 178.537 18.8969 178.513C21.2248 178.275 23.5722 178.649 25.7151 179.596C27.677 180.366 29.5085 181.432 31.1453 182.757C31.4862 183.038 31.8271 183.33 32.1827 183.602L27.0739 184.932L22.4765 185.903C21.4003 183.37 20.1133 180.93 18.629 178.61V178.615ZM15.9992 175.808C15.6096 175.993 15.1615 175.983 14.7865 175.779L13.9683 175.381L13.8222 175.395C13.6469 175.07 11.7281 171.481 10.2962 166.096C8.99103 161.192 7.81246 153.714 9.26863 145.323C9.54623 147.998 9.80435 150.805 9.94558 153.282C10.3644 160.823 15.0836 172.802 16.7346 175.56C16.4813 175.624 16.2378 175.706 15.9992 175.803V175.808ZM3.55595 104.63C5.00725 107.476 9.05434 115.527 10.7979 120.402C12.181 124.268 15.5998 132.493 17.8693 137.898C17.5138 137.281 17.1485 136.67 16.7784 136.067C16.1842 135.101 15.6583 134.101 15.0885 133.12C12.5338 128.745 10.1457 124.277 7.92934 119.722C6.66986 117.121 5.60209 114.432 4.73452 111.676C4.68582 111.501 4.64199 111.322 4.60303 111.142C4.45693 110.467 4.31082 109.782 4.15498 109.103C4.03809 108.554 3.85303 108.01 3.79459 107.452C3.70205 106.51 3.629 105.572 3.55108 104.635L3.55595 104.63ZM3.31731 100.323C5.17771 103.411 12.0592 115.124 14.2605 122.811C16.2824 129.829 18.5484 136.776 21.0544 143.638L20.957 143.448L20.0609 141.822C18.4781 138.102 13.0868 125.341 11.2556 120.242C9.10792 114.24 3.51212 103.484 3.45368 103.373L3.39524 102.712C3.32706 101.916 3.30105 101.117 3.31731 100.318V100.323ZM32.2947 3.20516C24.1859 0.54413 16.1258 0.665528 8.04135 3.37512C8.69395 3.02549 9.32707 2.62731 10.004 2.3311C12.3695 1.32039 14.8849 0.70201 17.4505 0.500427C20.0268 0.277056 22.6226 0.369318 25.1745 0.782069C27.1031 1.10256 28.9927 1.64156 30.7947 2.41365C31.3206 2.63702 31.793 2.93809 32.2898 3.20516H32.2947ZM39.6681 89.0429C39.5401 88.9689 39.4407 88.8544 39.3856 88.7175C39.1324 88.0766 38.6648 87.591 38.2265 87.0762C37.4104 86.1559 36.4335 85.3908 35.3434 84.8182C33.9797 84.0267 32.5187 83.41 31.0041 82.9876C30.5804 82.8759 30.1859 82.6622 29.7573 82.5602C28.8807 82.366 27.9992 82.2203 27.1177 82.0455C26.8888 82.0018 26.6648 81.8998 26.4359 81.8756C25.7784 81.8027 25.121 81.7687 24.4635 81.7056C23.918 81.6571 23.3774 81.5454 22.832 81.5259C21.7557 81.4774 20.6745 81.4774 19.5933 81.4628C19.4666 81.4606 19.3399 81.4638 19.2135 81.4725L15.9992 81.7396C15.8531 81.7542 15.707 81.7736 15.5609 81.8027C15.1518 81.8901 14.7427 81.997 14.3287 82.0698C13.2621 82.2349 12.2102 82.468 11.1777 82.7788C9.98742 83.1321 8.81691 83.5487 7.67122 84.0267C5.94516 84.7452 4.37427 85.7889 3.04459 87.1005C2.74649 87.4207 2.47145 87.7614 2.22153 88.1203C2.01698 88.4116 1.84653 88.7272 1.65659 89.0283L1.55432 88.9992C1.54458 88.8438 1.5251 88.6884 1.5251 88.533C1.42352 62.698 1.32612 36.863 1.23289 11.028C1.23289 10.0908 1.57867 9.26532 2.02672 8.50295C2.79621 7.19185 3.95043 6.20611 5.2118 5.38546C6.85436 4.34202 8.64113 3.54368 10.5154 3.01578C12.9615 2.29837 15.4837 1.86973 18.03 1.73868C19.9927 1.627 21.9651 1.66584 23.9229 1.84551C25.8612 2.02032 27.7752 2.36509 29.6453 2.89924C31.1307 3.30228 32.5674 3.851 33.9457 4.53568C35.7622 5.46316 37.4035 6.59944 38.5479 8.33299C39.0697 9.06597 39.3643 9.93547 39.3953 10.8338L39.5268 45.4758L39.6242 71.8918L39.6876 88.4505C39.6827 88.6495 39.6632 88.8438 39.6681 89.0429ZM38.3824 94.1804C38.3824 93.6803 38.2996 93.151 38.4213 92.6751C38.5869 92.0341 38.5138 91.4223 38.47 90.7813C38.3857 89.8838 38.048 89.0284 37.496 88.3145C36.6257 87.1277 35.4924 86.1572 34.1843 85.4786C32.1513 84.3841 29.9644 83.6016 27.6973 83.1575C22.8673 82.1931 17.888 82.251 13.082 83.3275C12.0615 83.544 11.0575 83.8312 10.0771 84.187C9.1819 84.5094 8.31114 84.8957 7.47155 85.3427C6.28323 85.9739 5.15823 86.7072 4.28647 87.7366C3.77746 88.3096 3.35872 88.9563 3.04459 89.6547C2.72803 90.3928 2.52835 91.2183 2.76212 92.0632C2.81583 92.2762 2.84524 92.4944 2.84978 92.7139C2.879 93.3064 2.88874 93.8988 2.90822 94.5155C2.81569 94.4863 2.76212 94.4815 2.75238 94.4621C2.46991 93.9279 2.129 93.4132 1.93906 92.8548C1.7685 92.3504 1.70223 91.8169 1.74426 91.2863C1.88549 90.0043 2.43095 88.8001 3.30757 87.8532C4.4077 86.6466 5.73047 85.6623 7.20369 84.9542C9.21605 83.976 11.3428 83.2518 13.5349 82.7982C15.2764 82.4398 17.0463 82.2351 18.8239 82.1863C20.2508 82.1281 21.6826 82.1378 23.1096 82.2252C25.1063 82.3272 27.0836 82.6331 29.0219 83.1332C30.1908 83.4343 31.345 83.8034 32.4749 84.2258C33.3661 84.5657 34.2281 84.9833 35.0366 85.4738C36.1908 86.1827 37.2817 86.9791 38.1632 88.0377C38.6927 88.6472 39.0891 89.36 39.3272 90.1306C39.7411 91.5874 39.4392 92.9762 38.5236 94.1998C38.4749 94.1998 38.4262 94.1901 38.3775 94.1804H38.3824ZM38.0268 102.591C37.5301 100.891 36.3807 98.5604 33.7411 96.3267C29.2995 92.5683 21.293 89.6207 19.6713 90.0043C19.5861 90.0173 19.5053 90.0506 19.4358 90.1013C19.3663 90.152 19.3101 90.2187 19.2719 90.2957C18.8287 91.3397 20.0511 93.6463 20.1972 93.9085C20.6453 94.8991 21.1177 95.8848 21.6242 96.8463C22.7102 98.9198 23.8645 100.954 24.9456 103.033C25.8423 104.78 26.6868 106.553 27.4781 108.35C19.2963 95.6032 11.9521 94.8457 8.17285 95.6178C5.97154 96.0694 4.24264 97.1959 3.41959 98.1768L3.28322 98.2399L3.27348 97.3999C3.26374 95.5012 3.2053 93.6026 3.25887 91.7039C3.29296 91.0435 3.45368 90.4025 3.73615 89.8101C4.29056 88.689 5.11766 87.7241 6.142 87.0034C7.56318 85.9643 9.14144 85.1578 10.8173 84.6143C12.2492 84.1154 13.7248 83.7513 15.2248 83.5266C16.345 83.3712 17.47 83.2352 18.595 83.1769C19.6128 83.109 20.6404 83.109 21.6583 83.1381C23.4261 83.1867 25.194 83.3809 26.9326 83.7208C28.8271 84.0704 30.668 84.6434 32.4262 85.4252C33.9846 86.1439 35.4262 87.0277 36.5755 88.3291C37.3694 89.2371 37.9294 90.2229 37.9879 91.4563C37.9976 91.7088 37.9879 91.9613 37.9879 92.2186L38.0122 99.8375L38.0268 102.591ZM35.0317 127.875C34.9586 127.633 34.9148 127.492 34.8807 127.351C34.2476 125.069 33.6437 122.767 32.8401 120.529C31.9976 118.207 31.2671 115.847 30.332 113.56C28.1384 108.255 25.6674 103.069 22.9294 98.0214C22.233 96.7298 21.4781 95.4769 20.8255 94.1707C20.7476 94.0105 20.6696 93.8551 20.6015 93.6851L20.6355 93.6705C20.5576 93.5297 20.4797 93.3743 20.4018 93.2044C20.1875 92.6702 20.0024 92.1167 19.793 91.5777L19.7638 91.4854C19.6664 91.0824 19.6372 90.7279 19.7248 90.4996C19.9781 90.3297 21.7605 90.5482 25.0333 91.8739C28.306 93.2044 31.3791 94.9622 33.4245 96.7055C38.1486 100.697 38.0512 105.14 38.0512 105.184L38.0463 105.126C38.0463 105.961 38.0609 106.796 38.0755 107.626C38.1388 111.011 37.8612 114.391 37.2379 117.717C36.6048 120.995 35.8742 124.263 35.1778 127.526C35.1388 127.647 35.0901 127.764 35.0317 127.875ZM35.2362 176.939C35.1827 176.876 35.1437 176.857 35.1388 176.828C35.0025 176.391 34.8661 175.954 34.7492 175.517C33.5743 171.307 32.1547 167.169 30.4976 163.124C28.8352 158.985 26.9826 154.925 24.9456 150.956C24.3904 149.887 23.8352 148.819 23.2752 147.76L23.2849 147.751C21.4391 144.002 17.1729 131.192 14.7329 122.67C12.2443 113.992 3.86277 100.27 3.29783 99.3325L3.3027 99.2354L3.37088 99.2451C3.44881 98.5847 5.2118 96.72 8.27025 96.0888C12.1615 95.3021 20.056 96.1616 28.7102 111.161H28.7249L29.4115 112.735C29.8596 113.755 30.3174 114.774 30.6875 115.823C31.7541 118.863 32.9034 121.864 33.8093 124.952C34.8953 128.643 35.8255 132.367 36.5366 136.14C38.3841 146.208 38.565 156.509 37.0723 166.635C36.5707 169.942 35.9424 173.225 35.3677 176.517C35.3288 176.663 35.2898 176.804 35.2362 176.939ZM26.0122 179.222C23.8693 178.377 21.668 177.925 19.3547 178.119L18.629 178.183C18.5511 177.993 18.4829 177.833 18.4245 177.668C18.2248 177.134 18.0349 176.6 17.8303 176.07C17.79 175.929 17.7157 175.799 17.6139 175.692C17.512 175.586 17.3858 175.506 17.2459 175.458C15.8677 173.307 10.8612 160.891 10.4277 153.243C10.3303 151.543 10.1842 149.683 10.0089 147.819C10.004 147.605 9.99915 147.43 9.98454 147.26L9.76052 145.269C9.16149 139.53 8.37739 134.314 8.37739 134.314C8.26051 133.465 8.14363 132.615 8.01213 131.77C7.54947 128.589 6.92609 125.428 6.36602 122.262C6.31732 121.971 6.21992 121.694 6.14687 121.412C5.85953 120.261 5.56245 119.111 5.28972 117.955C5.04134 116.867 4.7881 115.789 4.48128 114.716C4.03809 113.172 3.70692 111.594 3.36114 110.025C3.23939 109.491 3.26374 108.942 3.41959 108.423C3.46829 108.632 3.51699 108.811 3.54621 108.986C3.98146 111.378 4.63683 113.726 5.50401 115.998C6.36115 118.169 7.34979 120.3 8.38713 122.393C10.6079 126.861 13.1258 131.177 15.6388 135.49C19.1842 141.569 22.6907 147.668 25.8271 153.976C27.6729 157.681 29.3482 161.454 30.8629 165.3C32.2818 168.868 33.5092 172.508 34.5398 176.206C35.2703 178.833 36.0349 181.451 36.4538 184.146C36.5512 184.767 36.6194 185.398 36.6973 186.025C36.5086 185.97 36.3364 185.87 36.1957 185.734C35.6349 185.179 34.9908 184.715 34.2866 184.359C33.2979 183.898 32.4359 183.242 31.6129 182.548C29.9404 181.142 28.0486 180.018 26.0122 179.222ZM24.9748 189.152C24.78 189.176 24.5804 189.186 24.3807 189.186L22.6859 186.2L27.1469 185.248L27.4684 185.175L30.8093 184.466C30.7849 184.452 32.6989 183.981 32.6989 183.981C33.0008 184.189 33.3125 184.369 33.6437 184.529C34.0236 184.709 34.3888 184.918 34.7444 185.141C35.358 185.53 35.8645 186.044 36.4538 186.588L35.9181 186.753C32.2995 187.676 28.6421 188.453 24.9748 189.152ZM24.7849 189.521L26.8352 189.128C26.7719 189.215 26.6891 189.293 26.6063 189.361L26.5138 189.434C25.633 190.031 24.6656 190.489 23.6453 190.793L24.7849 189.521ZM31.1064 194.508L30.3564 193.566L30.371 193.542L29.6891 192.731L27.1762 189.589L27.6047 188.977L33.3758 187.763C33.2979 188.365 33.2444 188.919 33.1469 189.448C32.8467 190.88 32.338 192.261 31.6372 193.547C31.4716 193.877 31.306 194.202 31.1161 194.518V194.513L31.1064 194.508ZM22.6274 191.779L26.6891 189.919L27.2979 190.604L28.3206 191.818L30.8141 194.931L30.8239 194.921C30.7021 195.091 30.5706 195.261 30.4294 195.411C29.5869 196.31 28.569 196.917 27.5268 197.562C25.7589 195.756 24.1177 193.823 22.6274 191.784V191.779ZM22.8807 189.04C22.905 188.642 22.9294 188.239 22.5446 187.846C20.9326 188.38 19.2816 188.866 17.9667 190.264L18.0398 188.642C18.668 188.526 19.2622 188.773 19.8222 188.487L19.7735 187.982L19.53 185.86C19.5105 185.598 19.4667 185.316 19.7346 185.083C20.203 185.08 20.666 185.182 21.0893 185.382C21.5126 185.582 21.8852 185.875 22.1794 186.239C22.8125 187.054 23.2362 188.021 23.7719 188.972L22.7248 191.036C22.7784 190.371 22.8515 189.706 22.8807 189.036V189.04ZM18.254 190.764C19.8076 189.473 21.1274 189.133 22.4716 188.671L22.3498 189.866L19.6079 191.599C19.1696 191.284 18.6729 191.09 18.254 190.764ZM17.3531 190.628L5.3092 192.993C5.57706 191.959 5.73291 191.012 6.06407 190.133C6.75077 188.307 7.52999 186.515 8.27512 184.704C8.3433 184.544 8.43096 184.398 8.52837 184.209C8.67934 184.354 8.77188 184.452 8.88876 184.549C9.32707 184.908 9.73129 185.316 10.2037 185.617C11.5479 186.442 12.9358 187.19 14.2703 188.025C14.7864 188.375 15.3999 188.554 16.0235 188.535C16.4862 188.516 16.9537 188.564 17.4505 188.584L17.3531 190.628ZM5.95693 193.216C6.15174 193.168 6.23453 193.144 6.31732 193.129L12.0836 191.983C13.754 191.653 15.4245 191.328 17.0998 191.007C17.3433 190.949 17.5917 190.895 17.8401 191.056C18.1907 191.284 18.5511 191.502 18.9992 191.784C18.7898 191.847 18.7021 191.881 18.6144 191.9L9.42447 193.843C9.24612 193.876 9.06376 193.88 8.88389 193.857C8.35633 193.806 7.83018 193.741 7.30596 193.663C6.83469 193.589 6.37889 193.438 5.95693 193.216Z" fill="black"/>
</svg>
