<svg width="79" height="69" viewBox="0 0 79 69" fill="none" xmlns="http://www.w3.org/2000/svg">
<mask id="mask0_1054_76" style="mask-type:alpha" maskUnits="userSpaceOnUse" x="0" y="0" width="79" height="69">
<rect width="79" height="69" fill="#D9D9D9"/>
</mask>
<g mask="url(#mask0_1054_76)">
<path fill-rule="evenodd" clip-rule="evenodd" d="M76.2967 18.1853C76.7715 18.6845 76.7036 19.4576 76.2356 19.9663L58.1858 39.5815C58.0956 39.6794 57.9859 39.7574 57.8639 39.8104C57.7418 39.8634 57.61 39.8903 57.4769 39.8894L23.3919 39.8033C23.1528 39.8033 22.9224 39.7135 22.7463 39.5518L2.43408 20.8606C1.8327 20.3072 1.62796 19.413 2.1057 18.7472C2.29347 18.4845 2.49991 18.2357 2.72341 18.0026L17.7294 2.40579C18.9938 1.09376 20.7413 0.350855 22.5632 0.356217L56.5509 0.440936C57.453 0.443539 58.3453 0.628754 59.1739 0.985422C60.0025 1.34209 60.7503 1.86283 61.3723 2.51625L76.2967 18.1853ZM58.6964 19.6141C58.6772 25.9799 50.1124 31.1197 39.557 31.0908C29.0044 31.0645 20.4593 25.8845 20.4759 19.5216C20.4926 13.1586 29.0602 8.02141 39.6154 8.04489C50.1679 8.07117 58.7131 13.2512 58.6964 19.6141Z" fill="white"/>
<path d="M61.0102 2.86123L75.934 18.5302C76.1916 18.8011 76.1949 19.2721 75.8676 19.6277L57.8178 39.243L57.7471 39.3054C57.7215 39.3236 57.6938 39.339 57.6647 39.3516C57.6357 39.3642 57.6055 39.374 57.5747 39.3803L57.4804 39.389L57.4783 39.3898L23.393 39.3032L23.3917 39.3033C23.2779 39.3032 23.1678 39.2604 23.084 39.1834L2.77236 20.4928C2.33632 20.0915 2.23034 19.5248 2.46088 19.1179L2.51221 19.0391L2.51215 19.0377L2.64567 18.858C2.7823 18.6807 2.92844 18.5108 3.08343 18.3491L18.0893 2.75279C19.1864 1.61438 20.6764 0.93977 22.2467 0.863919L22.5616 0.856363L56.5493 0.940756C57.2796 0.942862 58.0029 1.07495 58.6859 1.32884L58.9761 1.44463C59.6469 1.73337 60.2605 2.13855 60.7889 2.64028L61.0102 2.86123ZM59.1964 19.615C59.2051 16.1903 56.9122 13.1685 53.3788 11.0262C49.9463 8.94511 45.2715 7.64174 40.1174 7.55014L39.6167 7.54468C34.2638 7.53278 29.3903 8.82846 25.8365 10.9593C22.4032 13.0181 20.1306 15.9081 19.9838 19.2004L19.9763 19.52C19.9674 22.9449 22.2602 25.9677 25.794 28.1101C29.2265 30.1912 33.9011 31.4946 39.0554 31.5862L39.5553 31.591C44.9084 31.6056 49.7815 30.311 53.3349 28.1798C56.768 26.1207 59.0408 23.2292 59.189 19.936L59.1971 19.6156L59.1964 19.615Z" stroke="black" stroke-opacity="0.7"/>
<path d="M78.0935 31.3134C78.0958 30.9274 77.9812 30.5498 77.7646 30.2303C77.5481 29.9108 77.2398 29.6645 76.8804 29.5237C76.521 29.3829 76.1274 29.3544 75.7515 29.4418C75.3755 29.5293 75.0349 29.7286 74.7745 30.0135L62.3983 43.4631C62.1629 43.7189 62.0171 44.0466 62.0099 44.3928L61.9748 60.262C61.9736 60.6468 62.0887 61.023 62.3049 61.3413C62.5212 61.6595 62.8286 61.905 63.1868 62.0456C63.545 62.1861 63.9373 62.2152 64.3124 62.1289C64.6874 62.0427 65.0276 61.8451 65.2883 61.5621L76.2827 49.6537C77.4189 48.4225 78.0512 46.8094 78.0544 45.1341L78.0935 31.3134ZM55.5792 68.8874C55.6655 68.886 55.7506 68.8675 55.8298 68.833C55.9089 68.7985 55.9804 68.7487 56.0401 68.6864C56.0999 68.6241 56.1467 68.5506 56.1778 68.4701C56.209 68.3896 56.2238 68.3037 56.2216 68.2174L56.2753 47.5285C56.2757 47.2775 56.2266 47.0289 56.1308 46.7969C56.0351 46.5648 55.8945 46.354 55.7172 46.1764C55.5398 45.9987 55.3292 45.8578 55.0974 45.7616C54.8655 45.6655 54.617 45.6159 54.366 45.6159L26.6655 45.5456C26.4145 45.5448 26.1658 45.5935 25.9336 45.6889C25.7014 45.7844 25.4904 45.9247 25.3125 46.1018C25.1346 46.2788 24.9933 46.4893 24.8968 46.721C24.8003 46.9527 24.7505 47.2012 24.7501 47.4522L24.7045 66.903C24.7036 67.409 24.9036 67.8947 25.2606 68.2533C25.6175 68.612 26.1023 68.8143 26.6083 68.8158L55.5792 68.8874ZM18.2716 66.6352C18.532 66.9163 18.9724 66.7196 18.9725 66.3304L19.0285 44.1386C19.0278 44.0694 19.0127 44.001 18.984 43.938C18.9553 43.8749 18.9137 43.8186 18.862 43.7726L4.06622 30.1576C3.79362 29.9062 3.45371 29.7396 3.08799 29.6782C2.72228 29.6168 2.3466 29.6632 2.00682 29.8117C1.66703 29.9603 1.37786 30.2046 1.17461 30.5147C0.971349 30.8249 0.862814 31.1875 0.862242 31.5584L0.832171 44.9463C0.827612 46.6214 1.4523 48.2372 2.58252 49.4736L18.2716 66.6352Z" fill="white"/>
<path d="M3.72709 30.5255L18.5277 44.1449L18.4731 66.1127L2.95176 49.136C1.97143 48.0636 1.40217 46.6828 1.33835 45.2374L1.33182 44.9474L1.36217 31.5596C1.36249 31.3544 1.40731 31.152 1.49306 30.9674L1.59275 30.7884C1.70529 30.6167 1.85357 30.4723 2.02645 30.3647L2.20702 30.2694C2.39515 30.1872 2.59838 30.1477 2.80204 30.1521L3.00465 30.1713C3.20699 30.2053 3.39894 30.2832 3.56698 30.3981L3.72709 30.5255ZM55.3631 46.5299C55.494 46.661 55.5983 46.8166 55.669 46.9878C55.7218 47.116 55.7552 47.2512 55.7686 47.3887L55.775 47.5273L55.7219 68.2158L55.7215 68.2234L55.7218 68.2303L55.7111 68.2895L55.6793 68.3399C55.6655 68.3543 55.6487 68.3663 55.6303 68.3744C55.6133 68.3818 55.5947 68.3847 55.5762 68.3856L26.6101 68.3158C26.2366 68.3147 25.8784 68.165 25.6149 67.9003L25.5214 67.797C25.3459 67.5818 25.2378 67.3192 25.2109 67.0428L25.2044 66.9041L25.2503 47.4538L25.2502 47.4525L25.2576 47.3146C25.2668 47.2227 25.285 47.1319 25.312 47.0435L25.3584 46.9137C25.4119 46.7853 25.4843 46.6655 25.5724 46.5586L25.6656 46.4559C25.7969 46.3253 25.9524 46.2218 26.1236 46.1514C26.2523 46.0985 26.3879 46.0649 26.5259 46.0517L26.6639 46.046L26.6645 46.0453L54.3652 46.1159L54.3666 46.1158C54.5053 46.1159 54.6432 46.1361 54.7755 46.1763L54.906 46.2234C55.0771 46.2943 55.2322 46.3988 55.3631 46.5299ZM75.144 30.3508C75.312 30.167 75.525 30.0311 75.7614 29.9568L75.8645 29.9283C76.1073 29.8719 76.3604 29.8811 76.5975 29.9539L76.6978 29.9891C76.93 30.08 77.1339 30.2305 77.2882 30.4248L77.3512 30.5107C77.4911 30.7171 77.573 30.9567 77.5901 31.2043L77.5932 31.3106L77.5932 31.312L77.5546 45.1328C77.5518 46.5859 77.0374 47.9889 76.107 49.0971L75.9149 49.3145L64.9211 61.2228L64.9205 61.2235C64.7519 61.4063 64.5385 61.5407 64.3023 61.6141L64.2004 61.6411C63.9581 61.6969 63.7059 61.6877 63.4695 61.6148L63.3699 61.5803C63.1385 61.4895 62.935 61.3394 62.781 61.1458L62.7187 61.0607C62.579 60.8551 62.4963 60.6164 62.4785 60.3698L62.4755 60.2635L62.4747 60.2629L62.5095 44.4028L62.5102 44.4034C62.5146 44.1924 62.604 43.9784 62.7665 43.8019L75.144 30.3508Z" stroke="black" stroke-opacity="0.7"/>
</g>
</svg>
