<svg width="52" height="14" viewBox="0 0 52 14" fill="none" xmlns="http://www.w3.org/2000/svg">
<g clip-path="url(#clip0_526_11)">
<path d="M38.3497 10.7871C39.2912 10.7871 40.0544 10.0622 40.0544 9.16796C40.0544 8.27374 39.2912 7.54883 38.3497 7.54883C37.4082 7.54883 36.645 8.27374 36.645 9.16796C36.645 10.0622 37.4082 10.7871 38.3497 10.7871Z" fill="#FB521E"/>
<path d="M13.5351 0H15.791V13.8174H13.5351V0ZM24.0069 9.55652C24.0069 11.6991 22.1612 11.8696 21.5972 11.8696C20.1873 11.8696 19.9823 10.6157 19.9823 9.86087V4.51652H17.7136V9.8487C17.7008 11.1757 18.0981 12.2713 18.8671 13.0017C19.5656 13.5931 20.4554 13.9407 21.3897 13.9871C22.3241 14.0336 23.2473 13.7762 24.0069 13.2574V13.8174H26.2756V4.51652H24.0069V9.55652ZM31.1718 1.38783H28.9031V4.51652H27.3266V6.54956H28.9031V13.8174H31.1718V6.54956H33.0303V4.51652H31.1718V1.38783ZM40.3747 11.1757C39.862 11.6139 39.1826 11.8574 38.4392 11.8574C38.0616 11.8676 37.6857 11.8042 37.3348 11.6712C36.9839 11.5382 36.6653 11.3384 36.3988 11.0841C36.1322 10.8298 35.9233 10.5263 35.7849 10.1924C35.6464 9.85854 35.5814 9.50127 35.5938 9.14261C35.5938 7.57217 36.7602 6.47652 38.4392 6.47652C39.1698 6.47652 39.862 6.70783 40.3875 7.14609L40.7464 7.43826L42.3357 5.9287L41.9384 5.58783C40.9759 4.77246 39.7289 4.3256 38.4392 4.33391C35.4912 4.33391 33.3507 6.35478 33.3507 9.13043C33.3351 9.77032 33.4558 10.4066 33.7057 11.0011C33.9555 11.5955 34.3293 12.1358 34.8046 12.5896C35.2799 13.0433 35.8469 13.4011 36.4715 13.6413C37.0961 13.8816 37.7655 13.9995 38.4392 13.9878C39.7851 13.9878 41.0412 13.5374 41.964 12.7217L42.3485 12.3809L40.7335 10.8713L40.3747 11.1757ZM50.8464 5.33217C50.148 4.74083 49.2582 4.39326 48.3238 4.34678C47.3895 4.30031 46.4663 4.5577 45.7067 5.07652V0H43.438V13.8174H45.7067V8.78956C45.7067 6.64696 47.5524 6.47652 48.1163 6.47652C49.5262 6.47652 49.7313 7.73043 49.7313 8.48522V13.8296H52V8.48522C52.0684 7.33082 51.6538 6.19751 50.8464 5.33217ZM10.1898 10.5061C9.74843 10.9367 9.22013 11.2784 8.6365 11.5106C8.05288 11.7427 7.42594 11.8607 6.7932 11.8574C4.16564 11.8574 2.25585 9.89739 2.25585 7.20696C2.25585 4.50435 4.16564 2.54435 6.7932 2.54435C8.06211 2.54435 9.26694 3.01913 10.177 3.88348L10.5359 4.22435L12.1124 2.72696L11.7663 2.38609C11.116 1.75784 10.3397 1.25966 9.48341 0.920937C8.62707 0.582218 7.70799 0.40982 6.78038 0.413913C2.92236 0.413913 0 3.33565 0 7.21913C0 11.0783 2.92236 14 6.78038 14C8.69016 14 10.459 13.2939 11.7663 12.0157L12.1124 11.6748L10.5487 10.153L10.1898 10.5061Z" fill="white"/>
</g>
<defs>
<clipPath id="clip0_526_11">
<rect width="52" height="14" fill="white"/>
</clipPath>
</defs>
</svg>
