<svg width="45" height="16" viewBox="0 0 45 16" fill="none" xmlns="http://www.w3.org/2000/svg">
<g clip-path="url(#clip0_795_70)">
<path d="M5.54217 0.000976562H5.94233C7.3316 0.0338756 8.69821 0.642508 9.67975 1.71995C9.31734 2.12297 8.94737 2.50953 8.5925 2.91254C8.04133 2.36971 7.3769 1.95025 6.65207 1.8022C5.57992 1.55546 4.42472 1.77753 3.52623 2.44373C2.54468 3.14284 1.88025 4.3272 1.7368 5.59382C1.57824 6.84398 1.9029 8.15995 2.65039 9.13047C3.36767 10.0763 4.46247 10.6685 5.59502 10.7096C6.65207 10.7754 7.75442 10.4218 8.52455 9.61573C9.12858 9.04822 9.40794 8.18462 9.49854 7.3457C8.24519 7.3457 6.99183 7.35392 5.73848 7.3457V5.65139H11.0162C11.288 7.46907 10.8954 9.51703 9.6269 10.8165C8.78126 11.7377 7.61096 12.2806 6.41801 12.3875C5.2628 12.5108 4.06985 12.2723 3.04301 11.6637C1.8123 10.9481 0.830757 9.7391 0.347535 8.31622C-0.105485 7.00848 -0.113035 5.52802 0.309784 4.21206C0.694851 3.01124 1.43478 1.95025 2.38613 1.21002C3.29972 0.478013 4.40962 0.0749995 5.54217 0.000976562Z" fill="#3780FF"/>
<path d="M35.8184 0.429688H37.4341V12.1747C36.8981 12.1747 36.3544 12.1829 35.8184 12.1664C35.8259 8.25967 35.8184 4.34468 35.8184 0.429688Z" fill="#38B137"/>
<path d="M14.6104 4.50069C15.607 4.29508 16.6867 4.52537 17.5097 5.17513C18.2572 5.75086 18.7782 6.65558 18.9367 7.64255C19.1406 8.7858 18.8839 10.036 18.2044 10.9407C17.472 11.9523 16.2715 12.4952 15.1012 12.4129C14.029 12.3471 12.9871 11.7632 12.3529 10.8091C11.6356 9.75632 11.4619 8.30876 11.8545 7.07505C12.2471 5.75086 13.357 4.73921 14.6104 4.50069ZM14.8369 6.0634C14.4292 6.17855 14.0517 6.43351 13.7799 6.7954C13.0475 7.74948 13.0928 9.30396 13.9007 10.1922C14.3612 10.7022 15.0559 10.9407 15.6976 10.8009C16.2941 10.6857 16.8151 10.2498 17.102 9.67407C17.6003 8.69532 17.4569 7.34646 16.6943 6.58156C16.2035 6.08807 15.4862 5.88245 14.8369 6.0634Z" fill="#FA3913"/>
<path d="M22.6134 4.50032C23.7535 4.2618 24.9993 4.60724 25.8525 5.47907C27.2418 6.83616 27.3928 9.37761 26.2074 10.9403C25.4901 11.9273 24.3273 12.4701 23.1797 12.4125C22.0849 12.3796 21.0052 11.7875 20.3558 10.8087C19.6235 9.73127 19.4649 8.25082 19.8802 6.99243C20.2954 5.70936 21.3827 4.73062 22.6134 4.50032ZM22.8399 6.06303C22.4322 6.17817 22.0547 6.43314 21.7829 6.78681C21.058 7.72443 21.0882 9.25424 21.8659 10.1507C22.3265 10.6853 23.0438 10.9485 23.7082 10.8005C24.2971 10.6771 24.8256 10.2494 25.1126 9.6737C25.6033 8.68673 25.4599 7.33787 24.6897 6.57296C24.199 6.07948 23.4817 5.88208 22.8399 6.06303Z" fill="#FCBD06"/>
<path d="M29.4011 4.97762C30.2693 4.38543 31.4245 4.22094 32.3608 4.73087C32.6552 4.87069 32.8969 5.10921 33.1309 5.34773C33.1385 5.12566 33.1309 4.89537 33.1385 4.66507C33.6443 4.6733 34.1502 4.66507 34.6636 4.6733V11.9275C34.6561 13.0214 34.3994 14.1811 33.6745 14.9789C32.8818 15.859 31.6662 16.1304 30.5714 15.9495C29.4011 15.7603 28.3818 14.8309 27.9287 13.6547C28.3818 13.4162 28.8574 13.2271 29.3256 13.005C29.5898 13.6794 30.1259 14.2552 30.7979 14.3868C31.4698 14.5183 32.2475 14.3374 32.6854 13.7288C33.1536 13.1037 33.1536 12.2483 33.1309 11.4834C32.7836 11.8535 32.3834 12.1825 31.9002 12.3059C30.8507 12.6267 29.6955 12.2319 28.8876 11.4587C28.0722 10.6856 27.589 9.49301 27.6343 8.30865C27.6569 6.96801 28.3516 5.67672 29.4011 4.97762ZM30.964 6.03039C30.5034 6.11263 30.073 6.39228 29.7786 6.77884C29.0688 7.70001 29.0688 9.17225 29.7861 10.077C30.1938 10.6116 30.8507 10.9077 31.4849 10.8337C32.0814 10.7679 32.6326 10.3566 32.9271 9.7891C33.4254 8.82681 33.3423 7.51907 32.6704 6.68014C32.2551 6.16198 31.5907 5.90701 30.964 6.03039Z" fill="#3780FF"/>
<path d="M39.3748 5.39733C40.2808 4.47616 41.6776 4.16361 42.8404 4.64888C43.9427 5.10124 44.6449 6.24448 44.9998 7.42062C43.3613 8.16085 41.7305 8.89286 40.092 9.63308C40.3186 10.1019 40.6659 10.5296 41.134 10.7023C41.7909 10.9573 42.5761 10.8668 43.1273 10.3898C43.3462 10.2088 43.5199 9.9703 43.686 9.74001C44.1013 10.0443 44.5165 10.3404 44.9318 10.6447C44.3429 11.607 43.3538 12.2815 42.2892 12.3884C41.1113 12.5447 39.858 12.0512 39.0954 11.0477C37.842 9.46859 37.9629 6.82021 39.3748 5.39733ZM40.1827 6.91891C39.9259 7.32192 39.8202 7.81541 39.8278 8.30067C40.9226 7.80719 42.0174 7.3137 43.1122 6.81199C42.931 6.3514 42.4931 6.07176 42.0476 5.99774C41.3303 5.85792 40.5828 6.27738 40.1827 6.91891Z" fill="#FA3913"/>
</g>
<defs>
<clipPath id="clip0_795_70">
<rect width="45" height="16" fill="white"/>
</clipPath>
</defs>
</svg>
