<svg data-v-18844e5f="" xmlns="http://www.w3.org/2000/svg" aria-hidden="true" aria-labelledby="icon-laptop-light" focusable="false" viewBox="0 0 24 24" class="h-icon--default h-icon" width="24" height="24"><!----><g data-v-18844e5f=""><rect width="24" height="24" fill="white"></rect><path d="M1.75 21C1.5375 21 1.35938 20.9277 1.21563 20.7831C1.07188 20.6385 1 20.4594 1 20.2456C1 20.0319 1.07188 19.8542 1.21563 19.7125C1.35938 19.5708 1.5375 19.5 1.75 19.5H22.25C22.4625 19.5 22.6406 19.5723 22.7844 19.7169C22.9281 19.8615 23 20.0406 23 20.2544C23 20.4681 22.9281 20.6458 22.7844 20.7875C22.6406 20.9292 22.4625 21 22.25 21H1.75ZM3.5 18C3.1 18 2.75 17.85 2.45 17.55C2.15 17.25 2 16.9 2 16.5V4.5C2 4.1 2.15 3.75 2.45 3.45C2.75 3.15 3.1 3 3.5 3H20.5C20.9 3 21.25 3.15 21.55 3.45C21.85 3.75 22 4.1 22 4.5V16.5C22 16.9 21.85 17.25 21.55 17.55C21.25 17.85 20.9 18 20.5 18H3.5ZM3.5 16.5H20.5V4.5H3.5V16.5Z"></path></g></svg>