<?xml version="1.0" encoding="UTF-8"?>
<svg xmlns="http://www.w3.org/2000/svg" width="40" height="40" viewBox="0 0 40 40">
  <g>
    <path d="M26.7321 7.92844H28.5894C29.1022 7.92844 29.5178 7.51293 29.5178 7.0001C29.5178 6.48727 29.1023 6.07141 28.5894 6.07141H26.7321C26.2193 6.07141 25.8037 6.48727 25.8037 7.0001C25.8037 7.51293 26.2192 7.92844 26.7321 7.92844Z"></path>
    <path d="M35.0892 20C35.0694 19.1337 34.7401 18.3031 34.1608 17.6587V9.32775C34.7358 8.68609 35.0647 7.86137 35.0892 7.00012C35.0892 3.29485 28.7016 0.5 20.2323 0.5C11.7626 0.5 5.375 3.29485 5.375 7.00012C5.39955 7.86141 5.72859 8.68612 6.30369 9.32775V17.6588C5.06552 18.9686 5.06552 21.0177 6.30369 22.3276V30.6587C5.72427 31.303 5.39481 32.1336 5.375 32.9999C5.375 36.7051 11.7626 39.5 20.2323 39.5C28.7016 39.5 35.0892 36.7051 35.0892 32.9999C35.0693 32.1336 34.74 31.3031 34.1608 30.6587V22.328C34.7358 21.6862 35.0648 20.8614 35.0892 20ZM7.23203 20C7.2745 19.4819 7.5149 19 7.9033 18.6544C8.06849 18.4815 8.16068 18.2515 8.16071 18.0124V10.8733C10.8118 12.4848 15.1393 13.4999 20.2323 13.4999C25.3252 13.4999 29.6523 12.4848 32.3035 10.8733V18.0124C32.3035 18.2514 32.396 18.4814 32.5612 18.6544C32.9495 19 33.1898 19.4819 33.2321 20C33.2321 22.1961 27.893 24.6427 20.2323 24.6427C12.5715 24.6427 7.23203 22.1964 7.23203 20ZM20.2323 2.35703C27.893 2.35703 33.2321 4.8041 33.2321 7.00012C33.2321 9.19622 27.893 11.6429 20.2323 11.6429C12.5715 11.6429 7.23203 9.19622 7.23203 7.00012C7.23203 4.80402 12.5715 2.35703 20.2323 2.35703ZM20.2323 37.643C12.5715 37.643 7.23203 35.1962 7.23203 32.9999C7.27465 32.4818 7.51502 32 7.9033 31.6543C8.06854 31.4814 8.16074 31.2514 8.16071 31.0123V23.8735C10.8118 25.4851 15.1393 26.5001 20.2323 26.5001C25.3252 26.5001 29.6523 25.4851 32.3035 23.8735V31.0123C32.3035 31.2513 32.396 31.4815 32.5612 31.6543C32.9494 32 33.1896 32.4818 33.2321 32.9999C33.2321 35.1962 27.893 37.643 20.2323 37.643Z"></path>
  </g>
</svg>
