<svg xmlns="http://www.w3.org/2000/svg" width="126" height="82" viewBox="0 0 126 82"><g><path d="M75.118 48.2998V51.2496L111.445 61.7852V60.127L75.118 48.2998ZM75.118 48.2998V51.2496L111.445 61.7852V60.127L75.118 48.2998ZM75.118 48.2998V51.2496L111.445 61.7852V60.127L75.118 48.2998ZM75.118 48.2998V51.2496L111.445 61.7852V60.127L75.118 48.2998ZM75.118 48.2998V51.2496L111.445 61.7852V60.127L75.118 48.2998ZM75.118 48.2998V51.2496L111.445 61.7852V60.127L75.118 48.2998ZM75.118 48.2998V51.2496L111.445 61.7852V60.127L75.118 48.2998ZM75.118 48.2998V51.2496L111.445 61.7852V60.127L75.118 48.2998ZM75.118 48.2998V51.2496L111.445 61.7852V60.127L75.118 48.2998ZM75.118 48.2998V51.2496L111.445 61.7852V60.127L75.118 48.2998ZM75.118 48.2998V51.2496L111.445 61.7852V60.127L75.118 48.2998ZM75.118 48.2998V51.2496L111.445 61.7852V60.127L75.118 48.2998ZM75.118 48.2998V51.2496L111.445 61.7852V60.127L75.118 48.2998ZM75.118 48.2998V51.2496L111.445 61.7852V60.127L75.118 48.2998ZM75.118 48.2998V51.2496L111.445 61.7852V60.127L75.118 48.2998ZM75.118 48.2998V51.2496L111.445 61.7852V60.127L75.118 48.2998ZM36.1885 59.5835V82.0007H125.9L118.22 80.0014V57.6258L69.984 41.135V33.0878L60.3411 36.5269L47.1665 32.0274L45.5239 19.9551H42.255L41.9071 22.484L40.0561 35.9418L32.2096 39.0281L30.5125 26.5891H27.2567L27.0331 28.193L27.032 28.2026L25.1549 41.8149L17.1132 44.9833L15.5 33.2242H12.2443L10.2537 47.6742L9.32226 48.0408V79.0913L0 82.0007H15.3331V64.7213C15.3331 61.5806 17.9486 59.0261 21.1619 59.0261C21.7192 59.0666 22.2198 59.3522 22.5536 59.787C22.8732 60.2218 22.9986 60.7792 22.8732 61.3099C22.679 62.8861 21.7607 63.9199 20.1464 64.4229V82.0007H31.0404V59.8957C31.0404 56.5377 33.8369 53.8052 37.2596 53.8052C37.8584 53.8596 38.4016 54.1452 38.7626 54.6215C39.1105 55.083 39.2359 55.6809 39.0963 56.2521C38.888 57.938 37.914 59.0389 36.1885 59.5835ZM13.8716 37.3975C13.4124 37.6959 12.9947 38.0636 12.6195 38.4707C13.0372 38.281 13.4549 38.1041 13.8716 37.9411V39.6398C13.3295 39.9531 12.8289 40.3602 12.397 40.8494C12.8845 40.6192 13.371 40.4146 13.8716 40.2377V42.644C13.0928 42.9979 12.397 43.5147 11.8265 44.1531C12.4809 43.827 13.1757 43.5691 13.8716 43.3655V46.2472L11.1863 47.3076L13.0088 34.08H13.8716V37.3975ZM27.8948 28.323L27.8959 28.3156L28.0213 27.4459H28.8841V32.1766C28.4663 32.4622 28.0911 32.7884 27.7574 33.1688C28.1326 32.993 28.4947 32.8288 28.8841 32.6797V34.4061C28.3834 34.7194 27.9242 35.0999 27.5349 35.5347C27.9799 35.3311 28.4249 35.1404 28.8841 34.9773V37.3975C28.1467 37.7503 27.5065 38.2405 26.9644 38.8384C27.5905 38.5389 28.2296 38.2949 28.8841 38.0903V40.3474L26.0875 41.4345L27.8948 28.323ZM20.7867 66.1216V64.9664C20.9121 64.9802 21.0233 64.993 21.1488 64.993C22.6507 64.993 23.8755 63.3891 23.8755 61.4048C23.8755 59.4332 22.6507 57.8293 21.1488 57.8293C20.4115 57.8293 19.7429 58.2098 19.2422 58.8492C18.7972 58.9718 18.3653 59.1476 17.9628 59.3789C18.5322 57.5842 19.8966 56.3341 21.4684 56.3341C23.569 56.3341 25.2804 58.5359 25.2804 61.2684C25.2804 63.9881 23.569 66.2037 21.4684 66.2037C21.2458 66.2037 21.0092 66.176 20.7867 66.1216ZM28.9397 79.8384H22.3867V78.3837H28.9397V79.8384ZM59.2842 40.8366L66.3531 38.5656V41.7478L59.2842 44.0039V40.8366ZM59.2842 48.4628L66.3531 46.1928V49.3601L59.2842 51.6301V48.4628ZM59.2842 56.089L66.3531 53.8191V56.9864L59.2842 59.2563V56.089ZM47.305 34.2697L57.2249 37.6554L47.305 41.2032V34.2697ZM47.5831 55.3825V52.2152L54.6509 49.9441V53.1253L47.5831 55.3825ZM54.6509 57.5714V60.7515L47.5831 63.0087V59.8414L54.6509 57.5714ZM47.5831 47.7562V44.5879L54.6509 42.3179V45.4991L47.5831 47.7562ZM69.984 78.3837V43.4327L73.2114 44.5335L116.007 59.1476V79.8384H111.445V64.5721L98.0326 61.0648V79.8384H92.843V59.6645L75.118 55.0286V79.8384H38.4419V78.3837H69.984ZM42.8669 21.9394V21.9352L43.0196 20.8108H43.8823V26.9557C43.5213 27.2136 43.2007 27.5269 42.8942 27.8531C43.229 27.7028 43.5486 27.5536 43.8823 27.4172V29.1713C43.4373 29.4708 43.0338 29.8235 42.6717 30.2317C43.0752 30.041 43.4788 29.864 43.8823 29.7148V32.1489C43.2148 32.4878 42.6029 32.9642 42.1012 33.5354C42.6858 33.2498 43.2705 33.0185 43.8823 32.815V34.3102L43.4515 34.5958L40.9887 35.5741L42.8669 21.9394ZM37.2596 52.5274C36.4666 52.5274 35.7435 52.9356 35.2287 53.6155C34.7411 53.7509 34.282 53.9416 33.8511 54.1857C34.463 52.2695 35.9104 50.9235 37.6075 50.9235C39.8478 50.9235 41.6704 53.2883 41.6704 56.1977C41.6704 59.121 39.8478 61.473 37.6075 61.473C37.3577 61.473 37.1069 61.4453 36.8702 61.3909V60.1536C36.9956 60.1814 37.1341 60.1952 37.2596 60.1952C38.8738 60.1952 40.1816 58.4688 40.1816 56.3618C40.1816 54.24 38.8738 52.5274 37.2596 52.5274ZM111.445 60.127L75.118 48.2998V51.2496L111.445 61.7852V60.127ZM75.118 48.2998V51.2496L111.445 61.7852V60.127L75.118 48.2998ZM75.118 48.2998V51.2496L111.445 61.7852V60.127L75.118 48.2998ZM75.118 48.2998V51.2496L111.445 61.7852V60.127L75.118 48.2998ZM75.118 48.2998V51.2496L111.445 61.7852V60.127L75.118 48.2998ZM75.118 48.2998V51.2496L111.445 61.7852V60.127L75.118 48.2998ZM75.118 48.2998V51.2496L111.445 61.7852V60.127L75.118 48.2998ZM75.118 48.2998V51.2496L111.445 61.7852V60.127L75.118 48.2998ZM75.118 48.2998V51.2496L111.445 61.7852V60.127L75.118 48.2998ZM75.118 48.2998V51.2496L111.445 61.7852V60.127L75.118 48.2998ZM75.118 48.2998V51.2496L111.445 61.7852V60.127L75.118 48.2998ZM75.118 48.2998V51.2496L111.445 61.7852V60.127L75.118 48.2998ZM75.118 48.2998V51.2496L111.445 61.7852V60.127L75.118 48.2998ZM75.118 48.2998V51.2496L111.445 61.7852V60.127L75.118 48.2998ZM75.118 48.2998V51.2496L111.445 61.7852V60.127L75.118 48.2998ZM75.118 48.2998V51.2496L111.445 61.7852V60.127L75.118 48.2998ZM75.118 48.2998V51.2496L111.445 61.7852V60.127L75.118 48.2998Z"></path><path d="M28.9116 24.8896C29.2181 24.2097 29.0654 23.4211 28.5222 22.8914C27.9802 22.3746 27.1589 22.2382 26.463 22.5376C26.1292 22.0623 25.5588 21.7767 24.9611 21.8172C24.3623 21.8449 23.8202 22.17 23.5421 22.6868C23.4025 22.3469 23.1243 22.0751 22.7764 21.9398C22.4285 21.8033 22.0249 21.8311 21.6912 21.9941C20.968 20.9199 19.7432 20.2677 18.4212 20.2677C17.1004 20.2677 15.8755 20.9199 15.1524 21.9941C14.15 21.246 12.7452 21.3408 11.8552 22.2254C10.9783 23.095 10.9085 24.4815 11.7014 25.447C11.0753 25.95 10.7972 26.7514 10.9783 27.5273C11.1593 28.302 11.7854 28.9138 12.5641 29.0896C13.3571 29.2665 14.1926 28.9948 14.7063 28.383C15.1098 28.7507 15.6945 28.8722 16.2235 28.723C16.7524 28.5599 17.1702 28.1379 17.2945 27.6083C17.4058 27.8672 17.6283 28.0569 17.9075 28.1251C18.1856 28.1923 18.4769 28.1251 18.6863 27.9482C18.7277 28.9138 19.549 29.6885 20.5503 29.6885C21.5526 29.6885 22.3729 28.9138 22.4154 27.9482C22.8179 28.6548 23.5977 29.0768 24.4321 29.0225C25.2523 28.9543 25.9765 28.4374 26.283 27.6903C26.4903 27.9216 26.7477 28.0942 27.0323 28.2019C27.3039 28.3031 27.5984 28.3457 27.8951 28.3223L27.9005 28.3212C28.0194 28.3127 28.1394 28.2914 28.2583 28.2605C28.3423 28.2338 28.4252 28.2061 28.5092 28.1656C28.4208 27.7649 28.4644 27.7266 28.4928 27.4452C28.5004 27.3738 28.5059 27.2864 28.5092 27.1735C28.5146 26.9688 28.5462 26.7738 28.5844 26.5884C28.6433 26.2911 28.7175 26.0214 28.7175 25.787L29.5661 25.7326C29.4275 25.4065 29.2039 25.122 28.9116 24.8896ZM22.9575 19.8467C22.8877 19.5611 22.5681 19.3853 22.2758 19.4662C21.9835 19.5472 21.8024 19.8467 21.8864 20.1323C21.9551 20.4318 22.2616 20.5948 22.5681 20.5266C22.8604 20.4446 23.0404 20.1462 22.9575 19.8467ZM14.3725 19.8872C14.2613 19.6826 13.9973 19.6144 13.7879 19.7369C13.5796 19.8456 13.5109 20.1046 13.6352 20.3082C13.7465 20.5117 14.0115 20.5799 14.2198 20.4712C14.4292 20.3497 14.498 20.0918 14.3725 19.8872ZM18.8673 29.9198C18.5881 29.7578 18.2685 29.7162 17.9631 29.7983C17.7821 29.5127 17.42 29.3635 17.0578 29.4583C16.627 29.567 16.3631 30.0157 16.4874 30.4377C16.5572 30.7223 16.7797 30.9269 17.0448 31.0079C17.072 31.4022 17.2804 31.7688 17.6566 31.9734C18.2402 32.2995 18.9786 32.1088 19.3123 31.5375C19.6461 30.9674 19.4509 30.247 18.8673 29.9198ZM24.7102 30.3013C24.6132 29.9614 24.251 29.7439 23.89 29.8388C23.5421 29.9336 23.3327 30.2875 23.4297 30.6413C23.5137 30.9812 23.89 31.1848 24.238 31.1027C24.599 31.0079 24.8084 30.6541 24.7102 30.3013ZM37.5522 22.7017C37.3995 22.1582 36.8149 21.8321 36.2586 21.9675C35.6882 22.1167 35.3544 22.6879 35.5071 23.2325C35.6609 23.7888 36.2303 24.1159 36.8007 23.9657C37.3581 23.8165 37.6918 23.258 37.5522 22.7017ZM45.1348 9.25675C44.9679 8.63011 44.3146 8.26351 43.6743 8.42656C43.0341 8.60347 42.6589 9.2429 42.8258 9.8674C42.9926 10.493 43.6601 10.8606 44.3004 10.6965C44.9406 10.5207 45.3158 9.88232 45.1348 9.25675ZM33.9627 9.84183C33.8787 9.52851 33.5591 9.3516 33.2526 9.43366C32.9331 9.51465 32.752 9.82904 32.836 10.1413C32.9189 10.4386 33.2395 10.6166 33.5591 10.5345C33.8656 10.4535 34.0467 10.1413 33.9627 9.84183ZM55.9458 15.9579C55.7375 15.6041 55.2642 15.4688 54.8879 15.6862C54.5127 15.8897 54.3872 16.3522 54.6097 16.7199C54.8191 17.0727 55.2914 17.1952 55.6677 16.9906C56.0298 16.7881 56.1542 16.3245 55.9458 15.9579ZM66.3806 17.3732C65.9912 16.7338 65.1427 16.5025 64.4883 16.883C63.8207 17.2506 63.5982 18.0798 63.9734 18.732C64.3628 19.3714 65.1983 19.6027 65.8658 19.2222C66.5333 18.8545 66.7558 18.0254 66.3806 17.3732ZM81.3789 7.055C81.2262 6.47099 80.6001 6.11611 80.0014 6.26637C79.3895 6.43049 79.0415 7.04221 79.1942 7.62622C79.3611 8.21129 79.9741 8.56404 80.586 8.40099C81.1848 8.25072 81.5458 7.63901 81.3789 7.055ZM87.3483 14.5853C87.3483 13.4834 86.43 12.5999 85.3022 12.5999C84.2169 12.5999 83.3269 13.4429 83.2713 14.4894C82.9648 14.4755 82.6594 14.5032 82.3529 14.5853C81.3233 14.8571 80.5576 15.618 80.238 16.543C80.1268 16.4748 80.0014 16.4205 79.8617 16.3789C79.8345 16.1348 79.7647 15.8897 79.6261 15.6585C79.1113 14.775 77.9563 14.4755 77.0521 14.9935C76.1479 15.4954 75.8414 16.624 76.3562 17.5075C76.4958 17.7249 76.6758 17.9156 76.8852 18.0648C76.7598 18.5956 76.8438 19.1796 77.135 19.6964C77.7894 20.7845 79.2084 21.1511 80.322 20.5256C80.683 20.322 80.9612 20.0503 81.1564 19.7231C81.8937 20.3348 82.9233 20.6076 83.9257 20.3348C85.553 19.9138 86.5129 18.2822 86.0809 16.6922C86.0537 16.6101 86.0253 16.5292 85.998 16.4609C86.791 16.1764 87.3483 15.4421 87.3483 14.5853ZM77.3018 7.80312C77.8178 6.66068 77.5527 5.31469 76.6343 4.43122C75.716 3.5616 74.3526 3.31649 73.1844 3.84615C72.614 3.01702 71.6542 2.55451 70.6376 2.60886C69.6222 2.65042 68.718 3.22057 68.2446 4.09019C68.0221 3.50618 67.5488 3.04367 66.9652 2.81347C66.3664 2.59607 65.6989 2.62271 65.1427 2.90832C63.9178 1.08702 61.8444 0 59.6182 0C57.4063 0 55.3329 1.08702 54.1091 2.90832C52.4261 1.64439 50.0462 1.80744 48.5574 3.28878C47.0697 4.78397 46.9573 7.10935 48.2935 8.72709C47.278 9.54343 46.8046 10.8201 47.0271 12.0574C46.2484 12.1118 45.5383 12.5605 45.1631 13.2404C44.9821 12.7768 44.62 12.4113 44.1477 12.2205C43.6743 12.0446 43.1453 12.0713 42.7003 12.3015C41.7405 10.8617 40.0848 9.98996 38.331 9.98996C36.5651 9.98996 34.9225 10.8617 33.9485 12.3015C32.6135 11.2955 30.7211 11.4329 29.5519 12.6009C28.3695 13.785 28.2725 15.6329 29.3294 16.9245C28.495 17.5906 28.1187 18.6776 28.3696 19.7114C28.6204 20.744 29.4406 21.5465 30.4986 21.7916C31.5555 22.0357 32.6549 21.6691 33.3508 20.8399C33.9071 21.3291 34.6727 21.506 35.3817 21.2875C36.0917 21.084 36.648 20.5128 36.8149 19.8201C36.9545 20.16 37.2599 20.4179 37.6362 20.4989C37.9972 20.5948 38.3877 20.4989 38.6789 20.2549C38.7345 21.5604 39.834 22.593 41.1701 22.593C41.4264 22.593 41.674 22.5547 41.9074 22.4843C42.2684 22.3746 42.5945 22.187 42.865 21.9398L42.8672 21.9366C43.1977 21.6382 43.4442 21.2502 43.5696 20.8122C43.6209 20.6343 43.6525 20.4478 43.6601 20.2549C43.8826 20.663 44.2033 20.9891 44.5927 21.2343L44.7029 19.9554L44.8152 18.651L47.1526 18.814L47.2355 21.4922C47.9597 21.2066 48.5443 20.6353 48.8366 19.9149C49.49 20.6353 50.5196 20.9348 51.4794 20.6758C52.4392 20.4179 53.1635 19.657 53.3445 18.6915C53.5387 17.7398 53.1493 16.7615 52.3422 16.1764C52.5919 15.619 52.6203 15.0073 52.4261 14.4638C52.773 14.2603 53.0937 14.0013 53.3576 13.689C54.0535 14.3008 55.0275 14.5182 55.9175 14.2464C56.8086 13.9746 57.5045 13.267 57.7259 12.3835C57.9069 12.8184 58.2832 13.1445 58.7424 13.2542C59.2158 13.3629 59.7022 13.2542 60.0644 12.942C60.1342 14.5864 61.5248 15.8908 63.2078 15.8908C64.8918 15.8908 66.2694 14.5864 66.3392 12.942C67.0209 14.1377 68.3428 14.8443 69.7476 14.7494C71.1383 14.6535 72.3631 13.785 72.8638 12.5061C73.6992 13.4301 74.9928 13.7967 76.2035 13.4706C77.4131 13.1445 78.3184 12.1789 78.5551 10.9693C78.7907 9.77362 78.3042 8.5374 77.3018 7.80312Z"></path></g></svg>