<?xml version="1.0" encoding="UTF-8"?>
<svg xmlns="http://www.w3.org/2000/svg" width="39" height="39" viewBox="0 0 39 39">
  <path d="M37.238 28.1086C37.4112 27.9403 37.5486 27.7388 37.6421 27.516C37.7355 27.2933 37.7829 27.054 37.7816 26.8125C37.7812 26.4345 37.6639 26.0659 37.4456 25.7572C37.2274 25.4486 36.9191 25.215 36.5628 25.0886V19.3903C36.8175 19.3036 37.0486 19.1591 37.238 18.968C37.4112 18.7997 37.5486 18.5981 37.6421 18.3754C37.7355 18.1527 37.7829 17.9134 37.7816 17.6719C37.7811 17.1872 37.5883 16.7225 37.2456 16.3797C36.9029 16.037 36.4381 15.8442 35.9534 15.8438H27.4222V6.00722C27.996 5.85953 28.4962 5.5075 28.8288 5.0172C29.1615 4.5269 29.3038 3.93204 29.229 3.34428C29.1542 2.75651 28.8675 2.21625 28.4226 1.8249C27.9777 1.43355 27.4053 1.21801 26.8128 1.21875H3.65657C3.06406 1.21801 2.49166 1.43355 2.04679 1.8249C1.60192 2.21625 1.31518 2.75651 1.24038 3.34428C1.16558 3.93204 1.30787 4.5269 1.64054 5.0172C1.97321 5.5075 2.47339 5.85953 3.04719 6.00722V17.149C2.52421 17.2816 2.06035 17.5848 1.72901 18.0106C1.39767 18.4364 1.21777 18.9605 1.21777 19.5C1.21777 20.0395 1.39767 20.5637 1.72901 20.9895C2.06035 21.4153 2.52421 21.7184 3.04719 21.851V32.9928C2.47339 33.1405 1.97321 33.4925 1.64054 33.9828C1.30787 34.4731 1.16558 35.068 1.24038 35.6557C1.31518 36.2435 1.60192 36.7838 2.04679 37.1751C2.49166 37.5665 3.06406 37.782 3.65657 37.7813H35.9534C36.4376 37.779 36.9013 37.5857 37.2436 37.2433C37.586 36.901 37.7793 36.4373 37.7816 35.9531C37.7805 35.5763 37.6627 35.209 37.4445 34.9017C37.2263 34.5945 36.9183 34.3623 36.5628 34.2371V28.5383C36.8181 28.4489 37.0492 28.3023 37.238 28.1086ZM36.3764 27.2464C36.3213 27.3026 36.2555 27.3472 36.1828 27.3773C36.1101 27.4075 36.0321 27.4226 35.9534 27.4219H33.5159C33.3543 27.4219 33.1993 27.4861 33.0851 27.6004C32.9708 27.7146 32.9066 27.8696 32.9066 28.0313C32.9066 28.1929 32.9708 28.3479 33.0851 28.4621C33.1993 28.5764 33.3543 28.6406 33.5159 28.6406H35.3441V34.125H19.5003V28.6406H21.3284C21.4901 28.6406 21.6451 28.5764 21.7593 28.4621C21.8736 28.3479 21.9378 28.1929 21.9378 28.0313C21.9378 27.8696 21.8736 27.7146 21.7593 27.6004C21.6451 27.4861 21.4901 27.4219 21.3284 27.4219H18.8909C18.7294 27.4217 18.5745 27.3575 18.4602 27.2432C18.346 27.129 18.2817 26.9741 18.2816 26.8125C18.2814 26.7313 18.2978 26.6509 18.3299 26.5763C18.362 26.5016 18.409 26.4344 18.468 26.3786C18.5231 26.3224 18.5889 26.2778 18.6616 26.2477C18.7342 26.2175 18.8123 26.2024 18.8909 26.2031H21.3284C21.4901 26.2031 21.6451 26.1389 21.7593 26.0246C21.8736 25.9104 21.9378 25.7554 21.9378 25.5938C21.9378 25.4321 21.8736 25.2771 21.7593 25.1629C21.6451 25.0486 21.4901 24.9844 21.3284 24.9844H19.5003V19.5H35.3441V24.9844H33.5159C33.3543 24.9844 33.1993 25.0486 33.0851 25.1629C32.9708 25.2771 32.9066 25.4321 32.9066 25.5938C32.9066 25.7554 32.9708 25.9104 33.0851 26.0246C33.1993 26.1389 33.3543 26.2031 33.5159 26.2031H35.9534C36.115 26.2033 36.2699 26.2675 36.3842 26.3818C36.4984 26.496 36.5627 26.6509 36.5628 26.8125C36.563 26.8937 36.5466 26.9741 36.5145 27.0488C36.4825 27.1234 36.4354 27.1906 36.3764 27.2464ZM18.2816 21.9375V25.0868C18.0263 25.176 17.7952 25.3233 17.6064 25.517C17.4333 25.6853 17.296 25.8867 17.2026 26.1093C17.1092 26.3319 17.0616 26.5711 17.0628 26.8125C17.0632 27.1905 17.1805 27.5591 17.3987 27.8678C17.617 28.1764 17.9253 28.41 18.2816 28.5364V32.9063H4.26594V21.9375H18.2816ZM36.5628 17.6719C36.563 17.7531 36.5466 17.8335 36.5145 17.9081C36.4825 17.9828 36.4354 18.05 36.3764 18.1058C36.3213 18.162 36.2555 18.2065 36.1828 18.2367C36.1101 18.2669 36.0321 18.282 35.9534 18.2813H18.8909C18.7294 18.2811 18.5745 18.2168 18.4602 18.1026C18.346 17.9883 18.2817 17.8334 18.2816 17.6719C18.2814 17.5907 18.2978 17.5103 18.3299 17.4356C18.362 17.361 18.409 17.2938 18.468 17.238C18.5231 17.1818 18.5889 17.1372 18.6616 17.1071C18.7342 17.0769 18.8123 17.0617 18.8909 17.0625H35.9534C36.115 17.0627 36.2699 17.1269 36.3842 17.2412C36.4984 17.3554 36.5627 17.5103 36.5628 17.6719ZM18.8909 15.8438C18.5138 15.8443 18.1461 15.9618 17.8385 16.18C17.531 16.3983 17.2987 16.7067 17.1737 17.0625H4.26594V6.09375H7.92219V10.9688C7.92219 11.4536 8.1148 11.9186 8.45764 12.2614C8.80048 12.6043 9.26547 12.7969 9.75032 12.7969C10.2352 12.7969 10.7002 12.6043 11.043 12.2614C11.3858 11.9186 11.5784 11.4536 11.5784 10.9688V9.75C11.5784 9.58839 11.6426 9.43339 11.7569 9.31911C11.8712 9.20483 12.0262 9.14063 12.1878 9.14063C12.3494 9.14063 12.5044 9.20483 12.6187 9.31911C12.733 9.43339 12.7972 9.58839 12.7972 9.75V13.4063C12.7972 13.8911 12.9898 14.3561 13.3326 14.6989C13.6755 15.0418 14.1405 15.2344 14.6253 15.2344C15.1102 15.2344 15.5752 15.0418 15.918 14.6989C16.2608 14.3561 16.4534 13.8911 16.4534 13.4063V6.09375H26.2034V15.8438H18.8909ZM12.1878 7.92188C11.7031 7.92236 11.2384 8.11512 10.8957 8.45786C10.5529 8.80059 10.3602 9.2653 10.3597 9.75V10.9688C10.3597 11.1304 10.2955 11.2854 10.1812 11.3996C10.0669 11.5139 9.91194 11.5781 9.75032 11.5781C9.5887 11.5781 9.43371 11.5139 9.31943 11.3996C9.20515 11.2854 9.14094 11.1304 9.14094 10.9688V6.09375H15.2347V13.4063C15.2347 13.5679 15.1705 13.7229 15.0562 13.8371C14.9419 13.9514 14.7869 14.0156 14.6253 14.0156C14.4637 14.0156 14.3087 13.9514 14.1944 13.8371C14.0801 13.7229 14.0159 13.5679 14.0159 13.4063V9.75C14.0155 9.2653 13.8227 8.80059 13.48 8.45786C13.1372 8.11512 12.6725 7.92236 12.1878 7.92188ZM2.43782 3.65625C2.43814 3.33312 2.56665 3.02331 2.79514 2.79482C3.02363 2.56633 3.33344 2.43782 3.65657 2.4375H26.8128C27.1361 2.4375 27.446 2.56591 27.6746 2.79447C27.9032 3.02303 28.0316 3.33302 28.0316 3.65625C28.0316 3.97948 27.9032 4.28948 27.6746 4.51804C27.446 4.7466 27.1361 4.875 26.8128 4.875H3.65657C3.33344 4.87468 3.02363 4.74617 2.79514 4.51768C2.56665 4.28919 2.43814 3.97939 2.43782 3.65625ZM2.43782 19.5C2.43846 19.177 2.56707 18.8673 2.79549 18.6389C3.02392 18.4105 3.33353 18.2819 3.65657 18.2813H17.1749C17.2658 18.5362 17.4123 18.7678 17.6037 18.9592C17.7951 19.1505 18.0266 19.297 18.2816 19.3879V20.7188H3.65657C3.33344 20.7184 3.02363 20.5899 2.79514 20.3614C2.56665 20.1329 2.43814 19.8231 2.43782 19.5ZM2.43782 35.3438C2.43846 35.0207 2.56707 34.7111 2.79549 34.4827C3.02392 34.2543 3.33353 34.1256 3.65657 34.125H18.2816V34.2353C18.0269 34.3221 17.7958 34.4666 17.6064 34.6576C17.357 34.8988 17.1834 35.2074 17.1068 35.5457C17.0301 35.8841 17.0538 36.2374 17.1749 36.5625H3.65657C3.33344 36.5622 3.02363 36.4337 2.79514 36.2052C2.56665 35.9767 2.43814 35.6669 2.43782 35.3438ZM36.3764 36.387C36.3213 36.4432 36.2555 36.4878 36.1828 36.5179C36.1101 36.5481 36.0321 36.5633 35.9534 36.5625H18.8909C18.7294 36.5623 18.5745 36.4981 18.4602 36.3838C18.346 36.2696 18.2817 36.1147 18.2816 35.9531C18.2814 35.8719 18.2978 35.7915 18.3299 35.7169C18.362 35.6423 18.409 35.575 18.468 35.5193C18.5231 35.463 18.5889 35.4185 18.6616 35.3883C18.7342 35.3582 18.8123 35.343 18.8909 35.3438H35.9534C36.115 35.3439 36.2699 35.4082 36.3842 35.5224C36.4984 35.6367 36.5627 35.7916 36.5628 35.9531C36.563 36.0344 36.5466 36.1148 36.5145 36.1894C36.4825 36.264 36.4354 36.3313 36.3764 36.387ZM27.931 21.6023C27.8721 21.5229 27.7953 21.4584 27.707 21.414C27.6186 21.3695 27.5211 21.3464 27.4222 21.3464C27.3233 21.3464 27.2258 21.3695 27.1374 21.414C27.0491 21.4584 26.9723 21.5229 26.9134 21.6023C25.8731 23.187 25.0292 24.8921 24.4003 26.6803C23.8153 28.6632 24.2662 29.8478 24.7483 30.4931C25.0677 30.8895 25.4767 31.2045 25.9415 31.4121C26.4063 31.6197 26.9138 31.7141 27.4222 31.6875C27.9306 31.7141 28.4381 31.6197 28.9029 31.4121C29.3677 31.2045 29.7767 30.8895 30.0961 30.4931C30.5775 29.8478 31.0297 28.6632 30.4441 26.6803C29.8152 24.8921 28.9713 23.187 27.931 21.6023ZM29.1193 29.7637C28.9104 30.0047 28.6483 30.1938 28.3538 30.3162C28.0593 30.4386 27.7404 30.4908 27.4222 30.4688C27.1039 30.4909 26.7849 30.4387 26.4902 30.3163C26.1956 30.194 25.9334 30.0048 25.7245 29.7637C25.279 29.1671 25.2236 28.1952 25.5691 27.0258C26.0383 25.651 26.6599 24.3331 27.4222 23.0965C28.1845 24.3331 28.8061 25.651 29.2753 27.0258C29.6208 28.1952 29.5648 29.1671 29.1193 29.7637Z"></path>
</svg>
