<?xml version="1.0" encoding="UTF-8"?>
<svg xmlns="http://www.w3.org/2000/svg" width="39" height="39" viewBox="0 0 39 39">
  <g>
    <path d="M36.6356 27.3649V18.2405C37.3483 18.0887 37.9799 17.6791 38.4092 17.0902C38.8385 16.5013 39.0353 15.7747 38.9618 15.0496C38.8883 14.3246 38.5497 13.6522 38.0109 13.1615C37.4722 12.6708 36.7712 12.3962 36.0425 12.3905C35.5624 12.3952 35.0908 12.518 34.6693 12.748L23.6356 10.0424C23.4099 9.31033 22.9982 8.64931 22.4406 8.12396C21.8831 7.59861 21.1987 7.22689 20.4545 7.04514C19.7103 6.86338 18.9317 6.87781 18.1947 7.08701C17.4578 7.29621 16.7877 7.69302 16.25 8.23867L7.83247 6.17492L8.71809 2.51054C8.74855 2.38777 8.73897 2.25847 8.69073 2.14153C8.64249 2.02459 8.55813 1.92613 8.44996 1.86054L5.53309 0.154292C5.42196 0.0908473 5.29348 0.0645159 5.16634 0.0791289C5.03921 0.0937418 4.92006 0.148537 4.82622 0.235543C-0.34941 5.17554 -0.812535 12.5449 3.62372 18.6305V37.7487H0.59309C0.509925 37.7389 0.42563 37.7468 0.345752 37.772C0.265875 37.7971 0.192225 37.8389 0.129649 37.8945C0.0670727 37.9501 0.0169887 38.0184 -0.0173078 38.0948C-0.0516043 38.1712 -0.0693359 38.254 -0.0693359 38.3377C-0.0693359 38.4215 -0.0516043 38.5043 -0.0173078 38.5807C0.0169887 38.657 0.0670727 38.7253 0.129649 38.781C0.192225 38.8366 0.265875 38.8784 0.345752 38.9035C0.42563 38.9286 0.509925 38.9366 0.59309 38.9268H38.4068C38.5627 38.9268 38.7124 38.8654 38.8234 38.756C38.9344 38.6465 38.9978 38.4977 39 38.3418V30.2655C38.9992 29.584 38.7637 28.9235 38.333 28.3952C37.9024 27.8669 37.303 27.5031 36.6356 27.3649ZM36.0425 13.5524C36.3951 13.5508 36.7402 13.654 37.0341 13.8489C37.3279 14.0438 37.5573 14.3216 37.6929 14.6471C37.8286 14.9726 37.8645 15.331 37.7962 15.6769C37.7278 16.0228 37.5581 16.3406 37.3088 16.59C37.0594 16.8393 36.7416 17.009 36.3957 17.0774C36.0498 17.1458 35.6914 17.1098 35.3659 16.9741C35.0404 16.8385 34.7626 16.6091 34.5677 16.3153C34.3728 16.0214 34.2696 15.6763 34.2712 15.3237C34.2755 14.8567 34.464 14.4104 34.7957 14.0817C35.1274 13.753 35.5755 13.5686 36.0425 13.5687V13.5524ZM23.855 11.3343V11.2937L33.605 13.6824C33.287 14.1652 33.1149 14.7294 33.1093 15.3074C33.101 15.4319 33.101 15.5567 33.1093 15.6812L23.3593 13.2924C23.6618 12.6893 23.8229 12.0252 23.8306 11.3505L23.855 11.3343ZM19.4268 8.08429C20.0696 8.08429 20.698 8.2749 21.2324 8.63202C21.7669 8.98913 22.1835 9.49671 22.4294 10.0906C22.6754 10.6844 22.7398 11.3379 22.6144 11.9683C22.489 12.5988 22.1795 13.1779 21.7249 13.6324C21.2704 14.0869 20.6913 14.3964 20.0609 14.5218C19.4304 14.6472 18.777 14.5829 18.1831 14.3369C17.5893 14.0909 17.0817 13.6744 16.7246 13.1399C16.3674 12.6054 16.1768 11.9771 16.1768 11.3343C16.1811 10.4794 16.522 9.66054 17.1258 9.05525C17.7296 8.44995 18.5475 8.10694 19.4025 8.10054L19.4268 8.08429ZM15.8031 24.3343L18.2406 25.748L14.4462 27.9499L15.8031 24.3343ZM19.4268 26.4387L24.3181 29.323L19.4025 32.1749L14.4787 29.323L19.4268 26.4387ZM13.6418 30.1518L18.2487 32.8249L11.0987 36.9687L13.6418 30.1518ZM19.4268 33.5074L26.6825 37.7162H12.1875L19.4268 33.5074ZM20.605 32.8249L25.1875 30.1843L27.7225 37.0012L20.605 32.8249ZM20.605 25.748L23.0425 24.3343L24.375 27.9824L20.605 25.748ZM19.4268 25.0655L16.2256 23.213L17.7937 18.9962H21.0437L22.6118 23.213L19.4268 25.0655ZM17.9725 17.818V15.5105C18.4406 15.671 18.932 15.7534 19.4268 15.7543C19.9139 15.7545 20.3974 15.6721 20.8568 15.5105V17.8262L17.9725 17.818ZM5.32184 1.40554L7.46684 2.68117L6.54059 6.46742C6.52081 6.54245 6.51638 6.6207 6.52755 6.69748C6.53872 6.77426 6.56526 6.84801 6.60559 6.91429C6.69237 7.04366 6.82174 7.13854 6.97122 7.18242L15.4943 9.27054C15.163 9.88534 14.9846 10.5709 14.9743 11.2693L6.49997 9.18929C6.42499 9.16904 6.34666 9.16436 6.2698 9.17554C6.19294 9.18672 6.11919 9.21352 6.05309 9.25429C5.98602 9.29397 5.92768 9.34682 5.8816 9.40966C5.83552 9.4725 5.80265 9.54402 5.78497 9.61992L3.95684 17.0299C0.64184 11.7649 1.14559 5.66304 5.32184 1.40554ZM9.53872 37.7487H4.80184V18.5168L6.77622 10.473L15.1287 12.5205C15.3909 13.4726 15.9626 14.3102 16.7537 14.9012V18.3299L9.53872 37.7487ZM33.1012 30.2655V37.7487H29.25L22.0187 18.3299V14.9012C22.2366 14.74 22.4405 14.5606 22.6281 14.3649L33.6375 17.0624C34.0681 17.6691 34.7126 18.0901 35.4412 18.2405V27.3649C34.7768 27.5064 34.1811 27.8716 33.7537 28.3996C33.3263 28.9275 33.0931 29.5863 33.0931 30.2655H33.1012ZM37.8218 37.7487H34.2712V30.2655C34.2712 29.7958 34.4578 29.3453 34.79 29.0131C35.1222 28.6809 35.5727 28.4943 36.0425 28.4943C36.5122 28.4943 36.9628 28.6809 37.2949 29.0131C37.6271 29.3453 37.8137 29.7958 37.8137 30.2655L37.8218 37.7487Z"></path>
  </g>
</svg>
