<svg xmlns="http://www.w3.org/2000/svg" width="28" height="29" viewBox="0 0 28 29"><path d="M27.2653 21.6503L21.598 17.8709C20.8788 17.3951 19.9147 17.5516 19.383 18.2306L17.7322 20.3531C17.6296 20.4885 17.4816 20.5822 17.3154 20.6172C17.1492 20.6522 16.9759 20.626 16.8275 20.5435L16.5134 20.3704C15.4725 19.803 14.1772 19.0966 11.5675 16.486C8.95784 13.8754 8.25001 12.5792 7.6826 11.5401L7.51042 11.2261C7.42683 11.0776 7.39968 10.904 7.43398 10.7372C7.46827 10.5703 7.56169 10.4215 7.69704 10.318L9.81816 8.66771C10.4968 8.13596 10.6536 7.17218 10.1784 6.45276L6.39895 0.785457C5.91192 0.0528623 4.9348 -0.167058 4.18082 0.286179L1.81096 1.70976C1.06634 2.1475 0.520053 2.85649 0.286612 3.68811C-0.56677 6.79751 0.0752209 12.1639 7.98033 20.0699C14.2687 26.3578 18.9501 28.0487 22.1677 28.0487C22.9083 28.0519 23.6459 27.9555 24.3608 27.7623C25.1925 27.5291 25.9016 26.9828 26.3391 26.2379L27.7641 23.8695C28.218 23.1153 27.9982 22.1376 27.2653 21.6503ZM26.9601 23.3907L25.5384 25.7606C25.2242 26.2982 24.7142 26.6934 24.1152 26.8636C21.2447 27.6517 16.2298 26.9989 8.64053 19.4097C1.0513 11.8205 0.398595 6.80593 1.18669 3.93499C1.35709 3.33524 1.75283 2.82463 2.2911 2.50999L4.66096 1.08827C4.98811 0.891426 5.41221 0.986841 5.62354 1.30475L7.67659 4.38708L9.39976 6.97156C9.60612 7.28361 9.53831 7.70186 9.24392 7.93277L7.1223 9.5831C6.47665 10.0768 6.29227 10.9701 6.68979 11.6791L6.85826 11.9852C7.45459 13.0789 8.19599 14.4395 10.9027 17.1458C13.6095 19.852 14.9696 20.5935 16.0628 21.1897L16.3694 21.3586C17.0783 21.7561 17.9716 21.5718 18.4653 20.9261L20.1157 18.8045C20.3466 18.5103 20.7647 18.4425 21.0769 18.6487L26.7437 22.4281C27.0618 22.6393 27.1572 23.0636 26.9601 23.3907ZM15.8658 4.71888C20.2446 4.72374 23.7931 8.27227 23.798 12.6511C23.798 12.9088 24.0069 13.1176 24.2646 13.1176C24.5223 13.1176 24.7312 12.9088 24.7312 12.6511C24.7257 7.75708 20.7598 3.79107 15.8658 3.78572C15.6081 3.78572 15.3992 3.99459 15.3992 4.2523C15.3992 4.51 15.6081 4.71888 15.8658 4.71888Z"></path><path d="M15.865 7.51812C18.6983 7.52145 20.9943 9.81744 20.9976 12.6507C20.9976 12.7745 21.0468 12.8931 21.1343 12.9806C21.2218 13.0681 21.3404 13.1173 21.4642 13.1173C21.5879 13.1173 21.7066 13.0681 21.7941 12.9806C21.8816 12.8931 21.9308 12.7745 21.9308 12.6507C21.9269 9.30225 19.2134 6.58879 15.865 6.58496C15.6073 6.58496 15.3984 6.79384 15.3984 7.05154C15.3984 7.30924 15.6073 7.51812 15.865 7.51812Z"></path><path d="M15.865 10.3179C17.1528 10.3195 18.1964 11.3631 18.198 12.6509C18.198 12.7747 18.2472 12.8934 18.3347 12.9809C18.4222 13.0684 18.5409 13.1175 18.6646 13.1175C18.7883 13.1175 18.907 13.0684 18.9945 12.9809C19.082 12.8934 19.1312 12.7747 19.1312 12.6509C19.1291 10.8479 17.668 9.38679 15.865 9.38477C15.6073 9.38477 15.3984 9.59364 15.3984 9.85135C15.3984 10.109 15.6073 10.3179 15.865 10.3179Z"></path></svg>