<svg xmlns="http://www.w3.org/2000/svg" width="60" height="60" viewBox="0 0 60 60"><g><path d="M24.4905 51.2636H23.9905C23.533 49.2982 22.3763 47.5663 20.736 46.3908L19.1814 35.0908C19.8154 34.5915 20.328 33.955 20.6807 33.2292C21.0334 32.5033 21.2171 31.7069 21.2178 30.8999C21.2178 30.209 21.0814 29.5454 20.8451 28.9454L25.736 22.7181C26.3024 22.9902 26.9233 23.13 27.5517 23.1268C28.1801 23.1237 28.7996 22.9777 29.3633 22.6999L37.9087 25.9363C37.9542 26.609 38.1996 27.2545 38.636 27.7817L35.336 31.0727C34.9451 31.4636 34.736 31.9727 34.736 32.5272C34.736 33.0727 34.9451 33.5908 35.336 33.9817L36.8451 35.4999C37.0633 35.7181 37.4087 35.7181 37.6178 35.4999C37.836 35.2817 37.836 34.9363 37.6178 34.7272L36.1087 33.209C35.736 32.8363 35.736 32.2272 36.1087 31.8545L39.4542 28.509C39.9669 28.8242 40.5569 28.9911 41.1587 28.9911C41.7605 28.9911 42.3506 28.8242 42.8633 28.509L46.2087 31.8636C46.2981 31.9513 46.3691 32.056 46.4176 32.1715C46.466 32.287 46.491 32.411 46.491 32.5363C46.491 32.6616 46.466 32.7856 46.4176 32.9011C46.3691 33.0166 46.2981 33.1213 46.2087 33.209L44.6905 34.7181C44.4724 34.9363 44.4724 35.2817 44.6905 35.4908C44.7996 35.5999 44.936 35.6545 45.0814 35.6545C45.2178 35.6545 45.3633 35.5999 45.4724 35.4908L46.9905 33.9817C47.3814 33.5908 47.5905 33.0817 47.5905 32.5272C47.5905 31.9817 47.3814 31.4636 46.9905 31.0727L43.6905 27.7727C44.0741 27.2996 44.3173 26.7284 44.3927 26.1241C44.4681 25.5197 44.3725 24.9064 44.117 24.3536C43.8614 23.8007 43.456 23.3306 42.9468 22.9966C42.4375 22.6625 41.8449 22.4779 41.236 22.4636C40.7996 22.4636 40.3724 22.5363 39.9814 22.6817L31.5996 17.9454C31.436 17.254 31.0989 16.6158 30.6201 16.0909C30.1413 15.566 29.5367 15.1718 28.8633 14.9454C27.7996 14.5817 26.6633 14.6636 25.6542 15.1545C24.8913 15.5292 24.2607 16.1276 23.8465 16.8699C23.4324 17.6121 23.2543 18.463 23.336 19.309L16.6269 25.5999C16.3724 25.5636 16.1178 25.5363 15.8542 25.5363C12.8996 25.5363 10.4996 27.9363 10.4996 30.8908C10.4996 32.5908 11.2996 34.0999 12.5269 35.0817L10.9724 46.3818C9.33209 47.5572 8.17533 49.2891 7.71781 51.2545H7.21781C4.88145 51.2545 2.98145 53.1545 2.98145 55.4908V58.0817C2.98145 58.3817 3.2269 58.6272 3.5269 58.6272H28.1814C28.4814 58.6272 28.7269 58.3817 28.7269 58.0817V55.4908C28.7269 53.1636 26.8269 51.2636 24.4905 51.2636ZM41.1996 23.5454C41.5562 23.5534 41.9053 23.6493 42.216 23.8245C42.5267 23.9998 42.7893 24.2489 42.9807 24.55C43.172 24.851 43.2861 25.1946 43.3129 25.5503C43.3397 25.906 43.2783 26.2627 43.1342 26.589C42.9901 26.9153 42.7677 27.201 42.4867 27.4208C42.2058 27.6405 41.875 27.7876 41.5236 27.8489C41.1722 27.9102 40.8111 27.8839 40.4723 27.7723C40.1336 27.6607 39.8276 27.4672 39.5814 27.209C39.2891 26.9022 39.0932 26.5163 39.0178 26.0993C38.9424 25.6823 38.9908 25.2522 39.1572 24.8625C39.3236 24.4727 39.6005 24.1402 39.9538 23.9061C40.3071 23.672 40.7213 23.5466 41.1451 23.5454H41.1996ZM38.8996 23.3545C38.4724 23.7545 38.1814 24.2545 38.0178 24.809L30.436 21.9363C31.1724 21.2181 31.6087 20.2636 31.6905 19.2636L38.9178 23.3454C38.9087 23.3454 38.8996 23.3454 38.8996 23.3545ZM26.136 16.1363C26.5724 15.9181 27.036 15.8181 27.5087 15.8181C27.8451 15.8181 28.1814 15.8727 28.5087 15.9817C29.2905 16.2454 29.9269 16.7999 30.2905 17.5454C31.0451 19.0817 30.4178 20.9454 28.8814 21.6999C27.3451 22.4545 25.4814 21.8272 24.7269 20.2908C23.9724 18.7545 24.5996 16.8908 26.136 16.1363ZM23.636 20.5272C23.6724 20.609 23.6996 20.6908 23.7451 20.7727C24.0002 21.289 24.3592 21.747 24.7996 22.1181L20.2814 27.8727C19.6905 27.009 18.8542 26.3272 17.8724 25.9272L23.636 20.5272ZM11.5905 30.8908C11.5905 28.5454 13.4996 26.6272 15.8542 26.6272C18.1996 26.6272 20.1178 28.5363 20.1178 30.8908C20.1178 33.2363 18.2087 35.1545 15.8542 35.1545C13.5087 35.1545 11.5905 33.2454 11.5905 30.8908ZM13.5451 35.7272C14.2653 36.0746 15.0546 36.255 15.8542 36.255C16.6538 36.255 17.4431 36.0746 18.1633 35.7272L19.5269 45.6727C18.4087 45.1272 17.1633 44.8181 15.8542 44.8181C14.5451 44.8181 13.2996 45.1272 12.1814 45.6727L13.5451 35.7272ZM15.8542 45.909C19.1633 45.909 22.0087 48.1181 22.8633 51.2545H21.2451C20.8477 50.1402 20.1155 49.176 19.1488 48.4941C18.1821 47.8121 17.0281 47.4459 15.8451 47.4454C13.4178 47.4454 11.2542 48.9908 10.4542 51.2545H8.84508C9.26529 49.718 10.1791 48.3624 11.4457 47.3964C12.7122 46.4305 14.2613 45.9078 15.8542 45.909ZM20.0724 51.2636H11.636C12.0053 50.4569 12.598 49.773 13.344 49.2929C14.09 48.8128 14.9579 48.5565 15.8451 48.5545C16.7353 48.5531 17.6071 48.8078 18.3566 49.2881C19.1061 49.7685 19.7017 50.4542 20.0724 51.2636ZM27.636 57.5363H4.08145V55.4999C4.08145 53.7636 5.49054 52.3545 7.2269 52.3545H24.5087C26.2451 52.3545 27.6542 53.7636 27.6542 55.4999L27.636 57.5363Z"></path><path d="M15.8542 33.2181C17.136 33.2181 18.1815 32.1726 18.1815 30.8999C18.1815 29.6272 17.136 28.5817 15.8542 28.5817C14.5724 28.5817 13.536 29.6272 13.536 30.8999C13.536 32.1726 14.5724 33.2181 15.8542 33.2181ZM15.8542 29.6726C16.5269 29.6726 17.0815 30.2181 17.0815 30.8999C17.0815 31.5726 16.5269 32.1272 15.8542 32.1272C15.5287 32.1272 15.2166 31.9979 14.9864 31.7677C14.7562 31.5375 14.6269 31.2254 14.6269 30.8999C14.6269 30.5744 14.7562 30.2622 14.9864 30.0321C15.2166 29.8019 15.5287 29.6726 15.8542 29.6726ZM27.5088 20.6181C27.7724 20.6181 28.0269 20.5544 28.2633 20.4453C28.8178 20.1726 29.036 19.7181 29.1269 19.4635C29.2088 19.2181 29.3088 18.709 29.0451 18.1635C28.9051 17.8777 28.6878 17.6368 28.4178 17.4681C28.1479 17.2994 27.8362 17.2096 27.5178 17.209C27.2542 17.209 27.0088 17.2726 26.7633 17.3817C26.2088 17.6544 25.9906 18.109 25.8997 18.3635C25.8178 18.609 25.7178 19.1181 25.9815 19.6635C26.3269 20.3726 26.9997 20.6181 27.5088 20.6181ZM26.936 18.7181C26.9633 18.6272 27.0451 18.4635 27.2451 18.3726C27.336 18.3272 27.4178 18.309 27.5088 18.309C27.6053 18.3078 27.7008 18.33 27.7869 18.3737C27.8731 18.4173 27.9475 18.4811 28.0037 18.5597C28.0599 18.6382 28.0963 18.7292 28.1099 18.8248C28.1234 18.9204 28.1137 19.0179 28.0815 19.109C28.0574 19.1852 28.0174 19.2554 27.9641 19.315C27.9108 19.3745 27.8455 19.4221 27.7724 19.4544C27.6906 19.4999 27.5997 19.5181 27.5088 19.5181C27.4451 19.5181 27.1178 19.4999 26.9633 19.1817C26.9259 19.1109 26.9041 19.0328 26.8994 18.9528C26.8947 18.8729 26.9072 18.7928 26.936 18.7181ZM24.2997 53.5635C23.3815 53.5635 22.6269 54.309 22.6269 55.2363C22.6269 56.1544 23.3724 56.909 24.2997 56.909C25.2178 56.909 25.9724 56.1635 25.9724 55.2363C25.9705 54.7932 25.7936 54.3689 25.4803 54.0556C25.1671 53.7423 24.7427 53.5654 24.2997 53.5635ZM24.2997 55.7999C23.9815 55.7999 23.7269 55.5453 23.7269 55.2272C23.7269 54.909 23.9815 54.6544 24.2997 54.6544C24.6178 54.6544 24.8724 54.909 24.8724 55.2272C24.8724 55.5453 24.6088 55.7999 24.2997 55.7999ZM19.5906 53.5635C18.6724 53.5635 17.9178 54.309 17.9178 55.2363C17.9178 56.1544 18.6633 56.909 19.5906 56.909C20.5088 56.909 21.2633 56.1635 21.2633 55.2363C21.2633 54.309 20.5088 53.5635 19.5906 53.5635ZM19.5906 55.7999C19.2724 55.7999 19.0178 55.5453 19.0178 55.2272C19.0178 54.909 19.2724 54.6544 19.5906 54.6544C19.9088 54.6544 20.1633 54.909 20.1633 55.2272C20.1633 55.5453 19.9088 55.7999 19.5906 55.7999ZM6.29057 53.9726C5.99057 53.9726 5.74512 54.2181 5.74512 54.5181V55.9363C5.74512 56.2363 5.99057 56.4817 6.29057 56.4817C6.59057 56.4817 6.83603 56.2363 6.83603 55.9363V54.5181C6.83726 54.4461 6.82399 54.3746 6.79701 54.3079C6.77004 54.2412 6.7299 54.1805 6.67901 54.1296C6.62811 54.0787 6.56749 54.0386 6.50076 54.0116C6.43402 53.9847 6.36254 53.9714 6.29057 53.9726ZM8.62694 53.9726C8.32694 53.9726 8.08148 54.2181 8.08148 54.5181V55.9363C8.08148 56.2363 8.32694 56.4817 8.62694 56.4817C8.92694 56.4817 9.17239 56.2363 9.17239 55.9363V54.5181C9.17239 54.2181 8.92694 53.9726 8.62694 53.9726ZM10.9633 53.9726C10.6633 53.9726 10.4178 54.2181 10.4178 54.5181V55.9363C10.4178 56.2363 10.6633 56.4817 10.9633 56.4817C11.2633 56.4817 11.5088 56.2363 11.5088 55.9363V54.5181C11.5088 54.2181 11.2633 53.9726 10.9633 53.9726ZM13.2906 53.9726C12.9906 53.9726 12.7451 54.2181 12.7451 54.5181V55.9363C12.7451 56.2363 12.9906 56.4817 13.2906 56.4817C13.5906 56.4817 13.836 56.2363 13.836 55.9363V54.5181C13.8373 54.4461 13.824 54.3746 13.797 54.3079C13.77 54.2412 13.7299 54.1805 13.679 54.1296C13.6281 54.0787 13.5675 54.0386 13.5008 54.0116C13.434 53.9847 13.3625 53.9714 13.2906 53.9726ZM52.5269 46.0272L51.0633 45.7999C50.8906 45.209 50.6542 44.6363 50.3542 44.0999L51.2269 42.8999C51.5178 42.4999 51.4815 41.9453 51.1269 41.5908L49.7451 40.209C49.3906 39.8544 48.8451 39.809 48.436 40.109L47.236 40.9817C46.6997 40.6817 46.1269 40.4453 45.536 40.2726L45.3088 38.809C45.236 38.3181 44.8178 37.9544 44.3178 37.9544H42.3633C41.8633 37.9544 41.4451 38.309 41.3633 38.809L41.136 40.2726C40.5451 40.4453 39.9724 40.6817 39.436 40.9817L38.236 40.109C37.836 39.809 37.2815 39.8544 36.9269 40.209L35.5451 41.5908C35.1906 41.9453 35.1451 42.4908 35.4451 42.8999L36.3178 44.0999C36.0178 44.6363 35.7815 45.209 35.6088 45.7999L34.1451 46.0272C33.6542 46.0999 33.2906 46.5181 33.2906 47.0181V48.9726C33.2906 49.4726 33.6451 49.8908 34.1451 49.9635L35.6088 50.1908C35.7815 50.7817 36.0178 51.3544 36.3178 51.8908L35.4451 53.0908C35.1451 53.4908 35.1906 54.0453 35.5451 54.3999L36.9269 55.7817C37.2815 56.1363 37.8269 56.1817 38.236 55.8817L39.436 55.009C39.9724 55.309 40.5451 55.5453 41.136 55.7181L41.3633 57.1817C41.436 57.6726 41.8633 58.0363 42.3633 58.0363H44.3178C44.8178 58.0363 45.236 57.6817 45.3088 57.1817L45.536 55.7181C46.1269 55.5453 46.6997 55.309 47.236 55.009L48.436 55.8817C48.836 56.1726 49.3906 56.1363 49.7451 55.7817L51.1269 54.3999C51.4815 54.0453 51.5269 53.4999 51.2269 53.0908L50.3633 51.909C50.6633 51.3726 50.8997 50.7999 51.0724 50.209L52.536 49.9817C53.0269 49.909 53.3906 49.4908 53.3906 48.9908V47.0363C53.3815 46.5181 53.0269 46.0999 52.5269 46.0272ZM52.2906 48.8999L50.5451 49.1726C50.3269 49.209 50.1451 49.3726 50.0997 49.5908C49.9269 50.3181 49.6451 51.0181 49.2451 51.6453C49.1269 51.8363 49.136 52.0817 49.2724 52.2544L50.3178 53.6817L49.0451 54.9544L47.6178 53.909C47.5303 53.845 47.4258 53.8083 47.3174 53.8034C47.2091 53.7986 47.1017 53.8258 47.0088 53.8817C46.3724 54.2726 45.6815 54.5635 44.9542 54.7363C44.8485 54.7614 44.7526 54.817 44.6782 54.8962C44.6039 54.9754 44.5544 55.0747 44.536 55.1817L44.2633 56.9272H42.4542L42.1815 55.1817C42.1644 55.0741 42.1155 54.9741 42.0409 54.8947C41.9663 54.8152 41.8696 54.7601 41.7633 54.7363C41.036 54.5635 40.336 54.2817 39.7088 53.8817C39.6166 53.8235 39.5088 53.7949 39.3999 53.7998C39.291 53.8047 39.1863 53.8428 39.0997 53.909L37.6724 54.9544L36.3997 53.6817L37.4451 52.2544C37.5815 52.0726 37.5906 51.8272 37.4724 51.6453C37.0802 51.0102 36.7918 50.3167 36.6178 49.5908C36.5927 49.4851 36.5371 49.3892 36.4579 49.3148C36.3787 49.2405 36.2794 49.191 36.1724 49.1726L34.4269 48.8999V47.0908L36.1724 46.8181C36.3906 46.7817 36.5724 46.6181 36.6178 46.3999C36.7906 45.6726 37.0724 44.9726 37.4724 44.3453C37.5906 44.1544 37.5815 43.909 37.4451 43.7363L36.3997 42.309L37.6724 41.0363L39.0997 42.0817C39.2815 42.2181 39.5269 42.2272 39.7088 42.109C40.3451 41.7181 41.036 41.4272 41.7633 41.2544C41.869 41.2293 41.9649 41.1737 42.0393 41.0945C42.1136 41.0153 42.1631 40.916 42.1815 40.809L42.4542 39.0635H44.2633L44.536 40.809C44.5724 41.0272 44.736 41.209 44.9542 41.2544C45.6815 41.4272 46.3815 41.709 47.0088 42.109C47.1997 42.2272 47.4451 42.2181 47.6178 42.0817L49.0451 41.0363L50.3178 42.309L49.2724 43.7363C49.136 43.9181 49.1269 44.1635 49.2451 44.3453C49.636 44.9817 49.9269 45.6726 50.0997 46.3999C50.1542 46.6181 50.3269 46.7817 50.5451 46.8181L52.2906 47.0908V48.8999Z"></path><path d="M43.3362 43.8C41.018 43.8 39.1362 45.6818 39.1362 48C39.1362 50.3182 41.018 52.2 43.3362 52.2C45.6544 52.2 47.5362 50.3182 47.5362 48C47.5453 45.6818 45.6544 43.8 43.3362 43.8ZM43.3362 51.1091C41.618 51.1091 40.2271 49.7182 40.2271 48C40.2271 46.2818 41.618 44.8909 43.3362 44.8909C45.0544 44.8909 46.4453 46.2818 46.4453 48C46.4453 49.7182 45.0544 51.1091 43.3362 51.1091ZM16.9817 13.2545C17.2453 13.4 17.5817 13.3 17.7271 13.0363C17.8726 12.7727 17.7726 12.4363 17.5089 12.2909C11.7817 9.14543 4.56348 11.2363 1.41802 16.9636C1.27257 17.2272 1.37257 17.5636 1.63621 17.7091C1.71802 17.7545 1.80893 17.7727 1.89984 17.7727C2.09075 17.7727 2.28166 17.6727 2.38166 17.4909C5.23621 12.3 11.7817 10.4 16.9817 13.2545Z"></path><path d="M16.4542 15.3453C16.5996 15.0816 16.4996 14.7453 16.236 14.5998C14.0815 13.418 11.5906 13.1453 9.22692 13.8271C6.86328 14.518 4.90874 16.0816 3.71783 18.2362C3.57237 18.4998 3.67237 18.8362 3.93601 18.9816C4.01783 19.0271 4.10874 19.0453 4.19965 19.0453C4.39056 19.0453 4.58147 18.9453 4.68147 18.7634C5.19358 17.8274 5.88637 17.0023 6.71968 16.336C7.55299 15.6696 8.51026 15.1753 9.53601 14.8816C11.6178 14.2725 13.8178 14.518 15.7087 15.5634C15.9724 15.6998 16.3087 15.6089 16.4542 15.3453Z"></path><path d="M15.1905 17.6454C15.336 17.3818 15.236 17.0454 14.9724 16.9C11.7905 15.1545 7.78146 16.3181 6.02691 19.5C5.88146 19.7636 5.98146 20.1 6.24509 20.2454C6.32691 20.2909 6.41782 20.3091 6.50873 20.3091C6.69964 20.3091 6.89055 20.2091 6.99055 20.0272C7.33773 19.3955 7.806 18.8383 8.36862 18.3876C8.93123 17.9369 9.57715 17.6015 10.2694 17.4006C10.9617 17.1997 11.6869 17.1371 12.4033 17.2166C13.1198 17.296 13.8136 17.5159 14.4451 17.8636C14.7087 18.0091 15.0451 17.9091 15.1905 17.6454Z"></path><path d="M13.9181 19.9544C14.0636 19.6908 13.9636 19.3544 13.6999 19.2089C12.7798 18.7052 11.6975 18.5869 10.6903 18.8801C9.68313 19.1732 8.83331 19.8538 8.3272 20.7726C8.18175 21.0362 8.28175 21.3726 8.54539 21.518C8.6272 21.5635 8.71811 21.5817 8.80902 21.5817C8.99993 21.5817 9.19084 21.4817 9.29084 21.2999C10.0454 19.918 11.7908 19.418 13.1727 20.1726C13.4363 20.318 13.7727 20.218 13.9181 19.9544ZM12.5908 21.2362C12.4013 21.1311 12.1928 21.0649 11.9773 21.0415C11.7619 21.0181 11.544 21.0379 11.3363 21.0999C10.9181 21.218 10.5636 21.4999 10.3545 21.8817C10.1454 22.2635 10.0908 22.709 10.2181 23.1362C10.3148 23.4782 10.521 23.779 10.8051 23.9924C11.0892 24.2059 11.4355 24.3203 11.7908 24.318C12.0466 24.3179 12.2988 24.2583 12.5276 24.1439C12.7563 24.0295 12.9553 23.8634 13.1088 23.6588C13.2622 23.4542 13.366 23.2166 13.4118 22.965C13.4576 22.7134 13.4442 22.4545 13.3727 22.209C13.2545 21.7908 12.9727 21.4453 12.5908 21.2362ZM12.2817 22.9362C12.1363 23.1999 11.7999 23.2999 11.5363 23.1544C11.409 23.0817 11.3181 22.9635 11.2727 22.8271C11.2272 22.6908 11.2454 22.5362 11.3181 22.409C11.4636 22.1453 11.7999 22.0453 12.0636 22.1908C12.1908 22.2635 12.2817 22.3726 12.3272 22.518C12.3636 22.6635 12.3454 22.8089 12.2817 22.9362ZM52.6454 5.94531H45.8908C45.109 5.94531 44.4636 6.58168 44.4636 7.37259V14.1271C44.4636 14.9089 45.0999 15.5544 45.8908 15.5544H52.6454C53.4272 15.5544 54.0727 14.918 54.0727 14.1271V7.37259C54.0727 6.58168 53.4272 5.94531 52.6454 5.94531ZM52.9727 14.1271C52.9727 14.3089 52.8272 14.4544 52.6454 14.4544H45.8908C45.709 14.4544 45.5636 14.3089 45.5636 14.1271V7.37259C45.5636 7.19077 45.709 7.04531 45.8908 7.04531H52.6454C52.8272 7.04531 52.9727 7.19077 52.9727 7.37259V14.1271Z"></path><path d="M58.0998 9.81807C58.3998 9.81807 58.6452 9.57262 58.6452 9.27262C58.6452 8.97262 58.3998 8.72716 58.0998 8.72716H56.6998V6.87262H58.0998C58.3998 6.87262 58.6452 6.62716 58.6452 6.32716C58.6452 6.02716 58.3998 5.78171 58.0998 5.78171H56.6998V5.4908C56.6998 4.91455 56.4709 4.36191 56.0634 3.95445C55.6559 3.54698 55.1033 3.31807 54.5271 3.31807H54.2452V1.90898C54.2452 1.60898 53.9998 1.36353 53.6998 1.36353C53.3998 1.36353 53.1543 1.60898 53.1543 1.90898V3.30898H51.2998V1.90898C51.2998 1.60898 51.0543 1.36353 50.7543 1.36353C50.4543 1.36353 50.2089 1.60898 50.2089 1.90898V3.30898H48.3543V1.90898C48.3543 1.60898 48.1089 1.36353 47.8089 1.36353C47.5089 1.36353 47.2634 1.60898 47.2634 1.90898V3.30898H45.4089V1.90898C45.4089 1.60898 45.1634 1.36353 44.8634 1.36353C44.5634 1.36353 44.318 1.60898 44.318 1.90898V3.30898H44.0361C43.4599 3.30898 42.9073 3.53789 42.4998 3.94536C42.0923 4.35282 41.8634 4.90546 41.8634 5.48171V5.76353H40.4634C40.1634 5.76353 39.918 6.00898 39.918 6.30898C39.918 6.60898 40.1634 6.85443 40.4634 6.85443H41.8634V8.72716H40.4634C40.1634 8.72716 39.918 8.97262 39.918 9.27262C39.918 9.57262 40.1634 9.81807 40.4634 9.81807H41.8634V11.6726H40.4634C40.1634 11.6726 39.918 11.9181 39.918 12.2181C39.918 12.5181 40.1634 12.7635 40.4634 12.7635H41.8634V14.6181H40.4634C40.1634 14.6181 39.918 14.8635 39.918 15.1635C39.918 15.4635 40.1634 15.709 40.4634 15.709H41.8634V15.9908C41.8634 16.567 42.0923 17.1197 42.4998 17.5271C42.9073 17.9346 43.4599 18.1635 44.0361 18.1635H44.318V19.5635C44.318 19.8635 44.5634 20.109 44.8634 20.109C45.1634 20.109 45.4089 19.8635 45.4089 19.5635V18.1817H47.2634V19.5817C47.2634 19.8817 47.5089 20.1272 47.8089 20.1272C48.1089 20.1272 48.3543 19.8817 48.3543 19.5817V18.1817H50.2089V19.5817C50.2089 19.8817 50.4543 20.1272 50.7543 20.1272C51.0543 20.1272 51.2998 19.8817 51.2998 19.5817V18.1817H53.1543V19.5817C53.1543 19.8817 53.3998 20.1272 53.6998 20.1272C53.9998 20.1272 54.2452 19.8817 54.2452 19.5817V18.1817H54.5271C55.1033 18.1817 55.6559 17.9528 56.0634 17.5453C56.4709 17.1379 56.6998 16.5852 56.6998 16.009V15.7272H58.0998C58.3998 15.7272 58.6452 15.4817 58.6452 15.1817C58.6452 14.8817 58.3998 14.6363 58.0998 14.6363H56.6998V12.7817H58.0998C58.3998 12.7817 58.6452 12.5363 58.6452 12.2363C58.6452 11.9363 58.3998 11.6908 58.0998 11.6908H56.6998V9.81807H58.0998ZM55.6089 16.009C55.6089 16.609 55.1271 17.0908 54.5271 17.0908H44.0089C43.4089 17.0908 42.9271 16.609 42.9271 16.009V5.4908C42.9271 4.8908 43.4089 4.40898 44.0089 4.40898H54.5271C55.1271 4.40898 55.6089 4.8908 55.6089 5.4908V16.009Z"></path></g></svg>