<svg xmlns="http://www.w3.org/2000/svg" width="40" height="56" viewBox="0 0 40 56"><path d="M30.9228 36.6011C30.8667 36.4566 30.7549 36.34 30.6118 36.2768C30.4687 36.2136 30.3061 36.2091 30.1596 36.2641C30.0131 36.3193 29.8949 36.4296 29.8308 36.5707C29.7668 36.7119 29.7621 36.8723 29.8178 37.0169L33.4925 46.518L28.3215 44.5814C28.186 44.5309 28.0364 44.5312 27.9011 44.5822C27.7657 44.6331 27.654 44.7313 27.5871 44.858L25.0382 49.7007L22.6522 43.5251C22.5961 43.3806 22.4843 43.264 22.3412 43.2008C22.1981 43.1376 22.0355 43.1329 21.8889 43.1879C21.7425 43.2432 21.6242 43.3535 21.5602 43.4947C21.4961 43.6359 21.4914 43.7964 21.5472 43.941L24.4026 51.3316C24.5854 51.8032 25.2459 51.8366 25.4799 51.3925L28.3942 45.8563L34.3047 48.07C34.7801 48.2478 35.2487 47.7866 35.0668 47.3167L30.9228 36.6011ZM21.5715 38.5387C21.2684 38.4254 20.9248 38.5746 20.8082 38.8759L14.964 53.9946L12.4151 49.1569C12.3482 49.0301 12.2365 48.932 12.1011 48.8811C11.9658 48.8302 11.8162 48.83 11.6808 48.8806L6.5092 50.8123L11.3551 38.2827C11.4109 38.1381 11.4062 37.9776 11.3421 37.8365C11.2781 37.6954 11.1598 37.5851 11.0134 37.5299C10.8669 37.4749 10.7043 37.4795 10.5612 37.5427C10.4181 37.6059 10.3063 37.7224 10.2502 37.8668L4.93547 51.6099C4.75334 52.083 5.22625 52.5413 5.69755 52.3632L11.6081 50.1553L14.5224 55.686C14.758 56.1325 15.4177 56.0945 15.5996 55.6247L21.9132 39.2918C21.9689 39.1472 21.9643 38.9867 21.9002 38.8455C21.8361 38.7043 21.7179 38.594 21.5715 38.5387Z"></path><path d="M38.3424 15.1979C37.3315 14.2381 36.8743 12.8516 37.122 11.4778C37.6543 8.52204 35.6088 5.71067 32.5554 5.28999C31.1669 5.09826 29.9731 4.241 29.3589 2.99257C28.0241 0.278887 24.6778 -0.79381 21.9802 0.631386C20.7408 1.2868 19.2599 1.28624 18.069 0.66043C18.0526 0.649502 18.0356 0.639429 18.0181 0.630251C15.3297 -0.789045 11.9808 0.269698 10.639 2.99688C10.027 4.241 8.83308 5.09826 7.42906 5.29203C4.41739 5.70727 2.34085 8.49765 2.88045 11.4884C3.12582 12.8515 2.66854 14.238 1.65189 15.2031C-0.535031 17.2789 -0.569066 20.7422 1.66051 22.8611C2.66969 23.8207 3.12628 25.2063 2.87804 26.5849C2.34441 29.5485 4.4044 32.3554 7.43998 32.771C8.83136 32.9613 10.0275 33.8194 10.6423 35.0704C11.9707 37.7751 15.3135 38.8642 18.0198 37.435C18.6286 37.1124 19.3089 36.9436 19.9999 36.9436C20.691 36.9436 21.3713 37.1124 21.9801 37.435C24.6693 38.8553 28.0193 37.7948 29.3599 35.0661C29.9724 33.8194 31.1686 32.9612 32.5658 32.7701C35.6226 32.3518 37.6495 29.5154 37.1231 26.5909L37.1202 26.5738C37.1197 26.5717 37.1197 26.5698 37.1191 26.5675C36.8737 25.2063 37.3304 23.8207 38.3505 22.8506C40.5396 20.7703 40.5627 17.3048 38.3424 15.1979ZM35.9553 26.772L35.9581 26.7888C36.3717 29.085 34.7826 31.289 32.3972 31.615C30.6144 31.8591 29.0816 32.9591 28.2943 34.5615C27.2532 36.6803 24.6417 37.5171 22.5379 36.406C21.7575 35.993 20.8856 35.7769 20 35.7769C19.1144 35.7769 18.2425 35.993 17.4621 36.406C15.3616 37.516 12.7487 36.6838 11.7034 34.5572C10.9182 32.9591 9.38556 31.8591 7.59705 31.6141C5.27824 31.2973 3.61713 29.1478 4.04485 26.7719C4.35944 25.0267 3.77465 23.2508 2.4694 22.0101C0.760218 20.3852 0.745615 17.6819 2.47744 16.0385C3.77292 14.8084 4.35886 13.0311 4.04198 11.2732C3.62793 8.9763 5.21305 6.77532 7.60866 6.44517C9.38797 6.19966 10.9184 5.10075 11.7047 3.50186C12.7763 1.3247 15.4317 0.591451 17.4115 1.63C17.4271 1.64055 17.4455 1.65133 17.4623 1.66018C19.0511 2.49928 20.9488 2.49871 22.5398 1.65904C24.6411 0.549927 27.2513 1.3804 28.2979 3.50617C29.082 5.10086 30.6124 6.19977 32.4072 6.44721C34.7545 6.77101 36.3783 8.94533 35.9559 11.2844C35.6414 13.0312 36.2273 14.8085 37.5285 16.0437C39.2329 17.6617 39.2639 20.3626 37.5199 22.0208C36.8831 22.6246 36.4072 23.3741 36.1342 24.2029C35.8613 25.0317 35.7998 25.9141 35.9553 26.772Z"></path><path d="M20.0008 7.09662C13.3304 7.09662 7.9043 12.451 7.9043 19.0327C7.9043 25.6141 13.3304 30.9685 20.0008 30.9685C26.6711 30.9685 32.0972 25.6141 32.0972 19.0327C32.0972 12.451 26.6711 7.09662 20.0008 7.09662ZM20.0008 29.802C13.9828 29.802 9.08664 24.9708 9.08664 19.0328C9.08664 13.0945 13.9828 8.26337 20.0008 8.26337C26.0187 8.26337 30.9149 13.0945 30.9149 19.0328C30.9149 24.9708 26.0187 29.802 20.0008 29.802Z"></path><path d="M27.1973 16.444L22.5903 15.7832L20.5316 11.6652C20.3163 11.2333 19.6893 11.2312 19.4716 11.6649L17.4094 15.7831L12.8024 16.4439C12.3188 16.5131 12.124 17.1017 12.4745 17.4387L15.8073 20.645L15.024 25.1723C14.9411 25.6484 15.4505 26.0118 15.8812 25.787L20.0016 23.6507L24.1224 25.787C24.5587 26.0123 25.0621 25.6448 24.9797 25.172L24.1922 20.6448L27.525 17.4389C27.8752 17.1024 27.6816 16.5133 27.1973 16.444ZM23.1446 20.0237C23.0761 20.0897 23.0248 20.1711 22.9953 20.261C22.9657 20.351 22.9587 20.4466 22.9749 20.5398L23.6123 24.2049L20.2766 22.4757C20.1919 22.4317 20.0975 22.4087 20.0018 22.4087C19.906 22.4087 19.8117 22.4317 19.727 22.4757L16.3907 24.2052L17.0252 20.5395C17.0414 20.4464 17.0344 20.3508 17.0048 20.2609C16.9753 20.1711 16.924 20.0896 16.8555 20.0237L14.1577 17.4287L17.8872 16.8937C17.982 16.8802 18.0721 16.844 18.1497 16.7885C18.2272 16.7329 18.2899 16.6595 18.3323 16.5747L20.0013 13.2411L21.6681 16.5744C21.7104 16.6592 21.7731 16.7327 21.8506 16.7883C21.9282 16.8439 22.0183 16.8801 22.1132 16.8936L25.8427 17.4285L23.1446 20.0237Z"></path></svg>