<svg xmlns="http://www.w3.org/2000/svg" width="60" height="60" viewBox="0 0 60 60"><g><path d="M32.8734 50.9014H27.1961C26.2267 50.9014 25.4547 50.1694 25.2747 49.08L24.6454 45.276C24.1267 45.092 23.6147 44.8787 23.1161 44.6414L19.9801 46.8867C19.0814 47.5294 18.0187 47.5014 17.3334 46.816L13.3187 42.8014C12.6334 42.116 12.6054 41.052 13.2481 40.1547L15.4934 37.0187C15.2561 36.5214 15.0441 36.0094 14.8587 35.4894L11.0547 34.86C9.9654 34.68 9.2334 33.908 9.2334 32.9387V27.2614C9.2334 26.292 9.9654 25.52 11.0547 25.34L14.8587 24.7107C15.0427 24.192 15.2561 23.68 15.4934 23.1814L13.2481 20.0454C12.6054 19.148 12.6334 18.084 13.3187 17.3987L17.3334 13.384C18.0187 12.6987 19.0827 12.6707 19.9801 13.3134L23.1161 15.5587C23.6147 15.3214 24.1267 15.1094 24.6454 14.924L25.2747 11.1187C25.4547 10.0294 26.2281 9.29736 27.1961 9.29736H32.8734C33.8427 9.29736 34.6147 10.0294 34.7947 11.1187L35.4241 14.924C35.9427 15.108 36.4547 15.3214 36.9534 15.5587L40.0894 13.3134C40.9881 12.6707 42.0507 12.6987 42.7361 13.384L46.7507 17.3987C47.4361 18.084 47.4641 19.148 46.8214 20.0454L44.5761 23.1814C44.8134 23.6787 45.0254 24.1907 45.2107 24.7107L49.0147 25.34C50.1041 25.52 50.8361 26.292 50.8361 27.2614V32.9387C50.8361 33.908 50.1041 34.68 49.0147 34.86L45.2094 35.4894C45.0254 36.008 44.8134 36.52 44.5747 37.0187L46.8201 40.1547C47.4627 41.0534 47.4347 42.116 46.7494 42.8014L42.7347 46.816C42.0494 47.5014 40.9854 47.5294 40.0881 46.8867L36.9521 44.6414C36.4534 44.8787 35.9414 45.0907 35.4227 45.276L34.7934 49.08C34.6147 50.1694 33.8427 50.9014 32.8734 50.9014ZM23.0521 43.2C23.1547 43.2 23.2587 43.224 23.3534 43.272C24.0269 43.6144 24.7259 43.9042 25.4441 44.1387C25.6801 44.216 25.8547 44.4187 25.8947 44.664L26.5894 48.8614C26.6427 49.1867 26.8347 49.568 27.1961 49.568H32.8734C33.2347 49.568 33.4254 49.188 33.4801 48.8614L34.1747 44.664C34.2147 44.4187 34.3894 44.216 34.6254 44.1387C35.3435 43.9039 36.0424 43.6141 36.7161 43.272C36.9374 43.1587 37.2041 43.18 37.4067 43.324L40.8667 45.8014C41.1347 45.9934 41.5387 46.128 41.7947 45.872L45.8094 41.8574C46.0654 41.6014 45.9307 41.1974 45.7387 40.9294L43.2614 37.468C43.1901 37.3688 43.1476 37.2518 43.1384 37.13C43.1292 37.0082 43.1538 36.8862 43.2094 36.7774C43.5516 36.1038 43.8413 35.4048 44.0761 34.6867C44.1534 34.4507 44.3561 34.276 44.6014 34.236L48.8001 33.5414C48.8721 33.5294 49.5067 33.4107 49.5067 32.9347V27.2574C49.5067 26.896 49.1267 26.7054 48.8001 26.6507L44.6027 25.956C44.4823 25.9362 44.3697 25.8836 44.277 25.8042C44.1844 25.7247 44.1154 25.6213 44.0774 25.5054C43.8441 24.7894 43.5521 24.0867 43.2107 23.4147C43.0974 23.1934 43.1187 22.9267 43.2627 22.724L45.7401 19.264C45.9321 18.996 46.0667 18.592 45.8107 18.336L41.7961 14.3214C41.5401 14.0654 41.1361 14.2 40.8681 14.392L37.4067 16.8694C37.3075 16.9406 37.1905 16.9832 37.0687 16.9924C36.9469 17.0015 36.8249 16.977 36.7161 16.9214C36.0426 16.5789 35.3436 16.2892 34.6254 16.0547C34.5094 16.0167 34.4061 15.9477 34.3266 15.8551C34.2471 15.7624 34.1946 15.6498 34.1747 15.5294L33.4801 11.3307C33.4267 11.0054 33.2347 10.624 32.8734 10.624H27.1961C26.8347 10.624 26.6441 11.004 26.5894 11.3307L25.8947 15.528C25.8749 15.6484 25.8223 15.7611 25.7429 15.8537C25.6634 15.9463 25.5601 16.0154 25.4441 16.0534C24.7307 16.2867 24.0267 16.5787 23.3534 16.92C23.1321 17.0334 22.8654 17.012 22.6627 16.868L19.2014 14.3907C18.9334 14.1987 18.5294 14.064 18.2734 14.32L14.2587 18.3347C14.0027 18.5907 14.1374 18.9947 14.3294 19.2627L16.8067 22.724C16.878 22.8233 16.9206 22.9402 16.9297 23.0621C16.9389 23.1839 16.9143 23.3059 16.8587 23.4147C16.5161 24.088 16.2241 24.792 15.9921 25.5054C15.9541 25.6213 15.8851 25.7247 15.7924 25.8042C15.6998 25.8836 15.5871 25.9362 15.4667 25.956L11.2694 26.6507C10.9441 26.704 10.5627 26.896 10.5627 27.2574V32.9347C10.5627 33.296 10.9427 33.4867 11.2694 33.5414L15.4667 34.236C15.7121 34.276 15.9147 34.4507 15.9921 34.6867C16.2254 35.4027 16.5174 36.1054 16.8587 36.7774C16.9721 36.9987 16.9507 37.2654 16.8067 37.468L14.3294 40.928C14.1374 41.196 14.0027 41.6 14.2587 41.856L18.2734 45.8707C18.5294 46.1267 18.9334 45.992 19.2014 45.8L22.6627 43.3227C22.7769 43.2429 22.9128 43.2001 23.0521 43.2Z"></path><path d="M30.0346 41.0945C23.9706 41.0945 19.0386 36.1611 19.0386 30.0971C19.0386 24.0331 23.9719 19.1011 30.0346 19.1011C36.0986 19.1011 41.0319 24.0345 41.0319 30.0971C41.0319 36.1625 36.0986 41.0945 30.0346 41.0945ZM30.0346 20.4358C24.7066 20.4358 20.3719 24.7705 20.3719 30.0985C20.3719 35.4265 24.7066 39.7625 30.0346 39.7625C35.3626 39.7625 39.6986 35.4278 39.6986 30.0985C39.6986 24.7705 35.3626 20.4358 30.0346 20.4358ZM13.0133 13.6771C12.8426 13.6771 12.6719 13.6118 12.5413 13.4825L0.829277 1.77048C0.569277 1.51048 0.569277 1.08781 0.829277 0.827813C1.08928 0.567813 1.51194 0.567813 1.77194 0.827813L13.4853 12.5411C13.6102 12.6662 13.6803 12.8357 13.6803 13.0125C13.6803 13.1892 13.6102 13.3587 13.4853 13.4838C13.3546 13.6131 13.1839 13.6771 13.0133 13.6771Z"></path><path d="M2.02648 9.07592C1.68914 9.07592 1.39848 8.81992 1.36381 8.47726L0.637144 1.36659C0.627239 1.26819 0.639333 1.16882 0.67255 1.07567C0.705767 0.982519 0.759277 0.897917 0.829208 0.827987C0.899138 0.758057 0.983739 0.704547 1.07689 0.67133C1.17004 0.638112 1.26941 0.626018 1.36781 0.635923L8.47848 1.36259C8.84514 1.39992 9.11181 1.72792 9.07448 2.09326C9.03714 2.45859 8.71048 2.72526 8.34381 2.68926L2.04781 2.04526L2.69181 8.34126C2.72914 8.70792 2.46248 9.03459 2.09581 9.07192C2.07181 9.07459 2.04914 9.07592 2.02648 9.07592ZM47.1225 13.7439C46.9518 13.7439 46.7811 13.6786 46.6505 13.5493C46.5256 13.4242 46.4555 13.2547 46.4555 13.0779C46.4555 12.9012 46.5256 12.7317 46.6505 12.6066L58.3625 0.893256C58.6225 0.633256 59.0451 0.633256 59.3051 0.893256C59.5651 1.15326 59.5651 1.57592 59.3051 1.83592L47.5931 13.5493C47.4625 13.6786 47.2918 13.7439 47.1225 13.7439Z"></path><path d="M58.1078 9.14135C58.0851 9.14135 58.0625 9.14002 58.0398 9.13735C57.9527 9.12856 57.8682 9.10267 57.7912 9.06116C57.7141 9.01965 57.646 8.96334 57.5908 8.89546C57.5355 8.82758 57.4942 8.74947 57.4693 8.66559C57.4443 8.58172 57.4361 8.49373 57.4451 8.40669L58.0891 2.11069L51.7931 2.75469C51.4265 2.79202 51.0998 2.52535 51.0625 2.15869C51.0251 1.79202 51.2918 1.46535 51.6571 1.42802L58.7678 0.701353C58.8662 0.691448 58.9656 0.703542 59.0587 0.736759C59.1519 0.769976 59.2365 0.823486 59.3064 0.893416C59.3763 0.963347 59.4298 1.04795 59.4631 1.1411C59.4963 1.23425 59.5084 1.33362 59.4985 1.43202L58.7718 8.54269C58.7546 8.70684 58.6772 8.85881 58.5546 8.96934C58.432 9.07987 58.2729 9.14114 58.1078 9.14135ZM58.7691 59.5654C58.5985 59.5654 58.4278 59.5 58.2971 59.3707L46.5851 47.6574C46.3251 47.3974 46.3251 46.9747 46.5851 46.7147C46.8451 46.4547 47.2678 46.4547 47.5278 46.7147L59.2398 58.428C59.3647 58.5531 59.4348 58.7226 59.4348 58.8994C59.4348 59.0761 59.3647 59.2456 59.2398 59.3707C59.1105 59.5 58.9398 59.5654 58.7691 59.5654Z"></path><path d="M58.7696 59.5653C58.7469 59.5653 58.7242 59.564 58.7016 59.5613L51.5909 58.8347C51.5038 58.8259 51.4193 58.8 51.3423 58.7585C51.2652 58.717 51.1971 58.6607 51.1419 58.5928C51.0866 58.5249 51.0453 58.4468 51.0203 58.3629C50.9954 58.279 50.9872 58.1911 50.9962 58.104C51.0336 57.7373 51.3602 57.4693 51.7269 57.5093L58.0229 58.1533L57.3789 51.8573C57.3609 51.6816 57.4134 51.5059 57.5249 51.3689C57.6365 51.2319 57.7978 51.1447 57.9736 51.1267C58.3402 51.088 58.6669 51.356 58.7042 51.7213L59.4309 58.832C59.4509 59.032 59.3802 59.2293 59.2389 59.3707C59.1149 59.496 58.9456 59.5653 58.7696 59.5653ZM1.2349 59.5C1.06423 59.5 0.893563 59.4347 0.762897 59.3053C0.638014 59.1803 0.567871 59.0108 0.567871 58.834C0.567871 58.6573 0.638014 58.4878 0.762897 58.3627L12.4749 46.6493C12.7349 46.3893 13.1576 46.3893 13.4176 46.6493C13.6776 46.9093 13.6776 47.332 13.4176 47.592L1.7069 59.304C1.64502 59.3662 1.57147 59.4155 1.49047 59.4491C1.40946 59.4828 1.32261 59.5001 1.2349 59.5Z"></path><path d="M1.23468 59.5C1.05868 59.5 0.889348 59.4307 0.762681 59.3053C0.692847 59.2353 0.639405 59.1507 0.606205 59.0576C0.573005 58.9644 0.560873 58.8651 0.570682 58.7667L1.29735 51.656C1.33468 51.2893 1.66135 51.0213 2.02801 51.0613C2.39468 51.0987 2.66135 51.4267 2.62401 51.792L1.98001 58.088L8.27601 57.444C8.64268 57.4053 8.96935 57.6733 9.00668 58.0387C9.04401 58.404 8.77735 58.732 8.41068 58.7693L1.30001 59.496C1.28001 59.4987 1.25735 59.5 1.23468 59.5Z"></path></g></svg>