<svg xmlns="http://www.w3.org/2000/svg" width="49" height="46" viewBox="0 0 49 46"><path d="M24.7817 46C23.1071 46 21.4331 45.6624 19.8831 44.9882L12.471 41.7661C9.79309 40.6007 6.94997 39.8598 4.04392 39.57L1.60994 39.3267C1.41652 39.3075 1.23717 39.217 1.10675 39.0729C0.976331 38.9287 0.90417 38.7413 0.904297 38.5469V30.9116C0.904297 30.7422 0.95938 30.5772 1.06117 30.4418C1.24317 30.1985 5.60576 24.4991 12.2697 25.982C16.0176 26.8149 19.0354 28.3735 20.9069 29.5345C22.2657 30.3773 23.8582 30.8224 25.5128 30.8224H32.9249C34.2025 30.8224 35.3254 31.4983 35.9534 32.5123L42.3373 25.1576C43.5749 23.5049 45.5998 22.4927 47.7196 22.4927H48.1965C48.3267 22.4926 48.4549 22.5251 48.5694 22.5871C48.684 22.6491 48.7812 22.7387 48.8523 22.8478C48.9235 22.9568 48.9664 23.082 48.9772 23.2118C48.9879 23.3416 48.9661 23.4721 48.9137 23.5914L43.1401 36.7131C41.8778 39.5829 39.3073 41.7507 36.265 42.5114L35.2492 42.7651L29.3402 45.1289C27.886 45.7102 26.3335 46 24.7817 46ZM2.47141 37.8379L4.19999 38.0109C7.26781 38.3171 10.2692 39.0993 13.0963 40.3294L20.5079 43.5516C23.1142 44.6848 26.1198 44.7291 28.7588 43.6734L34.7163 41.2905C34.7494 41.2774 34.7831 41.2666 34.8175 41.2581L35.8848 40.991C38.4611 40.3469 40.6374 38.5117 41.7056 36.0821L46.9718 24.1137C45.6234 24.3123 44.3827 25.0389 43.5561 26.1408L36.4842 34.2912C36.4851 34.3217 36.4856 34.3518 36.4856 34.3826C36.4856 36.3456 34.8884 37.9428 32.9254 37.9428H22.5839C21.2419 37.9425 19.9086 38.1588 18.6356 38.5834L18.3478 37.8526L18.1044 37.1081L18.1442 37.0951C19.5757 36.618 21.0749 36.375 22.5839 36.3756H32.9254C34.0241 36.3756 34.9188 35.4813 34.9188 34.3823C34.9188 33.2833 34.0245 32.3887 32.9255 32.3887H25.5134C23.5664 32.3887 21.6882 31.862 20.0816 30.8656C18.3137 29.7686 15.4636 28.297 11.9308 27.5112C6.88415 26.3918 3.25279 30.2648 2.47187 31.1887V37.8379H2.47141ZM31.7585 22.3157C30.5536 22.3157 29.2026 21.9437 27.7152 21.2C27.5349 21.1093 27.3963 20.9529 27.3279 20.763C27.2673 20.5931 25.8674 16.5663 28.0922 13.5884C29.7091 11.4237 32.7492 10.4487 37.1333 10.6931C37.3265 10.7037 37.5089 10.7856 37.6452 10.9228C37.7816 11.0601 37.8622 11.243 37.8716 11.4362C37.8872 11.7474 38.2105 19.0905 34.4661 21.5353C33.6699 22.0557 32.7654 22.3157 31.7585 22.3157ZM28.7144 19.9426C30.7723 20.9077 32.4176 21.0024 33.6099 20.2237C35.8302 18.7736 36.3102 14.4687 36.322 12.2283C32.8868 12.1445 30.5482 12.9187 29.3473 14.5257C27.9182 16.4394 28.4736 19.0716 28.7144 19.9426ZM19.7772 12.0508C18.388 12.0508 16.7855 11.7532 15.3869 10.7289C13.0147 8.99056 11.9245 5.68098 12.146 0.89253C12.155 0.699204 12.2352 0.516048 12.3712 0.378331C12.5072 0.240615 12.6893 0.158077 12.8825 0.146612C13.2213 0.127333 21.2426 -0.300709 23.9417 3.75077C25.1986 5.63657 25.0956 8.10659 23.6364 11.0934C23.5478 11.2749 23.3925 11.4151 23.2029 11.4847C23.0976 11.5237 21.6268 12.0509 19.7773 12.0509L19.7772 12.0508ZM13.6879 1.68825C13.6202 5.52365 14.502 8.13791 16.3127 9.46473C18.4804 11.053 21.4403 10.3778 22.3709 10.1067C23.4356 7.79628 23.5257 5.95169 22.6382 4.61948C20.9885 2.14326 16.1507 1.6591 13.6879 1.68825Z"></path><path d="M25.8957 32.1135C25.7894 32.1136 25.6842 32.0921 25.5865 32.0502C25.4888 32.0084 25.4007 31.9471 25.3274 31.8701C25.2542 31.7931 25.1973 31.702 25.1604 31.6024C25.1235 31.5027 25.1072 31.3966 25.1126 31.2905C25.1556 30.413 25.2331 29.5377 25.3449 28.6663C25.6708 23.1221 25.5027 10.2112 17.3397 6.63926C17.1493 6.55597 16.9998 6.40047 16.924 6.20696C16.8483 6.01345 16.8525 5.79778 16.9357 5.60737C17.1088 5.21157 17.5718 5.03095 17.9676 5.204C22.778 7.30864 25.8044 12.5484 26.7174 20.3568C26.7994 21.0565 26.8608 21.7464 26.9066 22.4183C29.0564 16.9857 32.3454 15.0663 32.5413 14.9565C32.9179 14.7435 33.3957 14.8789 33.6081 15.255C33.8193 15.6316 33.6866 16.1081 33.3114 16.3206C33.2285 16.369 28.1851 19.3957 26.9191 28.7294C26.8227 30.3263 26.6839 31.3443 26.6708 31.4375C26.6449 31.6247 26.5522 31.7962 26.4097 31.9204C26.2673 32.0447 26.0847 32.1132 25.8957 32.1134V32.1135Z"></path></svg>