<svg xmlns="http://www.w3.org/2000/svg" width="60" height="60" viewBox="0 0 60 60"><g><path d="M16.5688 22.6499C16.4031 22.6499 16.2441 22.7157 16.1269 22.833C16.0097 22.9502 15.9438 23.1091 15.9438 23.2749V24.5687C15.9438 24.7344 16.0097 24.8934 16.1269 25.0106C16.2441 25.1278 16.4031 25.1937 16.5688 25.1937C16.7346 25.1937 16.8936 25.1278 17.0108 25.0106C17.128 24.8934 17.1938 24.7344 17.1938 24.5687V23.2749C17.1938 23.1091 17.128 22.9502 17.0108 22.833C16.8936 22.7157 16.7346 22.6499 16.5688 22.6499ZM25.8313 25.1937C25.9971 25.1937 26.1561 25.1278 26.2733 25.0106C26.3905 24.8934 26.4563 24.7344 26.4563 24.5687V23.2749C26.4563 23.1091 26.3905 22.9502 26.2733 22.833C26.1561 22.7157 25.9971 22.6499 25.8313 22.6499C25.6656 22.6499 25.5066 22.7157 25.3894 22.833C25.2722 22.9502 25.2063 23.1091 25.2063 23.2749V24.5687C25.2063 24.7344 25.2722 24.8934 25.3894 25.0106C25.5066 25.1278 25.6656 25.1937 25.8313 25.1937ZM23.7001 32.7687C23.7979 32.6502 23.8487 32.5 23.8428 32.3465C23.8368 32.193 23.7746 32.0471 23.668 31.9366C23.5613 31.8261 23.4177 31.7587 23.2645 31.7474C23.1114 31.736 22.9594 31.7814 22.8376 31.8749C22.3885 32.2803 21.8051 32.5047 21.2001 32.5047C20.5951 32.5047 20.0117 32.2803 19.5626 31.8749C19.5045 31.8163 19.4354 31.7698 19.3592 31.7381C19.283 31.7064 19.2014 31.69 19.1188 31.69C19.0363 31.69 18.9546 31.7064 18.8785 31.7381C18.8023 31.7698 18.7332 31.8163 18.6751 31.8749C18.5587 31.992 18.4934 32.1504 18.4934 32.3155C18.4934 32.4806 18.5587 32.639 18.6751 32.7562C19.351 33.4028 20.2497 33.7648 21.1851 33.7672C22.1205 33.7695 23.021 33.412 23.7001 32.7687Z"></path><path d="M58.3999 28.6C58.2124 28.3313 59.1811 28.675 44.8561 24.55C44.5999 24.4813 45.2061 24.35 36.6686 26.8063C37.1839 26.4296 37.5882 25.921 37.8388 25.334C38.0894 24.7469 38.1771 24.1032 38.0927 23.4705C38.0082 22.8378 37.7548 22.2396 37.359 21.7389C36.9632 21.2381 36.4397 20.8533 35.8436 20.625C36.1233 20.2976 36.3246 19.9108 36.4323 19.4939C36.5399 19.0771 36.5511 18.6411 36.4649 18.2193C36.3787 17.7975 36.1975 17.4008 35.935 17.0596C35.6724 16.7183 35.3355 16.4415 34.9499 16.25C34.8791 13.3723 33.8916 10.5923 32.1312 8.3148C30.3708 6.03728 27.9294 4.38114 25.1624 3.58751L25.2499 2.21251C25.2687 1.92867 25.229 1.64399 25.1332 1.37615C25.0374 1.10831 24.8875 0.863025 24.6929 0.655538C24.4984 0.44805 24.2632 0.282789 24.002 0.170019C23.7409 0.0572493 23.4593 -0.00062026 23.1749 5.01339e-06H19.4249C19.1412 0.00114395 18.8608 0.0602583 18.6008 0.173718C18.3408 0.287177 18.1067 0.452586 17.913 0.659787C17.7193 0.866988 17.5699 1.11161 17.4742 1.37862C17.3784 1.64563 17.3382 1.9294 17.3561 2.21251L17.4999 3.58126C14.7591 4.3672 12.3369 5.99919 10.5791 8.2441C8.82133 10.489 7.81798 13.232 7.71236 16.0813C7.27217 16.231 6.87552 16.4866 6.55731 16.8256C6.2391 17.1646 6.00907 17.5767 5.88746 18.0254C5.76585 18.4742 5.75639 18.946 5.85991 19.3993C5.96342 19.8526 6.17675 20.2735 6.48111 20.625C5.70213 20.9247 5.05338 21.4889 4.64844 22.2187C4.24349 22.9485 4.10814 23.7975 4.2661 24.6171C4.42405 25.4366 4.86523 26.1745 5.51241 26.7016C6.1596 27.2287 6.97154 27.5113 7.80611 27.5H8.57486C8.6948 29.8221 9.45242 32.0662 10.7645 33.9858C12.0766 35.9054 13.8924 37.4263 16.0124 38.3813V41.0625C15.7016 41.107 15.3973 41.1888 15.1061 41.3063C14.9874 41.3438 7.94361 43.1813 7.91236 43.1813C6.7948 43.4716 5.78394 44.0764 4.99964 44.9238C4.21535 45.7713 3.69051 46.8258 3.48736 47.9625C1.34361 60.075 1.48736 59.2125 1.48736 59.3563C1.48044 59.4424 1.49148 59.5291 1.51978 59.6108C1.54808 59.6925 1.59302 59.7675 1.65176 59.8309C1.7105 59.8943 1.78176 59.9449 1.86105 59.9794C1.94033 60.0139 2.0259 60.0315 2.11236 60.0313H40.2874C40.4531 60.0313 40.6121 59.9654 40.7293 59.8482C40.8465 59.731 40.9124 59.572 40.9124 59.4063C40.9124 59.2813 40.9124 59.3313 40.6874 57.9563C41.6561 58.525 44.3374 59.9688 44.4374 60.0188C44.5071 60.0463 44.5812 60.0612 44.6561 60.0625C45.0874 59.9375 44.4186 60.2688 46.0874 59.3813C50.4499 57.0563 58.5124 52.8375 58.5124 41.875C58.5124 27.8563 58.5686 28.8438 58.3999 28.6ZM54.3749 30.8L45.3061 28.1813V25.9875L56.5124 29.2063L54.3749 30.8ZM44.6936 54.8563C40.9061 52.8375 35.4624 49.7375 35.4624 41.875V31.9563L44.6811 29.3L53.9061 31.9563V41.875C53.9061 49.8 48.2749 52.975 44.6936 54.8563ZM34.9624 30.8L32.8499 29.2125L44.0561 25.9875V28.1813L34.9624 30.8ZM33.8061 27.6313C33.8092 27.5813 33.8092 27.5312 33.8061 27.4813H34.3124L33.8061 27.6313ZM36.8749 23.9188C36.8799 24.5299 36.6427 25.1182 36.2153 25.5551C35.7878 25.9919 35.2048 26.2418 34.5936 26.25H33.8374C33.8374 22.55 33.8374 22.2563 33.7874 21.6313H34.5936C35.1977 21.6378 35.7751 21.8811 36.2017 22.3088C36.6283 22.7366 36.87 23.3147 36.8749 23.9188ZM33.6874 15.9438H24.3749L24.5374 13.4813C25.0958 13.034 25.5544 12.4748 25.8836 11.8396C26.2129 11.2044 26.4055 10.5073 26.4491 9.79315C26.4926 9.07902 26.3862 8.36367 26.1366 7.69316C25.887 7.02265 25.4998 6.41183 24.9999 5.9L25.0686 4.86251C27.4654 5.60754 29.5764 7.06905 31.1174 9.05028C32.6583 11.0315 33.5552 13.4373 33.6874 15.9438ZM19.4186 14.2375C20.6361 14.7254 21.9948 14.7254 23.2124 14.2375L23.1249 15.9438H19.5311L19.4186 14.2375ZM17.9811 11.4625C17.5842 10.8034 17.3918 10.0413 17.4283 9.27276C17.4647 8.50421 17.7284 7.76377 18.186 7.1452C18.6435 6.52663 19.2744 6.05774 19.9986 5.79791C20.7228 5.53808 21.5078 5.49899 22.2542 5.6856C23.0007 5.87221 23.675 6.27612 24.1917 6.84619C24.7084 7.41625 25.0444 8.12683 25.157 8.88795C25.2696 9.64907 25.1539 10.4265 24.8244 11.1218C24.4949 11.8171 23.9665 12.399 23.3061 12.7938C22.4234 13.3234 21.3665 13.4806 20.3679 13.231C19.3693 12.9813 18.5107 12.3452 17.9811 11.4625ZM18.6061 2.13126C18.5992 2.0169 18.616 1.90235 18.6555 1.7948C18.6949 1.68725 18.7562 1.58902 18.8354 1.50627C18.9147 1.42352 19.0101 1.35804 19.1159 1.31394C19.2216 1.26984 19.3353 1.24807 19.4499 1.25001H23.1999C23.311 1.25311 23.4203 1.27864 23.5213 1.32507C23.6223 1.37149 23.7129 1.43785 23.7876 1.52016C23.8624 1.60247 23.9197 1.69903 23.9561 1.80404C23.9926 1.90905 24.0075 2.02035 23.9999 2.13126C23.8311 4.77501 23.8499 4.45626 23.8124 4.97501C23.0479 4.5492 22.1874 4.3257 21.3124 4.3257C20.4373 4.3257 19.5768 4.5492 18.8124 4.97501C18.7499 4.41876 18.7999 4.87501 18.6249 2.13126H18.6061ZM17.5561 4.86251L17.6186 5.89376C17.1219 6.4095 16.7385 7.02336 16.493 7.69597C16.2475 8.36858 16.1453 9.08509 16.193 9.79951C16.2407 10.5139 16.4372 11.2105 16.7698 11.8445C17.1025 12.4786 17.5641 13.0361 18.1249 13.4813L18.2874 15.9438H8.93736C9.06861 13.437 9.96519 11.0308 11.5063 9.04944C13.0474 7.06805 15.1588 5.60675 17.5561 4.86251ZM8.62486 17.1938H33.6749C33.8912 17.184 34.1073 17.2187 34.3098 17.2956C34.5123 17.3724 34.6969 17.49 34.8522 17.6409C35.0076 17.7918 35.1305 17.9729 35.2132 18.173C35.296 18.3732 35.3369 18.5881 35.3335 18.8047C35.3301 19.0213 35.2824 19.2348 35.1934 19.4323C35.1043 19.6297 34.9758 19.8069 34.8158 19.9528C34.6557 20.0987 34.4675 20.2103 34.2627 20.2808C34.0579 20.3513 33.8408 20.3791 33.6249 20.3625H8.62486C8.22186 20.3372 7.84365 20.1592 7.56722 19.8649C7.2908 19.5705 7.13692 19.1819 7.13692 18.7781C7.13692 18.3743 7.2908 17.9857 7.56722 17.6914C7.84365 17.397 8.22186 17.2191 8.62486 17.1938ZM5.49986 23.9188C5.50152 23.3065 5.74588 22.7199 6.17938 22.2876C6.61288 21.8553 7.20013 21.6125 7.81236 21.6125H8.61236C8.54986 22.2375 8.56236 22.2375 8.56236 26.2313H7.81236C7.50815 26.2321 7.20677 26.1729 6.92549 26.057C6.6442 25.9412 6.38853 25.771 6.17314 25.5562C5.95774 25.3413 5.78684 25.0861 5.67024 24.8052C5.55363 24.5242 5.49361 24.223 5.49361 23.9188H5.49986ZM9.82486 27.5C9.82486 27.0688 9.77486 22.5 9.82486 21.6313H32.5374C32.5374 21.9813 32.5874 22.3375 32.5874 22.7C32.5874 26.8625 32.5874 27.1938 32.5249 28.025C30.9999 28.4625 31.3499 28.3563 31.2249 28.4125C30.7061 28.6375 30.8499 28.8563 30.8499 32.9C29.5679 34.9502 27.6667 36.5391 25.4215 37.4366C23.1763 38.3341 20.7037 38.4937 18.3617 37.8922C16.0198 37.2907 13.9301 35.9594 12.3953 34.091C10.8604 32.2226 9.96019 29.9142 9.82486 27.5ZM39.5249 58.6375H34.9561V53.3438C36.2113 54.7505 37.6515 55.9805 39.2374 57L39.5249 58.6375ZM33.7061 58.6375H32.0999V48.75C32.524 49.8037 33.0627 50.8077 33.7061 51.7438V58.6375ZM30.8561 42.2313C28.4999 41.6063 27.1061 41.2438 27.0436 41.2438C26.6686 41.1563 26.8374 41.2 26.2936 41.0563V38.4313C28.0551 37.6516 29.614 36.4776 30.8499 35C30.8499 41.25 30.8436 42.0125 30.8561 42.2313ZM26.5686 43.0375L27.4999 46.25L22.8749 46.775L26.5686 43.0375ZM24.9999 38.8938V41.5563C24.9963 41.7007 25.043 41.842 25.1319 41.9559C25.2207 42.0699 25.3464 42.1495 25.4874 42.1813L25.6249 42.2125L21.1499 46.6875L16.6561 42.1938L16.7749 42.1625C16.9159 42.1308 17.0415 42.0511 17.1304 41.9372C17.2192 41.8232 17.2659 41.682 17.2624 41.5375V38.85C19.7735 39.6732 22.4796 39.6885 24.9999 38.8938ZM15.7249 43.0313L19.4436 46.7813L14.8186 46.25L15.7249 43.0313ZM13.9436 47.4063L21.0811 48.2125C21.2811 48.2125 20.4561 48.3 28.3561 47.4063C28.4465 47.3962 28.5336 47.3664 28.6113 47.3192C28.689 47.272 28.7555 47.2083 28.8061 47.1328C28.8567 47.0572 28.8901 46.9715 28.9042 46.8816C28.9182 46.7918 28.9125 46.6999 28.8874 46.6125L27.7811 42.75L30.8499 43.5375V58.75H11.5499V43.5188L14.5124 42.75L13.4124 46.5938C13.3872 46.6812 13.3815 46.773 13.3955 46.8629C13.4096 46.9527 13.4431 47.0384 13.4937 47.114C13.5442 47.1896 13.6107 47.2532 13.6884 47.3005C13.7661 47.3477 13.8532 47.3774 13.9436 47.3875V47.4063ZM7.44361 58.6563H2.87486L4.74986 48.2063C4.8843 47.4418 5.2026 46.7215 5.67731 46.1074C6.15202 45.4934 6.76893 45.0039 7.47486 44.6813L7.44361 58.6563ZM8.69361 44.2813L10.2999 43.8625V58.6375H8.69361V44.2813ZM40.3874 56.25C35.7811 53.4 32.7936 49.375 32.2249 43.8875C32.0749 43.7375 32.1186 38.9813 32.1186 30.225L34.2311 31.8188V41.875C34.2311 50.45 40.2374 53.9 44.0749 55.9563V58.3438C42.8499 57.675 41.6811 57.0688 40.3874 56.25ZM45.5311 58.2188L45.3061 58.3375V55.95C48.9249 54.0375 55.1561 50.5125 55.1561 41.8563V31.8L57.2624 30.2063V41.875C57.2624 52.075 49.6311 56.0688 45.5311 58.2125V58.2188Z"></path><path d="M51.581 34.5438C51.3839 34.373 51.1549 34.2429 50.9073 34.1608C50.6597 34.0786 50.3984 34.0462 50.1382 34.0654C49.8781 34.0846 49.6243 34.1549 49.3914 34.2724C49.1585 34.3899 48.9511 34.5522 48.7811 34.7501L42.8186 41.6688L40.3186 39.7063C39.9013 39.4297 39.395 39.3208 38.9008 39.4013C38.4067 39.4818 37.9612 39.7458 37.6533 40.1406C37.3454 40.5353 37.1978 41.0317 37.24 41.5306C37.2822 42.0294 37.5112 42.494 37.8811 42.8313L41.8873 45.9563C42.2888 46.2709 42.7961 46.4185 43.3037 46.3685C43.8113 46.3184 44.28 46.0745 44.6123 45.6876L51.7873 37.3438C52.1307 36.9449 52.3018 36.4261 52.2632 35.9012C52.2245 35.3763 51.9792 34.8881 51.581 34.5438ZM50.8435 36.5251L43.6436 44.8813C43.5177 45.0196 43.3447 45.1058 43.1586 45.1232C42.9724 45.1405 42.7865 45.0877 42.6373 44.9751L38.6311 41.8501C38.5103 41.7558 38.4219 41.6262 38.3782 41.4794C38.3344 41.3325 38.3375 41.1757 38.387 41.0307C38.4365 40.8856 38.5299 40.7596 38.6543 40.6702C38.7787 40.5807 38.9278 40.5322 39.081 40.5313C39.4248 40.5313 39.2498 40.4688 42.5185 43.0313C42.6445 43.13 42.8036 43.1765 42.9629 43.1614C43.1222 43.1463 43.2696 43.0707 43.3748 42.9501L49.7248 35.5688C49.7852 35.4879 49.8615 35.4202 49.9491 35.37C50.0367 35.3197 50.1337 35.288 50.234 35.2768C50.3344 35.2656 50.436 35.2751 50.5325 35.3047C50.629 35.3343 50.7184 35.3835 50.7952 35.4491C50.872 35.5147 50.9344 35.5954 50.9787 35.6861C51.023 35.7769 51.0482 35.8757 51.0528 35.9766C51.0573 36.0775 51.0411 36.1782 51.0051 36.2726C50.9691 36.3669 50.9141 36.4529 50.8435 36.5251Z"></path></g></svg>