<svg xmlns="http://www.w3.org/2000/svg" width="60" height="60" viewBox="0 0 60 60"><g clip-path="url(#clip0_488_120)"><path d="M13.8967 48.416H13.8821C13.6223 48.4149 13.3653 48.3616 13.1264 48.2592C12.8876 48.1568 12.6718 48.0074 12.4918 47.82L9.21839 44.56C9.03429 44.3762 8.88823 44.1579 8.78853 43.9176C8.68883 43.6773 8.63746 43.4197 8.63735 43.1595C8.63724 42.8994 8.68838 42.6417 8.78787 42.4014C8.88736 42.161 9.03324 41.9425 9.21717 41.7586L11.6902 39.2953C10.0632 36.8958 8.93784 34.1924 8.38149 31.3472H4.91103C3.82355 31.3472 2.94043 30.4629 2.94043 29.3766V24.7542C2.94043 23.6667 3.82355 22.7836 4.91103 22.7836H8.3827C8.94741 19.9372 10.0721 17.2314 11.6914 14.8233L9.21839 12.3601C8.84129 11.983 8.63694 11.4842 8.64058 10.9514C8.64423 10.4187 8.85711 9.92235 9.23906 9.55135L12.5015 6.28769C12.8737 5.91668 13.3652 5.71232 13.8882 5.71232H13.9028C14.4308 5.71597 14.9258 5.92763 15.2968 6.30837L17.7504 8.75337C20.1598 7.1396 22.8661 6.0211 25.7119 5.46295V1.9706C25.7119 0.883122 26.595 0 27.6825 0H32.3049C33.3911 0 34.2755 0.883122 34.2755 1.9706V5.44957C37.1258 6.01051 39.8359 7.13319 42.2479 8.75216L44.7002 6.29985C45.0639 5.92519 45.5639 5.71475 46.0967 5.71353C46.5857 5.69407 47.1318 5.92398 47.5077 6.30837L50.758 9.56108C51.1282 9.9325 51.3361 10.4355 51.3361 10.96C51.3361 11.4844 51.1282 11.9874 50.758 12.3588L48.3081 14.8087C49.9386 17.2164 51.0649 19.9291 51.6192 22.7836H55.0763C56.1699 22.7836 57.0591 23.6667 57.0591 24.7542V29.3766C57.0591 30.4629 56.1699 31.3472 55.0763 31.3472H51.6192C51.0674 34.1982 49.9417 36.9073 48.3106 39.3099L50.758 41.7586C51.1289 42.1299 51.3372 42.6332 51.3372 43.1581C51.3372 43.6829 51.1289 44.1862 50.758 44.5575L47.5004 47.8285C47.1233 48.2056 46.6088 48.3589 46.076 48.4124C45.8172 48.411 45.5613 48.3578 45.3234 48.2561C45.0855 48.1544 44.8703 48.0061 44.6905 47.82L42.2503 45.3798C40.7071 46.4211 39.0346 47.2565 37.2752 47.865C37.1619 47.9041 37.042 47.9206 36.9224 47.9134C36.8028 47.9062 36.6858 47.8755 36.578 47.8231C36.4703 47.7707 36.3739 47.6976 36.2944 47.6079C36.2149 47.5183 36.1538 47.4138 36.1147 47.3006C36.0756 47.1873 36.0591 47.0675 36.0663 46.9478C36.0735 46.8282 36.1042 46.7112 36.1566 46.6034C36.209 46.4957 36.2821 46.3993 36.3718 46.3198C36.4614 46.2403 36.5659 46.1792 36.6791 46.1401C38.5146 45.5064 40.2449 44.6015 41.8124 43.4555C41.9882 43.3261 42.2047 43.2641 42.4224 43.2808C42.64 43.2976 42.8445 43.3919 42.9984 43.5467L45.9908 46.5391C46.1161 46.5878 46.1672 46.5829 46.2098 46.5391L49.4674 43.2694C49.4952 43.2394 49.5106 43.2001 49.5106 43.1593C49.5106 43.1184 49.4952 43.0791 49.4674 43.0492L46.475 40.0568C46.3211 39.9025 46.2276 39.6981 46.2113 39.4808C46.195 39.2635 46.257 39.0475 46.3862 38.872C48.2436 36.3394 49.4443 33.4516 49.9552 30.2901C49.9895 30.0761 50.099 29.8813 50.264 29.7407C50.4289 29.6 50.6385 29.5227 50.8553 29.5226H55.0763C55.1651 29.5226 55.2344 29.4581 55.2344 29.3766V24.7542C55.2344 24.6715 55.1663 24.6082 55.0763 24.6082H50.8553C50.6385 24.6081 50.4289 24.5308 50.264 24.3901C50.099 24.2495 49.9895 24.0547 49.9552 23.8407C49.4652 20.7316 48.2408 17.7842 46.3837 15.243C46.2557 15.0672 46.1947 14.8515 46.2116 14.6347C46.2286 14.418 46.3224 14.2144 46.4762 14.0606L49.4686 11.0682C49.4962 11.0387 49.5116 10.9998 49.5116 10.9594C49.5116 10.9189 49.4962 10.88 49.4686 10.8505L46.2086 7.59047C46.2049 7.59534 46.0748 7.58926 46.0164 7.58926H45.9908L42.9984 10.5817C42.8451 10.7355 42.6419 10.8296 42.4254 10.847C42.2088 10.8643 41.9932 10.8039 41.8173 10.6765C39.2705 8.83163 36.3252 7.61231 33.2196 7.11729C33.0052 7.08312 32.8099 6.97358 32.669 6.80836C32.5281 6.64314 32.4507 6.43307 32.4508 6.21592V1.9706C32.4505 1.93199 32.435 1.89504 32.4077 1.86774C32.3804 1.84043 32.3435 1.82495 32.3049 1.82463H27.6825C27.6438 1.82495 27.6069 1.84043 27.5796 1.86774C27.5523 1.89504 27.5368 1.93199 27.5365 1.9706V6.22808C27.5362 6.44538 27.4584 6.65545 27.317 6.82047C27.1756 6.98549 26.98 7.09462 26.7653 7.12823C23.6652 7.62138 20.7245 8.83689 18.181 10.6765C18.0055 10.8036 17.7906 10.864 17.5746 10.8471C17.3587 10.8302 17.1558 10.7369 17.0023 10.5841L13.8882 7.53695L10.4652 10.9636L13.5221 14.0728C13.6761 14.2264 13.7701 14.4299 13.7873 14.6467C13.8044 14.8635 13.7436 15.0792 13.6158 15.2551C11.7695 17.7977 10.5465 20.7386 10.0456 23.8407C10.0109 24.0545 9.90131 24.249 9.73639 24.3894C9.57148 24.5298 9.36199 24.6069 9.1454 24.607H4.90982C4.89055 24.607 4.87146 24.6108 4.85367 24.6182C4.83588 24.6256 4.81974 24.6365 4.80617 24.6502C4.7926 24.6639 4.78187 24.6801 4.77461 24.698C4.76734 24.7158 4.76369 24.7349 4.76385 24.7542V29.3766C4.76385 29.4557 4.83075 29.5226 4.90982 29.5226H9.14297C9.35956 29.5227 9.56904 29.5998 9.73396 29.7402C9.89888 29.8806 10.0085 30.0751 10.0431 30.2889C10.5353 33.3903 11.7596 36.3297 13.6145 38.8635C13.7424 39.0394 13.8032 39.2552 13.7861 39.472C13.7689 39.6887 13.6748 39.8923 13.5209 40.0458L10.5041 43.0504C10.4771 43.0804 10.4624 43.1194 10.4628 43.1597C10.4633 43.2001 10.4789 43.2388 10.5066 43.2681L13.7897 46.5379C13.9235 46.5926 13.9624 46.5805 14.0074 46.5403L16.9998 43.5479C17.1529 43.3939 17.3559 43.2998 17.5723 43.2824C17.7886 43.265 18.0041 43.3255 18.1798 43.453C19.753 44.5914 21.4851 45.4923 23.3204 46.1267C23.5491 46.2058 23.7371 46.3724 23.8429 46.5901C23.9488 46.8077 23.9638 47.0585 23.8848 47.2872C23.8057 47.5159 23.6391 47.7039 23.4214 47.8097C23.2038 47.9156 22.9531 47.9307 22.7243 47.8516C20.9673 47.2441 19.2959 46.4125 17.7516 45.3774L15.2981 47.8297C14.921 48.208 14.4222 48.416 13.8955 48.416H13.8967Z"></path><path d="M30.0034 41.2064C22.2025 41.2064 15.8564 34.8652 15.8564 27.0716C15.8564 19.2706 22.2025 12.9246 30.0034 12.9246C37.7983 12.9246 44.1395 19.2706 44.1395 27.0716C44.1395 34.8652 37.7983 41.2064 30.0034 41.2064ZM30.0034 14.7492C23.2085 14.7492 17.6811 20.2766 17.6811 27.0716C17.6811 33.8592 23.2085 39.3817 30.0034 39.3817C36.7923 39.3817 42.3148 33.8592 42.3148 27.0716C42.3148 20.2766 36.7923 14.7492 30.0034 14.7492Z"></path><path d="M23.7025 60.0001C23.4921 60.0003 23.2838 59.9588 23.0896 59.878C22.8954 59.7972 22.7191 59.6787 22.571 59.5294C22.4228 59.3801 22.3057 59.203 22.2264 59.0082C22.1471 58.8134 22.1072 58.6048 22.1089 58.3944V38.3028C22.1097 38.1407 22.1536 37.9817 22.2361 37.8421C22.3185 37.7025 22.4366 37.5874 22.5781 37.5084C22.7197 37.4295 22.8797 37.3895 23.0418 37.3928C23.2039 37.396 23.3622 37.4422 23.5005 37.5267C27.4381 39.9571 32.5994 39.951 36.5004 37.5279C36.6384 37.4412 36.7972 37.3931 36.9601 37.3887C37.1231 37.3844 37.2842 37.4238 37.4266 37.503C37.5691 37.5822 37.6877 37.6982 37.77 37.8389C37.8523 37.9796 37.8953 38.1398 37.8945 38.3028V58.3944C37.8936 58.707 37.8015 59.0124 37.6296 59.2734C37.4576 59.5344 37.2132 59.7395 36.9264 59.8636C36.6396 59.9877 36.3228 60.0254 36.0148 59.9721C35.7069 59.9188 35.4212 59.7767 35.1928 59.5634L29.9938 54.7549L24.7924 59.5695C24.4971 59.8466 24.1073 60.0006 23.7025 60.0001ZM29.9914 52.8439C30.3855 52.8439 30.782 52.9899 31.0898 53.2818L36.0686 57.8896V39.8379C32.294 41.6358 27.7325 41.6382 23.9336 39.8355V57.8774L28.9087 53.2733C29.2104 52.9874 29.6009 52.8439 29.9914 52.8439ZM29.8405 54.6138C29.8424 54.6147 29.844 54.6159 29.8454 54.6174L29.8405 54.6138ZM33.266 33.8519C32.9862 33.8519 32.7064 33.785 32.4473 33.6487L29.9974 32.3593L27.5488 33.6487C27.2586 33.8018 26.9312 33.8705 26.6039 33.8468C26.2767 33.8232 25.9626 33.7082 25.6974 33.5149C25.431 33.3226 25.2242 33.0592 25.1007 32.7547C24.9772 32.4503 24.942 32.1172 24.9992 31.7937L25.4663 29.0677L23.4835 27.136C23.0018 26.6641 22.8315 25.9743 23.0395 25.3345C23.2475 24.6947 23.7913 24.2349 24.4579 24.1375L27.196 23.7398L28.421 21.2583C28.719 20.6549 29.3235 20.2791 29.9974 20.2791C30.6713 20.2791 31.2747 20.6549 31.5739 21.2595L32.7989 23.7398L35.5358 24.1375C36.2036 24.2349 36.7474 24.6934 36.9554 25.3345C37.1634 25.9756 36.9931 26.6641 36.5126 27.136L34.5298 29.0665L34.9969 31.7937C35.0534 32.1173 35.0177 32.4502 34.8937 32.7544C34.7698 33.0586 34.5628 33.3217 34.2963 33.5137C33.9973 33.7326 33.6365 33.851 33.266 33.8519ZM29.9768 22.1463L28.6861 24.8467C28.6004 25.0203 28.4736 25.1703 28.3168 25.2837C28.1599 25.3972 27.9777 25.4705 27.786 25.4975L24.7206 25.9439L26.9783 27.9924C27.2593 28.2685 27.387 28.6614 27.3213 29.0458L26.7983 32.1027L29.4415 30.5894C29.6124 30.4997 29.8025 30.4528 29.9955 30.4526C30.1885 30.4523 30.3786 30.4989 30.5497 30.5882L33.2964 32.0321L32.676 29.0482C32.6426 28.8583 32.656 28.663 32.7151 28.4795C32.7743 28.2959 32.8773 28.1295 33.0154 27.9948L35.2378 25.8296L32.2065 25.4975C32.0143 25.4696 31.8318 25.3952 31.6749 25.2807C31.518 25.1662 31.3915 25.0152 31.3063 24.8406L29.9768 22.1463Z"></path></g></svg>