<svg xmlns="http://www.w3.org/2000/svg" width="47" height="51" viewBox="0 0 47 51"><path d="M13.3085 36.1113C13.3085 36.199 13.2912 36.2859 13.2576 36.3669C13.224 36.448 13.1748 36.5216 13.1128 36.5837C13.0508 36.6457 12.9771 36.6949 12.8961 36.7285C12.815 36.7621 12.7281 36.7794 12.6404 36.7794H5.1205C4.94332 36.7794 4.77339 36.709 4.6481 36.5837C4.52281 36.4584 4.45243 36.2885 4.45243 36.1113C4.45243 35.9341 4.52281 35.7642 4.6481 35.6389C4.77339 35.5136 4.94332 35.4432 5.1205 35.4432H12.6404C12.8176 35.4432 12.9875 35.5136 13.1128 35.6389C13.2381 35.7642 13.3085 35.9341 13.3085 36.1113ZM12.6404 30.6294H5.1205C4.94332 30.6294 4.77339 30.6998 4.6481 30.8251C4.52281 30.9504 4.45243 31.1203 4.45243 31.2975C4.45243 31.4747 4.52281 31.6446 4.6481 31.7699C4.77339 31.8952 4.94332 31.9656 5.1205 31.9656H12.6404C12.8176 31.9656 12.9875 31.8952 13.1128 31.7699C13.2381 31.6446 13.3085 31.4747 13.3085 31.2975C13.3085 31.1203 13.2381 30.9504 13.1128 30.8251C12.9875 30.6998 12.8176 30.6294 12.6404 30.6294ZM41.7277 29.7675C41.7277 31.5036 41.2129 33.2007 40.2484 34.6442C39.2839 36.0877 37.913 37.2127 36.3091 37.8771C34.7052 38.5415 32.9403 38.7153 31.2376 38.3767C29.5349 38.038 27.9708 37.202 26.7432 35.9744C25.5156 34.7468 24.6796 33.1828 24.341 31.48C24.0023 29.7773 24.1761 28.0124 24.8405 26.4085C25.5049 24.8046 26.6299 23.4337 28.0734 22.4692C29.5169 21.5047 31.214 20.9899 32.9501 20.99C35.2772 20.9926 37.5083 21.9183 39.1538 23.5638C40.7994 25.2093 41.725 27.4404 41.7277 29.7675ZM40.3915 29.7675C40.3915 28.2957 39.9551 26.857 39.1374 25.6332C38.3197 24.4095 37.1575 23.4557 35.7977 22.8924C34.4379 22.3292 32.9417 22.1819 31.4982 22.469C30.0547 22.7561 28.7287 23.4649 27.688 24.5056C26.6473 25.5463 25.9385 26.8723 25.6514 28.3158C25.3643 29.7593 25.5117 31.2556 26.0749 32.6153C26.6382 33.9751 27.592 35.1373 28.8158 35.955C30.0395 36.7727 31.4783 37.2091 32.9501 37.2091C34.9231 37.2069 36.8146 36.4222 38.2098 35.0271C39.6049 33.632 40.3896 31.7405 40.3918 29.7675H40.3915ZM46.3926 30.9403C46.6151 31.5703 46.8673 32.2842 46.6983 33.0045C46.5273 33.7334 45.9811 34.2507 45.499 34.7072C45.1885 35.0014 44.8951 35.2792 44.7623 35.5503C44.6278 35.8244 44.5904 36.2279 44.5508 36.6552C44.4909 37.3015 44.4229 38.0341 43.9686 38.6002C43.54 39.1346 42.8945 39.3635 42.3049 39.5537L46.3896 46.7175C46.4535 46.8294 46.4837 46.9574 46.4766 47.0861C46.4694 47.2147 46.4251 47.3386 46.3492 47.4427C46.2732 47.5468 46.1687 47.6267 46.0484 47.6728C45.928 47.7189 45.7969 47.7291 45.6708 47.7024L41.9131 46.9068L40.6838 50.5458C40.6426 50.6678 40.567 50.7753 40.4661 50.8554C40.3652 50.9354 40.2433 50.9846 40.1151 50.997C40.0936 50.999 40.0721 51 40.0508 51C39.9329 51 39.8172 50.9688 39.7153 50.9095C39.6134 50.8503 39.529 50.7652 39.4706 50.6628L35.1026 43.001C35.0523 43.0331 35.0016 43.0656 34.9505 43.0986C34.3759 43.469 33.7246 43.8888 32.95 43.8888C32.1753 43.8888 31.5243 43.4691 30.9495 43.0986C30.8984 43.0657 30.8477 43.0332 30.7975 43.001L26.4295 50.6621C26.3711 50.7645 26.2867 50.8496 26.1848 50.9088C26.0829 50.968 25.9671 50.9992 25.8493 50.9993C25.8283 50.9993 25.8069 50.9982 25.785 50.9962C25.6568 50.9838 25.5349 50.9347 25.434 50.8546C25.3331 50.7746 25.2574 50.6671 25.2162 50.545L23.987 46.9061L20.2293 47.7017C20.1032 47.7284 19.9721 47.7181 19.8517 47.672C19.7314 47.6259 19.6269 47.546 19.551 47.4419C19.475 47.3378 19.4308 47.214 19.4236 47.0853C19.4165 46.9566 19.4466 46.8286 19.5106 46.7167L22.2964 41.8305H2.70701C2.02761 41.8296 1.37627 41.5594 0.895879 41.079C0.415489 40.5985 0.14528 39.9472 0.144531 39.2678V3.36106C0.145391 2.68174 0.415652 2.03049 0.896033 1.55017C1.37641 1.06985 2.02769 0.799665 2.70701 0.798889H38.6135C39.2928 0.799665 39.9441 1.06985 40.4245 1.55017C40.9049 2.03049 41.1751 2.68174 41.176 3.36106V19.5086C41.4098 19.6953 41.7918 19.8174 42.1962 19.9467C42.8137 20.144 43.5135 20.3677 43.9686 20.9345C44.4236 21.5014 44.4909 22.2338 44.5508 22.8795C44.5904 23.3069 44.6278 23.7106 44.7623 23.9847C44.8951 24.2557 45.1884 24.5335 45.499 24.8275C45.981 25.284 46.5273 25.8019 46.6983 26.5304C46.8673 27.2506 46.6151 27.9646 46.3926 28.5945C46.2414 29.0223 46.0987 29.4264 46.0987 29.7672C46.0987 30.1081 46.2414 30.5126 46.3926 30.9403ZM16.6542 12.3865L20.1454 8.16508C20.2081 8.08927 20.2867 8.02823 20.3757 7.98633C20.4647 7.94443 20.5619 7.9227 20.6603 7.9227C20.7586 7.9227 20.8558 7.94443 20.9448 7.98633C21.0338 8.02823 21.1124 8.08927 21.1751 8.16508L24.6663 12.3866V2.13514H16.6542V12.3865ZM23.0586 40.4948L23.5951 39.5539C23.0056 39.3642 22.36 39.1348 21.9315 38.6004C21.4772 38.0346 21.4092 37.3012 21.3493 36.6554C21.3097 36.2281 21.2722 35.8246 21.1379 35.5505C21.0048 35.2794 20.7117 35.0016 20.4011 34.7075C19.9191 34.2509 19.3728 33.7336 19.2018 33.0047C19.0328 32.2844 19.285 31.5705 19.5074 30.9405C19.6586 30.5127 19.8008 30.1087 19.8008 29.7677C19.8008 29.4268 19.6582 29.0229 19.5074 28.595C19.285 27.9651 19.0328 27.2511 19.2018 26.5309C19.3728 25.8019 19.9191 25.284 20.4011 24.828C20.7117 24.534 21.0049 24.2561 21.1379 23.9851C21.2722 23.7111 21.3097 23.3075 21.3493 22.8801C21.4092 22.2339 21.4772 21.5013 21.9315 20.9351C22.3858 20.3688 23.0864 20.1445 23.7038 19.9472C24.1093 19.8176 24.4924 19.6952 24.7261 19.5076C24.9597 19.3201 25.1618 18.9742 25.3767 18.6073C25.7066 18.0439 26.0804 17.4055 26.7389 17.0823C27.3946 16.7609 28.1315 16.8526 28.7821 16.9337C29.2161 16.9877 29.6259 17.0385 29.9346 16.9662C30.2379 16.8952 30.5832 16.6728 30.949 16.4368C31.5236 16.0663 32.1749 15.6465 32.9494 15.6465C33.7238 15.6465 34.3752 16.0664 34.9498 16.4368C35.3156 16.6724 35.661 16.8952 35.9641 16.9662C36.2735 17.039 36.6833 16.9872 37.1173 16.9337C37.7669 16.8525 38.5044 16.7608 39.1605 17.0823C39.4183 17.2127 39.6488 17.3912 39.8394 17.6083V3.36106C39.8391 3.03599 39.7098 2.72432 39.48 2.49441C39.2502 2.26451 38.9386 2.13511 38.6135 2.13462H26.0025V14.2427C26.0025 14.3802 25.9601 14.5144 25.881 14.6269C25.802 14.7394 25.6901 14.8248 25.5607 14.8714C25.4313 14.918 25.2907 14.9235 25.1581 14.8871C25.0254 14.8508 24.9072 14.7744 24.8196 14.6684L20.6599 9.63901L16.5002 14.6684C16.4125 14.7744 16.2943 14.8507 16.1617 14.887C16.0291 14.9233 15.8885 14.9178 15.7591 14.8712C15.6298 14.8246 15.5179 14.7393 15.4388 14.6268C15.3598 14.5143 15.3173 14.3802 15.3173 14.2427V2.13514H2.70701C2.38196 2.13553 2.07033 2.2648 1.84044 2.49461C1.61055 2.72441 1.48118 3.036 1.48068 3.36106V39.2678C1.48101 39.5928 1.61025 39.9045 1.84007 40.1345C2.06988 40.3644 2.3815 40.4938 2.70659 40.4943L23.0586 40.4948ZM29.5262 42.534C29.2772 42.5437 29.0289 42.5663 28.7823 42.6016C28.132 42.6827 27.395 42.7745 26.7391 42.453C26.0803 42.1299 25.7065 41.4915 25.377 40.9281C25.1902 40.6092 25.0124 40.306 24.8164 40.1093L24.0345 41.4806V41.4813L21.409 46.0862L24.292 45.4758C24.4521 45.4421 24.6191 45.4682 24.7612 45.5493C24.9034 45.6304 25.0108 45.7609 25.0632 45.9159L26.0063 48.708L29.5262 42.534ZM44.4923 46.0861L41.0844 40.1091C41.0551 40.1385 41.0263 40.1704 40.9977 40.2042C40.8733 40.5174 40.6888 40.8033 40.4546 41.0457C40.1402 41.5779 39.7745 42.152 39.1612 42.4528C38.5056 42.7744 37.7686 42.6824 37.118 42.6014C36.8713 42.5661 36.623 42.5435 36.3741 42.5337L39.8946 48.7074L40.8377 45.9154C40.89 45.7603 40.9974 45.6298 41.1396 45.5487C41.2818 45.4676 41.4488 45.4415 41.6089 45.4753L44.4923 46.0861ZM44.7631 29.7674C44.7631 29.1974 44.9512 28.6648 45.1332 28.1497C45.3103 27.6485 45.4775 27.1753 45.3979 26.8357C45.3182 26.4961 44.96 26.1571 44.5806 25.7984C44.1978 25.4358 43.802 25.0609 43.5631 24.5737C43.3205 24.0792 43.2697 23.5324 43.2208 23.0037C43.174 22.5002 43.13 22.0247 42.9269 21.7715C42.7237 21.5184 42.2702 21.3733 41.7899 21.2202C41.2861 21.0592 40.7651 20.8926 40.3382 20.5496C40.2209 20.4545 40.1122 20.3493 40.0134 20.2352C40.0029 20.2232 39.9918 20.2108 39.9819 20.1979C39.7521 19.9111 39.5475 19.6049 39.3705 19.2828C39.1132 18.8433 38.8701 18.4283 38.5728 18.2825C38.2754 18.1366 37.7933 18.1964 37.2832 18.26C36.7517 18.3262 36.2019 18.3947 35.6598 18.2676C35.1319 18.1436 34.6718 17.847 34.2267 17.5601C33.7663 17.2634 33.3315 16.9831 32.9502 16.9831C32.5689 16.9831 32.1342 17.2634 31.6738 17.5601C31.2288 17.847 30.7685 18.1436 30.2407 18.2676C29.6984 18.3945 29.1488 18.326 28.6166 18.26C28.1067 18.1964 27.6251 18.1365 27.3273 18.2825C27.0295 18.4284 26.7868 18.8433 26.5294 19.2828C26.2628 19.7382 25.9871 20.209 25.5621 20.5506C25.1349 20.8934 24.6141 21.0599 24.1102 21.2212C23.63 21.3747 23.1763 21.5196 22.9733 21.7726C22.7704 22.0255 22.726 22.5013 22.6794 23.0047C22.6304 23.5335 22.5797 24.0802 22.3372 24.5748C22.0982 25.062 21.7023 25.4369 21.3196 25.7994C20.9402 26.1587 20.5818 26.498 20.5023 26.8367C20.4228 27.1755 20.59 27.6495 20.7672 28.1507C20.9491 28.6659 21.1372 29.1985 21.1372 29.7685C21.1372 30.3385 20.9491 30.8712 20.7671 31.3862C20.59 31.8875 20.4228 32.3606 20.5023 32.7002C20.5818 33.0398 20.9403 33.3787 21.3196 33.7375C21.7024 34.1 22.0983 34.475 22.3372 34.9623C22.5798 35.4568 22.6306 36.0035 22.6795 36.5323C22.7261 37.0358 22.7703 37.5112 22.9734 37.7644C23.1766 38.0175 23.6301 38.1625 24.1103 38.3157C24.3546 38.3938 24.6027 38.4735 24.8425 38.5737L24.8439 38.5743C25.1015 38.677 25.3433 38.8156 25.5621 38.9859C25.9872 39.3271 26.2629 39.7979 26.5295 40.2537C26.7869 40.6931 27.0298 41.1082 27.3273 41.2541C27.6248 41.3999 28.1069 41.3403 28.6167 41.2765C28.933 41.2305 29.2518 41.2042 29.5713 41.1976C29.7963 41.1955 30.0208 41.2194 30.2403 41.2689C30.7681 41.3929 31.2282 41.6895 31.6732 41.9764C32.1336 42.2731 32.5686 42.5534 32.9498 42.5534C33.331 42.5534 33.766 42.2731 34.2265 41.9763C34.6714 41.6895 35.1315 41.3929 35.6594 41.269C36.2015 41.1417 36.7513 41.2103 37.2834 41.2765C37.7933 41.3402 38.2751 41.4 38.5728 41.2541C38.8704 41.1081 39.1133 40.6932 39.3706 40.2537C39.5193 39.9889 39.6834 39.7332 39.8623 39.4878C39.8697 39.4773 39.8776 39.4668 39.8855 39.457C40.0172 39.2827 40.1691 39.1247 40.3381 38.9863C40.765 38.6437 41.286 38.4771 41.7898 38.3157C42.2701 38.1622 42.7238 38.0173 42.9267 37.7644C43.1297 37.5114 43.1739 37.0356 43.2207 36.5323C43.2697 36.0035 43.3204 35.4567 43.563 34.9623C43.8019 34.475 44.1977 34.1 44.5806 33.7375C44.9599 33.3782 45.3182 33.0388 45.3979 32.7002C45.4775 32.3615 45.3103 31.8875 45.1332 31.3862C44.9508 30.8703 44.7627 30.3377 44.7627 29.7676L44.7631 29.7674ZM38.3265 28.4966C38.3657 28.6172 38.3698 28.7465 38.3382 28.8693C38.3067 28.9922 38.2409 29.1035 38.1484 29.1903L35.9772 31.2267L36.5367 34.15C36.5605 34.2746 36.5484 34.4034 36.5018 34.5214C36.4551 34.6393 36.3758 34.7415 36.2732 34.8161C36.1706 34.8906 36.0489 34.9344 35.9223 34.9423C35.7957 34.9502 35.6695 34.9219 35.5584 34.8607L32.9506 33.4253L30.3429 34.8607C30.2318 34.9219 30.1055 34.9502 29.979 34.9422C29.8524 34.9343 29.7307 34.8905 29.6281 34.816C29.5255 34.7414 29.4462 34.6392 29.3995 34.5213C29.3529 34.4034 29.3407 34.2746 29.3645 34.15L29.9242 31.2267L27.7523 29.1905C27.6598 29.1037 27.5939 28.9924 27.5623 28.8696C27.5307 28.7467 27.5347 28.6174 27.5739 28.4967C27.6131 28.3761 27.6859 28.2691 27.7837 28.1883C27.8814 28.1075 28.0002 28.0562 28.126 28.0403L31.0796 27.6691L32.3454 24.9749C32.3993 24.8601 32.4848 24.763 32.5919 24.695C32.699 24.627 32.8232 24.5909 32.95 24.5909C33.0769 24.5909 33.2011 24.627 33.3082 24.695C33.4153 24.763 33.5007 24.8601 33.5547 24.9749L34.8205 27.6691L37.774 28.0403C37.8999 28.0562 38.0186 28.1075 38.1164 28.1883C38.2142 28.2691 38.2869 28.3761 38.3261 28.4968L38.3265 28.4966ZM36.197 29.1881L34.2894 28.9484C34.1776 28.9343 34.0711 28.8922 33.98 28.826C33.8888 28.7598 33.8159 28.6716 33.768 28.5696L32.9507 26.8294L32.1334 28.5696C32.0856 28.6716 32.0126 28.7598 31.9215 28.826C31.8304 28.8922 31.7239 28.9343 31.6122 28.9484L29.7035 29.1891L31.1059 30.5044C31.188 30.5815 31.2494 30.6782 31.2842 30.7853C31.319 30.8925 31.3261 31.0067 31.3049 31.1174L30.9436 33.0057L32.6278 32.0784C32.7265 32.0241 32.8373 31.9956 32.95 31.9956C33.0626 31.9956 33.1735 32.0241 33.2722 32.0784L34.9565 33.0057L34.5951 31.1171C34.5739 31.0064 34.5811 30.8922 34.6159 30.785C34.6507 30.6778 34.712 30.5812 34.7942 30.5041L36.197 29.1881Z"></path></svg>