<svg xmlns="http://www.w3.org/2000/svg" width="24" height="33" viewBox="0 0 24 33"><path fill-rule="evenodd" clip-rule="evenodd" d="M11.5985 0H12.0991C16.0555 0.0837348 19.6147 2.19996 21.6112 5.64953C23.6581 9.17969 23.7215 13.4256 21.7672 16.9999C21.7672 16.9999 21.7672 16.9999 21.7672 16.9999L13.6385 31.8678V31.8796L13.5756 31.9928C13.5036 32.1223 13.4205 32.2313 13.3348 32.3293C12.9597 32.758 12.4324 33 11.8485 33C11.2631 33 10.7399 32.7572 10.358 32.3358L10.3521 32.3293C10.2664 32.2313 10.1833 32.1223 10.1114 31.9928L10.0485 31.8796V31.8678L1.91977 16.9999L1.91924 16.9989C-0.0239922 13.4258 0.0283349 9.18026 2.07594 5.64918C4.08208 2.20114 7.63071 0.083862 11.5879 0.000111938L11.5985 0ZM11.6038 1C8.00323 1.078 4.77383 3.0009 2.94082 6.15117C1.06871 9.37988 1.02102 13.2539 2.79749 16.5207C2.79741 16.5205 2.79757 16.5208 2.79749 16.5207L11.0271 31.5731C11.0477 31.6024 11.0721 31.6332 11.1018 31.6674C11.2995 31.884 11.5553 32 11.8485 32C12.1446 32 12.3973 31.882 12.5822 31.6707C12.6132 31.6353 12.6386 31.6034 12.6599 31.5731L20.8898 16.5201C22.6753 13.2546 22.6188 9.38058 20.7459 6.15082C18.9234 3.00192 15.6846 1.07801 12.0831 1H11.6038ZM11.8485 5.67C9.28526 5.67 7.20848 7.75551 7.20848 10.31C7.20848 12.8739 9.28462 14.95 11.8485 14.95C14.403 14.95 16.4885 12.8732 16.4885 10.31C16.4885 7.75614 14.4023 5.67 11.8485 5.67ZM6.20848 10.31C6.20848 7.20449 8.73171 4.67 11.8485 4.67C14.9546 4.67 17.4885 7.20386 17.4885 10.31C17.4885 13.4268 14.954 15.95 11.8485 15.95C8.73234 15.95 6.20848 13.4261 6.20848 10.31Z"></path><path fill-rule="evenodd" clip-rule="evenodd" d="M7.33177 9.24333C6.74289 11.7373 8.28722 14.2364 10.7811 14.8253C13.2751 15.4141 15.7742 13.8698 16.3631 11.3759C16.952 8.88195 15.4076 6.38284 12.9137 5.79396C10.4198 5.20507 7.92066 6.74941 7.33177 9.24333ZM10.5513 15.7985C7.51994 15.0827 5.64277 12.0449 6.35857 9.01353C7.07437 5.98212 10.1121 4.10496 13.1435 4.82076C16.1749 5.53656 18.0521 8.57427 17.3363 11.6057C16.6205 14.6371 13.5828 16.5143 10.5513 15.7985Z"></path></svg>