<svg xmlns="http://www.w3.org/2000/svg" width="60" height="60" viewBox="0 0 60 60" fill="none"><g><path d="M45.1467 39.6998C44.8938 39.5761 44.6335 39.468 44.3674 39.3763V38.0826C44.3674 37.3794 43.7955 36.8076 43.0924 36.8076H41.1682C40.465 36.8076 39.8932 37.3794 39.8932 38.0826V39.3763C39.6272 39.4677 39.3658 39.5767 39.1139 39.6998L38.1986 38.7845C37.9584 38.5443 37.6385 38.4119 37.2975 38.4119C36.9564 38.4119 36.6365 38.5443 36.3963 38.7845L35.0357 40.1451C34.7955 40.3853 34.6631 40.7052 34.6631 41.0462C34.6631 41.3873 34.7955 41.7072 35.0357 41.9474L35.951 42.8626C35.8275 43.1156 35.7195 43.3759 35.6275 43.6419H34.3338C33.6307 43.6419 33.0588 44.2138 33.0588 44.9169V46.8412C33.0588 47.5443 33.6307 48.1162 34.3338 48.1162H35.6275C35.7189 48.3822 35.8279 48.6435 35.951 48.8955L35.0357 49.8107C34.7955 50.0509 34.6631 50.3708 34.6631 50.7119C34.6631 51.0529 34.7955 51.3728 35.0357 51.613L36.3963 52.9736C36.8932 53.4705 37.7018 53.4705 38.1986 52.9736L39.1139 52.0583C39.367 52.1814 39.6283 52.2904 39.8932 52.3818V53.6755C39.8932 54.3787 40.465 54.9505 41.1682 54.9505H43.0924C43.7955 54.9505 44.3674 54.3787 44.3674 53.6755V52.383C44.6334 52.2915 44.8947 52.1826 45.1467 52.0595L46.0619 52.9748C46.3021 53.215 46.6221 53.3474 46.9631 53.3474C47.3041 53.3474 47.624 53.215 47.8643 52.9748L49.2248 51.6142C49.465 51.374 49.5975 51.0541 49.5975 50.713C49.5975 50.372 49.465 50.0521 49.2248 49.8119L48.3096 48.8966C48.4326 48.6435 48.5416 48.3822 48.633 48.1173H49.9268C50.6299 48.1173 51.2018 47.5455 51.2018 46.8423V44.9181C51.2018 44.215 50.6299 43.6431 49.9268 43.6431H48.633C48.5416 43.3771 48.4326 43.1158 48.3096 42.8638L49.2248 41.9486C49.465 41.7083 49.5975 41.3884 49.5975 41.0474C49.5975 40.7064 49.465 40.3865 49.2248 40.1462L47.8643 38.7857C47.624 38.5455 47.3041 38.413 46.9631 38.413C46.6221 38.413 46.3021 38.5455 46.0619 38.7857L45.1467 39.6998ZM46.9631 39.8732L48.1373 41.0474L47.249 41.9357C46.8588 42.3259 46.7639 42.9201 47.0135 43.4134C47.1377 43.6572 47.2432 43.9126 47.3287 44.1728C47.501 44.6978 47.9873 45.0494 48.5393 45.0494H49.7955V46.7111H48.5393C47.9873 46.7111 47.501 47.0638 47.3275 47.5876C47.242 47.8466 47.1365 48.1021 47.0123 48.347C46.8906 48.5867 46.8478 48.8587 46.8901 49.1241C46.9325 49.3896 47.0577 49.6348 47.2479 49.8248L48.1361 50.713L46.9619 51.8873L46.0736 50.999C45.6834 50.6087 45.0893 50.5138 44.5959 50.7634C44.3512 50.8877 44.0973 50.9931 43.8365 51.0787C43.5813 51.1619 43.3589 51.3239 43.2014 51.5414C43.044 51.7589 42.9594 52.0207 42.96 52.2892V53.5455H41.2982V52.2892C41.2982 51.7373 40.9455 51.2509 40.4217 51.0787C40.1627 50.9931 39.9072 50.8876 39.6623 50.7634C39.4227 50.6417 39.1506 50.5989 38.8852 50.6413C38.6198 50.6836 38.3745 50.8088 38.1846 50.999L37.2963 51.8873L36.1221 50.713L37.0104 49.8248C37.4006 49.4345 37.4955 48.8404 37.2459 48.347C37.1216 48.1023 37.0162 47.8484 36.9307 47.5876C36.8474 47.3324 36.6854 47.11 36.4679 46.9526C36.2504 46.7951 35.9886 46.7105 35.7201 46.7111H34.465V45.0494H35.7213C36.2732 45.0494 36.7596 44.6966 36.9318 44.1728C37.0174 43.9126 37.1229 43.6572 37.2471 43.4134C37.4967 42.9201 37.4018 42.3271 37.0115 41.9357L36.1232 41.0474L37.2975 39.8732L38.1857 40.7615C38.576 41.1529 39.1701 41.2466 39.6635 40.997C39.9072 40.8728 40.1627 40.7673 40.4217 40.6818C40.9467 40.5095 41.2982 40.0232 41.2982 39.4701V38.215H42.96V39.4712C42.96 40.0232 43.3127 40.5107 43.8365 40.6818C44.0967 40.7673 44.3521 40.8728 44.5959 40.997C45.0893 41.2466 45.6822 41.1517 46.0736 40.7615L46.9631 39.8732ZM42.1303 41.7505C39.8533 41.7505 38.0006 43.6033 38.0006 45.8802C38.0006 48.1572 39.8533 50.0099 42.1303 50.0099C44.4072 50.0099 46.26 48.1572 46.26 45.8802C46.26 43.6033 44.4072 41.7505 42.1303 41.7505ZM42.1303 48.6037C40.6279 48.6037 39.4068 47.3814 39.4068 45.8802C39.4068 44.3791 40.6291 43.1568 42.1303 43.1568C43.6314 43.1568 44.8537 44.3791 44.8537 45.8802C44.8537 47.3814 43.6314 48.6037 42.1303 48.6037ZM56.74 3.46303L55.0373 2.22788C54.5029 1.83999 53.8479 1.68413 53.1928 1.78843C52.5377 1.89272 51.9635 2.24429 51.5756 2.77866L50.5338 4.21538L41.0779 17.2548L41.0768 17.256C41.0604 17.2783 41.0463 17.3017 41.0334 17.3251C41.0299 17.3322 41.0264 17.338 41.0229 17.3451C41.0135 17.3638 41.0041 17.3837 40.9959 17.4037C40.9936 17.4107 40.99 17.4165 40.9877 17.4236C40.9783 17.4482 40.9713 17.4728 40.9643 17.4974C40.9643 17.4998 40.9631 17.5009 40.9631 17.5033C40.9561 17.5314 40.9514 17.5595 40.949 17.5876C40.949 17.59 40.9479 17.5912 40.9479 17.5935L40.9139 17.9158H13.124V8.71538C13.124 7.44389 12.0893 6.40913 10.8178 6.40913H7.68067C6.23223 6.40913 4.86699 6.97632 3.83574 8.00757C2.80567 9.03764 2.23731 10.4041 2.23731 11.8525L2.24785 49.7849C2.24317 49.8189 2.23965 49.8529 2.23965 49.888L2.23731 52.9314C2.23613 54.347 2.78926 55.6794 3.79473 56.6837C4.80137 57.6892 6.13379 58.2423 7.54942 58.2423H50.2525C52.2236 58.2423 53.8268 56.6392 53.8268 54.6681V21.4923C53.8268 19.5212 52.2236 17.9181 50.2525 17.9181H49.1217L56.2443 8.3685C56.2455 8.36733 56.2455 8.36616 56.2467 8.36499L56.2502 8.36147L57.292 6.92475C58.0936 5.8185 57.8463 4.26577 56.74 3.46303ZM52.7146 3.60483C52.7971 3.49086 52.9014 3.39444 53.0216 3.32121C53.1417 3.24797 53.2752 3.19938 53.4143 3.17827C53.6978 3.13257 53.9814 3.20054 54.2123 3.36694L55.915 4.6021C56.3932 4.94897 56.501 5.62046 56.1529 6.09858L55.5236 6.96577L52.0854 4.47202L52.7146 3.60483ZM54.6904 8.09897L45.9002 19.8845L42.6295 17.5126L51.2604 5.61108L54.6904 8.09897ZM42.2205 18.9529L44.699 20.7505L41.8865 22.158L42.2205 18.9529ZM4.83067 9.00249C5.5959 8.23725 6.6084 7.81655 7.68067 7.81655H10.8166C11.3123 7.81655 11.7166 8.21968 11.7166 8.71655V45.1818C8.95449 44.3697 5.93692 44.079 3.6541 47.1599L3.64473 11.8525C3.64473 10.7791 4.06543 9.76772 4.83067 9.00249ZM50.2514 19.3244C51.4467 19.3244 52.4193 20.297 52.4193 21.4923V54.6681C52.4193 55.8634 51.4467 56.8361 50.2514 56.8361H7.54942C6.50996 56.8361 5.53028 56.4294 4.79082 55.69C4.05137 54.9505 3.64473 53.972 3.64473 52.9326L3.6459 50.0533C5.46113 45.763 7.95606 45.5287 11.385 46.5494C11.7998 46.6724 12.2346 46.5962 12.5803 46.3384C12.9248 46.0806 13.1229 45.6857 13.1229 45.2533V19.3244H40.7662L40.4182 22.6572H16.5869C16.199 22.6572 15.8838 22.9724 15.8838 23.3603C15.8838 23.7482 16.199 24.0634 16.5869 24.0634H19.1897V46.8962C19.1897 47.2841 19.5049 47.5994 19.8928 47.5994C20.2807 47.5994 20.5959 47.2841 20.5959 46.8962V35.8583H30.1268V41.2572H23.7412C23.3533 41.2572 23.0381 41.5724 23.0381 41.9603C23.0381 42.3482 23.3533 42.6634 23.7412 42.6634H30.8299C31.2178 42.6634 31.533 42.3482 31.533 41.9603V35.8583H41.0533C41.4412 35.8583 41.7564 35.5431 41.7564 35.1552V26.6427C41.7564 26.2548 41.4412 25.9396 41.0533 25.9396H33.2357V24.0634H41.0533C41.0791 24.0634 41.1049 24.0623 41.1295 24.0587C41.1354 24.0576 41.1424 24.0564 41.1482 24.0564C41.167 24.0541 41.1869 24.0505 41.2057 24.0458C41.2127 24.0447 41.2197 24.0423 41.2268 24.04C41.2455 24.0353 41.2631 24.0306 41.2807 24.0236C41.2877 24.0212 41.2947 24.0189 41.3018 24.0154C41.3193 24.0083 41.3369 24.0013 41.3545 23.9931C41.358 23.9908 41.3627 23.9896 41.3662 23.9884L46.3549 21.4923C46.3561 21.4912 46.3584 21.4912 46.3596 21.49L46.3619 21.4888C46.3643 21.4876 46.3666 21.4865 46.3678 21.4853C46.3912 21.4736 46.4135 21.4607 46.4357 21.4455C46.4428 21.4408 46.4486 21.4361 46.4557 21.4314C46.4721 21.4197 46.4885 21.4068 46.5037 21.3939C46.5119 21.3869 46.5201 21.3787 46.5271 21.3716C46.54 21.3599 46.5529 21.347 46.5647 21.3341C46.5729 21.3248 46.5811 21.3142 46.5893 21.3048C46.5963 21.2966 46.6033 21.2896 46.6092 21.2814L48.0693 19.3244H50.2514ZM32.5326 27.3458H40.3502V34.4521H20.5959V24.0634H31.8295V26.6427C31.8295 27.0306 32.1436 27.3458 32.5326 27.3458ZM52.1709 7.97241C52.485 8.20093 52.5553 8.64038 52.3268 8.95444L46.7896 16.588C46.6525 16.7779 46.4381 16.8787 46.2201 16.8787C46.0771 16.8787 45.933 16.8353 45.8076 16.7451C45.4936 16.5166 45.4232 16.0771 45.6518 15.763L51.1889 8.12944C51.2429 8.0545 51.3112 7.99097 51.3899 7.9425C51.4686 7.89402 51.556 7.86156 51.6473 7.84697C51.7385 7.83238 51.8317 7.83595 51.9216 7.85748C52.0115 7.879 52.0962 7.91806 52.1709 7.97241Z"></path></g></svg>