<svg xmlns="http://www.w3.org/2000/svg" width="49" height="49" viewBox="0 0 49 49"><path d="M17.1289 28.7275L23.7354 32.1846V24.4121L17.1289 21.0166V28.7275ZM25.2354 24.4121V32.1846L31.8408 28.7275V21.0166L25.2354 24.4121ZM18.0068 19.7812L24.4844 23.1104L30.9619 19.7812L24.4844 16.3916L18.0068 19.7812ZM23.7354 7.43945C23.7354 7.02524 24.0711 6.68945 24.4854 6.68945C24.8994 6.68966 25.2354 7.02537 25.2354 7.43945V10.2314L25.6338 9.85156C25.9334 9.56556 26.4083 9.57635 26.6943 9.87598C26.9803 10.1755 26.9693 10.6505 26.6699 10.9365L25.0029 12.5273C24.7131 12.804 24.2566 12.804 23.9668 12.5273L22.3008 10.9365L22.248 10.8809C22.0008 10.592 22.0073 10.157 22.2754 9.87598C22.5436 9.59496 22.9782 9.56808 23.2783 9.80176L23.3359 9.85156L23.7354 10.2324V7.43945ZM33.3408 29.1816C33.3408 29.4607 33.1857 29.7173 32.9385 29.8467L24.833 34.0889C24.6152 34.2029 24.3546 34.2029 24.1367 34.0889L16.0312 29.8467C15.784 29.7173 15.6289 29.4607 15.6289 29.1816V19.7881C15.6289 19.509 15.784 19.2525 16.0312 19.123L24.1367 14.8809L24.2207 14.8438C24.4194 14.7689 24.6424 14.7811 24.833 14.8809L32.9385 19.123C33.1857 19.2525 33.3408 19.509 33.3408 19.7881V29.1816Z"></path><path d="M26.6133 3.87891C26.6133 2.70325 25.66 1.75006 24.4844 1.75C23.3087 1.75 22.3555 2.70321 22.3555 3.87891C22.3555 5.05455 23.3087 6.00781 24.4844 6.00781C25.66 6.00775 26.6132 5.05451 26.6133 3.87891ZM28.1133 3.87891C28.1132 5.88294 26.4884 7.50775 24.4844 7.50781C22.4803 7.50781 20.8555 5.88298 20.8555 3.87891C20.8555 1.87478 22.4803 0.25 24.4844 0.25C26.4884 0.250064 28.1133 1.87482 28.1133 3.87891Z"></path><path d="M23.7352 41.5311V38.7372L23.3358 39.119L23.2782 39.1688C22.9781 39.4023 22.5434 39.3746 22.2753 39.0936C21.9897 38.794 22.0012 38.32 22.3006 38.0341L23.9667 36.4423L24.0829 36.3524C24.3682 36.1708 24.7491 36.2003 25.0028 36.4423L26.6698 38.0341L26.1512 38.5761L25.6337 39.119L25.2352 38.7382V41.5311C25.235 41.945 24.8991 42.281 24.4852 42.2811C24.0711 42.2811 23.7355 41.9452 23.7352 41.5311ZM26.6698 38.0341C26.9689 38.32 26.9798 38.7941 26.6942 39.0936C26.4082 39.3932 25.9333 39.4049 25.6337 39.119L26.6698 38.0341Z"></path><path d="M26.6133 45.0918C26.6133 43.9161 25.66 42.963 24.4844 42.9629C23.3087 42.9629 22.3555 43.9161 22.3555 45.0918C22.3555 46.2674 23.3087 47.2207 24.4844 47.2207C25.66 47.2206 26.6132 46.2674 26.6133 45.0918ZM28.1133 45.0918C28.1132 47.0958 26.4884 48.7206 24.4844 48.7207C22.4803 48.7207 20.8555 47.0959 20.8555 45.0918C20.8555 43.0877 22.4803 41.4629 24.4844 41.4629C26.4884 41.463 28.1133 43.0877 28.1133 45.0918Z"></path><path d="M3.87891 20.8564C5.62677 20.8565 7.08342 22.0906 7.42871 23.7354H10.2324L9.85156 23.3359L9.80176 23.2783C9.56825 22.9783 9.5952 22.5446 9.87598 22.2764C10.1569 22.0082 10.5919 22.0009 10.8809 22.248L10.9365 22.3008L12.5273 23.9678L12.6182 24.083C12.7739 24.3278 12.774 24.643 12.6182 24.8877L12.5273 25.0029L10.9365 26.6699L10.8809 26.7227C10.5919 26.9697 10.1569 26.9625 9.87598 26.6943C9.57645 26.4083 9.56559 25.9334 9.85156 25.6338L10.2324 25.2354H7.43945C7.43686 25.2354 7.43422 25.2344 7.43164 25.2344C7.10122 26.8715 5.70291 28.1142 3.87891 28.1143C1.87382 28.1143 0.250064 26.4904 0.25 24.4854C0.25 22.4802 1.87378 20.8564 3.87891 20.8564ZM38.0889 22.248C38.3778 22.0009 38.8128 22.0082 39.0938 22.2764C39.3931 22.5623 39.4039 23.0364 39.1182 23.3359L38.7373 23.7354H41.5303L41.6074 23.7393C41.9854 23.7779 42.2803 24.0972 42.2803 24.4854C42.2802 24.8735 41.9854 25.1928 41.6074 25.2314L41.5303 25.2354H38.7373L39.1182 25.6338L39.168 25.6924C39.4014 25.9924 39.3746 26.4262 39.0938 26.6943C38.8128 26.9625 38.3778 26.9697 38.0889 26.7227L38.0332 26.6699L36.4424 25.0029C36.1659 24.7132 36.1659 24.2576 36.4424 23.9678L38.0332 22.3008L38.0889 22.248ZM1.75 24.4854C1.75006 25.662 2.70225 26.6143 3.87891 26.6143C5.11834 26.6142 6.00775 25.675 6.00781 24.4854C6.00781 23.3087 5.05555 22.3565 3.87891 22.3564C2.70221 22.3564 1.75 23.3087 1.75 24.4854Z"></path><path d="M47.2188 24.4844C47.2188 23.3087 46.2655 22.3555 45.0898 22.3555C43.9141 22.3555 42.9609 23.3087 42.9609 24.4844C42.961 25.66 43.9142 26.6133 45.0898 26.6133C46.2654 26.6132 47.2187 25.66 47.2188 24.4844ZM48.7188 24.4844C48.7187 26.4884 47.0939 28.1132 45.0898 28.1133C43.0858 28.1133 41.461 26.4884 41.4609 24.4844C41.4609 22.4803 43.0857 20.8555 45.0898 20.8555C47.0939 20.8555 48.7188 22.4803 48.7188 24.4844Z"></path><path d="M7.1368 41.8326C5.91465 40.6104 3.88936 40.6107 2.66707 41.8326C1.44481 43.0549 1.44481 45.0801 2.66707 46.3023C3.88933 47.5246 5.91454 47.5246 7.1368 46.3023C8.35872 45.08 8.35893 43.0547 7.1368 41.8326ZM46.3028 41.8326C45.0805 40.6107 43.0552 40.6104 41.8331 41.8326C40.6109 43.0547 40.6111 45.08 41.8331 46.3023C43.0553 47.5246 45.0806 47.5246 46.3028 46.3023C47.5251 45.0801 47.5251 43.0549 46.3028 41.8326ZM14.8712 36.4537V35.1588L8.80281 41.2271C8.7626 41.2673 8.71807 41.3005 8.67195 41.3297C9.98766 43.1468 9.82965 45.7302 8.19734 47.3629C6.3893 49.1709 3.41457 49.1709 1.60652 47.3629C-0.201523 45.5548 -0.201523 42.5801 1.60652 40.772C3.23883 39.1401 5.82169 38.9816 7.63875 40.2965C7.66785 40.2504 7.70217 40.2067 7.74226 40.1666L13.8106 34.0982H12.5157C12.1015 34.0982 11.7658 33.7624 11.7657 33.3482C11.7657 32.934 12.1015 32.5982 12.5157 32.5982H15.6212C16.0354 32.5982 16.3712 32.934 16.3712 33.3482V36.4537C16.3712 36.8679 16.0354 37.2037 15.6212 37.2037C15.207 37.2036 14.8712 36.8679 14.8712 36.4537ZM32.5987 36.4537V33.3482C32.5987 32.934 32.9345 32.5982 33.3487 32.5982H36.4542L36.5313 32.6021C36.9095 32.6406 37.2042 32.9599 37.2042 33.3482C37.2041 33.7365 36.9095 34.0559 36.5313 34.0943L36.4542 34.0982H35.1593L41.2276 40.1666L41.2784 40.2232C41.2975 40.2467 41.3143 40.2714 41.3302 40.2965C43.1472 38.9811 45.7309 39.1399 47.3634 40.772C49.1714 42.5801 49.1714 45.5548 47.3634 47.3629C45.5553 49.1709 42.5806 49.1709 40.7725 47.3629C39.1404 45.7304 38.9816 43.1468 40.297 41.3297C40.2719 41.3138 40.2471 41.297 40.2237 41.2779L40.1671 41.2271L34.0987 35.1588V36.4537C34.0987 36.8679 33.7629 37.2036 33.3487 37.2037C32.9345 37.2037 32.5987 36.8679 32.5987 36.4537ZM1.60652 1.60603C3.41457 -0.202011 6.3893 -0.202011 8.19734 1.60603C9.82945 3.23848 9.98716 5.82118 8.67195 7.63826C8.69724 7.65421 8.72252 7.67075 8.74617 7.69002L8.80281 7.74178L14.8712 13.8101V12.5152C14.8712 12.101 15.207 11.7653 15.6212 11.7652C16.0354 11.7652 16.3712 12.101 16.3712 12.5152V15.6207C16.3712 16.0349 16.0354 16.3707 15.6212 16.3707H12.5157C12.1015 16.3707 11.7657 16.0349 11.7657 15.6207C11.7658 15.2065 12.1015 14.8707 12.5157 14.8707H13.8106L7.74226 8.80232L7.69051 8.74568C7.67124 8.72204 7.6547 8.69676 7.63875 8.67146C5.82167 9.98668 3.23897 9.82896 1.60652 8.19685C-0.201523 6.38881 -0.201523 3.41408 1.60652 1.60603ZM40.7725 1.60603C42.5806 -0.202011 45.5553 -0.202011 47.3634 1.60603C49.1714 3.41408 49.1714 6.38881 47.3634 8.19685C45.7307 9.82916 43.1473 9.98717 41.3302 8.67146C41.301 8.71759 41.2678 8.76211 41.2276 8.80232L35.1593 14.8707H36.4542C36.8684 14.8707 37.2041 15.2065 37.2042 15.6207C37.2042 16.0349 36.8684 16.3707 36.4542 16.3707H33.3487C32.9345 16.3707 32.5987 16.0349 32.5987 15.6207V12.5152C32.5987 12.101 32.9345 11.7652 33.3487 11.7652C33.7629 11.7653 34.0987 12.101 34.0987 12.5152V13.8101L40.1671 7.74178C40.2072 7.70168 40.2509 7.66737 40.297 7.63826C38.9821 5.8212 39.1406 3.23834 40.7725 1.60603ZM7.1368 2.66658C5.91454 1.44432 3.88933 1.44432 2.66707 2.66658C1.44481 3.88884 1.44481 5.91405 2.66707 7.13631C3.88936 8.35823 5.91465 8.35845 7.1368 7.13631C8.35894 5.91416 8.35871 3.88887 7.1368 2.66658ZM46.3028 2.66658C45.0806 1.44432 43.0553 1.44432 41.8331 2.66658C40.6112 3.88887 40.6109 5.91416 41.8331 7.13631C43.0552 8.35845 45.0805 8.35823 46.3028 7.13631C47.5251 5.91405 47.5251 3.88884 46.3028 2.66658Z"></path></svg>