<svg xmlns="http://www.w3.org/2000/svg" width="60" height="60" viewBox="0 0 60 60"><g><path d="M45.926 9.1369H43.0948C42.7854 7.16346 41.0885 5.64564 39.0288 5.64564H36.6335C36.026 2.46563 33.2257 0.0468751 29.9022 0C26.6022 0.0468751 23.8019 2.46469 23.1953 5.64564H20.8C18.5219 5.64564 16.6685 7.49908 16.6685 9.77721C16.6685 12.0553 18.521 13.9088 20.7991 13.9088H39.0288C40.9038 13.9088 42.4732 12.645 42.9757 10.9294H45.926C46.8214 10.9316 47.6794 11.2889 48.3117 11.9228C48.944 12.5567 49.2992 13.4156 49.2992 14.311V27.2532C49.2992 27.4909 49.3936 27.7189 49.5617 27.8869C49.7297 28.055 49.9577 28.1494 50.1954 28.1494C50.4331 28.1494 50.6611 28.055 50.8292 27.8869C50.9972 27.7189 51.0917 27.4909 51.0917 27.2532V14.311C51.0917 11.4582 48.7742 9.1369 45.926 9.1369ZM39.0288 12.1163H20.8C20.1799 12.1155 19.5854 11.8689 19.1469 11.4304C18.7084 10.9919 18.4617 10.3973 18.461 9.77721C18.4617 9.15692 18.7085 8.56226 19.1472 8.12373C19.5859 7.68521 20.1807 7.43864 20.801 7.43814H23.9819C24.4535 7.43814 24.8444 7.07252 24.8763 6.60095C25.0516 3.9422 27.2697 1.83 29.9022 1.79157C32.5591 1.83 34.7772 3.9422 34.9526 6.60095C34.9835 7.07252 35.3744 7.43814 35.8469 7.43814H39.0288C39.649 7.43889 40.2435 7.68556 40.682 8.12406C41.1205 8.56256 41.3671 9.15708 41.3679 9.77721C41.3671 10.3973 41.1205 10.9919 40.682 11.4304C40.2435 11.8689 39.649 12.1155 39.0288 12.1163Z"></path><path d="M50.1953 32.3882C50.0776 32.3881 49.961 32.4112 49.8522 32.4562C49.7434 32.5012 49.6445 32.5672 49.5613 32.6504C49.478 32.7337 49.412 32.8325 49.367 32.9413C49.322 33.0501 49.2989 33.1667 49.2991 33.2845V54.8339C49.2983 55.7283 48.9427 56.586 48.3103 57.2186C47.6779 57.8511 46.8204 58.207 45.9259 58.208H14.0734C13.1789 58.207 12.3213 57.8511 11.689 57.2186C11.0566 56.586 10.701 55.7283 10.7002 54.8339V14.3113C10.7002 13.4159 11.0553 12.5571 11.6877 11.9231C12.32 11.2892 13.178 10.9319 14.0734 10.9297H14.7952C15.0329 10.9297 15.2609 10.8353 15.429 10.6672C15.5971 10.4991 15.6915 10.2712 15.6915 10.0335C15.6915 9.79576 15.5971 9.56779 15.429 9.39971C15.2609 9.23163 15.0329 9.13721 14.7952 9.13721H14.0734C11.2252 9.13721 8.90771 11.4585 8.90771 14.3122V54.8339C8.9092 56.2035 9.45389 57.5167 10.4223 58.4852C11.3907 59.4538 12.7037 59.9987 14.0734 60.0005H45.9259C47.2954 59.9987 48.6083 59.4539 49.5767 58.4856C50.545 57.5172 51.0898 56.2043 51.0916 54.8348V33.2835C51.0917 33.1658 51.0686 33.0492 51.0236 32.9404C50.9786 32.8316 50.9126 32.7327 50.8293 32.6495C50.7461 32.5662 50.6472 32.5002 50.5384 32.4552C50.4296 32.4102 50.313 32.3881 50.1953 32.3882Z"></path><path d="M19.8143 29.5755C18.9611 29.5765 18.1431 29.9159 17.5399 30.5193C16.9367 31.1227 16.5975 31.9407 16.5968 32.7939V33.903H14.0964C13.9787 33.9029 13.8621 33.926 13.7533 33.971C13.6445 34.016 13.5457 34.082 13.4624 34.1652C13.3792 34.2485 13.3132 34.3473 13.2682 34.4561C13.2232 34.5649 13.2001 34.6815 13.2002 34.7993V41.5924C13.2002 42.0874 13.6005 42.4887 14.0964 42.4887H16.5968V46.503C16.5975 47.1749 16.8647 47.819 17.3398 48.2941C17.8149 48.7691 18.459 49.0364 19.1308 49.0371H23.179L28.4027 54.2618C28.4858 54.3454 28.5845 54.4117 28.6933 54.4569C28.802 54.5022 28.9187 54.5255 29.0365 54.5255C29.1543 54.5255 29.2709 54.5022 29.3797 54.4569C29.4885 54.4117 29.5872 54.3454 29.6702 54.2618L34.8771 49.0549H38.9599C39.646 49.0542 40.3037 48.7813 40.7888 48.2962C41.2739 47.8111 41.5467 47.1534 41.5475 46.4674V42.4887H44.0468C44.1646 42.4888 44.2812 42.4657 44.39 42.4207C44.4988 42.3757 44.5976 42.3097 44.6809 42.2264C44.7641 42.1432 44.8301 42.0443 44.8751 41.9355C44.9201 41.8267 44.9432 41.7101 44.9431 41.5924V34.7983C44.9431 34.6807 44.9199 34.5642 44.8748 34.4555C44.8298 34.3468 44.7638 34.2481 44.6805 34.1649C44.5973 34.0818 44.4985 34.0158 44.3897 33.9709C44.281 33.926 44.1645 33.9029 44.0468 33.903H41.5465V32.7939C41.5458 31.9407 41.2066 31.1227 40.6034 30.5193C40.0002 29.9159 39.1822 29.5765 38.329 29.5755H29.9674V26.3955H37.1506C39.5346 26.3955 41.4753 24.4549 41.4753 22.0708C41.4753 19.6867 39.5346 17.7461 37.1506 17.7461H20.9927C18.6086 17.7461 16.668 19.6867 16.668 22.0708C16.668 24.4549 18.6086 26.3955 20.9927 26.3955H28.1749V29.5755H19.8143ZM18.4605 22.0708C18.4605 20.6748 19.5968 19.5395 20.9918 19.5395H37.1506C38.5465 19.5395 39.6818 20.6748 39.6818 22.0708C39.6818 23.4667 38.5465 24.602 37.1506 24.602H20.9927C20.3217 24.6011 19.6784 24.3341 19.2039 23.8596C18.7295 23.3851 18.4625 22.7418 18.4615 22.0708H18.4605ZM14.9918 35.6955H19.9933V40.6961H14.9918V35.6955ZM29.0374 52.3596L24.8384 48.1605L29.0449 43.9549L33.244 48.1549L29.0374 52.3596ZM43.1506 40.6971H38.1499V35.6964H43.1506V40.6971ZM38.329 31.3689C39.1146 31.3689 39.754 32.0083 39.754 32.7939V33.9039H37.2537C37.136 33.9038 37.0194 33.9269 36.9106 33.9719C36.8018 34.0169 36.7029 34.0829 36.6197 34.1662C36.5364 34.2494 36.4704 34.3483 36.4254 34.4571C36.3804 34.5659 36.3573 34.6825 36.3574 34.8002V41.5933C36.3574 42.0883 36.7587 42.4896 37.2537 42.4896H39.754V46.4693C39.754 46.9071 39.3978 47.2634 38.959 47.2634H34.8846L29.6768 42.0565C29.5088 41.8887 29.281 41.7944 29.0435 41.7944C28.806 41.7944 28.5783 41.8887 28.4102 42.0565L23.2193 47.2465H19.1318C18.9348 47.2465 18.746 47.1682 18.6067 47.029C18.4675 46.8898 18.3893 46.7009 18.3893 46.504V42.4877H20.8896C21.0073 42.4878 21.1239 42.4647 21.2327 42.4197C21.3415 42.3747 21.4404 42.3087 21.5236 42.2255C21.6069 42.1422 21.6729 42.0434 21.7179 41.9346C21.7629 41.8258 21.786 41.7092 21.7858 41.5915V34.7974C21.7858 34.6797 21.7627 34.5632 21.7176 34.4545C21.6725 34.3459 21.6065 34.2471 21.5233 34.164C21.44 34.0808 21.3412 34.0149 21.2325 33.97C21.1238 33.925 21.0072 33.9019 20.8896 33.9021H18.3893V32.7939C18.3893 32.0083 19.0286 31.3689 19.8143 31.3689H38.329Z"></path></g></svg>