<svg xmlns="http://www.w3.org/2000/svg" width="60" height="60" viewBox="0 0 60 60"><g><path fill-rule="evenodd" clip-rule="evenodd" d="M29.9995 8.79541C30.4137 8.79541 30.7495 9.1312 30.7495 9.54541V13.2472L31.4816 12.5483C31.7813 12.2623 32.256 12.2734 32.542 12.573C32.828 12.8726 32.817 13.3474 32.5173 13.6334L30.5173 15.5425C30.2275 15.8191 29.7715 15.8191 29.4816 15.5425L27.4816 13.6334C27.182 13.3474 27.171 12.8726 27.457 12.573C27.743 12.2734 28.2177 12.2623 28.5173 12.5483L29.2495 13.2472V9.54541C29.2495 9.1312 29.5853 8.79541 29.9995 8.79541ZM19.9244 23.6991L29.6517 18.6082C29.8696 18.4942 30.1294 18.4942 30.3473 18.6082L40.0745 23.6991C40.3218 23.8285 40.4768 24.0845 40.4768 24.3636V35.6363C40.4768 35.9154 40.3218 36.1714 40.0745 36.3008L30.3473 41.3917C30.1294 41.5057 29.8696 41.5057 29.6517 41.3917L19.9244 36.3008C19.6772 36.1714 19.5222 35.9154 19.5222 35.6363V24.3636C19.5222 24.0845 19.6772 23.8285 19.9244 23.6991ZM21.0222 25.5924V35.1823L29.2495 39.4882V29.8214L21.0222 25.5924ZM30.7495 29.8214V39.4882L38.9768 35.1823V25.5924L30.7495 29.8214ZM38.0979 24.3576L29.9995 28.5203L21.9011 24.3576L29.9995 20.1192L38.0979 24.3576Z"></path><path fill-rule="evenodd" clip-rule="evenodd" d="M30.0002 2.56836C28.5065 2.56836 27.2957 3.77923 27.2957 5.27291C27.2957 6.76659 28.5065 7.97745 30.0002 7.97745C31.4939 7.97745 32.7047 6.76659 32.7047 5.27291C32.7047 3.77923 31.4939 2.56836 30.0002 2.56836ZM25.7957 5.27291C25.7957 2.9508 27.6781 1.06836 30.0002 1.06836C32.3223 1.06836 34.2047 2.9508 34.2047 5.27291C34.2047 7.59501 32.3223 9.47745 30.0002 9.47745C27.6781 9.47745 25.7957 7.59501 25.7957 5.27291Z"></path><path fill-rule="evenodd" clip-rule="evenodd" d="M29.4821 44.4575C29.772 44.1808 30.228 44.1808 30.5179 44.4575L32.5179 46.3666C32.8175 46.6526 32.8285 47.1273 32.5425 47.4269C32.2565 47.7266 31.7818 47.7376 31.4821 47.4516L30.75 46.7527V50.4545C30.75 50.8688 30.4142 51.2045 30 51.2045C29.5858 51.2045 29.25 50.8688 29.25 50.4545V46.7527L28.5179 47.4516C28.2182 47.7376 27.7435 47.7266 27.4575 47.4269C27.1715 47.1273 27.1825 46.6526 27.4821 46.3666L29.4821 44.4575Z"></path><path fill-rule="evenodd" clip-rule="evenodd" d="M30.0002 52.0229C28.5065 52.0229 27.2957 53.2338 27.2957 54.7275C27.2957 56.2212 28.5065 57.432 30.0002 57.432C31.4939 57.432 32.7047 56.2212 32.7047 54.7275C32.7047 53.2338 31.4939 52.0229 30.0002 52.0229ZM25.7957 54.7275C25.7957 52.4054 27.6781 50.5229 30.0002 50.5229C32.3223 50.5229 34.2047 52.4054 34.2047 54.7275C34.2047 57.0496 32.3223 58.932 30.0002 58.932C27.6781 58.932 25.7957 57.0496 25.7957 54.7275Z"></path><path fill-rule="evenodd" clip-rule="evenodd" d="M5.27266 27.2954C3.77778 27.2954 2.56812 28.5051 2.56812 30C2.56812 31.4948 3.77778 32.7045 5.27266 32.7045C6.84553 32.7045 7.97721 31.5079 7.97721 30C7.97721 28.5051 6.76754 27.2954 5.27266 27.2954ZM1.06812 30C1.06812 27.6767 2.94936 25.7954 5.27266 25.7954C7.34406 25.7954 9.06406 27.2908 9.41269 29.2617C9.45576 29.254 9.50011 29.25 9.54539 29.25H13.2472L12.5483 28.5178C12.2623 28.2182 12.2734 27.7434 12.573 27.4574C12.8726 27.1714 13.3474 27.1825 13.6334 27.4821L15.5425 29.4821C15.8191 29.7719 15.8191 30.228 15.5425 30.5178L13.6334 32.5178C13.3474 32.8174 12.8726 32.8285 12.573 32.5425C12.2734 32.2565 12.2623 31.7817 12.5483 31.4821L13.2472 30.75H9.54539C9.50102 30.75 9.45756 30.7461 9.41531 30.7387C9.08199 32.7007 7.43522 34.2045 5.27266 34.2045C2.94936 34.2045 1.06812 32.3233 1.06812 30ZM47.4269 27.4574C47.7265 27.7434 47.7375 28.2182 47.4515 28.5178L46.7527 29.25H50.4545C50.8687 29.25 51.2045 29.5857 51.2045 30C51.2045 30.4142 50.8687 30.75 50.4545 30.75H46.7527L47.4515 31.4821C47.7375 31.7817 47.7265 32.2565 47.4269 32.5425C47.1273 32.8285 46.6525 32.8174 46.3665 32.5178L44.4574 30.5178C44.1808 30.228 44.1808 29.7719 44.4574 29.4821L46.3665 27.4821C46.6525 27.1825 47.1273 27.1714 47.4269 27.4574Z"></path><path fill-rule="evenodd" clip-rule="evenodd" d="M54.7268 27.2954C53.2331 27.2954 52.0222 28.5063 52.0222 30C52.0222 31.4936 53.2331 32.7045 54.7268 32.7045C56.2204 32.7045 57.4313 31.4936 57.4313 30C57.4313 28.5063 56.2204 27.2954 54.7268 27.2954ZM50.5222 30C50.5222 27.6778 52.4047 25.7954 54.7268 25.7954C57.0489 25.7954 58.9313 27.6778 58.9313 30C58.9313 32.3221 57.0489 34.2045 54.7268 34.2045C52.4047 34.2045 50.5222 32.3221 50.5222 30Z"></path><path fill-rule="evenodd" clip-rule="evenodd" d="M9.28779 3.71233C7.7625 2.18704 5.23737 2.18704 3.71208 3.71233C2.18679 5.23761 2.18679 7.76274 3.71208 9.28803C5.23737 10.8133 7.7625 10.8133 9.28779 9.28803C10.8131 7.76274 10.8131 5.23761 9.28779 3.71233ZM2.65142 2.65167C4.7625 0.540591 8.23737 0.540591 10.3484 2.65167C12.2973 4.60053 12.4471 7.71168 10.7977 9.83915C10.8992 9.87532 10.9945 9.93404 11.0757 10.0153L18.6136 17.5532V15.6365C18.6136 15.2223 18.9494 14.8865 19.3636 14.8865C19.7778 14.8865 20.1136 15.2223 20.1136 15.6365V19.3638C20.1136 19.778 19.7778 20.1138 19.3636 20.1138H15.6363C15.2221 20.1138 14.8863 19.778 14.8863 19.3638C14.8863 18.9496 15.2221 18.6138 15.6363 18.6138H17.5529L10.0151 11.076C9.9338 10.9947 9.87508 10.8994 9.83891 10.7979C7.71143 12.4473 4.60029 12.2976 2.65142 10.3487C0.540346 8.23762 0.540346 4.76274 2.65142 2.65167ZM56.2878 3.71233C54.7625 2.18704 52.2374 2.18704 50.7121 3.71233C49.1868 5.23761 49.1868 7.76274 50.7121 9.28803C52.2374 10.8133 54.7625 10.8133 56.2878 9.28803C57.8131 7.76274 57.8131 5.23761 56.2878 3.71233ZM49.6514 2.65167C51.7625 0.540591 55.2374 0.540591 57.3485 2.65167C59.4595 4.76274 59.4595 8.23762 57.3485 10.3487C55.3996 12.2976 52.2884 12.4473 50.161 10.7979C50.1248 10.8994 50.0661 10.9947 49.9848 11.076L42.447 18.6138H44.3636C44.7778 18.6138 45.1136 18.9496 45.1136 19.3638C45.1136 19.778 44.7778 20.1138 44.3636 20.1138H40.6363C40.2221 20.1138 39.8863 19.778 39.8863 19.3638V15.6365C39.8863 15.2223 40.2221 14.8865 40.6363 14.8865C41.0505 14.8865 41.3863 15.2223 41.3863 15.6365V17.5532L48.9242 10.0153C49.0054 9.93404 49.1007 9.87532 49.2022 9.83915C47.5528 7.71168 47.7026 4.60053 49.6514 2.65167ZM14.8863 40.6365C14.8863 40.2223 15.2221 39.8865 15.6363 39.8865H19.3636C19.7778 39.8865 20.1136 40.2223 20.1136 40.6365V44.3638C20.1136 44.778 19.7778 45.1138 19.3636 45.1138C18.9494 45.1138 18.6136 44.778 18.6136 44.3638V42.4472L11.0757 49.9851C10.9945 50.0663 10.8992 50.125 10.7977 50.1612C12.4471 52.2887 12.2973 55.3998 10.3484 57.3487C8.23737 59.4598 4.7625 59.4598 2.65142 57.3487C0.540346 55.2376 0.540346 51.7627 2.65142 49.6517C4.60029 47.7028 7.71143 47.5531 9.83891 49.2024C9.87508 49.1009 9.9338 49.0057 10.0151 48.9244L17.5529 41.3865H15.6363C15.2221 41.3865 14.8863 41.0508 14.8863 40.6365ZM39.8863 40.6365C39.8863 40.2223 40.2221 39.8865 40.6363 39.8865H44.3636C44.7778 39.8865 45.1136 40.2223 45.1136 40.6365C45.1136 41.0508 44.7778 41.3865 44.3636 41.3865H42.447L49.9848 48.9244C50.0661 49.0057 50.1248 49.1009 50.161 49.2024C52.2884 47.5531 55.3996 47.7028 57.3485 49.6517C59.4595 51.7627 59.4595 55.2376 57.3485 57.3487C55.2374 59.4598 51.7625 59.4598 49.6514 57.3487C47.7026 55.3998 47.5528 52.2887 49.2022 50.1612C49.1007 50.125 49.0054 50.0663 48.9242 49.9851L41.3863 42.4472V44.3638C41.3863 44.778 41.0505 45.1138 40.6363 45.1138C40.2221 45.1138 39.8863 44.778 39.8863 44.3638V40.6365ZM9.28779 50.7123C7.7625 49.187 5.23737 49.187 3.71208 50.7123C2.18679 52.2376 2.18679 54.7627 3.71208 56.288C5.23737 57.8133 7.7625 57.8133 9.28779 56.288C10.8131 54.7627 10.8131 52.2376 9.28779 50.7123ZM56.2878 50.7123C54.7625 49.187 52.2374 49.187 50.7121 50.7123C49.1868 52.2376 49.1868 54.7627 50.7121 56.288C52.2374 57.8133 54.7625 57.8133 56.2878 56.288C57.8131 54.7627 57.8131 52.2376 56.2878 50.7123Z"></path></g></svg>