<svg xmlns="http://www.w3.org/2000/svg" width="36" height="50" viewBox="0 0 36 50"><path d="M31.271 7.61408H28.9116C28.6538 5.96955 27.2397 4.7047 25.5233 4.7047H23.5272C23.0209 2.05469 20.6873 0.0390626 17.9178 0C15.1678 0.0390626 12.8342 2.05391 12.3287 4.7047H10.3326C8.43418 4.7047 6.88965 6.24923 6.88965 8.14768C6.88965 10.0461 8.4334 11.5907 10.3318 11.5907H25.5233C27.0858 11.5907 28.3936 10.5375 28.8124 9.10783H31.271C32.0171 9.1097 32.7321 9.40741 33.259 9.93568C33.786 10.464 34.0819 11.1797 34.0819 11.9258V22.711C34.0819 22.9091 34.1606 23.099 34.3007 23.2391C34.4407 23.3792 34.6307 23.4579 34.8288 23.4579C35.0269 23.4579 35.2168 23.3792 35.3569 23.2391C35.497 23.099 35.5757 22.9091 35.5757 22.711V11.9258C35.5757 9.54846 33.6444 7.61408 31.271 7.61408ZM25.5233 10.0969H10.3326C9.81585 10.0963 9.32042 9.89072 8.955 9.5253C8.58958 9.15988 8.38402 8.66445 8.3834 8.14768C8.38402 7.63076 8.58969 7.13521 8.95528 6.76978C9.32086 6.40434 9.81649 6.19887 10.3334 6.19845H12.9842C13.3772 6.19845 13.7029 5.89376 13.7295 5.50079C13.8756 3.28516 15.724 1.525 17.9178 1.49297C20.1319 1.525 21.9803 3.28516 22.1264 5.50079C22.1522 5.89376 22.478 6.19845 22.8717 6.19845H25.5233C26.0401 6.19907 26.5355 6.40464 26.9009 6.77005C27.2663 7.13547 27.4719 7.6309 27.4725 8.14768C27.4719 8.66445 27.2663 9.15988 26.9009 9.5253C26.5355 9.89072 26.0401 10.0963 25.5233 10.0969Z"></path><path d="M34.8292 26.9901C34.7311 26.99 34.6339 27.0092 34.5432 27.0467C34.4526 27.0842 34.3702 27.1392 34.3008 27.2086C34.2315 27.278 34.1764 27.3604 34.139 27.451C34.1015 27.5417 34.0822 27.6389 34.0823 27.737V45.6948C34.0817 46.4402 33.7854 47.1549 33.2584 47.682C32.7314 48.2092 32.0168 48.5057 31.2714 48.5065H4.72755C3.98216 48.5057 3.26755 48.2092 2.74055 47.682C2.21355 47.1549 1.91723 46.4402 1.9166 45.6948V11.926C1.9166 11.1798 2.21253 10.4641 2.73948 9.93586C3.26644 9.40759 3.98139 9.10987 4.72755 9.10801H5.32911C5.5272 9.10801 5.71717 9.02932 5.85724 8.88926C5.9973 8.74919 6.07599 8.55922 6.07599 8.36113C6.07599 8.16305 5.9973 7.97308 5.85724 7.83301C5.71717 7.69295 5.5272 7.61426 5.32911 7.61426H4.72755C2.35411 7.61426 0.422852 9.54864 0.422852 11.9268V45.6948C0.424092 46.8362 0.877995 47.9305 1.68499 48.7376C2.49199 49.5447 3.58618 49.9988 4.72755 50.0003H31.2714C32.4126 49.9989 33.5067 49.5449 34.3136 48.7379C35.1206 47.9309 35.5746 46.8368 35.5761 45.6956V27.7362C35.5762 27.6381 35.5569 27.5409 35.5194 27.4502C35.4819 27.3596 35.4269 27.2772 35.3575 27.2078C35.2882 27.1385 35.2058 27.0834 35.1151 27.0459C35.0245 27.0085 34.9273 26.99 34.8292 26.9901Z"></path><path d="M9.51173 24.6459C8.80074 24.6467 8.11911 24.9296 7.61644 25.4324C7.11376 25.9353 6.8311 26.617 6.83048 27.328V28.2522H4.74688C4.64877 28.2521 4.5516 28.2713 4.46094 28.3088C4.37028 28.3463 4.2879 28.4013 4.21853 28.4707C4.14915 28.5401 4.09414 28.6225 4.05664 28.7131C4.01915 28.8038 3.9999 28.9009 4 28.9991V34.66C4 35.0725 4.3336 35.4069 4.74688 35.4069H6.83048V38.7522C6.8311 39.3121 7.05378 39.8488 7.44967 40.2447C7.84556 40.6406 8.38233 40.8633 8.9422 40.8639H12.3156L16.6688 45.2178C16.738 45.2875 16.8203 45.3427 16.9109 45.3805C17.0015 45.4182 17.0987 45.4376 17.1969 45.4376C17.2951 45.4376 17.3923 45.4182 17.4829 45.3805C17.5736 45.3427 17.6558 45.2875 17.725 45.2178L22.0641 40.8788H25.4665C26.0381 40.8782 26.5862 40.6508 26.9905 40.2465C27.3947 39.8423 27.6221 39.2942 27.6227 38.7225V35.4069H29.7055C29.8036 35.407 29.9008 35.3877 29.9915 35.3502C30.0821 35.3127 30.1645 35.2577 30.2339 35.1884C30.3033 35.119 30.3583 35.0366 30.3958 34.9459C30.4333 34.8553 30.4525 34.7581 30.4524 34.66V28.9983C30.4524 28.9002 30.4331 28.8031 30.3955 28.7126C30.358 28.622 30.303 28.5397 30.2336 28.4704C30.1642 28.4011 30.0819 28.3462 29.9913 28.3087C29.9007 28.2713 29.8036 28.2521 29.7055 28.2522H27.6219V27.328C27.6213 26.617 27.3386 25.9353 26.836 25.4324C26.3333 24.9296 25.6517 24.6467 24.9407 24.6459H17.9727V21.9959H23.9586C25.9454 21.9959 27.5626 20.3787 27.5626 18.392C27.5626 16.4053 25.9454 14.7881 23.9586 14.7881H10.4938C8.50704 14.7881 6.88985 16.4053 6.88985 18.392C6.88985 20.3787 8.50704 21.9959 10.4938 21.9959H16.4789V24.6459H9.51173ZM8.3836 18.392C8.3836 17.2287 9.33048 16.2826 10.493 16.2826H23.9586C25.1219 16.2826 26.068 17.2287 26.068 18.392C26.068 19.5553 25.1219 20.5014 23.9586 20.5014H10.4938C9.93458 20.5006 9.39853 20.2781 9.00312 19.8826C8.60772 19.4872 8.38521 18.9512 8.38439 18.392H8.3836ZM5.49297 29.7459H9.66095V33.9131H5.49297V29.7459ZM17.1977 43.6327L13.6985 40.1335L17.2039 36.6288L20.7032 40.1288L17.1977 43.6327ZM28.9587 33.9139H24.7915V29.7467H28.9587V33.9139ZM24.9407 26.1405C25.5954 26.1405 26.1282 26.6733 26.1282 27.328V28.253H24.0446C23.9465 28.2529 23.8493 28.2721 23.7586 28.3096C23.668 28.3471 23.5856 28.4021 23.5162 28.4715C23.4469 28.5409 23.3918 28.6232 23.3543 28.7139C23.3169 28.8046 23.2976 28.9017 23.2977 28.9998V34.6608C23.2977 35.0733 23.6321 35.4077 24.0446 35.4077H26.1282V38.7241C26.1282 39.0889 25.8313 39.3858 25.4657 39.3858H22.0704L17.7305 35.0467C17.5905 34.9069 17.4007 34.8284 17.2028 34.8284C17.0049 34.8284 16.8151 34.9069 16.675 35.0467L12.3492 39.3717H8.94298C8.77888 39.3717 8.6215 39.3065 8.50546 39.1905C8.38942 39.0745 8.32423 38.9171 8.32423 38.753V35.4061H10.4078C10.5059 35.4062 10.6031 35.387 10.6938 35.3495C10.7844 35.312 10.8668 35.257 10.9362 35.1876C11.0056 35.1182 11.0606 35.0358 11.0981 34.9452C11.1356 34.8545 11.1548 34.7573 11.1547 34.6592V28.9975C11.1547 28.8995 11.1354 28.8024 11.0978 28.7118C11.0603 28.6212 11.0053 28.5389 10.9359 28.4696C10.8665 28.4004 10.7842 28.3454 10.6936 28.308C10.603 28.2705 10.5059 28.2513 10.4078 28.2514H8.32423V27.328C8.32423 26.6733 8.85704 26.1405 9.51173 26.1405H24.9407Z"></path></svg>