<svg xmlns="http://www.w3.org/2000/svg" width="44" height="50" viewBox="0 0 44 50"><path d="M29.8289 37.091C29.5107 37.091 29.2607 36.841 29.2607 36.5229C29.2607 32.716 30.6698 29.0456 33.238 26.1819C35.7608 23.3637 37.1471 19.7955 37.1244 16.1591C37.0676 7.93185 30.3289 1.19319 22.113 1.13637C18.0448 1.10228 14.2266 2.67046 11.3516 5.52275C8.47657 8.37503 6.87429 12.1932 6.87429 16.2501C6.87429 19.841 8.2493 23.3637 10.7379 26.1478C13.3175 29.0342 14.7266 32.716 14.7266 36.5115C14.7266 36.8297 14.4766 37.0797 14.1584 37.0797C13.8402 37.0797 13.5902 36.8297 13.5902 36.5115C13.5902 33.0001 12.272 29.591 9.88567 26.9092C7.20384 23.9092 5.72656 20.1251 5.72656 16.2501C5.72656 11.8864 7.43111 7.78412 10.5334 4.71593C13.613 1.67046 17.6812 0 21.9993 0H22.1243C30.9653 0.0681821 38.2039 7.30684 38.2608 16.1478C38.2835 20.0683 36.8062 23.8978 34.0903 26.9319C31.7153 29.591 30.4085 32.9888 30.4085 36.5115C30.3971 36.8297 30.1357 37.091 29.8289 37.091Z"></path><path d="M29.8295 41.1137H14.1704C12.7499 41.1137 11.5908 39.9546 11.5908 38.5341C11.5908 37.1137 12.7499 35.9546 14.1704 35.9546H29.8295C31.25 35.9546 32.4091 37.1137 32.4091 38.5341C32.4091 39.9546 31.25 41.1137 29.8295 41.1137ZM14.1704 37.091C13.3749 37.091 12.7272 37.7387 12.7272 38.5341C12.7272 39.3296 13.3749 39.9773 14.1704 39.9773H29.8295C30.625 39.9773 31.2727 39.3296 31.2727 38.5341C31.2727 37.7387 30.625 37.091 29.8295 37.091H14.1704Z"></path><path d="M29.8295 45.1479H14.1704C12.7499 45.1479 11.5908 43.9888 11.5908 42.5683C11.5908 41.1479 12.7499 39.9888 14.1704 39.9888C14.4886 39.9888 14.7386 40.2388 14.7386 40.557C14.7386 40.8751 14.4886 41.1251 14.1704 41.1251C13.3749 41.1251 12.7272 41.7729 12.7272 42.5683C12.7272 43.3638 13.3749 44.0115 14.1704 44.0115H29.8295C30.625 44.0115 31.2727 43.3638 31.2727 42.5683C31.2727 41.7729 30.625 41.1251 29.8295 41.1251C29.5113 41.1251 29.2613 40.8751 29.2613 40.557C29.2613 40.2388 29.5113 39.9888 29.8295 39.9888C31.25 39.9888 32.4091 41.1479 32.4091 42.5683C32.4091 43.9888 31.25 45.1479 29.8295 45.1479Z"></path><path d="M21.9998 50.0001C18.3067 50.0001 15.3066 47.5683 15.3066 44.5796C15.3066 44.2614 15.5566 44.0114 15.8748 44.0114C16.193 44.0114 16.443 44.2614 16.443 44.5796C16.443 46.9433 18.9317 48.8637 21.9998 48.8637C25.068 48.8637 27.5567 46.9433 27.5567 44.5796C27.5567 44.2614 27.8067 44.0114 28.1249 44.0114C28.443 44.0114 28.6931 44.2614 28.6931 44.5796C28.6931 47.5683 25.693 50.0001 21.9998 50.0001ZM21.9998 20.3523C19.7726 20.3523 17.9657 18.5113 17.9657 16.2613C17.9657 14.0113 19.7726 12.1704 21.9998 12.1704C24.2271 12.1704 26.034 14.0113 26.034 16.2613C26.034 18.5113 24.2271 20.3523 21.9998 20.3523ZM21.9998 13.2954C20.3976 13.2954 19.1021 14.625 19.1021 16.25C19.1021 17.875 20.3976 19.2159 21.9998 19.2159C23.6021 19.2159 24.8976 17.8863 24.8976 16.2613C24.8976 14.6363 23.6021 13.2954 21.9998 13.2954Z"></path><path d="M23.7042 25.2614H20.2951C19.9769 25.2614 19.7269 25.0114 19.7269 24.6932V23.2955C19.3519 23.1705 18.9883 23.0228 18.636 22.841L17.636 23.841C17.5337 23.9432 17.386 24.0114 17.2383 24.0114C17.0905 24.0114 16.9428 23.9546 16.8405 23.841L14.4314 21.4319C14.2155 21.216 14.2155 20.8523 14.4314 20.625L15.4314 19.625C15.2496 19.2728 15.1019 18.9091 14.9769 18.5341H13.5678C13.2496 18.5341 12.9996 18.2841 12.9996 17.9659V14.5568C12.9996 14.2387 13.2496 13.9887 13.5678 13.9887H14.9769C15.1019 13.6137 15.2496 13.25 15.4314 12.8977L14.4314 11.8977C14.2155 11.6818 14.2155 11.3182 14.4314 11.0909L16.8405 8.68182C17.0564 8.46591 17.4201 8.46591 17.6473 8.68182L18.6473 9.68183C18.9996 9.50001 19.3633 9.35228 19.7383 9.22728V7.81818C19.7383 7.5 19.9883 7.25 20.3064 7.25H23.7155C24.0337 7.25 24.2837 7.5 24.2837 7.81818V9.21592C24.6587 9.34092 25.0224 9.48864 25.3746 9.67046L26.3746 8.67046C26.6019 8.45455 26.9542 8.45455 27.1815 8.67046L29.5906 11.0796C29.8178 11.2955 29.8178 11.6591 29.5906 11.8864L28.5906 12.8864C28.7724 13.2387 28.9201 13.6023 29.0451 13.9773H30.4542C30.7724 13.9773 31.0224 14.2273 31.0224 14.5455V17.9546C31.0224 18.2728 30.7724 18.5228 30.4542 18.5228H29.0565C28.9315 18.8978 28.7837 19.2614 28.6019 19.6137L29.6019 20.6137C29.8292 20.8296 29.8292 21.1932 29.6019 21.4205L27.1928 23.8296C26.9656 24.0455 26.6133 24.0455 26.386 23.8296L25.386 22.8296C25.0337 23.0114 24.6701 23.1591 24.2951 23.2841V24.6932C24.2724 25.0114 24.0224 25.2614 23.7042 25.2614ZM20.8633 24.1251H23.136V22.8637C23.136 22.6023 23.3065 22.3751 23.5678 22.3182C24.136 22.1705 24.6701 21.9432 25.1815 21.6478C25.4087 21.5114 25.6928 21.5455 25.8746 21.7387L26.7724 22.6364L28.3633 21.0228L27.4656 20.125C27.2837 19.9432 27.2497 19.6591 27.3747 19.4319C27.6701 18.9205 27.8974 18.375 28.0451 17.8182C28.1133 17.5682 28.3406 17.3864 28.5906 17.3864H29.8519V15.1137H28.5906C28.3292 15.1137 28.1019 14.9432 28.0451 14.6818C27.8974 14.1137 27.6701 13.5796 27.3747 13.0682C27.2383 12.8409 27.2724 12.5568 27.4656 12.375L28.3633 11.4773L26.761 9.88637L25.8633 10.7841C25.6815 10.9659 25.3974 11 25.1701 10.875C24.6587 10.5796 24.1133 10.3523 23.5565 10.2046C23.3065 10.1364 23.1246 9.9091 23.1246 9.6591V8.38637H20.8519V9.64774C20.8519 9.9091 20.6814 10.1364 20.4201 10.1932C19.8519 10.3409 19.3178 10.5682 18.8064 10.8636C18.5792 11 18.2951 10.9659 18.1133 10.7727L17.2155 9.87501L15.636 11.4887L16.5337 12.3864C16.7155 12.5682 16.7496 12.8523 16.6246 13.0796C16.3292 13.5909 16.1019 14.1364 15.9542 14.6932C15.886 14.9432 15.6587 15.125 15.4087 15.125H14.1473V17.3978H15.4087C15.6701 17.3978 15.8973 17.5682 15.9542 17.8296C16.1019 18.3978 16.3292 18.9319 16.6246 19.4432C16.761 19.6705 16.7269 19.9546 16.5337 20.1364L15.636 21.0228L17.2383 22.6251L18.136 21.7273C18.3178 21.5455 18.6019 21.5114 18.8292 21.6364C19.3405 21.9319 19.886 22.1591 20.4428 22.3069C20.6928 22.3751 20.8746 22.6023 20.8746 22.8523V24.1251H20.8633ZM3.30639 16.8296H0.647285C0.329102 16.8296 0.0791016 16.5796 0.0791016 16.2614C0.0791016 15.9432 0.329102 15.6932 0.647285 15.6932H3.30639C3.62457 15.6932 3.87457 15.9432 3.87457 16.2614C3.87457 16.5796 3.62457 16.8296 3.30639 16.8296ZM3.96548 12.4773C3.87457 12.4773 3.78366 12.4546 3.70411 12.4091L1.24956 11.1137C0.976832 10.9659 0.863195 10.625 1.01092 10.3409C1.15865 10.0682 1.49956 9.95456 1.78365 10.1023L4.23821 11.3977C4.51094 11.5455 4.62457 11.8864 4.47685 12.1705C4.36321 12.3637 4.17003 12.4773 3.96548 12.4773ZM1.51093 22.466C1.30638 22.466 1.1132 22.3523 1.01092 22.1591C0.863195 21.8864 0.976832 21.5341 1.24956 21.3864L3.70411 20.1023C3.97684 19.9546 4.32912 20.0682 4.47685 20.341C4.62457 20.6137 4.51094 20.966 4.23821 21.1137L1.77229 22.3978C1.69274 22.4432 1.60183 22.466 1.51093 22.466ZM43.352 16.8296H40.6929C40.3747 16.8296 40.1247 16.5796 40.1247 16.2614C40.1247 15.9432 40.3747 15.6932 40.6929 15.6932H43.352C43.6702 15.6932 43.9202 15.9432 43.9202 16.2614C43.9202 16.5796 43.6588 16.8296 43.352 16.8296ZM40.0338 12.4773C39.8292 12.4773 39.6361 12.3637 39.5338 12.1705C39.3861 11.8977 39.4997 11.5455 39.7724 11.3977L42.227 10.1136C42.4997 9.96592 42.852 10.0796 42.9997 10.3523C43.1474 10.625 43.0338 10.9773 42.7611 11.125L40.2952 12.4091C40.2156 12.4546 40.1247 12.4773 40.0338 12.4773ZM42.4883 22.466C42.3974 22.466 42.3065 22.4432 42.227 22.3978L39.7724 21.1023C39.4883 20.9546 39.3861 20.6137 39.5338 20.3296C39.6815 20.0569 40.0224 19.9432 40.3065 20.091L42.7611 21.3864C43.0452 21.5341 43.1474 21.8751 42.9997 22.1591C42.8974 22.3523 42.6929 22.466 42.4883 22.466Z"></path></svg>