<svg xmlns="http://www.w3.org/2000/svg" width="88" height="57" viewBox="0 0 88 57"><path d="M52.505 33.574V35.6245L77.8964 42.9479V41.7953L52.505 33.574ZM52.505 33.574V35.6245L77.8964 42.9479V41.7953L52.505 33.574ZM52.505 33.574V35.6245L77.8964 42.9479V41.7953L52.505 33.574ZM52.505 33.574V35.6245L77.8964 42.9479V41.7953L52.505 33.574ZM52.505 33.574V35.6245L77.8964 42.9479V41.7953L52.505 33.574ZM52.505 33.574V35.6245L77.8964 42.9479V41.7953L52.505 33.574ZM52.505 33.574V35.6245L77.8964 42.9479V41.7953L52.505 33.574ZM52.505 33.574V35.6245L77.8964 42.9479V41.7953L52.505 33.574ZM52.505 33.574V35.6245L77.8964 42.9479V41.7953L52.505 33.574ZM52.505 33.574V35.6245L77.8964 42.9479V41.7953L52.505 33.574ZM52.505 33.574V35.6245L77.8964 42.9479V41.7953L52.505 33.574ZM52.505 33.574V35.6245L77.8964 42.9479V41.7953L52.505 33.574ZM52.505 33.574V35.6245L77.8964 42.9479V41.7953L52.505 33.574ZM52.505 33.574V35.6245L77.8964 42.9479V41.7953L52.505 33.574ZM52.505 33.574V35.6245L77.8964 42.9479V41.7953L52.505 33.574ZM52.505 33.574V35.6245L77.8964 42.9479V41.7953L52.505 33.574ZM25.2946 41.4175V57H88L82.6322 55.6103V40.0566L48.9165 28.5936V22.9999L42.1764 25.3904L32.9678 22.2628L31.8197 13.8711H29.5349L29.2917 15.629L27.9979 24.9837L22.5135 27.1291L21.3272 18.4825H19.0515L18.8953 19.5974L18.8945 19.6041L17.5825 29.0662L11.9615 31.2686L10.834 23.0947H8.55833L7.16701 33.1391L6.51595 33.3939V54.9777L0 57H10.7174V44.9888C10.7174 42.8057 12.5455 41.03 14.7914 41.03C15.181 41.0582 15.5309 41.2567 15.7642 41.559C15.9876 41.8612 16.0753 42.2486 15.9876 42.6175C15.8519 43.7132 15.21 44.4317 14.0817 44.7814V57H21.6962V41.6345C21.6962 39.3003 23.6509 37.4009 26.0432 37.4009C26.4618 37.4387 26.8414 37.6372 27.0938 37.9683C27.337 38.2891 27.4246 38.7047 27.327 39.1017C27.1814 40.2737 26.5006 41.0389 25.2946 41.4175ZM9.69578 25.9956C9.37482 26.2031 9.08284 26.4586 8.82058 26.7416C9.11257 26.6098 9.40456 26.4868 9.69578 26.3734V27.5543C9.31688 27.7721 8.96696 28.055 8.66506 28.3951C9.00584 28.2351 9.34585 28.0928 9.69578 27.9699V29.6426C9.15145 29.8885 8.66506 30.2478 8.26634 30.6915C8.72376 30.4648 9.20939 30.2856 9.69578 30.1441V32.1472L7.81883 32.8843L9.09275 23.6896H9.69578V25.9956ZM19.4975 19.6878L19.4983 19.6826L19.586 19.0781H20.189V22.3665C19.897 22.565 19.6348 22.7917 19.4015 23.0562C19.6637 22.9339 19.9168 22.8199 20.189 22.7162V23.9162C19.8391 24.134 19.5181 24.3985 19.2459 24.7007C19.557 24.5592 19.868 24.4266 20.189 24.3133V25.9956C19.6736 26.2408 19.2261 26.5816 18.8472 26.9972C19.2848 26.789 19.7316 26.6194 20.189 26.4772V28.0462L18.2343 28.8018L19.4975 19.6878ZM14.5292 45.9622V45.1592C14.6169 45.1688 14.6946 45.1777 14.7823 45.1777C15.8321 45.1777 16.6882 44.0628 16.6882 42.6835C16.6882 41.313 15.8321 40.1981 14.7823 40.1981C14.2669 40.1981 13.7996 40.4626 13.4497 40.9071C13.1386 40.9922 12.8367 41.1145 12.5554 41.2752C12.9534 40.0277 13.9071 39.1588 15.0057 39.1588C16.474 39.1588 17.6701 40.6893 17.6701 42.5887C17.6701 44.4792 16.474 46.0193 15.0057 46.0193C14.8501 46.0193 14.6847 46 14.5292 45.9622ZM20.2279 55.497H15.6476V54.4858H20.2279V55.497ZM41.4377 28.3862L46.3786 26.8076V29.0196L41.4377 30.5878V28.3862ZM41.4377 33.6873L46.3786 32.1094V34.311L41.4377 35.8889V33.6873ZM41.4377 38.9884L46.3786 37.4105V39.6121L41.4377 41.19V38.9884ZM33.0646 23.8214L39.9983 26.1749L33.0646 28.641V23.8214ZM33.259 38.4973V36.2956L38.1992 34.717V36.9283L33.259 38.4973ZM38.1992 40.0188V42.2294L33.259 43.7984V41.5967L38.1992 40.0188ZM33.259 33.1961V30.9938L38.1992 29.4159V31.6271L33.259 33.1961ZM48.9165 54.4858V30.1908L51.1723 30.956L81.0853 41.1145V55.497H77.8964V44.8851L68.5215 42.4472V55.497H64.8942V41.4738L52.505 38.2513V55.497H26.8696V54.4858H48.9165ZM29.9625 15.2505V15.2475L30.0693 14.466H30.6723V18.7374C30.42 18.9166 30.1958 19.1344 29.9816 19.3611C30.2156 19.2567 30.439 19.1529 30.6723 19.0581V20.2775C30.3613 20.4856 30.0792 20.7308 29.8261 21.0146C30.1082 20.882 30.3902 20.759 30.6723 20.6553V22.3472C30.2057 22.5828 29.778 22.9139 29.4274 23.311C29.836 23.1125 30.2446 22.9517 30.6723 22.8102V23.8496L30.3712 24.0481L28.6497 24.7281L29.9625 15.2505ZM26.0432 36.5127C25.489 36.5127 24.9835 36.7964 24.6237 37.269C24.2829 37.3631 23.962 37.4957 23.6608 37.6653C24.0885 36.3334 25.1002 35.3978 26.2864 35.3978C27.8523 35.3978 29.1262 37.0416 29.1262 39.064C29.1262 41.096 27.8523 42.7309 26.2864 42.7309C26.1118 42.7309 25.9365 42.7116 25.771 42.6738V41.8138C25.8587 41.833 25.9555 41.8427 26.0432 41.8427C27.1715 41.8427 28.0856 40.6426 28.0856 39.178C28.0856 37.7031 27.1715 36.5127 26.0432 36.5127ZM77.8964 41.7953L52.505 33.574V35.6245L77.8964 42.9479V41.7953ZM52.505 33.574V35.6245L77.8964 42.9479V41.7953L52.505 33.574ZM52.505 33.574V35.6245L77.8964 42.9479V41.7953L52.505 33.574ZM52.505 33.574V35.6245L77.8964 42.9479V41.7953L52.505 33.574ZM52.505 33.574V35.6245L77.8964 42.9479V41.7953L52.505 33.574ZM52.505 33.574V35.6245L77.8964 42.9479V41.7953L52.505 33.574ZM52.505 33.574V35.6245L77.8964 42.9479V41.7953L52.505 33.574ZM52.505 33.574V35.6245L77.8964 42.9479V41.7953L52.505 33.574ZM52.505 33.574V35.6245L77.8964 42.9479V41.7953L52.505 33.574ZM52.505 33.574V35.6245L77.8964 42.9479V41.7953L52.505 33.574ZM52.505 33.574V35.6245L77.8964 42.9479V41.7953L52.505 33.574ZM52.505 33.574V35.6245L77.8964 42.9479V41.7953L52.505 33.574ZM52.505 33.574V35.6245L77.8964 42.9479V41.7953L52.505 33.574ZM52.505 33.574V35.6245L77.8964 42.9479V41.7953L52.505 33.574ZM52.505 33.574V35.6245L77.8964 42.9479V41.7953L52.505 33.574ZM52.505 33.574V35.6245L77.8964 42.9479V41.7953L52.505 33.574ZM52.505 33.574V35.6245L77.8964 42.9479V41.7953L52.505 33.574Z"></path><path d="M20.2086 17.3012C20.4228 16.8286 20.3161 16.2804 19.9365 15.9122C19.5576 15.5529 18.9835 15.4581 18.4971 15.6663C18.2638 15.3359 17.8651 15.1374 17.4473 15.1655C17.0288 15.1848 16.6499 15.4107 16.4555 15.77C16.3579 15.5337 16.1635 15.3448 15.9203 15.2507C15.6771 15.1559 15.395 15.1751 15.1618 15.2885C14.6563 14.5418 13.8002 14.0884 12.8762 14.0884C11.953 14.0884 11.0968 14.5418 10.5914 15.2885C9.89075 14.7684 8.90882 14.8344 8.28673 15.4492C7.67379 16.0537 7.62499 17.0175 8.17923 17.6886C7.74164 18.0383 7.54723 18.5954 7.67379 19.1347C7.80034 19.6732 8.23794 20.0984 8.78227 20.2207C9.33651 20.3436 9.92048 20.1547 10.2796 19.7295C10.5616 19.9851 10.9703 20.0695 11.34 19.9658C11.7098 19.8525 12.0017 19.5591 12.0887 19.191C12.1664 19.371 12.3219 19.5028 12.5171 19.5503C12.7115 19.5969 12.9151 19.5503 13.0614 19.4273C13.0904 20.0984 13.6645 20.637 14.3643 20.637C15.0649 20.637 15.6382 20.0984 15.668 19.4273C15.9493 19.9184 16.4944 20.2118 17.0776 20.174C17.6509 20.1266 18.1571 19.7673 18.3713 19.248C18.5162 19.4088 18.6961 19.5288 18.8951 19.6036C19.0849 19.674 19.2907 19.7036 19.4981 19.6873L19.5019 19.6866C19.585 19.6806 19.6689 19.6658 19.752 19.6443C19.8107 19.6258 19.8686 19.6066 19.9273 19.5784C19.8656 19.2999 19.896 19.2732 19.9159 19.0776C19.9212 19.028 19.925 18.9672 19.9273 18.8887C19.9311 18.7465 19.9532 18.6109 19.9799 18.482C20.0211 18.2753 20.0729 18.0879 20.0729 17.925L20.666 17.8872C20.5692 17.6605 20.4129 17.4627 20.2086 17.3012ZM16.0469 13.7958C15.9981 13.5972 15.7747 13.475 15.5704 13.5313C15.3661 13.5876 15.2395 13.7958 15.2982 13.9943C15.3462 14.2025 15.5605 14.3158 15.7747 14.2684C15.979 14.2114 16.1048 14.0039 16.0469 13.7958ZM10.0463 13.8239C9.96851 13.6817 9.78402 13.6343 9.63764 13.7195C9.49203 13.795 9.444 13.975 9.53091 14.1165C9.60867 14.258 9.79393 14.3054 9.93954 14.2299C10.0859 14.1454 10.1339 13.9662 10.0463 13.8239ZM13.188 20.7977C12.9928 20.6851 12.7694 20.6563 12.556 20.7133C12.4294 20.5148 12.1763 20.4111 11.9232 20.477C11.6221 20.5525 11.4376 20.8644 11.5245 21.1578C11.5733 21.3556 11.7288 21.4978 11.9141 21.5541C11.9331 21.8282 12.0787 22.083 12.3418 22.2253C12.7496 22.4519 13.2657 22.3193 13.499 21.9223C13.7323 21.5259 13.5958 21.0252 13.188 20.7977ZM17.272 21.063C17.2041 20.8266 16.951 20.6755 16.6987 20.7414C16.4555 20.8074 16.3091 21.0533 16.377 21.2993C16.4357 21.5356 16.6987 21.6771 16.9419 21.62C17.1942 21.5541 17.3406 21.3082 17.272 21.063ZM26.2481 15.7804C26.1414 15.4026 25.7327 15.1759 25.3439 15.27C24.9452 15.3737 24.7119 15.7707 24.8187 16.1493C24.9261 16.536 25.3241 16.7634 25.7228 16.6589C26.1124 16.5552 26.3457 16.1671 26.2481 15.7804ZM31.5481 6.43452C31.4314 5.99894 30.9748 5.7441 30.5273 5.85745C30.0797 5.98042 29.8175 6.42489 29.9341 6.859C30.0508 7.29384 30.5173 7.54942 30.9649 7.43533C31.4124 7.3131 31.6746 6.86937 31.5481 6.43452ZM23.7391 6.84122C23.6804 6.62343 23.4571 6.50045 23.2428 6.55749C23.0195 6.61379 22.8929 6.83233 22.9516 7.04938C23.0096 7.25606 23.2337 7.37977 23.4571 7.32273C23.6713 7.26643 23.7978 7.04938 23.7391 6.84122ZM39.1046 11.0926C38.959 10.8467 38.6282 10.7526 38.3651 10.9037C38.1029 11.0452 38.0152 11.3667 38.1707 11.6223C38.3171 11.8675 38.6472 11.9527 38.9102 11.8105C39.1633 11.6697 39.2503 11.3475 39.1046 11.0926ZM46.3982 12.0764C46.126 11.6319 45.5329 11.4712 45.0755 11.7356C44.6089 11.9912 44.4534 12.5675 44.7157 13.0209C44.9878 13.4654 45.5718 13.6261 46.0384 13.3617C46.5049 13.1061 46.6605 12.5298 46.3982 12.0764ZM56.8815 4.90405C56.7748 4.49809 56.3372 4.25141 55.9186 4.35586C55.491 4.46994 55.2478 4.89516 55.3545 5.30111C55.4711 5.70781 55.8996 5.95301 56.3273 5.83967C56.7458 5.73522 56.9982 5.31 56.8815 4.90405ZM61.0539 10.1385C61.0539 9.37251 60.412 8.75839 59.6237 8.75839C58.8652 8.75839 58.2431 9.34436 58.2042 10.0718C57.99 10.0622 57.7765 10.0814 57.5623 10.1385C56.8426 10.3274 56.3074 10.8563 56.0841 11.4993C56.0063 11.4519 55.9186 11.4141 55.8211 11.3852C55.802 11.2156 55.7532 11.0452 55.6564 10.8845C55.2965 10.2703 54.4892 10.0622 53.8572 10.4222C53.2252 10.7711 53.011 11.5556 53.3708 12.1697C53.4684 12.3209 53.5942 12.4535 53.7406 12.5572C53.6529 12.9261 53.7116 13.332 53.9151 13.6913C54.3726 14.4477 55.3644 14.7025 56.1428 14.2677C56.3951 14.1262 56.5895 13.9373 56.726 13.7098C57.2413 14.1351 57.961 14.3247 58.6616 14.1351C59.7991 13.8424 60.47 12.7083 60.1681 11.603C60.149 11.546 60.1292 11.4897 60.1101 11.4423C60.6644 11.2445 61.0539 10.7341 61.0539 10.1385ZM54.0318 5.42408C54.3924 4.62995 54.2071 3.69433 53.5652 3.08021C52.9233 2.47573 51.9703 2.30535 51.1538 2.67352C50.7551 2.09718 50.0842 1.77568 49.3737 1.81346C48.664 1.84235 48.032 2.23867 47.7011 2.84316C47.5456 2.43721 47.2147 2.1157 46.8068 1.95569C46.3883 1.80457 45.9217 1.82309 45.5329 2.02162C44.6768 0.755608 43.2275 0 41.6715 0C40.1255 0 38.6762 0.755608 37.8208 2.02162C36.6445 1.14304 34.981 1.25638 33.9404 2.28609C32.9005 3.32542 32.822 4.94183 33.7559 6.06635C33.0461 6.6338 32.7152 7.52126 32.8708 8.38132C32.3264 8.41911 31.8301 8.73098 31.5679 9.20361C31.4413 8.88136 31.1882 8.62727 30.8581 8.49467C30.5273 8.37243 30.1575 8.39095 29.8465 8.55097C29.1756 7.55016 28.0183 6.94419 26.7924 6.94419C25.5581 6.94419 24.41 7.55016 23.7292 8.55097C22.7961 7.85166 21.4734 7.94722 20.6561 8.75913C19.8297 9.58215 19.7619 10.8667 20.5006 11.7645C19.9174 12.2275 19.6544 12.9831 19.8297 13.7017C20.0051 14.4195 20.5784 14.9773 21.3179 15.1477C22.0566 15.3174 22.8251 15.0625 23.3115 14.4862C23.7003 14.8262 24.2354 14.9492 24.731 14.7973C25.2273 14.6558 25.6161 14.2588 25.7327 13.7773C25.8303 14.0136 26.0438 14.1928 26.3068 14.2491C26.5591 14.3158 26.8321 14.2491 27.0356 14.0795C27.0745 14.987 27.843 15.7048 28.7769 15.7048C28.956 15.7048 29.1291 15.6781 29.2922 15.6292C29.5446 15.5529 29.7725 15.4226 29.9616 15.2507L29.9631 15.2485C30.1941 15.041 30.3664 14.7714 30.4541 14.4669C30.4899 14.3432 30.512 14.2136 30.5173 14.0795C30.6729 14.3632 30.897 14.5899 31.1692 14.7603L31.2462 13.8713L31.3247 12.9646L32.9584 13.0779L33.0164 14.9396C33.5226 14.741 33.9312 14.344 34.1355 13.8432C34.5922 14.344 35.3119 14.5521 35.9827 14.3721C36.6536 14.1928 37.1598 13.6639 37.2864 12.9928C37.4221 12.3312 37.1499 11.6512 36.5858 11.2445C36.7604 10.8571 36.7802 10.4318 36.6445 10.054C36.8869 9.91254 37.1111 9.73253 37.2955 9.51548C37.7819 9.94069 38.4627 10.0918 39.0848 9.90291C39.7077 9.71401 40.1941 9.22212 40.3488 8.60801C40.4754 8.91025 40.7384 9.13693 41.0593 9.21323C41.3902 9.2888 41.7302 9.21323 41.9833 8.99618C42.0321 10.1392 43.0041 11.046 44.1805 11.046C45.3576 11.046 46.3204 10.1392 46.3692 8.99618C46.8457 9.82735 47.7697 10.3185 48.7516 10.2526C49.7236 10.1859 50.5798 9.58215 50.9297 8.6932C51.5137 9.33547 52.4179 9.5903 53.2641 9.36362C54.1095 9.13693 54.7423 8.46578 54.9077 7.62498C55.0724 6.79381 54.7324 5.93449 54.0318 5.42408Z"></path></svg>