<svg xmlns="http://www.w3.org/2000/svg" width="60" height="60" viewBox="0 0 60 60"><g><path d="M39.395 44.5093C39.0132 44.5093 38.7132 44.2093 38.7132 43.8274C38.7132 39.2592 40.4041 34.8547 43.4859 31.4183C46.5132 28.0365 48.1768 23.7546 48.1496 19.391C48.0814 9.51822 39.995 1.43182 30.1359 1.36364C25.254 1.32273 20.6722 3.20456 17.2222 6.6273C13.7722 10.05 11.8494 14.6319 11.8494 19.5001C11.8494 23.8092 13.4995 28.0365 16.4858 31.3774C19.5813 34.841 21.2722 39.2592 21.2722 43.8138C21.2722 44.1956 20.9722 44.4956 20.5904 44.4956C20.2086 44.4956 19.9086 44.1956 19.9086 43.8138C19.9086 39.6001 18.3267 35.5092 15.4631 32.291C12.2449 28.691 10.4722 24.1501 10.4722 19.5001C10.4722 14.2637 12.5176 9.34094 16.2404 5.65911C19.9358 2.00455 24.8177 0 29.9995 0H30.1495C40.7586 0.0818185 49.445 8.76821 49.5132 19.3773C49.5405 24.0819 47.7678 28.6774 44.5087 32.3183C41.6586 35.5092 40.0905 39.5865 40.0905 43.8138C40.0768 44.1956 39.7632 44.5093 39.395 44.5093Z"></path><path d="M39.3957 49.3364H20.6047C18.9002 49.3364 17.5093 47.9455 17.5093 46.241C17.5093 44.5364 18.9002 43.1455 20.6047 43.1455H39.3957C41.1003 43.1455 42.4912 44.5364 42.4912 46.241C42.4912 47.9455 41.1003 49.3364 39.3957 49.3364ZM20.6047 44.5091C19.6502 44.5091 18.8729 45.2864 18.8729 46.241C18.8729 47.1955 19.6502 47.9728 20.6047 47.9728H39.3957C40.3503 47.9728 41.1275 47.1955 41.1275 46.241C41.1275 45.2864 40.3503 44.5091 39.3957 44.5091H20.6047Z"></path><path d="M39.3957 54.1777H20.6047C18.9002 54.1777 17.5093 52.7868 17.5093 51.0823C17.5093 49.3777 18.9002 47.9868 20.6047 47.9868C20.9866 47.9868 21.2866 48.2868 21.2866 48.6686C21.2866 49.0505 20.9866 49.3505 20.6047 49.3505C19.6502 49.3505 18.8729 50.1277 18.8729 51.0823C18.8729 52.0368 19.6502 52.8141 20.6047 52.8141H39.3957C40.3503 52.8141 41.1275 52.0368 41.1275 51.0823C41.1275 50.1277 40.3503 49.3505 39.3957 49.3505C39.0139 49.3505 38.7139 49.0505 38.7139 48.6686C38.7139 48.2868 39.0139 47.9868 39.3957 47.9868C41.1003 47.9868 42.4912 49.3777 42.4912 51.0823C42.4912 52.7868 41.1003 54.1777 39.3957 54.1777Z"></path><path d="M30.0001 60.0001C25.5683 60.0001 21.9683 57.0819 21.9683 53.4955C21.9683 53.1137 22.2683 52.8137 22.6501 52.8137C23.0319 52.8137 23.3319 53.1137 23.3319 53.4955C23.3319 56.3319 26.3183 58.6365 30.0001 58.6365C33.6819 58.6365 36.6683 56.3319 36.6683 53.4955C36.6683 53.1137 36.9683 52.8137 37.3501 52.8137C37.732 52.8137 38.032 53.1137 38.032 53.4955C38.032 57.0819 34.4319 60.0001 30.0001 60.0001ZM30.0001 24.4227C27.3274 24.4227 25.1592 22.2136 25.1592 19.5136C25.1592 16.8136 27.3274 14.6045 30.0001 14.6045C32.6728 14.6045 34.841 16.8136 34.841 19.5136C34.841 22.2136 32.6728 24.4227 30.0001 24.4227ZM30.0001 15.9545C28.0774 15.9545 26.5228 17.55 26.5228 19.5C26.5228 21.45 28.0774 23.0591 30.0001 23.0591C31.9228 23.0591 33.4774 21.4636 33.4774 19.5136C33.4774 17.5636 31.9228 15.9545 30.0001 15.9545Z"></path><path d="M32.0454 30.3139H27.9545C27.5727 30.3139 27.2727 30.0139 27.2727 29.6321V27.9548C26.8227 27.8048 26.3863 27.6275 25.9636 27.4094L24.7636 28.6094C24.6408 28.7321 24.4636 28.8139 24.2863 28.8139C24.109 28.8139 23.9317 28.7457 23.809 28.6094L20.9181 25.7184C20.659 25.4593 20.659 25.023 20.9181 24.7503L22.1181 23.5502C21.8999 23.1275 21.7227 22.6912 21.5727 22.2412H19.8817C19.4999 22.2412 19.1999 21.9412 19.1999 21.5593V17.4684C19.1999 17.0866 19.4999 16.7866 19.8817 16.7866H21.5727C21.7227 16.3366 21.8999 15.9002 22.1181 15.4775L20.9181 14.2775C20.659 14.0184 20.659 13.582 20.9181 13.3093L23.809 10.4184C24.0681 10.1593 24.5045 10.1593 24.7772 10.4184L25.9772 11.6184C26.3999 11.4002 26.8363 11.2229 27.2863 11.0729V9.38202C27.2863 9.0002 27.5863 8.7002 27.9681 8.7002H32.0591C32.4409 8.7002 32.7409 9.0002 32.7409 9.38202V11.0593C33.1909 11.2093 33.6272 11.3866 34.05 11.6048L35.25 10.4047C35.5227 10.1457 35.9454 10.1457 36.2182 10.4047L39.1091 13.2957C39.3818 13.5548 39.3818 13.9911 39.1091 14.2639L37.9091 15.4639C38.1273 15.8866 38.3045 16.3229 38.4545 16.773H40.1454C40.5273 16.773 40.8273 17.073 40.8273 17.4548V21.5457C40.8273 21.9275 40.5273 22.2275 40.1454 22.2275H38.4682C38.3182 22.6775 38.1409 23.1139 37.9227 23.5366L39.1227 24.7366C39.3954 24.9957 39.3954 25.4321 39.1227 25.7048L36.2318 28.5957C35.9591 28.8548 35.5363 28.8548 35.2636 28.5957L34.0636 27.3957C33.6409 27.6139 33.2045 27.7912 32.7545 27.9412V29.6321C32.7272 30.0139 32.4272 30.3139 32.0454 30.3139ZM28.6363 28.9503H31.3636V27.4366C31.3636 27.123 31.5681 26.8503 31.8818 26.7821C32.5636 26.6048 33.2045 26.3321 33.8181 25.9775C34.0909 25.8139 34.4318 25.8548 34.65 26.0866L35.7272 27.1639L37.6363 25.2275L36.5591 24.1503C36.3409 23.9321 36.3 23.5912 36.45 23.3184C36.8045 22.7048 37.0773 22.0502 37.2545 21.3821C37.3363 21.0821 37.6091 20.8639 37.9091 20.8639H39.4227V18.1366H37.9091C37.5954 18.1366 37.3227 17.932 37.2545 17.6184C37.0773 16.9366 36.8045 16.2957 36.45 15.682C36.2863 15.4093 36.3272 15.0684 36.5591 14.8502L37.6363 13.7729L35.7136 11.8638L34.6363 12.9411C34.4181 13.1593 34.0772 13.2002 33.8045 13.0502C33.1909 12.6957 32.5363 12.4229 31.8681 12.2457C31.5681 12.1638 31.35 11.8911 31.35 11.5911V10.0638H28.6227V11.5775C28.6227 11.8911 28.4181 12.1638 28.1045 12.232C27.4227 12.4093 26.7818 12.682 26.1681 13.0366C25.8954 13.2002 25.5545 13.1593 25.3363 12.9275L24.259 11.8502L22.3636 13.7866L23.4408 14.8639C23.659 15.082 23.6999 15.4229 23.5499 15.6957C23.1954 16.3093 22.9227 16.9639 22.7454 17.632C22.6636 17.932 22.3908 18.1502 22.0908 18.1502H20.5772V20.8775H22.0908C22.4045 20.8775 22.6772 21.0821 22.7454 21.3957C22.9227 22.0775 23.1954 22.7184 23.5499 23.3321C23.7136 23.6048 23.6727 23.9457 23.4408 24.1639L22.3636 25.2275L24.2863 27.1503L25.3636 26.073C25.5818 25.8548 25.9227 25.8139 26.1954 25.9639C26.809 26.3184 27.4636 26.5912 28.1318 26.7684C28.4318 26.8503 28.6499 27.123 28.6499 27.423V28.9503H28.6363ZM7.56805 20.1957H4.37713C3.99531 20.1957 3.69531 19.8957 3.69531 19.5139C3.69531 19.1321 3.99531 18.8321 4.37713 18.8321H7.56805C7.94987 18.8321 8.24987 19.1321 8.24987 19.5139C8.24987 19.8957 7.94987 20.1957 7.56805 20.1957ZM8.35897 14.9729C8.24988 14.9729 8.14078 14.9457 8.04533 14.8911L5.09986 13.3366C4.77259 13.1593 4.63623 12.7502 4.8135 12.4093C4.99077 12.082 5.39986 11.9457 5.74077 12.1229L8.68624 13.6775C9.01351 13.8548 9.14988 14.2639 8.97261 14.6048C8.83624 14.8366 8.60442 14.9729 8.35897 14.9729ZM5.4135 26.9594C5.16805 26.9594 4.93623 26.823 4.8135 26.5912C4.63623 26.2639 4.77259 25.8412 5.09986 25.6639L8.04533 24.123C8.3726 23.9457 8.79533 24.0821 8.97261 24.4093C9.14988 24.7366 9.01351 25.1593 8.68624 25.3366L5.72714 26.8775C5.63168 26.9321 5.52259 26.9594 5.4135 26.9594ZM55.6228 20.1957H52.4319C52.05 20.1957 51.75 19.8957 51.75 19.5139C51.75 19.1321 52.05 18.8321 52.4319 18.8321H55.6228C56.0046 18.8321 56.3046 19.1321 56.3046 19.5139C56.3046 19.8957 55.991 20.1957 55.6228 20.1957ZM51.6409 14.9729C51.3955 14.9729 51.1637 14.8366 51.0409 14.6048C50.8637 14.2775 51 13.8548 51.3273 13.6775L54.2728 12.1366C54.6 11.9593 55.0228 12.0957 55.2 12.4229C55.3773 12.7502 55.241 13.1729 54.9137 13.3502L51.9546 14.8911C51.8591 14.9457 51.75 14.9729 51.6409 14.9729ZM54.5864 26.9594C54.4773 26.9594 54.3682 26.9321 54.2728 26.8775L51.3273 25.323C50.9864 25.1457 50.8637 24.7366 51.0409 24.3957C51.2182 24.0684 51.6273 23.9321 51.9682 24.1093L54.9137 25.6639C55.2546 25.8412 55.3773 26.2503 55.2 26.5912C55.0773 26.823 54.8319 26.9594 54.5864 26.9594Z"></path></g></svg>