<svg xmlns="http://www.w3.org/2000/svg" width="30" height="19" viewBox="0 0 30 19"><path d="M17.8098 11.1527V11.8338L26.1978 14.2665V13.8836L17.8098 11.1527ZM17.8098 11.1527V11.8338L26.1978 14.2665V13.8836L17.8098 11.1527ZM17.8098 11.1527V11.8338L26.1978 14.2665V13.8836L17.8098 11.1527ZM17.8098 11.1527V11.8338L26.1978 14.2665V13.8836L17.8098 11.1527ZM17.8098 11.1527V11.8338L26.1978 14.2665V13.8836L17.8098 11.1527ZM17.8098 11.1527V11.8338L26.1978 14.2665V13.8836L17.8098 11.1527ZM17.8098 11.1527V11.8338L26.1978 14.2665V13.8836L17.8098 11.1527ZM17.8098 11.1527V11.8338L26.1978 14.2665V13.8836L17.8098 11.1527ZM17.8098 11.1527V11.8338L26.1978 14.2665V13.8836L17.8098 11.1527ZM17.8098 11.1527V11.8338L26.1978 14.2665V13.8836L17.8098 11.1527ZM17.8098 11.1527V11.8338L26.1978 14.2665V13.8836L17.8098 11.1527ZM17.8098 11.1527V11.8338L26.1978 14.2665V13.8836L17.8098 11.1527ZM17.8098 11.1527V11.8338L26.1978 14.2665V13.8836L17.8098 11.1527ZM17.8098 11.1527V11.8338L26.1978 14.2665V13.8836L17.8098 11.1527ZM17.8098 11.1527V11.8338L26.1978 14.2665V13.8836L17.8098 11.1527ZM17.8098 11.1527V11.8338L26.1978 14.2665V13.8836L17.8098 11.1527ZM8.82087 13.7581V18.9343H29.5355L27.7623 18.4727V13.3061L16.6244 9.49829V7.64017L14.3978 8.43426L11.3557 7.39533L10.9764 4.60779H10.2216L10.1413 5.19172L9.71392 8.29916L7.90214 9.0118L7.51026 6.13961H6.7585L6.70687 6.50995L6.70662 6.51217L6.27319 9.65529L4.41632 10.3869L4.04384 7.67167H3.29208L2.83246 11.0082L2.61738 11.0929V18.2625L0.464844 18.9343H4.00531V14.9444C4.00531 14.2192 4.60924 13.6294 5.35118 13.6294C5.47987 13.6388 5.59547 13.7047 5.67254 13.8051C5.74633 13.9055 5.77529 14.0342 5.74633 14.1567C5.7015 14.5207 5.48944 14.7594 5.11671 14.8755V18.9343H7.63216V13.8302C7.63216 13.0548 8.27789 12.4239 9.06819 12.4239C9.20645 12.4364 9.33187 12.5024 9.41523 12.6124C9.49557 12.7189 9.52454 12.857 9.4923 12.9889C9.4442 13.3782 9.2193 13.6324 8.82087 13.7581ZM3.66783 8.6353C3.56181 8.7042 3.46535 8.7891 3.37871 8.8831C3.47517 8.8393 3.57163 8.79845 3.66783 8.7608V9.15305C3.54267 9.22539 3.42707 9.31939 3.32734 9.43234C3.43991 9.37919 3.55224 9.33194 3.66783 9.29109V9.84673C3.48801 9.92843 3.32734 10.0478 3.19562 10.1952C3.34673 10.1199 3.50716 10.0603 3.66783 10.0133V10.6787L3.04779 10.9236L3.46862 7.86927H3.66783V8.6353ZM6.90583 6.53997L6.90608 6.53825L6.93504 6.33745H7.13426V7.42978C7.0378 7.49573 6.95116 7.57103 6.8741 7.65888C6.96073 7.61827 7.04435 7.58038 7.13426 7.54593V7.94457C7.01866 8.01692 6.91263 8.10477 6.82272 8.20516C6.92547 8.15816 7.02823 8.11412 7.13426 8.07647V8.6353C6.96401 8.71675 6.81617 8.82995 6.691 8.968C6.83556 8.89885 6.98315 8.8425 7.13426 8.79525V9.31644L6.48852 9.56744L6.90583 6.53997ZM5.26454 15.2678V15.001C5.29351 15.0042 5.31919 15.0072 5.34816 15.0072C5.69495 15.0072 5.97777 14.6368 5.97777 14.1786C5.97777 13.7234 5.69495 13.3531 5.34816 13.3531C5.17791 13.3531 5.02353 13.4409 4.90793 13.5886C4.80517 13.6169 4.70544 13.6575 4.61251 13.7109C4.74398 13.2965 5.05904 13.0078 5.42195 13.0078C5.907 13.0078 6.30215 13.5162 6.30215 14.1471C6.30215 14.7751 5.907 15.2867 5.42195 15.2867C5.37057 15.2867 5.31592 15.2803 5.26454 15.2678ZM7.1471 18.435H5.634V18.0991H7.1471V18.435ZM14.1537 9.42939L15.786 8.905V9.63978L14.1537 10.1607V9.42939ZM14.1537 11.1903L15.786 10.6662V11.3975L14.1537 11.9216V11.1903ZM14.1537 12.9512L15.786 12.4271V13.1584L14.1537 13.6826V12.9512ZM11.3877 7.91307L13.6782 8.69485L11.3877 9.51404V7.91307ZM11.4519 12.7881V12.0567L13.0839 11.5323V12.2669L11.4519 12.7881ZM13.0839 13.2935V14.0278L11.4519 14.549V13.8176L13.0839 13.2935ZM11.4519 11.0272V10.2956L13.0839 9.77143V10.506L11.4519 11.0272ZM16.6244 18.0991V10.0288L17.3696 10.283L27.2513 13.6575V18.435H26.1978V14.91L23.1008 14.1001V18.435H21.9026V13.7768L17.8098 12.7064V18.435H9.34119V18.0991H16.6244ZM10.3629 5.06598V5.065L10.3982 4.80539H10.5974V6.22426C10.514 6.28381 10.44 6.35615 10.3692 6.43145C10.4465 6.39676 10.5203 6.36231 10.5974 6.33081V6.73585C10.4946 6.805 10.4015 6.88645 10.3179 6.98069C10.411 6.93665 10.5042 6.8958 10.5974 6.86135V7.42338C10.4433 7.50163 10.302 7.61163 10.1861 7.74353C10.3211 7.67758 10.4561 7.62418 10.5974 7.57718V7.92242L10.4979 7.98837L9.92925 8.21427L10.3629 5.06598ZM9.06819 12.1288C8.88509 12.1288 8.71812 12.2231 8.59925 12.3801C8.48667 12.4113 8.38065 12.4554 8.28117 12.5117C8.42245 12.0693 8.75665 11.7585 9.14853 11.7585C9.66582 11.7585 10.0867 12.3045 10.0867 12.9763C10.0867 13.6513 9.66582 14.1944 9.14853 14.1944C9.09085 14.1944 9.03293 14.188 8.97828 14.1754V13.8898C9.00724 13.8961 9.03923 13.8993 9.06819 13.8993C9.44092 13.8993 9.74289 13.5007 9.74289 13.0142C9.74289 12.5243 9.44092 12.1288 9.06819 12.1288ZM26.1978 13.8836L17.8098 11.1527V11.8338L26.1978 14.2665V13.8836ZM17.8098 11.1527V11.8338L26.1978 14.2665V13.8836L17.8098 11.1527ZM17.8098 11.1527V11.8338L26.1978 14.2665V13.8836L17.8098 11.1527ZM17.8098 11.1527V11.8338L26.1978 14.2665V13.8836L17.8098 11.1527ZM17.8098 11.1527V11.8338L26.1978 14.2665V13.8836L17.8098 11.1527ZM17.8098 11.1527V11.8338L26.1978 14.2665V13.8836L17.8098 11.1527ZM17.8098 11.1527V11.8338L26.1978 14.2665V13.8836L17.8098 11.1527ZM17.8098 11.1527V11.8338L26.1978 14.2665V13.8836L17.8098 11.1527ZM17.8098 11.1527V11.8338L26.1978 14.2665V13.8836L17.8098 11.1527ZM17.8098 11.1527V11.8338L26.1978 14.2665V13.8836L17.8098 11.1527ZM17.8098 11.1527V11.8338L26.1978 14.2665V13.8836L17.8098 11.1527ZM17.8098 11.1527V11.8338L26.1978 14.2665V13.8836L17.8098 11.1527ZM17.8098 11.1527V11.8338L26.1978 14.2665V13.8836L17.8098 11.1527ZM17.8098 11.1527V11.8338L26.1978 14.2665V13.8836L17.8098 11.1527ZM17.8098 11.1527V11.8338L26.1978 14.2665V13.8836L17.8098 11.1527ZM17.8098 11.1527V11.8338L26.1978 14.2665V13.8836L17.8098 11.1527ZM17.8098 11.1527V11.8338L26.1978 14.2665V13.8836L17.8098 11.1527Z"></path><path d="M7.14074 5.74709C7.21151 5.59009 7.17625 5.408 7.05083 5.2857C6.92566 5.16635 6.73602 5.13485 6.57534 5.204C6.49828 5.09425 6.36656 5.0283 6.22855 5.03765C6.09029 5.04405 5.96512 5.11911 5.9009 5.23845C5.86866 5.15995 5.80444 5.0972 5.7241 5.06595C5.64376 5.03446 5.55058 5.04085 5.47351 5.0785C5.30654 4.83046 5.02371 4.67986 4.71848 4.67986C4.41349 4.67986 4.13066 4.83046 3.96369 5.0785C3.73224 4.90576 3.40786 4.92766 3.20236 5.1319C2.99987 5.3327 2.98375 5.65284 3.16685 5.87579C3.02229 5.99193 2.95807 6.17698 2.99987 6.35613C3.04168 6.53502 3.18624 6.67627 3.36606 6.71687C3.54915 6.75772 3.74207 6.69497 3.86069 6.55372C3.95387 6.63862 4.08886 6.66667 4.211 6.63222C4.33315 6.59457 4.42961 6.49713 4.45832 6.37483C4.48401 6.43462 4.53538 6.47843 4.59986 6.49417C4.66408 6.50968 4.73132 6.49417 4.77968 6.45333C4.78925 6.67627 4.97889 6.85517 5.21008 6.85517C5.44153 6.85517 5.63092 6.67627 5.64074 6.45333C5.73367 6.61647 5.91374 6.71392 6.1064 6.70137C6.29579 6.68562 6.46302 6.56627 6.53379 6.39378C6.58164 6.44717 6.64108 6.48704 6.70681 6.51189C6.76952 6.53527 6.83752 6.54511 6.90602 6.5397L6.90728 6.53945C6.93473 6.53748 6.96243 6.53256 6.98988 6.52543C7.00928 6.51927 7.02842 6.51288 7.04781 6.50352C7.02741 6.411 7.03748 6.40214 7.04403 6.33718C7.04579 6.32069 7.04705 6.30051 7.04781 6.27443C7.04907 6.22718 7.05637 6.18215 7.06519 6.13933C7.07879 6.07068 7.09591 6.00842 7.09591 5.95429L7.29185 5.94174C7.25986 5.86644 7.20824 5.80073 7.14074 5.74709ZM5.76591 4.58266C5.74979 4.51671 5.676 4.47611 5.6085 4.49481C5.54101 4.51351 5.4992 4.58266 5.51859 4.64861C5.53446 4.71776 5.60523 4.75541 5.676 4.73966C5.74349 4.72071 5.78505 4.65181 5.76591 4.58266ZM3.78362 4.59201C3.75793 4.54477 3.69698 4.52902 3.64863 4.55732C3.60053 4.58242 3.58466 4.64221 3.61337 4.68921C3.63906 4.73621 3.70026 4.75196 3.74836 4.72686C3.79672 4.69881 3.81258 4.63926 3.78362 4.59201ZM4.82148 6.90857C4.75701 6.87116 4.68322 6.86156 4.6127 6.88051C4.57089 6.81456 4.48728 6.78011 4.40367 6.80201C4.30419 6.82711 4.24324 6.93071 4.27195 7.02816C4.28807 7.09386 4.33945 7.14111 4.40065 7.15981C4.40694 7.25086 4.45504 7.33551 4.54193 7.38275C4.67667 7.45805 4.84717 7.414 4.92423 7.28211C5.0013 7.15046 4.95622 6.98411 4.82148 6.90857ZM6.17063 6.99666C6.14821 6.91816 6.0646 6.86796 5.98124 6.88986C5.9009 6.91176 5.85254 6.99346 5.87496 7.07516C5.89435 7.15366 5.98124 7.20066 6.06158 7.18171C6.14494 7.15981 6.19329 7.07811 6.17063 6.99666ZM9.13587 5.2419C9.10061 5.1164 8.96562 5.0411 8.83718 5.07235C8.70547 5.1068 8.6284 5.2387 8.66366 5.36444C8.69917 5.49289 8.83063 5.56844 8.96235 5.53374C9.09104 5.49929 9.16811 5.37035 9.13587 5.2419ZM10.8867 2.13741C10.8482 1.99272 10.6973 1.90807 10.5495 1.94572C10.4017 1.98657 10.315 2.13421 10.3536 2.27841C10.3921 2.42286 10.5462 2.50775 10.694 2.46986C10.8419 2.42926 10.9285 2.28186 10.8867 2.13741ZM8.30704 2.27251C8.28765 2.20016 8.21386 2.15931 8.14309 2.17826C8.0693 2.19696 8.02749 2.26955 8.04689 2.34165C8.06603 2.41031 8.14007 2.4514 8.21386 2.43245C8.28463 2.41375 8.32644 2.34165 8.30704 2.27251ZM13.383 3.68473C13.3349 3.60304 13.2256 3.57178 13.1387 3.62198C13.0521 3.66898 13.0231 3.77578 13.0745 3.86068C13.1229 3.94213 13.2319 3.97043 13.3188 3.92318C13.4024 3.87643 13.4311 3.76938 13.383 3.68473ZM15.7924 4.01152C15.7025 3.86388 15.5066 3.81048 15.3555 3.89833C15.2014 3.98322 15.15 4.17467 15.2366 4.32527C15.3265 4.47291 15.5194 4.52631 15.6736 4.43846C15.8277 4.35357 15.8791 4.16212 15.7924 4.01152ZM19.2556 1.62902C19.2203 1.49417 19.0758 1.41223 18.9375 1.44692C18.7962 1.48482 18.7159 1.62607 18.7511 1.76092C18.7897 1.89601 18.9312 1.97746 19.0725 1.93981C19.2108 1.90512 19.2941 1.76387 19.2556 1.62902ZM20.6339 3.36779C20.6339 3.11335 20.4219 2.90935 20.1615 2.90935C19.9109 2.90935 19.7054 3.10399 19.6925 3.34564C19.6218 3.34244 19.5513 3.34884 19.4805 3.36779C19.2427 3.43054 19.0659 3.60623 18.9922 3.81983C18.9665 3.80408 18.9375 3.79153 18.9053 3.78193C18.899 3.72558 18.8829 3.66898 18.8509 3.61559C18.732 3.41159 18.4653 3.34244 18.2565 3.46203C18.0477 3.57794 17.977 3.83853 18.0958 4.04253C18.1281 4.09272 18.1696 4.13677 18.218 4.17122C18.189 4.29377 18.2084 4.42862 18.2757 4.54796C18.4268 4.79921 18.7544 4.88386 19.0115 4.73941C19.0949 4.69241 19.1591 4.62966 19.2042 4.55412C19.3745 4.69536 19.6122 4.75836 19.8436 4.69536C20.2194 4.59816 20.441 4.22142 20.3413 3.85428C20.335 3.83533 20.3285 3.81663 20.3222 3.80088C20.5053 3.73518 20.6339 3.56563 20.6339 3.36779ZM18.3142 1.80176C18.4333 1.53797 18.3721 1.22718 18.1601 1.02318C17.948 0.822384 17.6332 0.765786 17.3635 0.888086C17.2317 0.696639 17.0101 0.589843 16.7754 0.602392C16.5409 0.611989 16.3321 0.74364 16.2228 0.944437C16.1715 0.809588 16.0622 0.702791 15.9274 0.649639C15.7892 0.59944 15.635 0.605591 15.5066 0.67154C15.2238 0.250997 14.745 0 14.231 0C13.7202 0 13.2415 0.250997 12.9589 0.67154C12.5703 0.379694 12.0208 0.417344 11.677 0.759389C11.3335 1.10463 11.3075 1.64157 11.6161 2.01511C11.3816 2.2036 11.2723 2.4984 11.3237 2.7841C11.1438 2.79665 10.9799 2.90024 10.8933 3.05724C10.8515 2.9502 10.7678 2.86579 10.6588 2.82175C10.5495 2.78114 10.4273 2.7873 10.3246 2.84045C10.103 2.508 9.72066 2.30671 9.31569 2.30671C8.90795 2.30671 8.52867 2.508 8.30377 2.84045C7.99551 2.60815 7.55855 2.6399 7.28857 2.90959C7.01557 3.18298 6.99316 3.60968 7.2372 3.90792C7.04453 4.06172 6.95765 4.31272 7.01557 4.55141C7.0735 4.78986 7.26289 4.97515 7.50718 5.03175C7.75122 5.0881 8.00508 5.00345 8.16576 4.812C8.2942 4.92495 8.471 4.9658 8.6347 4.91535C8.79865 4.86835 8.92709 4.73646 8.96562 4.57651C8.99786 4.65501 9.06838 4.71456 9.15526 4.73326C9.23863 4.75541 9.32879 4.73326 9.39603 4.67691C9.40887 4.97835 9.66274 5.2168 9.97125 5.2168C10.0304 5.2168 10.0876 5.20794 10.1415 5.1917C10.2249 5.16635 10.3002 5.12304 10.3626 5.06595L10.3631 5.06521C10.4394 4.99631 10.4963 4.90674 10.5253 4.80561C10.5371 4.76451 10.5445 4.72145 10.5462 4.67691C10.5976 4.77115 10.6716 4.84645 10.7615 4.90305L10.787 4.60776L10.8129 4.30656L11.3526 4.34421L11.3718 4.9626C11.539 4.89665 11.674 4.76476 11.7415 4.59841C11.8923 4.76476 12.1301 4.8339 12.3517 4.77411C12.5733 4.71456 12.7406 4.53886 12.7824 4.31592C12.8272 4.09617 12.7373 3.87027 12.5509 3.73518C12.6086 3.60648 12.6151 3.46523 12.5703 3.33973C12.6504 3.29273 12.7244 3.23294 12.7854 3.16084C12.9461 3.30208 13.171 3.35228 13.3765 3.28954C13.5822 3.22679 13.7429 3.06339 13.794 2.8594C13.8358 2.95979 13.9227 3.03509 14.0288 3.06044C14.1381 3.08554 14.2504 3.06044 14.334 2.98834C14.3501 3.36803 14.6712 3.66923 15.0598 3.66923C15.4487 3.66923 15.7668 3.36803 15.7829 2.98834C15.9403 3.26444 16.2455 3.42758 16.5699 3.40568C16.891 3.38354 17.1738 3.18298 17.2894 2.88769C17.4823 3.10104 17.781 3.18569 18.0606 3.11039C18.3399 3.03509 18.5489 2.81215 18.6036 2.53285C18.658 2.25676 18.5456 1.97131 18.3142 1.80176Z"></path></svg>