<?xml version="1.0" encoding="UTF-8"?>
<svg xmlns="http://www.w3.org/2000/svg" width="39" height="26" viewBox="0 0 39 26" fill="none">
  <rect x="1.14453" y="0.5" width="37.0685" height="24.9999" rx="3.5" fill="white" stroke="#D9D9D9"></rect>
  <path d="M16.9609 24.9166L37.6267 18.6875V21.9166C37.6267 23.5735 36.2836 24.9166 34.6267 24.9166H16.9609Z" fill="#FD6020"></path>
  <path fill-rule="evenodd" clip-rule="evenodd" d="M33.7024 9.86963C34.8394 9.86963 35.4647 10.3935 35.4647 11.3829C35.5215 12.1396 35.0099 12.7798 34.3277 12.8962L35.8626 15.0498H34.6688L33.3613 12.9544H33.2476V15.0498H32.2812V9.86963H33.7024ZM33.25 12.2561H33.5342C34.1595 12.2561 34.4438 11.9651 34.4438 11.4412C34.4438 10.9756 34.1595 10.6846 33.5342 10.6846H33.25V12.2561ZM28.9297 15.0503H31.6583V14.1772H29.8961V12.7803H31.6015V11.9072H29.8961V10.7432H31.6583V9.87011H28.9297V15.0503ZM26.0885 13.3624L24.7811 9.87012H23.7578L25.8611 15.1667H26.3728L28.4761 9.87012H27.4529L26.0885 13.3624ZM14.5469 12.4892C14.5469 13.9443 15.6838 15.1666 17.105 15.1666C17.5598 15.1666 17.9577 15.0502 18.3556 14.8755V13.7115C18.0714 14.0607 17.6734 14.2935 17.2187 14.2935C16.3091 14.2935 15.5701 13.5951 15.5701 12.6638V12.5474C15.5133 11.6161 16.2523 10.8013 17.1618 10.7431C17.6166 10.7431 18.0714 10.9759 18.3556 11.3251V10.161C18.0145 9.92821 17.5598 9.87001 17.1618 9.87001C15.6838 9.7536 14.5469 10.9759 14.5469 12.4892ZM12.7844 11.849C12.2159 11.6162 12.0453 11.4998 12.0453 11.2088C12.1022 10.8596 12.3864 10.5685 12.7275 10.6267C13.0117 10.6267 13.296 10.8013 13.5234 11.0342L14.035 10.3357C13.6371 9.98649 13.1254 9.75368 12.6138 9.75368C11.818 9.69547 11.1358 10.3357 11.0789 11.1506V11.2088C11.0789 11.9072 11.3632 12.3147 12.2727 12.6057C12.5001 12.6639 12.7275 12.7803 12.9549 12.8967C13.1254 13.0131 13.2391 13.1877 13.2391 13.4205C13.2391 13.828 12.898 14.1772 12.557 14.1772H12.5001C12.0453 14.1772 11.6474 13.8862 11.4769 13.4787L10.8516 14.119C11.1926 14.7592 11.8748 15.1084 12.557 15.1084C13.4665 15.1666 14.2055 14.4682 14.2624 13.5369V13.3623C14.2055 12.6639 13.9213 12.3147 12.7844 11.849ZM9.48438 15.0503H10.4508V9.87012H9.48438V15.0503ZM4.99609 9.87011H6.41726H6.7015C8.06582 9.92831 9.14591 11.0924 9.08907 12.4893C9.08907 13.2459 8.74798 13.9444 8.17952 14.4682C7.66789 14.8756 7.04258 15.1085 6.41726 15.0503H4.99609V9.87011ZM6.24517 14.1771C6.69995 14.2353 7.21157 14.0607 7.55265 13.7697C7.89373 13.4205 8.06427 12.9548 8.06427 12.431C8.06427 11.9654 7.89373 11.4997 7.55265 11.1505C7.21157 10.8595 6.69995 10.6849 6.24517 10.7431H5.96094V14.1771H6.24517Z" fill="black"></path>
  <path fill-rule="evenodd" clip-rule="evenodd" d="M21.2517 9.75C19.8305 9.75 18.6367 10.9141 18.6367 12.4274C18.6367 13.8825 19.7737 15.1048 21.2517 15.163C22.7297 15.2212 23.8666 13.9989 23.9235 12.4856C23.8666 10.9723 22.7297 9.75 21.2517 9.75V9.75Z" fill="#FD6020"></path>
</svg>
