<?xml version="1.0" encoding="UTF-8"?>
<svg xmlns="http://www.w3.org/2000/svg" width="39" height="26" viewBox="0 0 39 26" fill="none">
  <rect x="0.789062" y="0.5" width="37.0685" height="24.9999" rx="3.5" fill="white" stroke="#D9D9D9"></rect>
  <path fill-rule="evenodd" clip-rule="evenodd" d="M20.7424 8.82004L18.8086 9.23341V7.67182L20.7424 7.26611V8.82004ZM12.8876 8.15437L11.0077 8.55242L11 14.6839C11 15.8169 11.8552 16.6512 12.9954 16.6512C13.6272 16.6512 14.0895 16.5364 14.3437 16.3986V14.8447C14.0972 14.9442 12.8799 15.2963 12.8799 14.1634V11.4459H14.3437V9.81547H12.8799L12.8876 8.15437ZM8.33064 11.3462C7.92231 11.3462 7.67577 11.4611 7.67577 11.7596C7.67577 12.0855 8.10007 12.2289 8.62646 12.4068C9.4846 12.6968 10.6141 13.0785 10.6188 14.4924C10.6188 15.8626 9.51711 16.651 7.9146 16.651C7.25203 16.651 6.52782 16.5209 5.81131 16.2147V14.3929C6.45848 14.745 7.27514 15.0052 7.9146 15.0052C8.34605 15.0052 8.65422 14.8904 8.65422 14.5383C8.65422 14.1772 8.19428 14.0122 7.63899 13.813C6.79333 13.5095 5.72656 13.1268 5.72656 11.8514C5.72656 10.4965 6.76665 9.68513 8.33064 9.68513C8.9701 9.68513 9.60186 9.78464 10.2413 10.0373V11.8361C9.65579 11.5223 8.91617 11.3462 8.33064 11.3462ZM30.6813 9.68513C32.5073 9.68513 33.4626 11.2314 33.4626 13.191C33.4626 13.2969 33.4575 13.4738 33.4532 13.6239C33.45 13.7343 33.4472 13.8301 33.4472 13.8723H29.6798C29.7645 14.7756 30.4271 15.0359 31.1744 15.0359C31.9371 15.0359 32.5381 14.8751 33.062 14.6148V16.1458C32.5381 16.4367 31.8447 16.6434 30.9279 16.6434C29.048 16.6434 27.7383 15.4798 27.7383 13.1757C27.7383 11.2314 28.8477 9.68513 30.6813 9.68513ZM30.6732 11.239C30.1879 11.239 29.6562 11.5987 29.6562 12.4637H31.644C31.644 11.5987 31.1432 11.239 30.6732 11.239ZM16.7366 10.3815L16.6134 9.81507H14.9492V16.5131H16.8753V11.9737C17.3299 11.3843 18.1003 11.4915 18.3391 11.5757V9.81507C18.0926 9.72322 17.1912 9.55481 16.7366 10.3815ZM18.8086 9.81522H20.7424V16.5132H18.8086V9.81522ZM24.7661 9.68537C24.0111 9.68537 23.5257 10.0375 23.2561 10.2824L23.1559 9.80785H21.4609V18.7334L23.387 18.3277L23.3947 16.1614C23.6721 16.3604 24.0804 16.6436 24.7584 16.6436C26.1375 16.6436 27.3933 15.5413 27.3933 13.1147C27.3856 10.8948 26.1144 9.68537 24.7661 9.68537ZM24.3035 14.9594C23.849 14.9594 23.5793 14.7987 23.3944 14.5996L23.3867 11.7597C23.587 11.5377 23.8644 11.3846 24.3035 11.3846C25.0046 11.3846 25.49 12.1654 25.49 13.1682C25.49 14.1939 25.0123 14.9594 24.3035 14.9594Z" fill="#6461FC"></path>
</svg>
