<?xml version="1.0" encoding="UTF-8"?>
<svg xmlns="http://www.w3.org/2000/svg" width="39" height="26" viewBox="0 0 39 26" fill="none">
  <rect x="0.609375" y="0.5" width="37.0685" height="24.9999" rx="3.5" fill="white" stroke="#D9D9D9"></rect>
  <path fill-rule="evenodd" clip-rule="evenodd" d="M10.876 16.5112H9.18405C9.06826 16.5112 8.96979 16.595 8.95173 16.7089L8.2674 21.0303C8.2538 21.1156 8.3201 21.1925 8.40694 21.1925H9.21472C9.3305 21.1925 9.42898 21.1087 9.44703 20.9946L9.63161 19.8291C9.64941 19.7149 9.74813 19.6312 9.86367 19.6312H10.3993C11.5139 19.6312 12.1571 19.094 12.3252 18.0295C12.4008 17.5638 12.3284 17.1978 12.1093 16.9415C11.8689 16.6602 11.4423 16.5112 10.876 16.5112ZM11.0713 18.0896C10.9787 18.6943 10.5148 18.6943 10.0663 18.6943H9.81097L9.99009 17.5649C10.0007 17.4967 10.0601 17.4464 10.1294 17.4464H10.2464C10.5519 17.4464 10.8402 17.4464 10.9892 17.6199C11.0779 17.7234 11.1051 17.8771 11.0713 18.0896ZM15.9338 18.0702H15.1236C15.0545 18.0702 14.9949 18.1205 14.9842 18.1888L14.9484 18.4145L14.8917 18.3327C14.7163 18.0791 14.3252 17.9944 13.9348 17.9944C13.0394 17.9944 12.2747 18.6698 12.1257 19.6173C12.0483 20.0899 12.1584 20.5418 12.4275 20.857C12.6745 21.1467 13.0278 21.2675 13.4481 21.2675C14.1695 21.2675 14.5697 20.8054 14.5697 20.8054L14.5335 21.0297C14.5199 21.1155 14.5862 21.1924 14.6725 21.1924H15.4024C15.5185 21.1924 15.6164 21.1085 15.6347 20.9945L16.0726 18.2324C16.0865 18.1474 16.0204 18.0702 15.9338 18.0702ZM14.8044 19.6409C14.7262 20.102 14.3588 20.4115 13.8903 20.4115C13.655 20.4115 13.4669 20.3363 13.3462 20.1939C13.2264 20.0525 13.1809 19.8511 13.219 19.6269C13.2921 19.1697 13.6656 18.8502 14.127 18.8502C14.3571 18.8502 14.5441 18.9263 14.6673 19.0699C14.7908 19.2151 14.8398 19.4176 14.8044 19.6409ZM19.4349 18.0701H20.2492C20.3632 18.0701 20.4297 18.1975 20.3649 18.2906L17.6568 22.184C17.613 22.2471 17.5407 22.2846 17.4636 22.2846H16.6503C16.5358 22.2846 16.469 22.1562 16.5353 22.0628L17.3785 20.8773L16.4817 18.2558C16.4507 18.1647 16.5182 18.0701 16.6155 18.0701H17.4156C17.5196 18.0701 17.6113 18.1381 17.6413 18.2371L18.1172 19.8204L19.2403 18.1728C19.2842 18.1085 19.3573 18.0701 19.4349 18.0701Z" fill="#253B80"></path>
  <path fill-rule="evenodd" clip-rule="evenodd" d="M28.2645 21.0301L28.9589 16.6296C28.9695 16.5613 29.0289 16.511 29.098 16.5107H29.8797C29.966 16.5107 30.0323 16.5878 30.0187 16.6731L29.3339 20.9944C29.3161 21.1084 29.2176 21.1922 29.1016 21.1922H28.4035C28.3171 21.1922 28.2508 21.1154 28.2645 21.0301ZM22.9464 16.511H21.2541C21.1386 16.511 21.0401 16.5948 21.022 16.7086L20.3377 21.0301C20.3241 21.1154 20.3904 21.1922 20.4768 21.1922H21.3451C21.4259 21.1922 21.4949 21.1336 21.5075 21.0538L21.7017 19.8288C21.7195 19.7147 21.8182 19.631 21.9337 19.631H22.4691C23.5839 19.631 24.227 19.0937 24.3952 18.0292C24.4711 17.5635 24.3982 17.1976 24.1793 16.9412C23.9389 16.6599 23.5127 16.511 22.9464 16.511ZM23.1416 18.0893C23.0493 18.6941 22.5854 18.6941 22.1366 18.6941H21.8815L22.0609 17.5647C22.0716 17.4965 22.1304 17.4462 22.1999 17.4462H22.3169C22.6223 17.4462 22.9108 17.4462 23.0597 17.6196C23.1485 17.7232 23.1755 17.8769 23.1416 18.0893ZM28.0038 18.0699H27.1941C27.1245 18.0699 27.0654 18.1202 27.055 18.1885L27.0191 18.4142L26.9622 18.3324C26.7868 18.0788 26.3959 17.9941 26.0055 17.9941C25.1101 17.9941 24.3456 18.6695 24.1967 19.6171C24.1195 20.0896 24.2291 20.5415 24.4982 20.8567C24.7457 21.1465 25.0985 21.2673 25.5188 21.2673C26.2402 21.2673 26.6403 20.8052 26.6403 20.8052L26.6042 21.0295C26.5906 21.1152 26.6569 21.1921 26.7438 21.1921H27.4733C27.5888 21.1921 27.6873 21.1083 27.7054 20.9943L28.1436 18.2321C28.1569 18.1471 28.0907 18.0699 28.0038 18.0699ZM26.8744 19.6407C26.7967 20.1017 26.4288 20.4112 25.9602 20.4112C25.7254 20.4112 25.5369 20.336 25.4161 20.1936C25.2964 20.0522 25.2514 19.8508 25.289 19.6266C25.3624 19.1695 25.7356 18.8499 26.197 18.8499C26.4271 18.8499 26.6141 18.926 26.7374 19.0697C26.8612 19.2149 26.9102 19.4174 26.8744 19.6407Z" fill="#179BD7"></path>
  <path d="M17.1398 14.9649L17.3478 13.649L16.8844 13.6382H14.6719L16.2095 3.92746C16.2142 3.89814 16.2298 3.8708 16.2524 3.85139C16.2751 3.83199 16.3042 3.82129 16.3344 3.82129H20.0651C21.3037 3.82129 22.1584 4.07799 22.6047 4.58466C22.8139 4.82236 22.9471 5.07074 23.0116 5.34408C23.0791 5.6309 23.0804 5.97356 23.0143 6.3915L23.0095 6.422V6.68979L23.2188 6.80785C23.395 6.90094 23.5349 7.0075 23.6423 7.12952C23.8214 7.33274 23.9371 7.59103 23.986 7.89725C24.0365 8.21219 24.0198 8.58694 23.9371 9.01122C23.8417 9.49928 23.6873 9.92435 23.4789 10.2722C23.2872 10.5926 23.043 10.8584 22.7531 11.0645C22.4762 11.2602 22.1473 11.4087 21.7754 11.5038C21.415 11.5972 21.0042 11.6444 20.5536 11.6444H20.2632C20.0556 11.6444 19.8539 11.7189 19.6957 11.8524C19.537 11.9887 19.4319 12.1748 19.3997 12.3785L19.3778 12.497L19.0103 14.8163L18.9936 14.9015C18.9893 14.9285 18.9817 14.942 18.9706 14.9511C18.9606 14.9593 18.9463 14.9649 18.9323 14.9649H17.1398Z" fill="#253B80"></path>
  <path d="M23.4166 6.45312C23.4055 6.52403 23.3928 6.59652 23.3785 6.671C22.8864 9.18694 21.2033 10.0561 19.0535 10.0561H17.9589C17.696 10.0561 17.4745 10.2462 17.4335 10.5045L16.8731 14.0445L16.7144 15.0479C16.6877 15.2175 16.819 15.3704 16.9908 15.3704H18.9322C19.1621 15.3704 19.3573 15.204 19.3935 14.9783L19.4126 14.88L19.7782 12.5696L19.8017 12.4429C19.8374 12.2163 20.0331 12.05 20.263 12.05H20.5533C22.4342 12.05 23.9067 11.2893 24.337 9.0883C24.5168 8.16884 24.4237 7.40111 23.948 6.86115C23.8041 6.69833 23.6255 6.56325 23.4166 6.45312Z" fill="#179BD7"></path>
  <path d="M22.8982 6.24864C22.8231 6.22685 22.7454 6.20704 22.6659 6.18922C22.5859 6.17179 22.504 6.15634 22.4197 6.14287C22.1245 6.09533 21.8012 6.07275 21.4548 6.07275H18.5306C18.4586 6.07275 18.3903 6.08899 18.329 6.11831C18.1941 6.18288 18.094 6.31005 18.0697 6.46573L17.4475 10.39L17.4297 10.5045C17.4707 10.2462 17.6922 10.056 17.9551 10.056H19.0496C21.1995 10.056 22.8827 9.18648 23.3747 6.67094C23.3893 6.59646 23.4017 6.52397 23.4128 6.45306C23.2884 6.3873 23.1535 6.33104 23.0083 6.2831C22.9726 6.27122 22.9356 6.25974 22.8982 6.24864Z" fill="#222D65"></path>
  <path d="M18.0738 6.46596C18.0981 6.31027 18.1983 6.18311 18.3331 6.11893C18.3948 6.08961 18.4628 6.07337 18.5347 6.07337H21.459C21.8054 6.07337 22.1287 6.09595 22.4238 6.14349C22.5082 6.15696 22.5901 6.17241 22.6701 6.18983C22.7496 6.20767 22.8271 6.22748 22.9024 6.24926C22.9397 6.26035 22.9767 6.27184 23.0128 6.28333C23.158 6.33126 23.2929 6.38791 23.4173 6.45328C23.5638 5.52352 23.4162 4.89048 22.9115 4.31724C22.3551 3.68619 21.3508 3.41602 20.0657 3.41602H16.3349C16.0723 3.41602 15.8485 3.60616 15.8079 3.86485L14.254 13.6755C14.2233 13.8695 14.3736 14.0447 14.5701 14.0447H16.8734L17.4517 10.3902L18.0738 6.46596Z" fill="#253B80"></path>
</svg>
