<?xml version="1.0" encoding="UTF-8"?>
<svg xmlns="http://www.w3.org/2000/svg" width="39" height="26" viewBox="0 0 39 26" fill="none">
  <rect x="1.32422" y="0.5" width="37.0685" height="24.9999" rx="3.5" fill="#1F72CD" stroke="#D9D9D9"></rect>
  <path fill-rule="evenodd" clip-rule="evenodd" d="M8.09282 9.2085L4.63281 17.0591H8.77492L9.28842 15.8074H10.4622L10.9757 17.0591H15.535V16.1038L15.9412 17.0591H18.2997L18.7059 16.0836V17.0591H28.188L29.341 15.8399L30.4206 17.0591L35.2908 17.0692L31.8199 13.1557L35.2908 9.2085H30.4961L29.3738 10.4052L28.3282 9.2085H18.0129L17.1271 11.2348L16.2206 9.2085H12.0871V10.1313L11.6273 9.2085H8.09282ZM22.25 10.3232H27.6951L29.3605 12.1677L31.0795 10.3232H32.7449L30.2145 13.1546L32.7449 15.9532H31.004L29.3386 14.0874L27.6108 15.9532H22.25V10.3232ZM23.5977 12.5177V11.4894V11.4884H26.9952L28.4777 13.133L26.9295 14.7866H23.5977V13.6639H26.5682V12.5177H23.5977ZM8.89515 10.3231H10.9142L13.2092 15.6467V10.3231H15.421L17.1937 14.1401L18.8273 10.3231H21.0281V15.9565H19.689L19.6781 11.5422L17.7258 15.9565H16.5279L14.5647 11.5422V15.9565H11.8098L11.2876 14.6935H8.46595L7.94476 15.9553H6.46875L8.89515 10.3231ZM8.94531 13.5262L9.87492 11.2764L10.8035 13.5262H8.94531Z" fill="white"></path>
</svg>
