<?xml version="1.0" encoding="UTF-8"?>
<svg xmlns="http://www.w3.org/2000/svg" width="39" height="26" viewBox="0 0 39 26" fill="none">
  <rect x="0.964844" y="0.5" width="37.0685" height="24.9999" rx="3.5" fill="white" stroke="#D9D9D9"></rect>
  <path fill-rule="evenodd" clip-rule="evenodd" d="M19.7677 18.5868C18.4717 19.7009 16.7904 20.3734 14.9533 20.3734C10.8542 20.3734 7.53125 17.0253 7.53125 12.8952C7.53125 8.7651 10.8542 5.41699 14.9533 5.41699C16.7904 5.41699 18.4717 6.08953 19.7677 7.20358C21.0638 6.08953 22.745 5.41699 24.5822 5.41699C28.6812 5.41699 32.0042 8.7651 32.0042 12.8952C32.0042 17.0253 28.6812 20.3734 24.5822 20.3734C22.745 20.3734 21.0638 19.7009 19.7677 18.5868Z" fill="#ED0006"></path>
  <path fill-rule="evenodd" clip-rule="evenodd" d="M19.7695 18.5868C21.3653 17.2152 22.3771 15.1742 22.3771 12.8952C22.3771 10.6162 21.3653 8.57522 19.7695 7.20358C21.0656 6.08953 22.7468 5.41699 24.584 5.41699C28.6831 5.41699 32.006 8.7651 32.006 12.8952C32.006 17.0253 28.6831 20.3734 24.584 20.3734C22.7468 20.3734 21.0656 19.7009 19.7695 18.5868Z" fill="#F9A000"></path>
  <path fill-rule="evenodd" clip-rule="evenodd" d="M19.7677 18.5868C21.3635 17.2152 22.3753 15.1743 22.3753 12.8952C22.3753 10.6162 21.3635 8.57525 19.7677 7.20361C18.172 8.57525 17.1602 10.6162 17.1602 12.8952C17.1602 15.1743 18.172 17.2152 19.7677 18.5868Z" fill="#FF5E00"></path>
</svg>
