<?xml version="1.0" encoding="UTF-8"?>
<svg xmlns="http://www.w3.org/2000/svg" width="39" height="26" viewBox="0 0 39 26" fill="none">
  <rect x="0.5" y="0.5" width="37.0685" height="24.9999" rx="3.5" fill="white" stroke="#D9D9D9"></rect>
  <path fill-rule="evenodd" clip-rule="evenodd" d="M11.5568 17.6127H9.25059L7.52121 11.0414C7.43912 10.7391 7.26484 10.4718 7.00847 10.3459C6.36866 10.0294 5.66364 9.77748 4.89453 9.65043V9.39743H8.60966C9.1224 9.39743 9.50696 9.77748 9.57105 10.2189L10.4683 14.959L12.7734 9.39743H15.0156L11.5568 17.6127ZM16.2952 17.6128H14.1172L15.9107 9.3975H18.0887L16.2952 17.6128ZM20.9094 11.6734C20.9735 11.2309 21.3581 10.9779 21.8067 10.9779C22.5117 10.9144 23.2797 11.0414 23.9207 11.3568L24.3052 9.58805C23.6643 9.33505 22.9593 9.20801 22.3195 9.20801C20.2055 9.20801 18.6673 10.3459 18.6673 11.9253C18.6673 13.1267 19.7569 13.7576 20.526 14.1376C21.3581 14.5166 21.6785 14.7695 21.6144 15.1485C21.6144 15.7169 20.9735 15.9699 20.3337 15.9699C19.5646 15.9699 18.7955 15.7804 18.0916 15.4639L17.707 17.2338C18.4761 17.5492 19.3082 17.6763 20.0773 17.6763C22.4476 17.7387 23.9207 16.6019 23.9207 14.8955C23.9207 12.7467 20.9094 12.6207 20.9094 11.6734ZM31.546 17.6128L29.8166 9.3975H27.9591C27.5745 9.3975 27.1899 9.6505 27.0618 10.0294L23.8594 17.6128H26.1015L26.549 16.4124H29.3039L29.5603 17.6128H31.546ZM28.2748 11.6098L28.9146 14.706H27.1211L28.2748 11.6098Z" fill="#172B85"></path>
</svg>
