<?xml version="1.0" encoding="UTF-8"?>
<svg xmlns="http://www.w3.org/2000/svg" width="39" height="26" viewBox="0 0 39 26" fill="none">
  <rect x="1.42969" y="0.5" width="37.0685" height="24.9999" rx="3.5" fill="white" stroke="#D9D9D9"></rect>
  <path fill-rule="evenodd" clip-rule="evenodd" d="M10.0061 9.67704C10.5174 9.71999 11.0286 9.41931 11.3482 9.03809C11.6624 8.64613 11.8701 8.11994 11.8168 7.58301C11.3642 7.60449 10.805 7.88369 10.4854 8.27565C10.1925 8.61391 9.94224 9.16158 10.0061 9.67704ZM16.0859 16.5929V8.22217H19.2014C20.8097 8.22217 21.9334 9.33898 21.9334 10.9713C21.9334 12.6035 20.7884 13.7311 19.1588 13.7311H17.3747V16.5929H16.0859ZM11.8121 9.77904C11.3617 9.7529 10.9507 9.9156 10.6187 10.047C10.4051 10.1316 10.2242 10.2032 10.0866 10.2032C9.93216 10.2032 9.7438 10.1278 9.5323 10.0431C9.25518 9.93206 8.93835 9.80516 8.60611 9.81125C7.84456 9.82199 7.13626 10.2569 6.7475 10.9495C5.94867 12.3348 6.53981 14.3859 7.31201 15.5134C7.69012 16.0719 8.14279 16.684 8.73925 16.6625C9.00165 16.6525 9.19041 16.5717 9.38576 16.4882C9.61066 16.392 9.84429 16.292 10.2091 16.292C10.5612 16.292 10.7847 16.3893 10.9991 16.4828C11.203 16.5716 11.3989 16.657 11.6896 16.6517C12.3073 16.641 12.6961 16.0933 13.0742 15.5349C13.4823 14.9356 13.6616 14.3507 13.6888 14.2619L13.692 14.2517C13.6913 14.251 13.6863 14.2487 13.6774 14.2446L13.6774 14.2446C13.541 14.1816 12.4984 13.7004 12.4884 12.41C12.4784 11.3269 13.3154 10.7781 13.4471 10.6917C13.4551 10.6865 13.4605 10.6829 13.463 10.6811C12.9304 9.88642 12.0996 9.80051 11.8121 9.77904ZM24.2922 16.6571C25.1016 16.6571 25.8525 16.2437 26.1934 15.5886H26.22V16.5927H27.4129V12.4261C27.4129 11.218 26.4543 10.4395 24.9792 10.4395C23.6105 10.4395 22.5986 11.2287 22.5614 12.3133H23.7223C23.8182 11.7979 24.2922 11.4596 24.9419 11.4596C25.7301 11.4596 26.1721 11.8301 26.1721 12.512V12.9738L24.5638 13.0704C23.0673 13.1617 22.2578 13.7792 22.2578 14.853C22.2578 15.9376 23.0939 16.6571 24.2922 16.6571ZM24.6354 15.6636C23.9484 15.6636 23.5117 15.3307 23.5117 14.8206C23.5117 14.2944 23.9324 13.9884 24.7366 13.9401L26.1692 13.8488V14.3213C26.1692 15.1052 25.5088 15.6636 24.6354 15.6636ZM31.3664 16.9203C30.8498 18.3861 30.2587 18.8694 29.0019 18.8694C28.906 18.8694 28.5865 18.8586 28.5119 18.8371V17.8331C28.5918 17.8438 28.7889 17.8546 28.8901 17.8546C29.4599 17.8546 29.7794 17.6129 29.9765 16.9847L30.0936 16.6142L27.9102 10.5201H29.2575L30.7753 15.4652H30.8019L32.3197 10.5201H33.6298L31.3664 16.9203ZM17.3789 9.31715H18.8647C19.9831 9.31715 20.6221 9.91851 20.6221 10.9763C20.6221 12.034 19.9831 12.6407 18.8594 12.6407H17.3789V9.31715Z" fill="black"></path>
</svg>
