<svg xmlns="http://www.w3.org/2000/svg" width="60" height="60" viewBox="0 0 60 60"><g><path d="M45.9255 9.1369H43.0943C42.7849 7.16346 41.088 5.64564 39.0283 5.64564H36.633C36.0255 2.46563 33.2252 0.0468751 29.9017 0C26.6017 0.0468751 23.8014 2.46469 23.1949 5.64564H20.7995C18.5214 5.64564 16.668 7.49908 16.668 9.77721C16.668 12.0553 18.5205 13.9088 20.7986 13.9088H39.0283C40.9033 13.9088 42.4727 12.645 42.9752 10.9294H45.9255C46.8209 10.9316 47.6789 11.2889 48.3112 11.9228C48.9436 12.5567 49.2987 13.4156 49.2987 14.311V27.2532C49.2987 27.4909 49.3931 27.7189 49.5612 27.8869C49.7293 28.055 49.9572 28.1494 50.1949 28.1494C50.4326 28.1494 50.6606 28.055 50.8287 27.8869C50.9967 27.7189 51.0912 27.4909 51.0912 27.2532V14.311C51.0912 11.4582 48.7737 9.1369 45.9255 9.1369ZM39.0283 12.1163H20.7995C20.1794 12.1155 19.5849 11.8689 19.1464 11.4304C18.7079 10.9919 18.4612 10.3973 18.4605 9.77721C18.4612 9.15692 18.708 8.56226 19.1467 8.12373C19.5854 7.68521 20.1802 7.43864 20.8005 7.43814H23.9814C24.453 7.43814 24.8439 7.07252 24.8758 6.60095C25.0511 3.9422 27.2692 1.83 29.9017 1.79157C32.5586 1.83 34.7768 3.9422 34.9521 6.60095C34.983 7.07252 35.3739 7.43814 35.8464 7.43814H39.0283C39.6485 7.43889 40.243 7.68556 40.6815 8.12406C41.12 8.56256 41.3667 9.15708 41.3674 9.77721C41.3667 10.3973 41.12 10.9919 40.6815 11.4304C40.243 11.8689 39.6485 12.1155 39.0283 12.1163Z"></path><path d="M50.1958 32.388C50.0781 32.3878 49.9615 32.4109 49.8527 32.4559C49.7439 32.5009 49.645 32.5669 49.5618 32.6502C49.4785 32.7334 49.4125 32.8323 49.3675 32.9411C49.3225 33.0499 49.2994 33.1665 49.2995 33.2842V54.8336C49.2988 55.7281 48.9432 56.5857 48.3108 57.2183C47.6784 57.8509 46.8209 58.2067 45.9264 58.2077H14.0738C13.1794 58.2067 12.3218 57.8509 11.6894 57.2183C11.057 56.5857 10.7015 55.7281 10.7007 54.8336V14.311C10.7007 13.4156 11.0558 12.5568 11.6882 11.9229C12.3205 11.289 13.1785 10.9317 14.0738 10.9295H14.7957C15.0334 10.9295 15.2614 10.835 15.4295 10.667C15.5975 10.4989 15.692 10.2709 15.692 10.0332C15.692 9.79551 15.5975 9.56755 15.4295 9.39947C15.2614 9.23139 15.0334 9.13696 14.7957 9.13696H14.0738C11.2257 9.13696 8.9082 11.4582 8.9082 14.312V54.8336C8.90969 56.2033 9.45438 57.5164 10.4228 58.485C11.3912 59.4535 12.7042 59.9985 14.0738 60.0002H45.9264C47.2959 59.9985 48.6088 59.4537 49.5772 58.4853C50.5455 57.5169 51.0903 56.2041 51.0921 54.8346V33.2833C51.0922 33.1655 51.0691 33.0489 51.0241 32.9401C50.9791 32.8313 50.9131 32.7325 50.8298 32.6493C50.7466 32.566 50.6477 32.5 50.5389 32.455C50.4301 32.41 50.3135 32.3878 50.1958 32.388Z"></path><path d="M19.8153 29.5753C18.9621 29.5762 18.1441 29.9157 17.5409 30.5191C16.9377 31.1225 16.5985 31.9405 16.5977 32.7937V33.9028H14.0974C13.9797 33.9026 13.8631 33.9257 13.7543 33.9707C13.6455 34.0157 13.5467 34.0817 13.4634 34.165C13.3802 34.2482 13.3141 34.3471 13.2691 34.4559C13.2241 34.5647 13.201 34.6813 13.2012 34.799V41.5922C13.2012 42.0872 13.6015 42.4884 14.0974 42.4884H16.5977V46.5028C16.5985 47.1746 16.8657 47.8188 17.3408 48.2938C17.8158 48.7689 18.46 49.0361 19.1318 49.0369H23.1799L28.4037 54.2616C28.4867 54.3451 28.5855 54.4114 28.6943 54.4567C28.803 54.5019 28.9197 54.5252 29.0375 54.5252C29.1553 54.5252 29.2719 54.5019 29.3807 54.4567C29.4894 54.4114 29.5882 54.3451 29.6712 54.2616L34.8781 49.0547H38.9609C39.6469 49.0539 40.3047 48.7811 40.7897 48.296C41.2748 47.8109 41.5477 47.1532 41.5484 46.4672V42.4884H44.0478C44.1655 42.4885 44.2821 42.4654 44.3909 42.4204C44.4997 42.3754 44.5986 42.3094 44.6818 42.2262C44.7651 42.1429 44.8311 42.0441 44.8761 41.9353C44.9211 41.8265 44.9442 41.7099 44.9441 41.5922V34.7981C44.9441 34.6804 44.9209 34.5639 44.8758 34.4552C44.8308 34.3466 44.7647 34.2478 44.6815 34.1647C44.5983 34.0815 44.4995 34.0156 44.3907 33.9706C44.282 33.9257 44.1655 33.9026 44.0478 33.9028H41.5475V32.7937C41.5467 31.9405 41.2076 31.1225 40.6043 30.5191C40.0011 29.9157 39.1832 29.5762 38.33 29.5753H29.9684V26.3952H37.1515C39.5356 26.3952 41.4762 24.4546 41.4762 22.0705C41.4762 19.6865 39.5356 17.7458 37.1515 17.7458H20.9937C18.6096 17.7458 16.669 19.6865 16.669 22.0705C16.669 24.4546 18.6096 26.3952 20.9937 26.3952H28.1759V29.5753H19.8153ZM18.4615 22.0705C18.4615 20.6746 19.5978 19.5393 20.9928 19.5393H37.1515C38.5475 19.5393 39.6828 20.6746 39.6828 22.0705C39.6828 23.4665 38.5475 24.6018 37.1515 24.6018H20.9937C20.3227 24.6008 19.6794 24.3338 19.2049 23.8593C18.7304 23.3848 18.4634 22.7416 18.4624 22.0705H18.4615ZM14.9927 35.6953H19.9943V40.6959H14.9927V35.6953ZM29.0384 52.3594L24.8393 48.1603L29.0459 43.9547L33.245 48.1547L29.0384 52.3594ZM43.1516 40.6968H38.1509V35.6962H43.1516V40.6968ZM38.33 31.3687C39.1156 31.3687 39.755 32.0081 39.755 32.7937V33.9037H37.2547C37.1369 33.9036 37.0203 33.9267 36.9115 33.9717C36.8027 34.0167 36.7039 34.0827 36.6206 34.1659C36.5374 34.2492 36.4714 34.348 36.4264 34.4568C36.3814 34.5656 36.3583 34.6822 36.3584 34.8V41.5931C36.3584 42.0881 36.7597 42.4893 37.2547 42.4893H39.755V46.469C39.755 46.9069 39.3987 47.2631 38.96 47.2631H34.8856L29.6778 42.0562C29.5097 41.8884 29.282 41.7942 29.0445 41.7942C28.807 41.7942 28.5793 41.8884 28.4112 42.0562L23.2203 47.2462H19.1328C18.9358 47.2462 18.747 47.168 18.6077 47.0288C18.4685 46.8895 18.3902 46.7007 18.3902 46.5037V42.4875H20.8906C21.0083 42.4876 21.1249 42.4645 21.2337 42.4195C21.3425 42.3745 21.4413 42.3085 21.5246 42.2252C21.6078 42.142 21.6738 42.0431 21.7188 41.9343C21.7638 41.8256 21.7869 41.709 21.7868 41.5912V34.7971C21.7868 34.6795 21.7636 34.563 21.7186 34.4543C21.6735 34.3456 21.6075 34.2469 21.5243 34.1637C21.441 34.0806 21.3422 34.0146 21.2335 33.9697C21.1247 33.9248 21.0082 33.9017 20.8906 33.9018H18.3902V32.7937C18.3902 32.0081 19.0296 31.3687 19.8153 31.3687H38.33Z"></path></g></svg>