<svg xmlns="http://www.w3.org/2000/svg" width="60" height="60" viewBox="0 0 60 60"><g><path d="M21.0232 35.1821L29.2507 39.4878V29.8208L21.0232 25.5923V35.1821ZM30.7507 29.8208V39.4878L38.9773 35.1821V25.5923L30.7507 29.8208ZM21.9011 24.3569L29.9998 28.52L38.0984 24.3569L29.9998 20.1187L21.9011 24.3569ZM29.2507 9.54541C29.2507 9.1312 29.5865 8.79541 30.0007 8.79541C30.4148 8.79555 30.7507 9.13129 30.7507 9.54541V13.2456L31.4822 12.5483L31.5408 12.4985C31.8408 12.2651 32.2745 12.2921 32.5427 12.5728C32.8287 12.8724 32.8179 13.3473 32.5183 13.6333L30.5183 15.5425C30.2647 15.7845 29.8838 15.8149 29.5984 15.6333L29.4822 15.5425L27.4822 13.6333L28.0007 13.0913L28.5183 12.5483L29.2507 13.2466V9.54541ZM27.4578 12.5728C27.7438 12.2732 28.2187 12.2624 28.5183 12.5483L27.4822 13.6333C27.1828 13.3473 27.1718 12.8723 27.4578 12.5728ZM40.4773 35.6362C40.4773 35.9153 40.3231 36.1718 40.0759 36.3013L30.3484 41.3921C30.1307 41.506 29.8708 41.5059 29.6531 41.3921L19.9255 36.3013C19.6783 36.1719 19.5232 35.9153 19.5232 35.6362V24.3638C19.5232 24.0847 19.6783 23.8281 19.9255 23.6987L29.6531 18.6079L29.7361 18.5708C29.9348 18.4959 30.1578 18.5081 30.3484 18.6079L40.0759 23.6987C40.3231 23.8282 40.4773 24.0848 40.4773 24.3638V35.6362Z"></path><path d="M32.7058 5.27246C32.7056 3.77899 31.4943 2.56836 30.0007 2.56836C28.5074 2.5686 27.2969 3.77913 27.2966 5.27246C27.2966 6.76599 28.5073 7.9773 30.0007 7.97754C31.4944 7.97754 32.7058 6.76614 32.7058 5.27246ZM34.2058 5.27246C34.2058 7.59457 32.3228 9.47754 30.0007 9.47754C27.6788 9.4773 25.7966 7.59442 25.7966 5.27246C25.7969 2.95071 27.679 1.0686 30.0007 1.06836C32.3227 1.06836 34.2056 2.95056 34.2058 5.27246Z"></path><path d="M29.2499 50.4545V46.7524L28.5175 47.4516L28.4599 47.5024C28.1598 47.7358 27.7251 47.7081 27.457 47.4272C27.1713 47.1275 27.1828 46.6525 27.4824 46.3666L29.4824 44.4574L29.5976 44.3676C29.8829 44.1858 30.2638 44.2156 30.5175 44.4574L32.5175 46.3666L32.5703 46.4223C32.8176 46.7111 32.8109 47.1461 32.5429 47.4272C32.2748 47.7081 31.8401 47.7358 31.54 47.5024L31.4824 47.4516L30.7499 46.7524V50.4545C30.7499 50.8687 30.4142 51.2045 29.9999 51.2045C29.5857 51.2045 29.2499 50.8687 29.2499 50.4545Z"></path><path d="M32.7058 54.7271C32.7056 53.2336 31.4943 52.0229 30.0007 52.0229C28.5074 52.0232 27.2969 53.2337 27.2966 54.7271C27.2966 56.2206 28.5073 57.4319 30.0007 57.4321C31.4944 57.4321 32.7058 56.2207 32.7058 54.7271ZM34.2058 54.7271C34.2058 57.0492 32.3228 58.9321 30.0007 58.9321C27.6788 58.9319 25.7966 57.049 25.7966 54.7271C25.7969 52.4053 27.679 50.5232 30.0007 50.5229C32.3227 50.5229 34.2056 52.4051 34.2058 54.7271Z"></path><path d="M5.27222 25.7954C7.34369 25.7954 9.06234 27.2913 9.41089 29.2622C9.45454 29.2543 9.49973 29.2495 9.54565 29.2495H13.2468L12.5486 28.5181L12.4978 28.4595C12.2647 28.1594 12.2922 27.7256 12.573 27.4575C12.8539 27.1894 13.289 27.1821 13.5779 27.4292L13.6335 27.4819L15.5427 29.4819L15.6335 29.5981C15.7889 29.8427 15.7889 30.1573 15.6335 30.4019L15.5427 30.5181L13.6335 32.5181C13.3475 32.8176 12.8726 32.8285 12.573 32.5425C12.2734 32.2565 12.2626 31.7816 12.5486 31.4819L13.2478 30.7495H9.54565C9.50067 30.7495 9.45662 30.7444 9.41382 30.7368C9.08112 32.6996 7.43536 34.2046 5.27222 34.2046C2.94912 34.2044 1.06812 32.3227 1.06812 29.9995C1.06835 27.6766 2.94926 25.7956 5.27222 25.7954ZM47.4519 31.4819C47.7378 31.7816 47.7261 32.2565 47.4265 32.5425C47.127 32.8282 46.6529 32.8173 46.3669 32.5181L47.4519 31.4819ZM46.4226 27.4292C46.7115 27.1824 47.1457 27.1896 47.4265 27.4575C47.7261 27.7435 47.7379 28.2184 47.4519 28.5181L46.7537 29.2495H50.4548L50.531 29.2534C50.9091 29.2917 51.2046 29.6113 51.2048 29.9995C51.2048 30.3879 50.9092 30.7072 50.531 30.7456L50.4548 30.7495H46.7527L47.4519 31.4819L46.9089 31.9995L46.3669 32.5181L44.4578 30.5181C44.1811 30.2282 44.1811 29.7718 44.4578 29.4819L46.3669 27.4819L46.4226 27.4292ZM2.56812 29.9995C2.56812 31.4942 3.77754 32.7044 5.27222 32.7046C6.84509 32.7046 7.97729 31.5074 7.97729 29.9995C7.97706 28.5048 6.76695 27.2954 5.27222 27.2954C3.77769 27.2956 2.56835 28.505 2.56812 29.9995Z"></path><path d="M57.4324 29.9995C57.4321 28.506 56.2208 27.2954 54.7273 27.2954C53.234 27.2956 52.0234 28.5062 52.0232 29.9995C52.0232 31.493 53.2338 32.7044 54.7273 32.7046C56.221 32.7046 57.4324 31.4932 57.4324 29.9995ZM58.9324 29.9995C58.9324 32.3216 57.0494 34.2046 54.7273 34.2046C52.4054 34.2044 50.5232 32.3215 50.5232 29.9995C50.5234 27.6778 52.4055 25.7956 54.7273 25.7954C57.0493 25.7954 58.9321 27.6776 58.9324 29.9995Z"></path><path d="M9.28781 50.7121C7.7625 49.187 5.23686 49.1869 3.71164 50.7121C2.18641 52.2374 2.18653 54.763 3.71164 56.2883C5.23692 57.8136 7.76252 57.8136 9.28781 56.2883C10.8131 54.763 10.8131 52.2374 9.28781 50.7121ZM56.2878 50.7121C54.7625 49.187 52.2369 49.1869 50.7116 50.7121C49.1864 52.2374 49.1865 54.763 50.7116 56.2883C52.2369 57.8136 54.7625 57.8136 56.2878 56.2883C57.8131 54.763 57.8131 52.2374 56.2878 50.7121ZM18.614 44.3645V42.4465L11.0759 49.9856C10.9939 50.0676 10.8962 50.1233 10.7937 50.1594C12.4457 52.2869 12.2982 55.399 10.3484 57.3488C8.23728 59.4599 4.76216 59.4599 2.65109 57.3488C0.540195 55.2377 0.540074 51.7626 2.65109 49.6516C4.60066 47.702 7.71301 47.554 9.84054 49.2053C9.87665 49.1031 9.93362 49.0068 10.0153 48.925L17.5525 41.3869H15.6364C15.2223 41.3869 14.8865 41.0511 14.8864 40.6369C14.8864 40.2227 15.2222 39.8869 15.6364 39.8869H19.364C19.778 39.8872 20.114 40.2229 20.114 40.6369V44.3645C20.1137 44.7783 19.7778 45.1142 19.364 45.1145C18.9499 45.1145 18.6142 44.7785 18.614 44.3645ZM39.8864 44.3645V40.6369C39.8864 40.2227 40.2222 39.8869 40.6364 39.8869H44.364L44.4402 39.8908C44.8184 39.9292 45.114 40.2486 45.114 40.6369C45.1139 41.0252 44.8183 41.3447 44.4402 41.383L44.364 41.3869H42.447L49.9851 48.925L50.0359 48.9817C50.0914 49.0497 50.1309 49.126 50.1589 49.2053C52.2864 47.5539 55.3987 47.7021 57.3484 49.6516C59.4594 51.7627 59.4594 55.2378 57.3484 57.3488C55.2373 59.4599 51.7622 59.4599 49.6511 57.3488C47.7016 55.3992 47.5534 52.2869 49.2048 50.1594C49.1255 50.1313 49.0492 50.0919 48.9812 50.0363L48.9245 49.9856L41.3864 42.4475V44.3645C41.3862 44.7784 41.0504 45.1144 40.6364 45.1145C40.2224 45.1145 39.8867 44.7785 39.8864 44.3645ZM2.65109 2.65158C4.7621 0.540561 8.23726 0.54068 10.3484 2.65158C12.2979 4.60117 12.445 7.71252 10.7937 9.84005C10.8734 9.86805 10.9498 9.90831 11.0183 9.96408L11.0759 10.0158L18.614 17.5539V15.6369C18.614 15.2227 18.9498 14.8869 19.364 14.8869C19.778 14.8872 20.114 15.2229 20.114 15.6369V19.3645C20.1137 19.7783 19.7778 20.1142 19.364 20.1145H15.6364C15.2224 20.1145 14.8867 19.7785 14.8864 19.3645C14.8864 18.9503 15.2222 18.6145 15.6364 18.6145H17.5534L10.0153 11.0764L9.96359 11.0188C9.90783 10.9503 9.86756 10.8739 9.83957 10.7942C7.71203 12.4455 4.60068 12.2984 2.65109 10.3488C0.540192 8.23775 0.540073 4.76259 2.65109 2.65158ZM49.6511 2.65158C51.7621 0.540562 55.2373 0.540683 57.3484 2.65158C59.4594 4.76265 59.4594 8.23777 57.3484 10.3488C55.3985 12.2987 52.2865 12.4462 50.1589 10.7942C50.1228 10.8967 50.0671 10.9944 49.9851 11.0764L42.446 18.6145H44.364C44.778 18.6147 45.114 18.9504 45.114 19.3645C45.1137 19.7783 44.7778 20.1142 44.364 20.1145H40.6364C40.2224 20.1145 39.8867 19.7785 39.8864 19.3645V15.6369C39.8864 15.2227 40.2222 14.8869 40.6364 14.8869C41.0506 14.887 41.3864 15.2228 41.3864 15.6369V17.5529L48.9245 10.0158C49.0063 9.93411 49.1026 9.87714 49.2048 9.84103C47.5535 7.7135 47.7015 4.60115 49.6511 2.65158ZM9.28781 3.71212C7.7625 2.18701 5.23686 2.18689 3.71164 3.71212C2.18641 5.23735 2.18652 7.76299 3.71164 9.2883C5.23692 10.8136 7.76252 10.8136 9.28781 9.2883C10.8131 7.76301 10.8131 5.23741 9.28781 3.71212ZM56.2878 3.71212C54.7625 2.18702 52.2369 2.1869 50.7116 3.71212C49.1864 5.23735 49.1865 7.76299 50.7116 9.2883C52.2369 10.8136 54.7625 10.8136 56.2878 9.2883C57.8131 7.76301 57.8131 5.23741 56.2878 3.71212Z"></path></g></svg>