<svg xmlns="http://www.w3.org/2000/svg" width="60" height="60" viewBox="0 0 60 60"><g><path d="M39.3955 44.5093C39.0137 44.5093 38.7137 44.2093 38.7137 43.8274C38.7137 39.2592 40.4046 34.8547 43.4864 31.4183C46.5137 28.0365 48.1773 23.7546 48.1501 19.391C48.0819 9.51822 39.9955 1.43182 30.1364 1.36364C25.2545 1.32273 20.6727 3.20456 17.2227 6.6273C13.7727 10.05 11.8499 14.6319 11.8499 19.5001C11.8499 23.8092 13.4999 28.0365 16.4863 31.3774C19.5818 34.841 21.2727 39.2592 21.2727 43.8138C21.2727 44.1956 20.9727 44.4956 20.5909 44.4956C20.2091 44.4956 19.9091 44.1956 19.9091 43.8138C19.9091 39.6001 18.3272 35.5092 15.4636 32.291C12.2454 28.691 10.4727 24.1501 10.4727 19.5001C10.4727 14.2637 12.5181 9.34094 16.2409 5.65911C19.9363 2.00455 24.8182 0 30 0H30.15C40.7591 0.0818185 49.4455 8.76821 49.5137 19.3773C49.541 24.0819 47.7682 28.6774 44.5091 32.3183C41.6591 35.5092 40.0909 39.5865 40.0909 43.8138C40.0773 44.1956 39.7637 44.5093 39.3955 44.5093Z"></path><path d="M39.3962 49.3367H20.6052C18.9007 49.3367 17.5098 47.9458 17.5098 46.2412C17.5098 44.5367 18.9007 43.1458 20.6052 43.1458H39.3962C41.1008 43.1458 42.4917 44.5367 42.4917 46.2412C42.4917 47.9458 41.1008 49.3367 39.3962 49.3367ZM20.6052 44.5094C19.6507 44.5094 18.8734 45.2867 18.8734 46.2412C18.8734 47.1958 19.6507 47.973 20.6052 47.973H39.3962C40.3508 47.973 41.128 47.1958 41.128 46.2412C41.128 45.2867 40.3508 44.5094 39.3962 44.5094H20.6052Z"></path><path d="M39.3962 54.1775H20.6052C18.9007 54.1775 17.5098 52.7866 17.5098 51.082C17.5098 49.3775 18.9007 47.9866 20.6052 47.9866C20.9871 47.9866 21.2871 48.2866 21.2871 48.6684C21.2871 49.0502 20.9871 49.3502 20.6052 49.3502C19.6507 49.3502 18.8734 50.1275 18.8734 51.082C18.8734 52.0366 19.6507 52.8139 20.6052 52.8139H39.3962C40.3508 52.8139 41.128 52.0366 41.128 51.082C41.128 50.1275 40.3508 49.3502 39.3962 49.3502C39.0144 49.3502 38.7144 49.0502 38.7144 48.6684C38.7144 48.2866 39.0144 47.9866 39.3962 47.9866C41.1008 47.9866 42.4917 49.3775 42.4917 51.082C42.4917 52.7866 41.1008 54.1775 39.3962 54.1775Z"></path><path d="M30.0006 59.9999C25.5688 59.9999 21.9688 57.0817 21.9688 53.4953C21.9688 53.1135 22.2688 52.8135 22.6506 52.8135C23.0324 52.8135 23.3324 53.1135 23.3324 53.4953C23.3324 56.3317 26.3188 58.6362 30.0006 58.6362C33.6824 58.6362 36.6688 56.3317 36.6688 53.4953C36.6688 53.1135 36.9688 52.8135 37.3506 52.8135C37.7324 52.8135 38.0324 53.1135 38.0324 53.4953C38.0324 57.0817 34.4324 59.9999 30.0006 59.9999ZM30.0006 24.4225C27.3279 24.4225 25.1597 22.2134 25.1597 19.5134C25.1597 16.8133 27.3279 14.6042 30.0006 14.6042C32.6733 14.6042 34.8415 16.8133 34.8415 19.5134C34.8415 22.2134 32.6733 24.4225 30.0006 24.4225ZM30.0006 15.9543C28.0779 15.9543 26.5233 17.5497 26.5233 19.4997C26.5233 21.4497 28.0779 23.0588 30.0006 23.0588C31.9233 23.0588 33.4779 21.4634 33.4779 19.5134C33.4779 17.5634 31.9233 15.9543 30.0006 15.9543Z"></path><path d="M32.0454 30.3139H27.9545C27.5727 30.3139 27.2727 30.0139 27.2727 29.6321V27.9548C26.8227 27.8048 26.3863 27.6275 25.9636 27.4094L24.7636 28.6094C24.6408 28.7321 24.4636 28.8139 24.2863 28.8139C24.109 28.8139 23.9317 28.7457 23.809 28.6094L20.9181 25.7184C20.659 25.4593 20.659 25.023 20.9181 24.7503L22.1181 23.5502C21.8999 23.1275 21.7227 22.6912 21.5727 22.2412H19.8817C19.4999 22.2412 19.1999 21.9412 19.1999 21.5593V17.4684C19.1999 17.0866 19.4999 16.7866 19.8817 16.7866H21.5727C21.7227 16.3366 21.8999 15.9002 22.1181 15.4775L20.9181 14.2775C20.659 14.0184 20.659 13.582 20.9181 13.3093L23.809 10.4184C24.0681 10.1593 24.5045 10.1593 24.7772 10.4184L25.9772 11.6184C26.3999 11.4002 26.8363 11.2229 27.2863 11.0729V9.38202C27.2863 9.0002 27.5863 8.7002 27.9681 8.7002H32.0591C32.4409 8.7002 32.7409 9.0002 32.7409 9.38202V11.0593C33.1909 11.2093 33.6272 11.3866 34.05 11.6048L35.25 10.4047C35.5227 10.1457 35.9454 10.1457 36.2182 10.4047L39.1091 13.2957C39.3818 13.5548 39.3818 13.9911 39.1091 14.2639L37.9091 15.4639C38.1273 15.8866 38.3045 16.3229 38.4545 16.773H40.1454C40.5273 16.773 40.8273 17.073 40.8273 17.4548V21.5457C40.8273 21.9275 40.5273 22.2275 40.1454 22.2275H38.4682C38.3182 22.6775 38.1409 23.1139 37.9227 23.5366L39.1227 24.7366C39.3954 24.9957 39.3954 25.4321 39.1227 25.7048L36.2318 28.5957C35.9591 28.8548 35.5363 28.8548 35.2636 28.5957L34.0636 27.3957C33.6409 27.6139 33.2045 27.7912 32.7545 27.9412V29.6321C32.7272 30.0139 32.4272 30.3139 32.0454 30.3139ZM28.6363 28.9503H31.3636V27.4366C31.3636 27.123 31.5681 26.8503 31.8818 26.7821C32.5636 26.6048 33.2045 26.3321 33.8181 25.9775C34.0909 25.8139 34.4318 25.8548 34.65 26.0866L35.7272 27.1639L37.6363 25.2275L36.5591 24.1503C36.3409 23.9321 36.3 23.5912 36.45 23.3184C36.8045 22.7048 37.0773 22.0502 37.2545 21.3821C37.3363 21.0821 37.6091 20.8639 37.9091 20.8639H39.4227V18.1366H37.9091C37.5954 18.1366 37.3227 17.932 37.2545 17.6184C37.0773 16.9366 36.8045 16.2957 36.45 15.682C36.2863 15.4093 36.3272 15.0684 36.5591 14.8502L37.6363 13.7729L35.7136 11.8638L34.6363 12.9411C34.4181 13.1593 34.0772 13.2002 33.8045 13.0502C33.1909 12.6957 32.5363 12.4229 31.8681 12.2457C31.5681 12.1638 31.35 11.8911 31.35 11.5911V10.0638H28.6227V11.5775C28.6227 11.8911 28.4181 12.1638 28.1045 12.232C27.4227 12.4093 26.7818 12.682 26.1681 13.0366C25.8954 13.2002 25.5545 13.1593 25.3363 12.9275L24.259 11.8502L22.3636 13.7866L23.4408 14.8639C23.659 15.082 23.6999 15.4229 23.5499 15.6957C23.1954 16.3093 22.9227 16.9639 22.7454 17.632C22.6636 17.932 22.3908 18.1502 22.0908 18.1502H20.5772V20.8775H22.0908C22.4045 20.8775 22.6772 21.0821 22.7454 21.3957C22.9227 22.0775 23.1954 22.7184 23.5499 23.3321C23.7136 23.6048 23.6727 23.9457 23.4408 24.1639L22.3636 25.2275L24.2863 27.1503L25.3636 26.073C25.5818 25.8548 25.9227 25.8139 26.1954 25.9639C26.809 26.3184 27.4636 26.5912 28.1318 26.7684C28.4318 26.8503 28.6499 27.123 28.6499 27.423V28.9503H28.6363ZM7.56805 20.1957H4.37713C3.99531 20.1957 3.69531 19.8957 3.69531 19.5139C3.69531 19.1321 3.99531 18.8321 4.37713 18.8321H7.56805C7.94987 18.8321 8.24987 19.1321 8.24987 19.5139C8.24987 19.8957 7.94987 20.1957 7.56805 20.1957ZM8.35897 14.9729C8.24988 14.9729 8.14078 14.9457 8.04533 14.8911L5.09986 13.3366C4.77259 13.1593 4.63623 12.7502 4.8135 12.4093C4.99077 12.082 5.39986 11.9457 5.74077 12.1229L8.68624 13.6775C9.01351 13.8548 9.14988 14.2639 8.97261 14.6048C8.83624 14.8366 8.60442 14.9729 8.35897 14.9729ZM5.4135 26.9594C5.16805 26.9594 4.93623 26.823 4.8135 26.5912C4.63623 26.2639 4.77259 25.8412 5.09986 25.6639L8.04533 24.123C8.3726 23.9457 8.79533 24.0821 8.97261 24.4093C9.14988 24.7366 9.01351 25.1593 8.68624 25.3366L5.72714 26.8775C5.63168 26.9321 5.52259 26.9594 5.4135 26.9594ZM55.6228 20.1957H52.4319C52.05 20.1957 51.75 19.8957 51.75 19.5139C51.75 19.1321 52.05 18.8321 52.4319 18.8321H55.6228C56.0046 18.8321 56.3046 19.1321 56.3046 19.5139C56.3046 19.8957 55.991 20.1957 55.6228 20.1957ZM51.6409 14.9729C51.3955 14.9729 51.1637 14.8366 51.0409 14.6048C50.8637 14.2775 51 13.8548 51.3273 13.6775L54.2728 12.1366C54.6 11.9593 55.0228 12.0957 55.2 12.4229C55.3773 12.7502 55.241 13.1729 54.9137 13.3502L51.9546 14.8911C51.8591 14.9457 51.75 14.9729 51.6409 14.9729ZM54.5864 26.9594C54.4773 26.9594 54.3682 26.9321 54.2728 26.8775L51.3273 25.323C50.9864 25.1457 50.8637 24.7366 51.0409 24.3957C51.2182 24.0684 51.6273 23.9321 51.9682 24.1093L54.9137 25.6639C55.2546 25.8412 55.3773 26.2503 55.2 26.5912C55.0773 26.823 54.8319 26.9594 54.5864 26.9594Z"></path></g></svg>