<?xml version="1.0" encoding="UTF-8"?>
<svg xmlns="http://www.w3.org/2000/svg" width="41" height="28" viewBox="0 0 41 28">
  <g>
    <path d="M24.4625 16.3771V17.3377L36.2926 20.7687V20.2287L24.4625 16.3771ZM24.4625 16.3771V17.3377L36.2926 20.7687V20.2287L24.4625 16.3771ZM24.4625 16.3771V17.3377L36.2926 20.7687V20.2287L24.4625 16.3771ZM24.4625 16.3771V17.3377L36.2926 20.7687V20.2287L24.4625 16.3771ZM24.4625 16.3771V17.3377L36.2926 20.7687V20.2287L24.4625 16.3771ZM24.4625 16.3771V17.3377L36.2926 20.7687V20.2287L24.4625 16.3771ZM24.4625 16.3771V17.3377L36.2926 20.7687V20.2287L24.4625 16.3771ZM24.4625 16.3771V17.3377L36.2926 20.7687V20.2287L24.4625 16.3771ZM24.4625 16.3771V17.3377L36.2926 20.7687V20.2287L24.4625 16.3771ZM24.4625 16.3771V17.3377L36.2926 20.7687V20.2287L24.4625 16.3771ZM24.4625 16.3771V17.3377L36.2926 20.7687V20.2287L24.4625 16.3771ZM24.4625 16.3771V17.3377L36.2926 20.7687V20.2287L24.4625 16.3771ZM24.4625 16.3771V17.3377L36.2926 20.7687V20.2287L24.4625 16.3771ZM24.4625 16.3771V17.3377L36.2926 20.7687V20.2287L24.4625 16.3771ZM24.4625 16.3771V17.3377L36.2926 20.7687V20.2287L24.4625 16.3771ZM24.4625 16.3771V17.3377L36.2926 20.7687V20.2287L24.4625 16.3771ZM11.785 20.0517V27.3519H41L38.4991 26.7009V19.4141L22.7906 14.0438V11.4232L19.6504 12.5432L15.36 11.0779L14.8251 7.14648H13.7606L13.6472 7.97004L13.0445 12.3526L10.4892 13.3577L9.93654 9.30689H8.87629L8.80347 9.82921L8.80312 9.83233L8.19183 14.2652L5.57299 15.297L5.04766 11.4676H3.9874L3.33918 16.1733L3.03584 16.2927V26.4045L0 27.3519H4.99331V21.7248C4.99331 20.7021 5.84507 19.8702 6.89147 19.8702C7.07297 19.8834 7.236 19.9764 7.34469 20.118C7.44877 20.2596 7.48961 20.4411 7.44877 20.6139C7.38554 21.1272 7.08647 21.4638 6.56078 21.6276V27.3519H10.1085V20.1534C10.1085 19.0598 11.0192 18.1699 12.1338 18.1699C12.3288 18.1876 12.5057 18.2807 12.6232 18.4358C12.7365 18.5861 12.7774 18.7808 12.7319 18.9668C12.6641 19.5158 12.3469 19.8743 11.785 20.0517ZM4.51735 12.8267C4.36782 12.9239 4.23178 13.0436 4.10959 13.1762C4.24563 13.1144 4.38167 13.0568 4.51735 13.0037V13.5569C4.34082 13.6589 4.17779 13.7915 4.03713 13.9508C4.1959 13.8759 4.35432 13.8092 4.51735 13.7516V14.5353C4.26374 14.6505 4.03713 14.8188 3.85136 15.0267C4.06448 14.9205 4.29074 14.8365 4.51735 14.7702V15.7086L3.64287 16.054L4.23639 11.7463H4.51735V12.8267ZM9.08408 9.87155L9.08443 9.86912L9.12528 9.58592H9.40624V11.1265C9.2702 11.2195 9.14801 11.3257 9.03932 11.4496C9.16151 11.3923 9.27943 11.3389 9.40624 11.2903V11.8525C9.2432 11.9546 9.09367 12.0785 8.96686 12.2201C9.11178 12.1538 9.2567 12.0917 9.40624 12.0386V12.8267C9.16613 12.9416 8.95763 13.1012 8.7811 13.2959C8.98498 13.1984 9.19312 13.1189 9.40624 13.0523V13.7874L8.49552 14.1413L9.08408 9.87155ZM6.76928 22.1808V21.8046C6.81013 21.8092 6.84636 21.8133 6.8872 21.8133C7.37631 21.8133 7.77519 21.291 7.77519 20.6448C7.77519 20.0027 7.37631 19.4804 6.8872 19.4804C6.64709 19.4804 6.42936 19.6043 6.26633 19.8126C6.12141 19.8525 5.98075 19.9097 5.84968 19.985C6.03509 19.4006 6.47944 18.9935 6.99128 18.9935C7.67538 18.9935 8.23268 19.7105 8.23268 20.6004C8.23268 21.486 7.67538 22.2076 6.99128 22.2076C6.91882 22.2076 6.84174 22.1985 6.76928 22.1808ZM9.42435 26.6478H7.29035V26.174H9.42435V26.6478ZM19.3062 13.9467L21.6082 13.2071V14.2434L19.3062 14.9781V13.9467ZM19.3062 16.4302L21.6082 15.6909V16.7224L19.3062 17.4616V16.4302ZM19.3062 18.9137L21.6082 18.1745V19.2059L19.3062 19.9451V18.9137ZM15.4051 11.8081L18.6356 12.9107L15.4051 14.066V11.8081ZM15.4957 18.6836V17.6521L17.7973 16.9126V17.9485L15.4957 18.6836ZM17.7973 19.3964V20.432L15.4957 21.1671V20.1357L17.7973 19.3964ZM15.4957 16.2001V15.1683L17.7973 14.4291V15.465L15.4957 16.2001ZM22.7906 26.174V14.7921L23.8417 15.1506L37.7784 19.9097V26.6478H36.2926V21.6762L31.9248 20.5341V26.6478H30.2348V20.078L24.4625 18.5684V26.6478H12.5188V26.174H22.7906ZM13.9598 7.7927V7.79131L14.0095 7.42517H14.2905V9.42628C14.1729 9.51027 14.0685 9.6123 13.9687 9.7185C14.0777 9.66956 14.1818 9.62098 14.2905 9.57655V10.1478C14.1456 10.2453 14.0142 10.3602 13.8962 10.4931C14.0277 10.431 14.1591 10.3734 14.2905 10.3248V11.1175C14.0731 11.2278 13.8739 11.383 13.7105 11.569C13.9009 11.476 14.0912 11.4007 14.2905 11.3344V11.8213L14.1502 11.9143L13.3482 12.2329L13.9598 7.7927ZM12.1338 17.7538C11.8755 17.7538 11.64 17.8868 11.4724 18.1082C11.3136 18.1522 11.1641 18.2144 11.0238 18.2938C11.2231 17.6698 11.6944 17.2315 12.2471 17.2315C12.9766 17.2315 13.5702 18.0016 13.5702 18.9491C13.5702 19.9011 12.9766 20.667 12.2471 20.667C12.1657 20.667 12.084 20.658 12.007 20.6403V20.2373C12.0478 20.2464 12.0929 20.2509 12.1338 20.2509C12.6595 20.2509 13.0853 19.6887 13.0853 19.0025C13.0853 18.3115 12.6595 17.7538 12.1338 17.7538ZM36.2926 20.2287L24.4625 16.3771V17.3377L36.2926 20.7687V20.2287ZM24.4625 16.3771V17.3377L36.2926 20.7687V20.2287L24.4625 16.3771ZM24.4625 16.3771V17.3377L36.2926 20.7687V20.2287L24.4625 16.3771ZM24.4625 16.3771V17.3377L36.2926 20.7687V20.2287L24.4625 16.3771ZM24.4625 16.3771V17.3377L36.2926 20.7687V20.2287L24.4625 16.3771ZM24.4625 16.3771V17.3377L36.2926 20.7687V20.2287L24.4625 16.3771ZM24.4625 16.3771V17.3377L36.2926 20.7687V20.2287L24.4625 16.3771ZM24.4625 16.3771V17.3377L36.2926 20.7687V20.2287L24.4625 16.3771ZM24.4625 16.3771V17.3377L36.2926 20.7687V20.2287L24.4625 16.3771ZM24.4625 16.3771V17.3377L36.2926 20.7687V20.2287L24.4625 16.3771ZM24.4625 16.3771V17.3377L36.2926 20.7687V20.2287L24.4625 16.3771ZM24.4625 16.3771V17.3377L36.2926 20.7687V20.2287L24.4625 16.3771ZM24.4625 16.3771V17.3377L36.2926 20.7687V20.2287L24.4625 16.3771ZM24.4625 16.3771V17.3377L36.2926 20.7687V20.2287L24.4625 16.3771ZM24.4625 16.3771V17.3377L36.2926 20.7687V20.2287L24.4625 16.3771ZM24.4625 16.3771V17.3377L36.2926 20.7687V20.2287L24.4625 16.3771ZM24.4625 16.3771V17.3377L36.2926 20.7687V20.2287L24.4625 16.3771Z"></path>
    <path d="M9.41641 8.75338C9.51622 8.53196 9.46649 8.27515 9.28961 8.10266C9.11308 7.93434 8.84562 7.88992 8.619 7.98744C8.51031 7.83265 8.32455 7.73964 8.1299 7.75283C7.9349 7.76185 7.75837 7.8677 7.66779 8.03603C7.62233 7.92531 7.53175 7.83682 7.41845 7.79274C7.30514 7.74832 7.17372 7.75734 7.06503 7.81044C6.82954 7.46061 6.43065 7.24821 6.00016 7.24821C5.57002 7.24821 5.17114 7.46061 4.93564 7.81044C4.60922 7.56681 4.15173 7.5977 3.86189 7.88575C3.57632 8.16895 3.55359 8.62046 3.81181 8.93489C3.60793 9.0987 3.51736 9.35969 3.57632 9.61234C3.63528 9.86465 3.83916 10.0639 4.09277 10.1211C4.351 10.1787 4.62307 10.0902 4.79037 9.89103C4.92179 10.0108 5.11218 10.0503 5.28444 10.0017C5.45671 9.94864 5.59275 9.8112 5.63324 9.63872C5.66947 9.72305 5.74193 9.78483 5.83286 9.80704C5.92344 9.8289 6.01828 9.80704 6.08647 9.74943C6.09997 10.0639 6.36743 10.3162 6.6935 10.3162C7.01992 10.3162 7.28703 10.0639 7.30088 9.74943C7.43195 9.97953 7.68591 10.117 7.95763 10.0993C8.22474 10.077 8.46059 9.90873 8.5604 9.66544C8.62788 9.74075 8.71171 9.79698 8.80441 9.83203C8.89286 9.865 8.98876 9.87888 9.08537 9.87124L9.08715 9.8709C9.12586 9.86812 9.16493 9.86118 9.20365 9.85112C9.231 9.84244 9.258 9.83342 9.28535 9.82023C9.25658 9.68974 9.27078 9.67724 9.28002 9.58562C9.2825 9.56237 9.28428 9.53391 9.28535 9.49712C9.28712 9.43049 9.29742 9.36698 9.30985 9.30659C9.32903 9.20976 9.35319 9.12196 9.35319 9.0456L9.62953 9.0279C9.58442 8.92171 9.5116 8.82904 9.41641 8.75338ZM7.47741 7.11113C7.45468 7.01812 7.35061 6.96085 7.25541 6.98723C7.16022 7.01361 7.10126 7.11113 7.12861 7.20414C7.15099 7.30166 7.2508 7.35476 7.35061 7.33255C7.4458 7.30582 7.5044 7.20865 7.47741 7.11113ZM4.68168 7.12432C4.64545 7.05768 4.55949 7.03547 4.4913 7.07538C4.42346 7.11078 4.40108 7.19511 4.44157 7.2614C4.4778 7.32769 4.56411 7.3499 4.63195 7.3145C4.70015 7.27494 4.72253 7.19095 4.68168 7.12432ZM6.14543 10.3915C6.0545 10.3387 5.95043 10.3252 5.85098 10.3519C5.79202 10.2589 5.67409 10.2103 5.55617 10.2412C5.41587 10.2766 5.32991 10.4227 5.3704 10.5601C5.39313 10.6528 5.46559 10.7194 5.55191 10.7458C5.56079 10.8742 5.62863 10.9936 5.75117 11.0603C5.9412 11.1664 6.18166 11.1043 6.29035 10.9183C6.39904 10.7326 6.33546 10.498 6.14543 10.3915ZM8.04821 10.5157C8.01659 10.405 7.89867 10.3342 7.7811 10.3651C7.66779 10.396 7.5996 10.5112 7.63121 10.6264C7.65856 10.7371 7.7811 10.8034 7.89441 10.7767C8.01198 10.7458 8.08017 10.6306 8.04821 10.5157ZM12.2303 8.04088C12.1805 7.86389 11.9901 7.75769 11.809 7.80176C11.6232 7.85035 11.5145 8.03637 11.5643 8.21372C11.6144 8.39488 11.7998 8.50142 11.9855 8.45249C12.167 8.4039 12.2757 8.22205 12.2303 8.04088ZM14.6996 3.66246C14.6452 3.45839 14.4325 3.339 14.224 3.3921C14.0155 3.44971 13.8933 3.65794 13.9476 3.86132C14.002 4.06504 14.2193 4.18477 14.4278 4.13133C14.6363 4.07406 14.7585 3.86618 14.6996 3.66246ZM11.0613 3.85299C11.034 3.75096 10.9299 3.69334 10.8301 3.72007C10.726 3.74644 10.667 3.84882 10.6944 3.95051C10.7214 4.04734 10.8258 4.1053 10.9299 4.07857C11.0297 4.0522 11.0887 3.95051 11.0613 3.85299ZM18.2202 5.84473C18.1524 5.72951 17.9982 5.68543 17.8757 5.75623C17.7535 5.82252 17.7127 5.97314 17.7851 6.09287C17.8533 6.20775 18.0071 6.24766 18.1297 6.18102C18.2476 6.11508 18.2881 5.96412 18.2202 5.84473ZM21.6184 6.30562C21.4916 6.09738 21.2152 6.02207 21.0021 6.14597C20.7847 6.2657 20.7123 6.53571 20.8345 6.74811C20.9613 6.95634 21.2333 7.03165 21.4507 6.90775C21.6681 6.78802 21.7406 6.51801 21.6184 6.30562ZM26.5026 2.94544C26.4529 2.75526 26.249 2.63969 26.054 2.68862C25.8548 2.74207 25.7415 2.94128 25.7912 3.13146C25.8455 3.322 26.0452 3.43687 26.2444 3.38377C26.4394 3.33484 26.557 3.13563 26.5026 2.94544ZM28.4466 5.39772C28.4466 5.03887 28.1475 4.75116 27.7803 4.75116C27.4269 4.75116 27.137 5.02568 27.1189 5.36649C27.0191 5.36198 26.9196 5.371 26.8198 5.39772C26.4845 5.48622 26.2352 5.73402 26.1311 6.03526C26.0949 6.01305 26.054 5.99535 26.0086 5.98182C25.9997 5.90234 25.977 5.82252 25.9318 5.74721C25.7642 5.4595 25.388 5.36198 25.0936 5.53065C24.7991 5.69411 24.6993 6.06164 24.867 6.34934C24.9124 6.42014 24.9711 6.48227 25.0392 6.53085C24.9984 6.70369 25.0258 6.89387 25.1206 7.06219C25.3337 7.41653 25.7958 7.53592 26.1585 7.3322C26.276 7.26591 26.3666 7.17741 26.4302 7.07087C26.6703 7.27008 27.0056 7.35892 27.332 7.27008C27.862 7.13299 28.1745 6.60165 28.0339 6.08385C28.025 6.05713 28.0158 6.03075 28.0069 6.00854C28.2651 5.91587 28.4466 5.67675 28.4466 5.39772ZM25.1749 3.18908C25.3429 2.81703 25.2566 2.37871 24.9576 2.091C24.6585 1.8078 24.2145 1.72798 23.8341 1.90047C23.6483 1.63046 23.3357 1.47984 23.0047 1.49754C22.674 1.51107 22.3796 1.69675 22.2254 1.97994C22.1529 1.78976 21.9988 1.63913 21.8088 1.56417C21.6138 1.49337 21.3964 1.50205 21.2152 1.59506C20.8164 1.00194 20.1411 0.647949 19.4162 0.647949C18.6958 0.647949 18.0206 1.00194 17.6221 1.59506C17.074 1.18345 16.299 1.23655 15.8142 1.71896C15.3297 2.20587 15.2931 2.96314 15.7282 3.48997C15.3975 3.75581 15.2434 4.17158 15.3158 4.57451C15.0622 4.59221 14.831 4.73832 14.7088 4.95974C14.6498 4.80877 14.5319 4.68973 14.3781 4.62761C14.224 4.57035 14.0517 4.57902 13.9068 4.65399C13.5942 4.18512 13.055 3.90123 12.4839 3.90123C11.9088 3.90123 11.3739 4.18512 11.0567 4.65399C10.6219 4.32637 10.0057 4.37114 9.62491 4.75151C9.23988 5.13709 9.20827 5.73888 9.55245 6.15951C9.28073 6.37641 9.15819 6.73041 9.23988 7.06705C9.32158 7.40335 9.58868 7.66468 9.93322 7.7445C10.2774 7.82398 10.6354 7.70459 10.862 7.43458C11.0432 7.59388 11.2925 7.65149 11.5234 7.58034C11.7547 7.51406 11.9358 7.32804 11.9901 7.10245C12.0356 7.21316 12.1351 7.29715 12.2576 7.32352C12.3752 7.35476 12.5023 7.32352 12.5972 7.24405C12.6153 7.66919 12.9733 8.00548 13.4084 8.00548C13.4919 8.00548 13.5725 7.99299 13.6485 7.97008C13.7661 7.93434 13.8723 7.87326 13.9604 7.79274L13.9611 7.7917C14.0687 7.69452 14.149 7.5682 14.1899 7.42556C14.2066 7.3676 14.2169 7.30687 14.2193 7.24405C14.2918 7.37697 14.3962 7.48317 14.523 7.56299L14.5589 7.14653L14.5955 6.72173L15.3567 6.77483L15.3837 7.64698C15.6195 7.55397 15.8099 7.36795 15.9051 7.13334C16.1178 7.36795 16.4532 7.46547 16.7657 7.38114C17.0783 7.29715 17.3141 7.04935 17.3731 6.73492C17.4363 6.425 17.3095 6.10641 17.0467 5.91588C17.128 5.73437 17.1373 5.53516 17.074 5.35816C17.187 5.29187 17.2914 5.20754 17.3774 5.10585C17.604 5.30506 17.9212 5.37586 18.211 5.28736C18.5012 5.19886 18.7278 4.96842 18.7999 4.68071C18.8589 4.82231 18.9814 4.92851 19.131 4.96425C19.2851 4.99965 19.4435 4.96425 19.5615 4.86257C19.5842 5.39807 20.0371 5.82286 20.5851 5.82286C21.1335 5.82286 21.5821 5.39807 21.6049 4.86257C21.8269 5.25196 22.2574 5.48206 22.7149 5.45117C23.1677 5.41994 23.5666 5.13709 23.7296 4.72062C24.0017 5.02152 24.423 5.1409 24.8173 5.03471C25.2112 4.92851 25.506 4.61408 25.583 4.22017C25.6598 3.83078 25.5014 3.4282 25.1749 3.18908Z"></path>
  </g>
</svg>
