<svg xmlns="http://www.w3.org/2000/svg" width="39" height="39" viewBox="0 0 39 39"><g><path fill-rule="evenodd" clip-rule="evenodd" d="M15.1914 2.28516C15.1914 1.16763 16.0972 0.261719 17.2148 0.261719H21.7852C22.9028 0.261719 23.8086 1.16764 23.8086 2.28516V5.15781C24.774 5.44723 25.7075 5.83401 26.5947 6.31216L28.5484 4.35837C29.3386 3.56818 30.6198 3.56822 31.41 4.35834L34.6418 7.59002C35.4319 8.38019 35.4319 9.66142 34.6417 10.4516L32.6879 12.4054C33.166 13.2926 33.5527 14.2261 33.8422 15.1914H36.7148C37.8323 15.1914 38.7383 16.0972 38.7383 17.2149V21.7852C38.7383 22.9027 37.8323 23.8087 36.7148 23.8087H33.8421C33.5527 24.774 33.1659 25.7075 32.6879 26.5947L34.6417 28.5484C35.4319 29.3386 35.4319 30.6199 34.6418 31.4101L31.4101 34.6418C30.6199 35.4319 29.3387 35.4319 28.5485 34.6418L26.5947 32.6879C25.7074 33.1659 24.774 33.5527 23.8086 33.8421V36.7148C23.8086 37.8323 22.9028 38.7383 21.7852 38.7383H17.2148C16.0972 38.7383 15.1914 37.8323 15.1914 36.7148V33.8421C14.226 33.5526 13.2925 33.1658 12.4053 32.6877L10.4516 34.6415C9.66135 35.4317 8.38021 35.4317 7.58998 34.6416L4.35831 31.4099C4.3583 31.4099 4.35832 31.4099 4.35831 31.4099C3.56806 30.6197 3.56804 29.3385 4.35831 28.5483L6.31211 26.5945C5.83403 25.7073 5.44727 24.7739 5.15782 23.8085H2.28516C1.16764 23.8085 0.261719 22.9027 0.261719 21.7851V17.2148C0.261719 16.0973 1.16759 15.1913 2.28516 15.1913H5.15784C5.4473 14.226 5.83404 13.2925 6.31211 12.4053L4.3583 10.4516C3.56805 9.66136 3.56803 8.38011 4.35831 7.58993L7.58996 4.35829C8.38014 3.5681 9.66125 3.56816 10.4515 4.35825L12.4053 6.31212C13.2926 5.83405 14.226 5.4473 15.1914 5.15783V2.28516ZM17.2148 1.26172C16.6496 1.26172 16.1914 1.71988 16.1914 2.28516V5.53488C16.1914 5.76048 16.0403 5.95814 15.8226 6.01735C14.6845 6.32691 13.5905 6.78018 12.5668 7.36625C12.371 7.47835 12.1244 7.44543 11.9648 7.28588L9.74448 5.06543C9.74447 5.06542 9.7445 5.06545 9.74448 5.06543C9.34468 4.66577 8.69667 4.66579 8.29706 5.06539L5.06539 8.29706C4.66572 8.69669 4.66567 9.34474 5.06538 9.74444L7.28588 11.9648C7.44543 12.1244 7.47835 12.371 7.36624 12.5668C6.78018 13.5904 6.32691 14.6845 6.01735 15.8225C5.95814 16.0402 5.76048 16.1913 5.53488 16.1913H2.28516C1.71993 16.1913 1.26172 16.6495 1.26172 17.2148V21.7851C1.26172 22.3503 1.71988 22.8085 2.28516 22.8085H5.53488C5.76049 22.8085 5.95815 22.9596 6.01736 23.1773C6.32688 24.3154 6.78016 25.4094 7.36623 26.4329C7.47835 26.6288 7.44543 26.8754 7.28588 27.035L5.06539 29.2555C4.66571 29.6551 4.66568 30.3031 5.06537 30.7027L8.29704 33.9344C8.69676 34.3341 9.34475 34.3341 9.74444 33.9345C9.74445 33.9344 9.74443 33.9345 9.74444 33.9345L11.9648 31.714C12.1244 31.5544 12.371 31.5215 12.5669 31.6336C13.5904 32.2197 14.6845 32.673 15.8226 32.9825C16.0403 33.0417 16.1914 33.2394 16.1914 33.465V36.7148C16.1914 37.2801 16.6496 37.7383 17.2148 37.7383H21.7852C22.3504 37.7383 22.8086 37.2801 22.8086 36.7148V33.4651C22.8086 33.2395 22.9597 33.0418 23.1774 32.9826C24.3155 32.6731 25.4095 32.2198 26.4332 31.6338C26.629 31.5217 26.8756 31.5546 27.0352 31.7142L29.2555 33.9346C29.2555 33.9346 29.2555 33.9346 29.2555 33.9346C29.6553 34.3343 30.3033 34.3343 30.7029 33.9346L33.9346 30.7029C34.3343 30.3033 34.3343 29.6552 33.9347 29.2556L31.7142 27.0352C31.5546 26.8756 31.5217 26.629 31.6338 26.4332C32.2198 25.4096 32.6731 24.3155 32.9826 23.1775C33.0418 22.9598 33.2395 22.8087 33.4651 22.8087H36.7148C37.2801 22.8087 37.7383 22.3505 37.7383 21.7852V17.2149C37.7383 16.6496 37.2801 16.1914 36.7148 16.1914H33.4651C33.2395 16.1914 33.0418 16.0403 32.9826 15.8226C32.6731 14.6845 32.2199 13.5905 31.6338 12.567C31.5217 12.3711 31.5546 12.1245 31.7141 11.9649L33.9346 9.74445C34.3343 9.34485 34.3343 8.69679 33.9347 8.29714L30.703 5.0655C30.703 5.06549 30.703 5.06551 30.703 5.0655C30.3032 4.66582 29.6552 4.66585 29.2556 5.06547L27.0352 7.28595C26.8756 7.44551 26.6289 7.47843 26.4331 7.36629C25.4096 6.78013 24.3155 6.32683 23.1774 6.01736C22.9597 5.95816 22.8086 5.76049 22.8086 5.53488V2.28516C22.8086 1.71988 22.3504 1.26172 21.7852 1.26172H17.2148Z"></path><path fill-rule="evenodd" clip-rule="evenodd" d="M9.09766 19.5C9.09766 13.755 13.755 9.09766 19.5 9.09766C25.245 9.09766 29.9023 13.755 29.9023 19.5C29.9023 25.245 25.245 29.9023 19.5 29.9023C13.755 29.9023 9.09766 25.245 9.09766 19.5ZM19.5 10.0977C14.3072 10.0977 10.0977 14.3072 10.0977 19.5C10.0977 24.6928 14.3072 28.9023 19.5 28.9023C24.6928 28.9023 28.9023 24.6928 28.9023 19.5C28.9023 14.3072 24.6928 10.0977 19.5 10.0977Z"></path><path d="M24.0703 21.0234C24.0703 23.5475 22.0241 25.5938 19.5 25.5938C16.9759 25.5938 14.9297 23.5475 14.9297 21.0234C14.9297 19.0637 17.6847 15.1497 18.9167 13.6789C19.2211 13.3154 19.7789 13.3154 20.0833 13.6789C21.3153 15.1497 24.0703 19.0637 24.0703 21.0234Z"></path></g></svg>