<svg width="33" height="33" viewBox="0 0 33 33" xmlns="http://www.w3.org/2000/svg">
                                    <path d="M26.0808 20.4419C25.4052 19.7385 24.5903 19.3624 23.7267 19.3624C22.87 19.3624 22.0481 19.7315 21.3447 20.435L19.1438 22.6289C18.9627 22.5314 18.7816 22.4408 18.6075 22.3503C18.3568 22.2249 18.12 22.1065 17.918 21.9812C15.8564 20.6718 13.9828 18.9654 12.1859 16.7575C11.3153 15.6571 10.7302 14.7307 10.3054 13.7905C10.8765 13.2681 11.4058 12.7248 11.9212 12.2025C12.1162 12.0075 12.3113 11.8055 12.5063 11.6105C13.9689 10.1478 13.9689 8.25339 12.5063 6.79077L10.6049 4.88935C10.3889 4.67344 10.1661 4.45057 9.95713 4.22769C9.53923 3.79587 9.10045 3.35012 8.64773 2.93222C7.97214 2.26359 7.16421 1.90839 6.3145 1.90839C5.46478 1.90839 4.64293 2.26359 3.94644 2.93222C3.93947 2.93919 3.93947 2.93919 3.93251 2.94615L1.56445 5.33511C0.672947 6.22661 0.164512 7.31313 0.0530735 8.57377C-0.114084 10.6075 0.484896 12.502 0.944577 13.7417C2.07289 16.7854 3.75839 19.6061 6.27271 22.6289C9.32332 26.2715 12.9938 29.148 17.1867 31.1748C18.7886 31.934 20.9268 32.8324 23.3158 32.9857C23.462 32.9926 23.6152 32.9996 23.7545 32.9996C25.3634 32.9996 26.7146 32.4215 27.7733 31.2723C27.7802 31.2584 27.7942 31.2514 27.8011 31.2375C28.1633 30.7987 28.5812 30.4017 29.02 29.9768C29.3195 29.6913 29.6259 29.3918 29.9254 29.0784C30.6149 28.361 30.9771 27.5252 30.9771 26.6685C30.9771 25.8049 30.608 24.9761 29.9045 24.2796L26.0808 20.4419ZM28.5742 27.7759C28.5673 27.7759 28.5673 27.7829 28.5742 27.7759C28.3026 28.0685 28.024 28.3331 27.7245 28.6257C27.2718 29.0575 26.8121 29.5102 26.3803 30.0186C25.6768 30.7708 24.848 31.126 23.7615 31.126C23.657 31.126 23.5456 31.126 23.4411 31.1191C21.3726 30.9867 19.4503 30.1788 18.0085 29.4893C14.0664 27.5809 10.6049 24.8716 7.72837 21.4379C5.35334 18.5753 3.76535 15.9287 2.71366 13.087C2.06592 11.3528 1.82912 10.0016 1.93359 8.727C2.00324 7.91211 2.31666 7.23652 2.89474 6.65843L5.26976 4.28341C5.61104 3.96302 5.97322 3.7889 6.32843 3.7889C6.76721 3.7889 7.12242 4.05357 7.3453 4.27644C7.35226 4.28341 7.35923 4.29037 7.36619 4.29734C7.79105 4.69434 8.19501 5.10527 8.61987 5.54405C8.83578 5.76693 9.05866 5.9898 9.28153 6.21965L11.1829 8.12106C11.9212 8.85933 11.9212 9.54189 11.1829 10.2802C10.981 10.4822 10.7859 10.6841 10.584 10.8791C9.99891 11.4781 9.44173 12.0353 8.83578 12.5786C8.82185 12.5925 8.80792 12.5995 8.80096 12.6134C8.20198 13.2124 8.31342 13.7974 8.43878 14.1944C8.44575 14.2153 8.45271 14.2362 8.45968 14.2571C8.95418 15.4551 9.65067 16.5834 10.7093 17.9276L10.7163 17.9346C12.6386 20.3026 14.6654 22.1483 16.9011 23.5622C17.1867 23.7433 17.4792 23.8895 17.7578 24.0288C18.0085 24.1542 18.2453 24.2726 18.4473 24.398C18.4752 24.4119 18.503 24.4328 18.5309 24.4467C18.7677 24.5651 18.9906 24.6209 19.2204 24.6209C19.7985 24.6209 20.1607 24.2587 20.2791 24.1403L22.6611 21.7583C22.8979 21.5215 23.274 21.2359 23.7128 21.2359C24.1446 21.2359 24.4998 21.5075 24.7157 21.7444C24.7227 21.7513 24.7227 21.7513 24.7296 21.7583L28.5673 25.5959C29.2847 26.3064 29.2847 27.0377 28.5742 27.7759Z"></path>
                                    <path d="M17.8345 7.8506C19.6593 8.15705 21.3169 9.0207 22.6403 10.344C23.9636 11.6673 24.8203 13.325 25.1337 15.1498C25.2103 15.6095 25.6073 15.9299 26.06 15.9299C26.1157 15.9299 26.1645 15.9229 26.2202 15.9159C26.7356 15.8323 27.0769 15.3448 26.9933 14.8294C26.6172 12.6215 25.5725 10.6087 23.9775 9.01373C22.3826 7.41877 20.3697 6.37404 18.1618 5.99794C17.6464 5.91436 17.1659 6.25564 17.0753 6.76408C16.9848 7.27251 17.3191 7.76702 17.8345 7.8506Z"></path>
                                    <path d="M32.9619 14.557C32.3421 10.9213 30.6287 7.61301 27.996 4.98029C25.3633 2.34757 22.055 0.634209 18.4193 0.0143347C17.9108 -0.0762086 17.4303 0.272035 17.3397 0.780471C17.2562 1.29587 17.5974 1.77645 18.1128 1.86699C21.3585 2.41722 24.3185 3.95645 26.6727 6.30362C29.0268 8.65774 30.5591 11.6178 31.1093 14.8634C31.1859 15.3231 31.5829 15.6435 32.0356 15.6435C32.0913 15.6435 32.1401 15.6365 32.1958 15.6296C32.7042 15.553 33.0525 15.0654 32.9619 14.557Z"></path>
                                </svg>