<svg width="20" height="20" viewBox="0 0 20 20" xmlns="http://www.w3.org/2000/svg">
                                <g>
                                    <path fill-rule="evenodd" clip-rule="evenodd" d="M4.76543 0.468288C4.51373 0.216669 4.17241 0.0753174 3.81651 0.0753174C3.46061 0.0753174 3.11929 0.216669 2.86759 0.468288L1.17959 2.15629C0.699476 2.63632 0.348539 3.22995 0.159403 3.88199C-0.0297335 4.53404 -0.0509266 5.22332 0.0977938 5.88575L0.099136 5.89156C0.599319 7.99162 1.89407 11.3891 5.28977 14.7848C8.68547 18.1805 12.0839 19.4753 14.1848 19.9723L14.1897 19.9732C14.8516 20.1218 15.5402 20.1006 16.1917 19.9117C16.8432 19.7229 17.4363 19.3723 17.916 18.8927C18.4883 18.325 19.1392 17.6741 19.6063 17.207C19.7311 17.0825 19.8301 16.9346 19.8977 16.7717C19.9652 16.6089 20 16.4344 20 16.2581C20 16.0818 19.9652 15.9072 19.8977 15.7444C19.8301 15.5816 19.7311 15.4337 19.6063 15.3091L16.3976 12.1005C16.1459 11.8488 15.8046 11.7075 15.4487 11.7075C15.0928 11.7075 14.7515 11.8488 14.4998 12.1005L12.9402 13.6596C12.8714 13.7284 12.7821 13.773 12.6858 13.7865C12.5895 13.8 12.4914 13.7816 12.4064 13.7343C11.1969 12.9498 10.0732 12.0402 9.05412 11.0205C7.70926 9.6756 6.80687 8.39382 6.34785 7.67576C6.29808 7.59086 6.27784 7.49186 6.29031 7.39424C6.30277 7.29661 6.34724 7.20587 6.41675 7.1362L6.41809 7.13486C6.8543 6.69463 7.49809 6.05128 7.97412 5.57481C8.09892 5.4503 8.19793 5.3024 8.26549 5.13957C8.33305 4.97674 8.36783 4.80218 8.36783 4.62589C8.36783 4.4496 8.33305 4.27505 8.26549 4.11222C8.19793 3.94939 8.09892 3.80148 7.97412 3.67698L4.76543 0.468288ZM4.13282 1.1009L7.3415 4.30959C7.42516 4.3936 7.47213 4.50733 7.47213 4.62589C7.47213 4.74445 7.42516 4.85818 7.3415 4.9422C6.82079 5.46197 6.30122 5.98288 5.78279 6.50494C5.57075 6.71742 5.43628 6.995 5.40098 7.29311C5.36568 7.59121 5.43161 7.89253 5.58818 8.14865C6.06599 8.89758 7.01043 10.242 8.42151 11.6531C9.4861 12.7183 10.6598 13.6685 11.9232 14.4882L11.9358 14.4958C12.1924 14.649 12.4928 14.7122 12.7895 14.6754C13.0861 14.6385 13.3619 14.5036 13.5732 14.2922L15.1324 12.7331C15.2164 12.6494 15.3301 12.6024 15.4487 12.6024C15.5672 12.6024 15.681 12.6494 15.765 12.7331L18.9737 15.9418C19.0573 16.0258 19.1043 16.1395 19.1043 16.2581C19.1043 16.3766 19.0573 16.4904 18.9737 16.5744C18.507 17.0406 17.8574 17.6906 17.2848 18.2588L17.2834 18.2601C16.9107 18.6328 16.4498 18.9053 15.9436 19.0522C15.4374 19.1992 14.9023 19.2159 14.3879 19.1008C12.3863 18.627 9.15568 17.3855 5.92238 14.1522C2.68908 10.9189 1.44757 7.68829 0.970207 5.6871C0.855054 5.1722 0.871856 4.63656 1.01905 4.12989C1.16625 3.62322 1.43908 3.16195 1.8122 2.78891L3.5002 1.1009C3.58422 1.01724 3.69795 0.970278 3.81651 0.970278C3.93507 0.970278 4.0488 1.01724 4.13282 1.1009ZM10.08 2.38894C14.2779 2.38894 17.6856 5.79672 17.6856 9.99459C17.6856 10.1132 17.7328 10.227 17.8167 10.3109C17.9006 10.3948 18.0144 10.442 18.133 10.442C18.2517 10.442 18.3655 10.3948 18.4494 10.3109C18.5333 10.227 18.5804 10.1132 18.5804 9.99459C18.5804 5.30324 14.7713 1.49416 10.08 1.49416C9.96133 1.49416 9.84754 1.54129 9.76363 1.62519C9.67973 1.7091 9.6326 1.82289 9.6326 1.94155C9.6326 2.0602 9.67973 2.174 9.76363 2.2579C9.84754 2.3418 9.96133 2.38894 10.08 2.38894Z"></path>
                                    <path fill-rule="evenodd" clip-rule="evenodd" d="M10.0802 5.07328C12.7963 5.07328 15.0015 7.27847 15.0015 9.99458C15.0015 10.1132 15.0486 10.227 15.1325 10.3109C15.2164 10.3948 15.3302 10.442 15.4489 10.442C15.5676 10.442 15.6813 10.3948 15.7653 10.3109C15.8492 10.227 15.8963 10.1132 15.8963 9.99458C15.8963 6.78455 13.2902 4.1785 10.0802 4.1785C9.96155 4.1785 9.84775 4.22563 9.76385 4.30954C9.67995 4.39344 9.63281 4.50723 9.63281 4.62589C9.63281 4.74454 9.67995 4.85834 9.76385 4.94224C9.84775 5.02614 9.96155 5.07328 10.0802 5.07328Z"></path>
                                    <path fill-rule="evenodd" clip-rule="evenodd" d="M10.0802 7.75764C11.315 7.75764 12.3172 8.75979 12.3172 9.99459C12.3172 10.1132 12.3643 10.227 12.4482 10.3109C12.5321 10.3948 12.6459 10.442 12.7646 10.442C12.8832 10.442 12.997 10.3948 13.0809 10.3109C13.1648 10.227 13.2119 10.1132 13.2119 9.99459C13.2119 8.26632 11.8085 6.86285 10.0802 6.86285C9.96155 6.86285 9.84775 6.90999 9.76385 6.99389C9.67995 7.07779 9.63281 7.19159 9.63281 7.31025C9.63281 7.4289 9.67995 7.5427 9.76385 7.6266C9.84775 7.7105 9.96155 7.75764 10.0802 7.75764Z"></path>
                                </g>
                            </svg>