<svg width="48" height="48" viewBox="0 0 48 48" fill="none" xmlns="http://www.w3.org/2000/svg">
<g filter="url(#filter0_i_401_2)">
<path d="M46.1408 23.7614C46.1408 36.3537 36.024 46.5629 23.5459 46.5629C11.068 46.5629 0.951324 36.3537 0.951324 23.7614C0.951324 11.1692 11.068 0.959961 23.5459 0.959961C36.0266 0.959961 46.1408 11.1692 46.1408 23.7614Z" fill="#1A1A1A"/>
<path d="M11.3505 31.1866C9.85122 29.663 9.06971 27.4472 9.00327 24.5394V23.3081C9.09098 20.5425 9.88845 18.3777 11.3983 16.8191C12.9082 15.2606 14.9337 14.48 17.4776 14.48C19.3251 14.48 20.8827 14.885 22.1533 15.6925C23.4266 16.4999 24.381 17.6104 25.0216 19.0161C25.6622 20.4218 25.9839 22.042 25.9839 23.8714V24.6844C25.9839 24.8935 25.9281 25.1027 25.8057 25.2691C25.6463 25.4864 25.4337 25.5937 25.1704 25.5937H14.7397V25.8404C14.7821 26.943 15.0321 27.8335 15.4893 28.5122C15.9465 29.1935 16.6083 29.5288 17.4776 29.5343C18.2404 29.5368 18.8971 29.569 19.3198 29.5047C20.5824 29.3143 20.9226 29.2016 22.0363 28.9226C22.2996 28.8582 22.5361 28.7106 22.7833 28.6007C23.5276 28.2735 24.2028 27.8335 24.2986 27.7879C24.4182 27.7289 26.3957 26.4359 27.3634 25.2154L30.3406 21.1407C30.5372 21.1407 30.7792 23.8473 30.9227 23.9734C31.0636 24.1022 30.9333 25.6151 30.9333 25.8271C30.9333 26.4387 28.3708 29.3196 27.7303 30.1164C27.0897 30.913 25.5135 32.0129 24.2693 32.536C21.5367 33.6841 19.1629 33.4695 17.5121 33.4695C14.9044 33.4748 12.8496 32.7129 11.3505 31.1866ZM20.2501 22.1118V22.042C20.2501 20.8938 20.0055 19.9845 19.5165 19.3166C19.0273 18.6486 18.3468 18.3133 17.4802 18.3133C16.6323 18.3133 15.9651 18.6458 15.476 19.3166C14.9869 19.9845 14.7422 20.8938 14.7422 22.042V22.1118H20.2501Z" fill="white"/>
<path fill-rule="evenodd" clip-rule="evenodd" d="M0 23.7615C0 10.6384 10.5419 0 23.546 0C36.5501 0 47.0921 10.6384 47.0921 23.7615C47.0921 36.8846 36.5501 47.5231 23.546 47.5231C10.5419 47.5231 0 36.8846 0 23.7615ZM23.546 1.92013C11.5928 1.92013 1.90272 11.6988 1.90272 23.7615C1.90272 35.8241 11.5928 45.603 23.546 45.603C35.4992 45.603 45.1894 35.8241 45.1894 23.7615C45.1894 11.6989 35.4992 1.92013 23.546 1.92013Z" fill="#00DC83"/>
<path d="M28.9606 32.7266C28.8436 32.6005 28.7824 32.4504 28.7824 32.2786V15.6899C28.7824 15.5021 28.8409 15.3492 28.9606 15.2313C29.0775 15.1132 29.2156 15.0542 29.3752 15.0542H32.4962C32.669 15.0542 32.8122 15.1132 32.9212 15.2313C33.0303 15.3492 33.0861 15.5021 33.0861 15.6899V29.0623H40.2528C40.4256 29.0623 40.5689 29.1267 40.6779 29.2555C40.7868 29.3816 40.8427 29.5399 40.8427 29.7276V32.2786C40.8427 32.4477 40.7868 32.5979 40.6779 32.7266C40.5662 32.8527 40.4256 32.917 40.2528 32.917H29.3725C29.2156 32.917 29.0775 32.8527 28.9606 32.7266Z" fill="white"/>
</g>
<defs>
<filter id="filter0_i_401_2" x="0" y="0" width="47.0921" height="51.5229" filterUnits="userSpaceOnUse" color-interpolation-filters="sRGB">
<feFlood flood-opacity="0" result="BackgroundImageFix"/>
<feBlend mode="normal" in="SourceGraphic" in2="BackgroundImageFix" result="shape"/>
<feColorMatrix in="SourceAlpha" type="matrix" values="0 0 0 0 0 0 0 0 0 0 0 0 0 0 0 0 0 0 127 0" result="hardAlpha"/>
<feOffset dy="4"/>
<feGaussianBlur stdDeviation="2"/>
<feComposite in2="hardAlpha" operator="arithmetic" k2="-1" k3="1"/>
<feColorMatrix type="matrix" values="0 0 0 0 0 0 0 0 0 0 0 0 0 0 0 0 0 0 0.25 0"/>
<feBlend mode="normal" in2="shape" result="effect1_innerShadow_401_2"/>
</filter>
</defs>
</svg>
