<svg width="281" height="213" viewBox="0 0 281 213" fill="none" xmlns="http://www.w3.org/2000/svg">
<path d="M76.8877 46.4679L83.7319 52.2314C84.2539 52.671 85.0261 52.6355 85.5056 52.1499L90.2674 47.3279C90.7469 46.8423 91.5191 46.8068 92.0412 47.2464L97.9608 52.2314C98.4828 52.671 99.2551 52.6355 99.7346 52.1499L104.496 47.3279C104.976 46.8423 105.748 46.8068 106.27 47.2464L112.19 52.2314C112.712 52.671 113.484 52.6355 113.964 52.1499L118.725 47.3279C119.205 46.8423 119.977 46.8068 120.499 47.2464L126.419 52.2314C126.941 52.671 127.713 52.6355 128.192 52.1499L132.954 47.3279C133.434 46.8423 134.206 46.8068 134.728 47.2464L140.648 52.2314C141.17 52.671 141.942 52.6355 142.421 52.1499L147.183 47.3279C147.663 46.8423 148.435 46.8068 148.957 47.2464L154.877 52.2314C155.399 52.671 156.171 52.6355 156.65 52.1499L161.412 47.3279C161.892 46.8423 162.664 46.8068 163.186 47.2464L169.106 52.2314C169.628 52.671 170.4 52.6355 170.879 52.1499L175.641 47.3279C176.121 46.8423 176.893 46.8068 177.415 47.2464L183.335 52.2314C183.857 52.671 184.629 52.6355 185.108 52.1499L189.837 47.3612C190.33 46.862 191.129 46.8405 191.648 47.3124L197.916 53.0099" stroke="#D5DFFF" stroke-linejoin="round"/>
<path d="M203.804 51.7003L219.505 67.4012" stroke="#D5DFFF"/>
<path d="M203.804 66.7472L219.505 82.4481" stroke="#D5DFFF"/>
<path d="M203.804 81.1407L219.505 96.8416" stroke="#D5DFFF"/>
<path d="M203.804 95.5323L219.505 111.233" stroke="#D5DFFF"/>
<path d="M203.804 109.924L219.505 125.625" stroke="#D5DFFF"/>
<path d="M203.804 124.318L219.505 140.018" stroke="#D5DFFF"/>
<path d="M203.804 138.71L219.505 154.411" stroke="#D5DFFF"/>
<path d="M203.804 153.102L219.505 168.803" stroke="#D5DFFF"/>
<path d="M203.804 167.494L219.505 183.195" stroke="#D5DFFF"/>
<path d="M203.804 181.888L219.505 197.589" stroke="#D5DFFF"/>
<path d="M203.804 196.28L219.505 211.981" stroke="#D5DFFF"/>
<path d="M219.505 51.7003L203.804 67.4012" stroke="#D5DFFF"/>
<path d="M219.505 66.7472L203.804 82.4481" stroke="#D5DFFF"/>
<path d="M219.505 81.1407L203.804 96.8416" stroke="#D5DFFF"/>
<path d="M219.505 95.5323L203.804 111.233" stroke="#D5DFFF"/>
<path d="M219.505 109.924L203.804 125.625" stroke="#D5DFFF"/>
<path d="M219.505 124.318L203.804 140.018" stroke="#D5DFFF"/>
<path d="M219.505 138.71L203.804 154.411" stroke="#D5DFFF"/>
<path d="M219.505 153.102L203.804 168.803" stroke="#D5DFFF"/>
<path d="M219.505 167.494L203.804 183.195" stroke="#D5DFFF"/>
<path d="M219.505 181.888L203.804 197.589" stroke="#D5DFFF"/>
<path d="M219.505 196.28L203.804 211.981" stroke="#D5DFFF"/>
<path d="M77.3714 46.3136H224.238V53.1633L223.549 53.1624L220.135 53.1578C217.17 53.1539 212.878 53.1485 207.57 53.1426C196.954 53.1306 182.273 53.1162 166.016 53.1063C133.504 53.0866 94.6853 53.0853 69.4664 53.1588C69.4227 53.1589 69.4005 53.1469 69.3879 53.1373C69.3724 53.1255 69.3561 53.1051 69.346 53.0747C69.326 53.0144 69.3376 52.9433 69.4031 52.8872L76.8453 46.5082C76.9918 46.3826 77.1784 46.3136 77.3714 46.3136Z" stroke="#673DE6"/>
<path d="M203.804 49.7374H219.505V211.98H203.804V49.7374Z" stroke="#673DE6"/>
<path d="M260.718 51.6997L214.27 13.1017L85.3916 53.0081V104.5" stroke="#D5DFFF"/>
<path d="M150.159 45.8119L214.271 13.1017L239.785 51.6997" stroke="#D5DFFF"/>
<path d="M214.271 43.8503L214.271 0.0186768" stroke="#D5DFFF"/>
<path d="M20.627 108.692C20.627 106.482 22.4178 104.692 24.627 104.692H147.468C149.677 104.692 151.468 106.482 151.468 108.692V183.121C151.468 185.33 149.677 187.121 147.468 187.121H24.627C22.4178 187.121 20.627 185.33 20.627 183.121V108.692Z" stroke="#D5DFFF"/>
<ellipse cx="27.9234" cy="112.461" rx="2.15384" ry="2.15384" fill="#D5DFFF"/>
<ellipse cx="34.3843" cy="112.461" rx="2.15384" ry="2.15384" fill="#D5DFFF"/>
<ellipse cx="40.8452" cy="112.461" rx="2.15384" ry="2.15384" fill="#D5DFFF"/>
<path d="M92.8196 52.8546C93.1382 52.8546 93.3965 53.1129 93.3965 53.4315L93.3965 55.2029C93.3965 55.5215 93.1382 55.7798 92.8196 55.7798L77.9641 55.7798C77.6455 55.7798 77.3872 55.5215 77.3872 55.2029L77.3872 53.4315C77.3872 53.1129 77.6455 52.8546 77.9641 52.8546L92.8196 52.8546Z" fill="white" stroke="#673DE6"/>
<path d="M139.691 205.438C139.691 204.716 140.277 204.13 141 204.13H167.168C167.891 204.13 168.476 204.716 168.476 205.438V211.98H139.691V205.438Z" stroke="#D5DFFF"/>
<path d="M23.2422 205.438C23.2422 204.716 23.828 204.13 24.5506 204.13H38.9431C39.6657 204.13 40.2515 204.716 40.2515 205.438V211.98H23.2422V205.438Z" stroke="#D5DFFF"/>
<path d="M72.13 147C72.13 145.14 72.535 143.37 73.24 141.75L79.39 158.58C75.085 156.495 72.13 152.1 72.13 147ZM93.685 146.355C93.685 147.45 93.25 148.725 92.71 150.51L91.42 154.8L86.77 141L88.24 140.85C88.945 140.76 88.855 139.74 88.165 139.785C88.165 139.785 86.08 139.95 84.73 139.95L81.34 139.785C80.65 139.74 80.575 140.805 81.25 140.85L82.615 141L84.625 146.46L81.805 154.905L77.11 141L78.595 140.85C79.285 140.76 79.195 139.74 78.505 139.785C78.505 139.785 76.42 139.95 75.07 139.95L74.245 139.935C76.555 136.44 80.5 134.13 85 134.13C88.345 134.13 91.405 135.42 93.685 137.505H93.52C92.26 137.505 91.36 138.6 91.36 139.785C91.36 140.85 91.975 141.75 92.62 142.8C93.115 143.655 93.685 144.75 93.685 146.355ZM85.225 148.125L89.185 158.955L89.275 159.135C87.94 159.615 86.5 159.87 85 159.87C83.74 159.87 82.525 159.69 81.37 159.345L85.225 148.125ZM96.295 140.82C97.3 142.665 97.87 144.75 97.87 147C97.87 151.74 95.29 155.895 91.465 158.115L95.395 146.76C96.13 144.93 96.385 143.46 96.385 142.155L96.295 140.82ZM85 132C86.9698 132 88.9204 132.388 90.7403 133.142C92.5601 133.896 94.2137 135.001 95.6066 136.393C96.9995 137.786 98.1044 139.44 98.8582 141.26C99.612 143.08 100 145.03 100 147C100 150.978 98.4196 154.794 95.6066 157.607C92.7936 160.42 88.9782 162 85 162C83.0302 162 81.0796 161.612 79.2597 160.858C77.4399 160.104 75.7863 159 74.3934 157.607C71.5804 154.794 70 150.978 70 147C70 143.022 71.5804 139.207 74.3934 136.393C77.2064 133.58 81.0218 132 85 132ZM85 161.31C92.89 161.31 99.31 154.89 99.31 147C99.31 139.11 92.89 132.69 85 132.69C77.11 132.69 70.69 139.11 70.69 147C70.69 154.89 77.11 161.31 85 161.31Z" fill="#673DE6"/>
<mask id="path-37-inside-1_15766_44890" fill="white">
<path fill-rule="evenodd" clip-rule="evenodd" d="M224.739 39.0399C224.739 38.4452 224.257 37.963 223.662 37.963H200.956C200.361 37.963 199.879 38.4452 199.879 39.0399V52.587C199.879 53.1817 200.361 53.6639 200.956 53.6639H224.738C224.738 53.6639 224.738 53.6641 224.738 53.6643C224.738 53.6645 224.739 53.6646 224.739 53.6646H279.923C280.518 53.6646 281 53.1825 281 52.5877V48.4311C281 48.4311 281 48.431 281 48.431C281 48.431 281 48.4309 281 48.4309V45.5822C281 44.9874 280.518 44.5052 279.923 44.5052H262.961C262.778 44.5052 262.598 44.5519 262.438 44.6408L255.86 48.2955C255.7 48.3844 255.52 48.431 255.337 48.431H225.816C225.221 48.431 224.739 47.9488 224.739 47.3541V39.0399Z"/>
</mask>
<path fill-rule="evenodd" clip-rule="evenodd" d="M224.739 39.0399C224.739 38.4452 224.257 37.963 223.662 37.963H200.956C200.361 37.963 199.879 38.4452 199.879 39.0399V52.587C199.879 53.1817 200.361 53.6639 200.956 53.6639H224.738C224.738 53.6639 224.738 53.6641 224.738 53.6643C224.738 53.6645 224.739 53.6646 224.739 53.6646H279.923C280.518 53.6646 281 53.1825 281 52.5877V48.4311C281 48.4311 281 48.431 281 48.431C281 48.431 281 48.4309 281 48.4309V45.5822C281 44.9874 280.518 44.5052 279.923 44.5052H262.961C262.778 44.5052 262.598 44.5519 262.438 44.6408L255.86 48.2955C255.7 48.3844 255.52 48.431 255.337 48.431H225.816C225.221 48.431 224.739 47.9488 224.739 47.3541V39.0399Z" fill="white"/>
<path d="M255.86 48.2955L256.345 49.1696L255.86 48.2955ZM262.438 44.6408L261.952 43.7666L262.438 44.6408ZM200.956 38.963H223.662V36.963H200.956V38.963ZM200.879 52.587V39.0399H198.879V52.587H200.879ZM224.738 52.6639H200.956V54.6639H224.738V52.6639ZM224.739 54.6646H279.923V52.6646H224.739V54.6646ZM282 52.5877V48.4311H280V52.5877H282ZM282 48.4309V45.5822H280V48.4309H282ZM279.923 43.5052H262.961V45.5052H279.923V43.5052ZM261.952 43.7666L255.374 47.4213L256.345 49.1696L262.924 45.5149L261.952 43.7666ZM255.337 47.431H225.816V49.431H255.337V47.431ZM223.739 39.0399V47.3541H225.739V39.0399H223.739ZM225.816 47.431C225.773 47.431 225.739 47.3966 225.739 47.3541H223.739C223.739 48.5011 224.669 49.431 225.816 49.431V47.431ZM255.374 47.4213C255.363 47.4277 255.35 47.431 255.337 47.431V49.431C255.69 49.431 256.037 49.341 256.345 49.1696L255.374 47.4213ZM262.961 43.5052C262.608 43.5052 262.261 43.5952 261.952 43.7666L262.924 45.5149C262.935 45.5086 262.948 45.5052 262.961 45.5052V43.5052ZM282 45.5822C282 44.4351 281.07 43.5052 279.923 43.5052V45.5052C279.965 45.5052 280 45.5397 280 45.5822H282ZM281 47.431C281.552 47.431 282 47.8787 282 48.4309H280C280 48.9832 280.448 49.431 281 49.431V47.431ZM282 48.4311C282 47.8775 281.551 47.431 281 47.431V49.431C280.449 49.431 280 48.9847 280 48.4311H282ZM279.923 54.6646C281.07 54.6646 282 53.7348 282 52.5877H280C280 52.6302 279.966 52.6646 279.923 52.6646V54.6646ZM223.738 53.6643C223.738 54.2168 224.186 54.6646 224.739 54.6646V52.6646C225.291 52.6646 225.738 53.1122 225.738 53.6643H223.738ZM224.738 54.6639C224.186 54.6639 223.738 54.2163 223.738 53.6643H225.738C225.738 53.1118 225.291 52.6639 224.738 52.6639V54.6639ZM198.879 52.587C198.879 53.734 199.809 54.6639 200.956 54.6639V52.6639C200.913 52.6639 200.879 52.6295 200.879 52.587H198.879ZM223.662 38.963C223.704 38.963 223.739 38.9975 223.739 39.0399H225.739C225.739 37.8929 224.809 36.963 223.662 36.963V38.963ZM200.956 36.963C199.809 36.963 198.879 37.8929 198.879 39.0399H200.879C200.879 38.9975 200.913 38.963 200.956 38.963V36.963Z" fill="#673DE6" mask="url(#path-37-inside-1_15766_44890)"/>
<rect x="1" y="196.28" width="22.243" height="15.7009" rx="1.07692" stroke="#D5DFFF"/>
</svg>
