<svg width="40" height="40" viewBox="0 0 40 40" fill="none" xmlns="http://www.w3.org/2000/svg">
<rect x="0.5" y="0.5" width="39" height="39" rx="3.5" stroke="#C5CDE9"/>
<path d="M16.9712 28.4311H12.6655C12.3736 28.4311 12.118 28.3213 11.8985 28.1019C11.6791 27.8824 11.5693 27.6268 11.5693 27.3349V23.0292C12.193 22.8914 12.7195 22.586 13.1486 22.1131C13.5778 21.6403 13.7924 21.0829 13.7924 20.441C13.7924 19.7992 13.5786 19.2433 13.151 18.7734C12.7235 18.3035 12.1963 17.9965 11.5693 17.8523V13.5465C11.5693 13.2547 11.6791 12.999 11.8985 12.7796C12.118 12.5601 12.3736 12.4504 12.6655 12.4504H16.9597C17.1834 11.8549 17.5261 11.3643 17.9876 10.9788C18.4492 10.5932 18.9848 10.4004 19.5943 10.4004C20.2037 10.4004 20.7396 10.5932 21.2019 10.9788C21.6641 11.3643 22.0071 11.8549 22.2308 12.4504H26.4539C26.7457 12.4504 27.0014 12.5601 27.2208 12.7796C27.4403 12.999 27.55 13.2547 27.55 13.5465V17.7696C28.1455 17.9933 28.6268 18.3481 28.9938 18.8341C29.3607 19.3201 29.5442 19.8678 29.5442 20.4773C29.5442 21.0868 29.3607 21.613 28.9938 22.056C28.6268 22.499 28.1455 22.8324 27.55 23.0561V27.3349C27.55 27.6268 27.4403 27.8824 27.2208 28.1019C27.0014 28.3213 26.7457 28.4311 26.4539 28.4311H22.1481C21.9924 27.7452 21.6722 27.2032 21.1877 26.8051C20.7032 26.4071 20.1592 26.208 19.5558 26.208C18.9648 26.208 18.4236 26.4071 17.9323 26.8051C17.4409 27.2032 17.1206 27.7452 16.9712 28.4311ZM12.6655 27.3349H16.2395C16.5857 26.5324 17.0681 25.9612 17.687 25.6215C18.3058 25.2818 18.9284 25.1119 19.5547 25.1119C20.1811 25.1119 20.8053 25.2818 21.4275 25.6215C22.0496 25.9612 22.5388 26.5324 22.8952 27.3349H26.4539V22.0715H26.9866C27.4514 22.033 27.8176 21.8586 28.0852 21.548C28.3528 21.2375 28.4866 20.8832 28.4866 20.485C28.4866 20.0868 28.3528 19.7308 28.0852 19.4171C27.8176 19.1033 27.4514 18.9272 26.9866 18.8888H26.4539V13.5465H21.1828V12.9658C21.1443 12.5009 20.9698 12.1347 20.6593 11.8671C20.3488 11.5995 19.9928 11.4658 19.5914 11.4658C19.19 11.4658 18.834 11.5995 18.5235 11.8671C18.213 12.1347 18.0385 12.5009 18 12.9658V13.5465H12.6655V17.071C13.3519 17.3574 13.8941 17.8078 14.2918 18.4223C14.6896 19.0367 14.8885 19.7139 14.8885 20.4537C14.8885 21.185 14.6898 21.8557 14.2924 22.4658C13.8949 23.076 13.3526 23.5173 12.6655 23.7897V27.3349Z" fill="#C5CDE9"/>
</svg>
