<svg width="96" height="96" viewBox="0 0 96 96" fill="none" xmlns="http://www.w3.org/2000/svg">
<g opacity="0.4">
<path d="M50.4384 19.6076L49.8382 19.1579V19.1579L50.4384 19.6076ZM50.8751 19.0224L50.2721 18.5764L50.2721 18.5764L50.8751 19.0224ZM35.1249 19.0224L35.7279 18.5764L35.7279 18.5764L35.1249 19.0224ZM35.5615 19.6076L36.1654 19.1627L36.1617 19.1578L35.5615 19.6076ZM35.5616 19.6076L34.9578 20.0525L34.9614 20.0574L35.5616 19.6076ZM34.1599 76.3954L33.5596 76.8451L33.5597 76.8451L34.1599 76.3954ZM34.1474 76.3788L34.7476 75.9291L34.7476 75.929L34.1474 76.3788ZM49.4952 76.3782L50.0954 76.828L50.0955 76.8279L49.4952 76.3782ZM49.4825 76.3952L48.8823 75.9454L48.8823 75.9455L49.4825 76.3952ZM78.3932 59.9479L78.8437 59.3482L78.8437 59.3482L78.3932 59.9479ZM78.9742 60.3824L79.421 59.78H79.421L78.9742 60.3824ZM78.9861 44.6283L79.4315 45.2317V45.2317L78.9861 44.6283ZM78.3969 45.0671L77.9476 44.4665L77.9476 44.4665L78.3969 45.0671ZM49.8382 19.1579C48.4388 21.0252 46.75 23.2337 46.75 25.8944H48.25C48.25 23.8236 49.5648 22.024 51.0386 20.0574L49.8382 19.1579ZM50.2721 18.5764C50.13 18.7686 49.9853 18.9617 49.8382 19.1579L51.0386 20.0574C51.1851 19.8619 51.3327 19.665 51.4781 19.4684L50.2721 18.5764ZM51.25 15.7515C51.25 16.7594 50.9048 17.721 50.2721 18.5764L51.4781 19.4684C52.2788 18.3858 52.75 17.117 52.75 15.7515H51.25ZM43 9.75C45.3387 9.75 47.4271 10.462 48.9139 11.5774C50.4005 12.6926 51.25 14.176 51.25 15.7515H52.75C52.75 13.5982 51.5848 11.7059 49.814 10.3775C48.0435 9.04933 45.6319 8.25 43 8.25V9.75ZM34.75 15.7515C34.75 14.176 35.5995 12.6926 37.0861 11.5774C38.5729 10.462 40.6613 9.75 43 9.75V8.25C40.3681 8.25 37.9565 9.04933 36.186 10.3775C34.4152 11.7059 33.25 13.5982 33.25 15.7515H34.75ZM35.7279 18.5764C35.0952 17.721 34.75 16.7594 34.75 15.7515H33.25C33.25 17.117 33.7212 18.3858 34.5219 19.4684L35.7279 18.5764ZM36.1617 19.1578C36.0147 18.9616 35.87 18.7686 35.7279 18.5764L34.5219 19.4684C34.6673 19.665 34.8148 19.8618 34.9614 20.0573L36.1617 19.1578ZM36.1654 19.1627L36.1653 19.1627L34.9577 20.0525L34.9578 20.0525L36.1654 19.1627ZM39.25 25.8944C39.25 23.2337 37.5612 21.0252 36.1618 19.1579L34.9614 20.0574C36.4352 22.0239 37.75 23.8236 37.75 25.8944H39.25ZM39.25 26.4434V25.8944H37.75V26.4434H39.25ZM18.3636 30.1934H35.5V28.6934H18.3636V30.1934ZM14.75 33.807C14.75 31.8112 16.3679 30.1934 18.3636 30.1934V28.6934C15.5394 28.6934 13.25 30.9828 13.25 33.807H14.75ZM14.75 79.6359V33.807H13.25V79.6359H14.75ZM18.3636 83.2495C16.3679 83.2495 14.75 81.6316 14.75 79.6359H13.25C13.25 82.4601 15.5394 84.7495 18.3636 84.7495V83.2495ZM35.1305 83.2495H18.3636V84.7495H35.1305V83.2495ZM33.5597 76.8451C34.9166 78.6561 36.1406 80.335 36.1406 82.2394H37.6406C37.6406 79.7448 36.042 77.6565 34.7601 75.9457L33.5597 76.8451ZM33.5472 76.8284L33.5596 76.8451L34.7601 75.9457L34.7476 75.9291L33.5472 76.8284ZM32.1953 72.9067C32.1953 74.3521 32.6967 75.6934 33.5472 76.8285L34.7476 75.929C34.0696 75.0241 33.6953 73.9929 33.6953 72.9067H32.1953ZM41.8211 65.252C36.6911 65.252 32.1953 68.5147 32.1953 72.9067H33.6953C33.6953 69.6719 37.1472 66.752 41.8211 66.752V65.252ZM51.4469 72.9067C51.4469 68.5147 46.9511 65.252 41.8211 65.252V66.752C46.4951 66.752 49.9469 69.6719 49.9469 72.9067H51.4469ZM50.0955 76.8279C50.9457 75.6929 51.4469 74.3518 51.4469 72.9067H49.9469C49.9469 73.9927 49.5728 75.0237 48.895 75.9286L50.0955 76.8279ZM50.0827 76.845L50.0954 76.828L48.8951 75.9285L48.8823 75.9454L50.0827 76.845ZM47.5026 82.2383C47.5026 80.3344 48.7262 78.6557 50.0828 76.8449L48.8823 75.9455C47.6007 77.6562 46.0026 79.7442 46.0026 82.2383H47.5026ZM64.1819 83.2495H48.5138V84.7495H64.1819V83.2495ZM67.7955 79.6359C67.7955 81.6316 66.1776 83.2495 64.1819 83.2495V84.7495C67.006 84.7495 69.2955 82.4601 69.2955 79.6359H67.7955ZM67.7955 59.998V79.6359H69.2955V59.998H67.7955ZM71.5455 57.748H72.0956V56.248H71.5455V57.748ZM72.0956 57.748C74.1711 57.748 75.9737 59.0683 77.9428 60.5475L78.8437 59.3482C76.974 57.9436 74.7622 56.248 72.0956 56.248V57.748ZM77.9428 60.5475C78.1369 60.6933 78.3323 60.8401 78.5274 60.9848L79.421 59.78C79.2302 59.6385 79.0385 59.4945 78.8437 59.3482L77.9428 60.5475ZM78.5274 60.9848C79.6112 61.7886 80.882 62.2617 82.25 62.2617V60.7617C81.2405 60.7617 80.2774 60.4152 79.421 59.78L78.5274 60.9848ZM82.25 62.2617C84.403 62.2617 86.295 61.0961 87.623 59.325C88.9509 57.5542 89.75 55.1421 89.75 52.5098H88.25C88.25 54.849 87.5381 56.938 86.4229 58.4251C85.3079 59.9121 83.8249 60.7617 82.25 60.7617V62.2617ZM89.75 52.5098C89.75 49.8774 88.9509 47.4653 87.623 45.6945C86.295 43.9234 84.403 42.7578 82.25 42.7578V44.2578C83.8249 44.2578 85.3079 45.1074 86.4229 46.5944C87.5381 48.0816 88.25 50.1705 88.25 52.5098H89.75ZM82.25 42.7578C80.8876 42.7578 79.6216 43.227 78.5407 44.0249L79.4315 45.2317C80.2853 44.6015 81.2446 44.2578 82.25 44.2578V42.7578ZM78.5407 44.0249C78.3428 44.171 78.1445 44.3192 77.9476 44.4665L78.8461 45.6677C79.0436 45.5199 79.238 45.3745 79.4315 45.2317L78.5407 44.0249ZM77.9476 44.4665C75.9833 45.9357 74.1864 47.2461 72.1195 47.2461V48.7461C74.7754 48.7461 76.9807 47.0629 78.8461 45.6677L77.9476 44.4665ZM72.1195 47.2461H71.5455V48.7461H72.1195V47.2461ZM67.7955 33.807V44.9961H69.2955V33.807H67.7955ZM64.1819 30.1934C66.1776 30.1934 67.7955 31.8112 67.7955 33.807H69.2955C69.2955 30.9828 67.006 28.6934 64.1819 28.6934V30.1934ZM50.5 30.1934H64.1819V28.6934H50.5V30.1934ZM46.75 25.8944V26.4434H48.25V25.8944H46.75ZM50.5 28.6934C49.2574 28.6934 48.25 27.686 48.25 26.4434H46.75C46.75 28.5144 48.4289 30.1934 50.5 30.1934V28.6934ZM71.5455 47.2461C70.3028 47.2461 69.2955 46.2387 69.2955 44.9961H67.7955C67.7955 47.0672 69.4744 48.7461 71.5455 48.7461V47.2461ZM69.2955 59.998C69.2955 58.7554 70.3028 57.748 71.5455 57.748V56.248C69.4744 56.248 67.7955 57.927 67.7955 59.998H69.2955ZM46.0026 82.2383C46.0026 83.6252 47.1269 84.7495 48.5138 84.7495V83.2495C47.9553 83.2495 47.5026 82.7968 47.5026 82.2383H46.0026ZM35.1305 84.7495C36.5168 84.7495 37.6406 83.6257 37.6406 82.2394H36.1406C36.1406 82.7972 35.6884 83.2495 35.1305 83.2495V84.7495ZM37.75 26.4434C37.75 27.686 36.7426 28.6934 35.5 28.6934V30.1934C37.5711 30.1934 39.25 28.5144 39.25 26.4434H37.75Z" fill="#6D7081"/>
</g>
</svg>
