<svg width="22" height="22" viewBox="0 0 22 22" fill="none" xmlns="http://www.w3.org/2000/svg">
<rect width="22" height="22" rx="4" fill="#233AFF"/>
<path d="M12.9329 11.6597V12.1283L18.7037 13.802V13.5385L12.9329 11.6597ZM12.9329 11.6597V12.1283L18.7037 13.802V13.5385L12.9329 11.6597ZM12.9329 11.6597V12.1283L18.7037 13.802V13.5385L12.9329 11.6597ZM12.9329 11.6597V12.1283L18.7037 13.802V13.5385L12.9329 11.6597ZM12.9329 11.6597V12.1283L18.7037 13.802V13.5385L12.9329 11.6597ZM12.9329 11.6597V12.1283L18.7037 13.802V13.5385L12.9329 11.6597ZM12.9329 11.6597V12.1283L18.7037 13.802V13.5385L12.9329 11.6597ZM12.9329 11.6597V12.1283L18.7037 13.802V13.5385L12.9329 11.6597ZM12.9329 11.6597V12.1283L18.7037 13.802V13.5385L12.9329 11.6597ZM12.9329 11.6597V12.1283L18.7037 13.802V13.5385L12.9329 11.6597ZM12.9329 11.6597V12.1283L18.7037 13.802V13.5385L12.9329 11.6597ZM12.9329 11.6597V12.1283L18.7037 13.802V13.5385L12.9329 11.6597ZM12.9329 11.6597V12.1283L18.7037 13.802V13.5385L12.9329 11.6597ZM12.9329 11.6597V12.1283L18.7037 13.802V13.5385L12.9329 11.6597ZM12.9329 11.6597V12.1283L18.7037 13.802V13.5385L12.9329 11.6597ZM12.9329 11.6597V12.1283L18.7037 13.802V13.5385L12.9329 11.6597ZM6.74877 13.4522V17.0133H21L19.78 16.6957V13.1412L12.1174 10.5215V9.2432L10.5855 9.78951L8.49268 9.07475L8.23174 7.15698H7.71247L7.65719 7.55872L7.36316 9.69657L6.11669 10.1868L5.84709 8.21084H5.3299L5.29438 8.46563L5.2942 8.46715L4.99601 10.6296L3.71853 11.1329L3.46227 9.26487H2.94507L2.62887 11.5603L2.4809 11.6186V16.5511L1 17.0133H3.43576V14.2684C3.43576 13.7695 3.85125 13.3637 4.36169 13.3637C4.45023 13.3701 4.52976 13.4155 4.58278 13.4845C4.63354 13.5536 4.65347 13.6421 4.63354 13.7265C4.6027 13.9768 4.45681 14.1411 4.20038 14.221V17.0133H5.93095V13.5018C5.93095 12.9684 6.37521 12.5343 6.91891 12.5343C7.01403 12.5429 7.10032 12.5883 7.15767 12.664C7.21294 12.7373 7.23287 12.8322 7.21069 12.923C7.1776 13.1908 7.02287 13.3657 6.74877 13.4522ZM3.20359 9.92782C3.13064 9.97523 3.06428 10.0336 3.00468 10.0983C3.07104 10.0682 3.1374 10.0401 3.20359 10.0142V10.284C3.11747 10.3338 3.03795 10.3985 2.96933 10.4762C3.04678 10.4396 3.12406 10.4071 3.20359 10.379V10.7613C3.07988 10.8175 2.96933 10.8996 2.87871 11.001C2.98267 10.9492 3.09304 10.9082 3.20359 10.8759V11.3336L2.77701 11.5021L3.06653 9.40081H3.20359V9.92782ZM5.43126 8.48628L5.43143 8.4851L5.45136 8.34695H5.58841V9.09845C5.52205 9.14382 5.46244 9.19563 5.40943 9.25606C5.46903 9.22813 5.52655 9.20206 5.58841 9.17836V9.45261C5.50888 9.50239 5.43594 9.56283 5.37408 9.6319C5.44477 9.59956 5.51546 9.56926 5.58841 9.54336V9.92782C5.47128 9.98386 5.36957 10.0617 5.28346 10.1567C5.38292 10.1091 5.48445 10.0704 5.58841 10.0379V10.3964L5.14416 10.5691L5.43126 8.48628ZM4.30209 14.4908V14.3073C4.32201 14.3095 4.33969 14.3115 4.35961 14.3115C4.5982 14.3115 4.79277 14.0567 4.79277 13.7415C4.79277 13.4283 4.5982 13.1735 4.35961 13.1735C4.24248 13.1735 4.13627 13.234 4.05674 13.3356C3.98605 13.355 3.91744 13.383 3.8535 13.4197C3.94395 13.1346 4.1607 12.936 4.41038 12.936C4.74409 12.936 5.01594 13.2858 5.01594 13.7199C5.01594 14.1519 4.74409 14.5039 4.41038 14.5039C4.37503 14.5039 4.33743 14.4995 4.30209 14.4908ZM5.59724 16.6698H4.55627V16.4387H5.59724V16.6698ZM10.4177 10.4741L11.5406 10.1134V10.6189L10.4177 10.9773V10.4741ZM10.4177 11.6856L11.5406 11.325V11.8282L10.4177 12.1888V11.6856ZM10.4177 12.8971L11.5406 12.5365V13.0396L10.4177 13.4002V12.8971ZM8.51468 9.43095L10.0905 9.96879L8.51468 10.5324V9.43095ZM8.55887 12.7848V12.2817L9.68162 11.9209V12.4263L8.55887 12.7848ZM9.68162 13.1326V13.6377L8.55887 13.9963V13.4932L9.68162 13.1326ZM8.55887 11.5734V11.0701L9.68162 10.7095V11.2148L8.55887 11.5734ZM12.1174 16.4387V10.8865L12.6301 11.0614L19.4285 13.383V16.6698H18.7037V14.2447L16.5731 13.6875V16.6698H15.7487V13.4651L12.9329 12.7286V16.6698H7.10673V16.4387H12.1174ZM7.80967 7.47221V7.47153L7.83393 7.29293H7.97098V8.26908C7.91363 8.31005 7.86269 8.35982 7.814 8.41162C7.86719 8.38775 7.91796 8.36405 7.97098 8.34238V8.62104C7.90029 8.66861 7.83618 8.72465 7.77865 8.78949C7.84276 8.75919 7.90687 8.73108 7.97098 8.70738V9.09405C7.86494 9.14788 7.76774 9.22356 7.68804 9.3143C7.78091 9.26893 7.87378 9.23219 7.97098 9.19986V9.43738L7.90254 9.48275L7.5113 9.63816L7.80967 7.47221ZM6.91891 12.3313C6.79295 12.3313 6.67807 12.3961 6.59629 12.5041C6.51884 12.5256 6.4459 12.556 6.37746 12.5947C6.47466 12.2903 6.70458 12.0765 6.97418 12.0765C7.33007 12.0765 7.6196 12.4522 7.6196 12.9143C7.6196 13.3787 7.33007 13.7524 6.97418 13.7524C6.9345 13.7524 6.89465 13.748 6.85706 13.7393V13.5428C6.87698 13.5472 6.89899 13.5494 6.91891 13.5494C7.17534 13.5494 7.38309 13.2751 7.38309 12.9404C7.38309 12.6034 7.17534 12.3313 6.91891 12.3313ZM18.7037 13.5385L12.9329 11.6597V12.1283L18.7037 13.802V13.5385ZM12.9329 11.6597V12.1283L18.7037 13.802V13.5385L12.9329 11.6597ZM12.9329 11.6597V12.1283L18.7037 13.802V13.5385L12.9329 11.6597ZM12.9329 11.6597V12.1283L18.7037 13.802V13.5385L12.9329 11.6597ZM12.9329 11.6597V12.1283L18.7037 13.802V13.5385L12.9329 11.6597ZM12.9329 11.6597V12.1283L18.7037 13.802V13.5385L12.9329 11.6597ZM12.9329 11.6597V12.1283L18.7037 13.802V13.5385L12.9329 11.6597ZM12.9329 11.6597V12.1283L18.7037 13.802V13.5385L12.9329 11.6597ZM12.9329 11.6597V12.1283L18.7037 13.802V13.5385L12.9329 11.6597ZM12.9329 11.6597V12.1283L18.7037 13.802V13.5385L12.9329 11.6597ZM12.9329 11.6597V12.1283L18.7037 13.802V13.5385L12.9329 11.6597ZM12.9329 11.6597V12.1283L18.7037 13.802V13.5385L12.9329 11.6597ZM12.9329 11.6597V12.1283L18.7037 13.802V13.5385L12.9329 11.6597ZM12.9329 11.6597V12.1283L18.7037 13.802V13.5385L12.9329 11.6597ZM12.9329 11.6597V12.1283L18.7037 13.802V13.5385L12.9329 11.6597ZM12.9329 11.6597V12.1283L18.7037 13.802V13.5385L12.9329 11.6597ZM12.9329 11.6597V12.1283L18.7037 13.802V13.5385L12.9329 11.6597Z" fill="white"/>
<path d="M5.59282 7.94069C5.64151 7.83268 5.61725 7.7074 5.53097 7.62326C5.44486 7.54115 5.31439 7.51948 5.20384 7.56705C5.15082 7.49155 5.06021 7.44618 4.96526 7.45261C4.87014 7.45701 4.78402 7.50865 4.73984 7.59076C4.71766 7.53675 4.67348 7.49358 4.61821 7.47208C4.56294 7.45041 4.49883 7.45481 4.44581 7.48071C4.33093 7.31007 4.13636 7.20646 3.92636 7.20646C3.71654 7.20646 3.52196 7.31007 3.40708 7.48071C3.24785 7.36187 3.02469 7.37694 2.8833 7.51745C2.744 7.6556 2.73291 7.87585 2.85887 8.02923C2.75942 8.10914 2.71524 8.23644 2.744 8.35969C2.77276 8.48277 2.87221 8.57994 2.99593 8.60788C3.12189 8.63598 3.25461 8.59281 3.33622 8.49563C3.40033 8.55404 3.4932 8.57334 3.57723 8.54964C3.66126 8.52374 3.72762 8.4567 3.74738 8.37256C3.76505 8.4137 3.8004 8.44383 3.84475 8.45467C3.88893 8.46533 3.9352 8.45467 3.96846 8.42656C3.97505 8.57994 4.10552 8.70302 4.26457 8.70302C4.4238 8.70302 4.5541 8.57994 4.56086 8.42656C4.62479 8.53881 4.74868 8.60585 4.88122 8.59721C5.01152 8.58638 5.12657 8.50427 5.17525 8.38559C5.20818 8.42233 5.24907 8.44976 5.29429 8.46685C5.33743 8.48294 5.38421 8.48971 5.43134 8.48598L5.43221 8.48582C5.45109 8.48446 5.47015 8.48108 5.48904 8.47617C5.50238 8.47193 5.51555 8.46753 5.52889 8.4611C5.51485 8.39744 5.52179 8.39135 5.52629 8.34666C5.5275 8.33531 5.52837 8.32143 5.52889 8.30349C5.52976 8.27098 5.53478 8.24 5.54084 8.21054C5.5502 8.16331 5.56198 8.12048 5.56198 8.08323L5.69678 8.0746C5.67478 8.0228 5.63926 7.97759 5.59282 7.94069ZM4.64697 7.13959C4.63588 7.09422 4.58511 7.06628 4.53868 7.07915C4.49224 7.09201 4.46348 7.13959 4.47682 7.18496C4.48774 7.23253 4.53643 7.25843 4.58511 7.2476C4.63155 7.23456 4.66014 7.18716 4.64697 7.13959ZM3.2832 7.14602C3.26553 7.11352 3.2236 7.10268 3.19033 7.12215C3.15724 7.13942 3.14632 7.18056 3.16607 7.21289C3.18374 7.24523 3.22585 7.25606 3.25894 7.23879C3.29221 7.21949 3.30312 7.17852 3.2832 7.14602ZM3.99722 8.73976C3.95287 8.71403 3.9021 8.70742 3.85359 8.72046C3.82483 8.67509 3.7673 8.65139 3.70978 8.66645C3.64134 8.68372 3.59941 8.75499 3.61916 8.82203C3.63025 8.86724 3.6656 8.89974 3.7077 8.91261C3.71203 8.97525 3.74512 9.03348 3.8049 9.06599C3.8976 9.11779 4.0149 9.08749 4.06792 8.99675C4.12094 8.90617 4.08992 8.79173 3.99722 8.73976ZM4.92541 8.80036C4.90999 8.74636 4.85246 8.71182 4.79511 8.72689C4.73984 8.74196 4.70657 8.79816 4.72199 8.85437C4.73533 8.90837 4.79511 8.94071 4.85038 8.92767C4.90773 8.91261 4.941 8.8564 4.92541 8.80036ZM6.96543 7.59313C6.94117 7.50679 6.8483 7.45498 6.75994 7.47648C6.66932 7.50018 6.6163 7.59093 6.64056 7.67743C6.66499 7.76581 6.75543 7.81778 6.84605 7.79391C6.93459 7.77021 6.98761 7.6815 6.96543 7.59313ZM8.16997 5.45731C8.14346 5.35776 8.03968 5.29953 7.93797 5.32543C7.83626 5.35353 7.77666 5.45511 7.80317 5.55431C7.82968 5.65369 7.93572 5.7121 8.03742 5.68602C8.13913 5.65809 8.19873 5.55668 8.16997 5.45731ZM6.39522 5.55025C6.38187 5.50048 6.33111 5.47238 6.28242 5.48541C6.23165 5.49828 6.20289 5.54822 6.21623 5.59782C6.2294 5.64506 6.28034 5.67333 6.33111 5.66029C6.37979 5.64743 6.40856 5.59782 6.39522 5.55025ZM9.88737 6.52183C9.85428 6.46563 9.77908 6.44412 9.71931 6.47866C9.6597 6.511 9.63978 6.58447 9.67512 6.64288C9.70839 6.69891 9.78342 6.71838 9.84319 6.68588C9.90072 6.65371 9.92047 6.58007 9.88737 6.52183ZM11.545 6.74665C11.4831 6.64508 11.3483 6.60834 11.2444 6.66878C11.1383 6.72719 11.103 6.8589 11.1626 6.9625C11.2245 7.06408 11.3572 7.10082 11.4632 7.04038C11.5693 6.98197 11.6046 6.85026 11.545 6.74665ZM13.9276 5.10755C13.9033 5.01477 13.8039 4.9584 13.7087 4.98227C13.6115 5.00834 13.5563 5.10551 13.5805 5.19829C13.607 5.29123 13.7044 5.34727 13.8016 5.32136C13.8967 5.29749 13.9541 5.20032 13.9276 5.10755ZM14.8759 6.30378C14.8759 6.12873 14.73 5.98838 14.5508 5.98838C14.3784 5.98838 14.237 6.1223 14.2282 6.28854C14.1795 6.28634 14.131 6.29074 14.0823 6.30378C13.9187 6.34695 13.7971 6.46783 13.7463 6.61477C13.7287 6.60394 13.7087 6.5953 13.6866 6.5887C13.6822 6.54993 13.6711 6.511 13.6491 6.47426C13.5674 6.33391 13.3839 6.28634 13.2402 6.36862C13.0966 6.44836 13.0479 6.62764 13.1297 6.76798C13.1519 6.80252 13.1805 6.83282 13.2137 6.85653C13.1938 6.94083 13.2071 7.03361 13.2534 7.11572C13.3574 7.28857 13.5828 7.3468 13.7597 7.24743C13.817 7.21509 13.8612 7.17192 13.8922 7.11995C14.0094 7.21712 14.1729 7.26046 14.3321 7.21712C14.5907 7.15025 14.7431 6.89106 14.6745 6.63847C14.6702 6.62544 14.6657 6.61257 14.6614 6.60174C14.7873 6.55654 14.8759 6.43989 14.8759 6.30378ZM13.2799 5.22639C13.3619 5.04491 13.3198 4.83109 13.1739 4.69074C13.028 4.5526 12.8114 4.51366 12.6258 4.5978C12.5352 4.46609 12.3827 4.39262 12.2213 4.40125C12.0599 4.40785 11.9163 4.49842 11.8411 4.63657C11.8058 4.5438 11.7306 4.47032 11.6379 4.43375C11.5428 4.39922 11.4367 4.40345 11.3483 4.44882C11.1538 4.1595 10.8244 3.98682 10.4708 3.98682C10.1194 3.98682 9.79 4.1595 9.5956 4.44882C9.32825 4.24804 8.95018 4.27394 8.71368 4.50926C8.47734 4.74678 8.4595 5.11618 8.67175 5.37317C8.51044 5.50285 8.43524 5.70566 8.47058 5.90221C8.34687 5.91085 8.23408 5.98212 8.17447 6.09013C8.14571 6.01649 8.08819 5.95842 8.01316 5.92812C7.93797 5.90018 7.85393 5.90441 7.78324 5.94098C7.63077 5.71227 7.36775 5.57378 7.08914 5.57378C6.80863 5.57378 6.54769 5.71227 6.39296 5.94098C6.18089 5.78117 5.88027 5.80301 5.69453 5.98855C5.50671 6.17664 5.49129 6.4702 5.65918 6.67538C5.52664 6.78119 5.46686 6.95387 5.50671 7.11809C5.54656 7.28213 5.67686 7.40961 5.84492 7.44855C6.01282 7.48732 6.18747 7.42908 6.29801 7.29737C6.38638 7.37508 6.50801 7.40318 6.62063 7.36847C6.73343 7.33614 6.82179 7.2454 6.8483 7.13535C6.87048 7.18936 6.919 7.23033 6.97877 7.24319C7.03612 7.25843 7.09815 7.24319 7.14441 7.20443C7.15325 7.41181 7.3279 7.57586 7.54015 7.57586C7.58087 7.57586 7.6202 7.56976 7.65728 7.55859C7.71463 7.54115 7.76644 7.51136 7.80941 7.47208L7.80975 7.47157C7.86225 7.42417 7.90141 7.36255 7.92133 7.29297C7.92948 7.26469 7.9345 7.23507 7.93572 7.20443C7.97106 7.26927 8.022 7.32107 8.08386 7.36001L8.10136 7.15685L8.1192 6.94964L8.49051 6.97554L8.50368 7.40098C8.61873 7.35561 8.7116 7.26486 8.75803 7.15042C8.86182 7.26486 9.02538 7.31244 9.17785 7.2713C9.33033 7.23033 9.44537 7.10945 9.47414 6.95607C9.50498 6.80489 9.44312 6.64948 9.31491 6.55654C9.35458 6.468 9.35909 6.37082 9.32825 6.28448C9.38335 6.25215 9.43429 6.21101 9.47622 6.1614C9.58676 6.25858 9.74148 6.29311 9.88287 6.24994C10.0244 6.20677 10.135 6.09436 10.1701 5.95402C10.1989 6.02309 10.2587 6.07489 10.3316 6.09233C10.4068 6.1096 10.4841 6.09233 10.5416 6.04273C10.5527 6.30395 10.7736 6.51117 11.041 6.51117C11.3085 6.51117 11.5273 6.30395 11.5384 6.04273C11.6467 6.23268 11.8567 6.34492 12.0799 6.32985C12.3008 6.31461 12.4954 6.17664 12.5749 5.97349C12.7076 6.12026 12.9131 6.1785 13.1054 6.1267C13.2976 6.07489 13.4414 5.92151 13.479 5.72936C13.5164 5.53942 13.4391 5.34303 13.2799 5.22639Z" fill="white"/>
</svg>
