<svg width="157" height="99" viewBox="0 0 157 99" fill="none" xmlns="http://www.w3.org/2000/svg">
<path d="M41.7653 26.8552V28.4954L61.963 34.3531V33.4311L41.7653 26.8552ZM41.7653 26.8552V28.4954L61.963 34.3531V33.4311L41.7653 26.8552ZM41.7653 26.8552V28.4954L61.963 34.3531V33.4311L41.7653 26.8552ZM41.7653 26.8552V28.4954L61.963 34.3531V33.4311L41.7653 26.8552ZM41.7653 26.8552V28.4954L61.963 34.3531V33.4311L41.7653 26.8552ZM41.7653 26.8552V28.4954L61.963 34.3531V33.4311L41.7653 26.8552ZM41.7653 26.8552V28.4954L61.963 34.3531V33.4311L41.7653 26.8552ZM41.7653 26.8552V28.4954L61.963 34.3531V33.4311L41.7653 26.8552ZM41.7653 26.8552V28.4954L61.963 34.3531V33.4311L41.7653 26.8552ZM41.7653 26.8552V28.4954L61.963 34.3531V33.4311L41.7653 26.8552ZM41.7653 26.8552V28.4954L61.963 34.3531V33.4311L41.7653 26.8552ZM41.7653 26.8552V28.4954L61.963 34.3531V33.4311L41.7653 26.8552ZM41.7653 26.8552V28.4954L61.963 34.3531V33.4311L41.7653 26.8552ZM41.7653 26.8552V28.4954L61.963 34.3531V33.4311L41.7653 26.8552ZM41.7653 26.8552V28.4954L61.963 34.3531V33.4311L41.7653 26.8552ZM41.7653 26.8552V28.4954L61.963 34.3531V33.4311L41.7653 26.8552ZM20.1207 33.129V45.5928H70L65.7301 44.4812V32.0405L38.9109 22.8717V18.3975L33.5494 20.3096L26.2244 17.8079L25.3111 11.0957H23.4936L23.3002 12.5018L22.2711 19.9843L17.9084 21.7002L16.9648 14.7842H15.1546L15.0303 15.676L15.0297 15.6813L13.9861 23.2497L9.51486 25.0113L8.61795 18.4733H6.80776L5.70103 26.5074L5.18314 26.7113V43.9752L0 45.5928H8.52517V35.9855C8.52517 34.2394 9.97938 32.8191 11.7659 32.8191C12.0758 32.8416 12.3542 33.0004 12.5397 33.2421C12.7174 33.4839 12.7871 33.7938 12.7174 34.0889C12.6095 34.9652 12.0988 35.54 11.2013 35.8196V45.5928H17.2583V33.3026C17.2583 31.4355 18.8132 29.9163 20.7162 29.9163C21.0491 29.9465 21.3511 30.1053 21.5518 30.3701C21.7453 30.6267 21.815 30.9591 21.7374 31.2767C21.6216 32.2141 21.08 32.8262 20.1207 33.129ZM7.71255 20.7937C7.45725 20.9596 7.22498 21.164 7.01637 21.3903C7.24864 21.2849 7.4809 21.1865 7.71255 21.0958V22.0403C7.41116 22.2145 7.13281 22.4409 6.89266 22.7129C7.16374 22.5849 7.4342 22.4711 7.71255 22.3727V23.7107C7.27956 23.9074 6.89266 24.1948 6.5755 24.5497C6.93936 24.3684 7.32565 24.225 7.71255 24.1118V25.714L6.21953 26.3036L7.23287 18.9491H7.71255V20.7937ZM15.5094 15.7483L15.51 15.7441L15.5797 15.2606H16.0594V17.8908C15.8272 18.0496 15.6186 18.231 15.433 18.4425C15.6416 18.3447 15.8429 18.2535 16.0594 18.1705V19.1304C15.7811 19.3046 15.5258 19.5162 15.3093 19.7579C15.5567 19.6447 15.8041 19.5387 16.0594 19.448V20.7937C15.6495 20.9898 15.2935 21.2623 14.9921 21.5948C15.3402 21.4283 15.6956 21.2926 16.0594 21.1788V22.4338L14.5045 23.0382L15.5094 15.7483ZM11.5573 36.7641V36.1218C11.627 36.1295 11.6889 36.1366 11.7586 36.1366C12.5937 36.1366 13.2747 35.2449 13.2747 34.1416C13.2747 33.0454 12.5937 32.1536 11.7586 32.1536C11.3487 32.1536 10.977 32.3652 10.6986 32.7207C10.4512 32.7888 10.211 32.8866 9.98726 33.0152C10.3038 32.0174 11.0625 31.3223 11.9363 31.3223C13.1043 31.3223 14.0558 32.5465 14.0558 34.0657C14.0558 35.5779 13.1043 36.8098 11.9363 36.8098C11.8126 36.8098 11.681 36.7943 11.5573 36.7641ZM16.0904 44.3906H12.4469V43.5818H16.0904V44.3906ZM32.9618 22.7057L36.8921 21.4431V23.2124L32.9618 24.4667V22.7057ZM32.9618 26.9459L36.8921 25.6838V27.4448L32.9618 28.7069V26.9459ZM32.9618 31.186L36.8921 29.924V31.685L32.9618 32.947V31.186ZM26.3014 19.0546L31.8169 20.937L26.3014 22.9096V19.0546ZM26.456 30.7932V29.0322L30.3857 27.7695V29.5382L26.456 30.7932ZM30.3857 32.0103V33.7784L26.456 35.0333V33.2723L30.3857 32.0103ZM26.456 26.553V24.7915L30.3857 23.5294V25.2981L26.456 26.553ZM38.9109 43.5818V24.1492L40.7053 24.7612L64.4997 32.8866V44.3906H61.963V35.9026L54.5058 33.9526V44.3906H51.6204V33.174L41.7653 30.5965V44.3906H21.3736V43.5818H38.9109ZM23.8338 12.199V12.1966L23.9187 11.5715H24.3984V14.988C24.1977 15.1314 24.0194 15.3056 23.849 15.4869C24.0352 15.4034 24.2129 15.3204 24.3984 15.2446V16.2199C24.151 16.3864 23.9266 16.5825 23.7253 16.8095C23.9497 16.7034 24.174 16.6051 24.3984 16.5221V17.8754C24.0273 18.0639 23.6871 18.3287 23.4081 18.6463C23.7332 18.4875 24.0582 18.3589 24.3984 18.2458V19.0771L24.1589 19.2359L22.7896 19.7798L23.8338 12.199ZM20.7162 29.2058C20.2753 29.2058 19.8733 29.4327 19.587 29.8108C19.3159 29.886 19.0606 29.9921 18.8211 30.1278C19.1613 29.0624 19.966 28.3141 20.9096 28.3141C22.1552 28.3141 23.1686 29.6289 23.1686 31.2465C23.1686 32.8718 22.1552 34.1795 20.9096 34.1795C20.7708 34.1795 20.6313 34.1641 20.4997 34.1339V33.446C20.5694 33.4614 20.6465 33.4691 20.7162 33.4691C21.6137 33.4691 22.3408 32.5092 22.3408 31.3377C22.3408 30.158 21.6137 29.2058 20.7162 29.2058ZM61.963 33.4311L41.7653 26.8552V28.4954L61.963 34.3531V33.4311ZM41.7653 26.8552V28.4954L61.963 34.3531V33.4311L41.7653 26.8552ZM41.7653 26.8552V28.4954L61.963 34.3531V33.4311L41.7653 26.8552ZM41.7653 26.8552V28.4954L61.963 34.3531V33.4311L41.7653 26.8552ZM41.7653 26.8552V28.4954L61.963 34.3531V33.4311L41.7653 26.8552ZM41.7653 26.8552V28.4954L61.963 34.3531V33.4311L41.7653 26.8552ZM41.7653 26.8552V28.4954L61.963 34.3531V33.4311L41.7653 26.8552ZM41.7653 26.8552V28.4954L61.963 34.3531V33.4311L41.7653 26.8552ZM41.7653 26.8552V28.4954L61.963 34.3531V33.4311L41.7653 26.8552ZM41.7653 26.8552V28.4954L61.963 34.3531V33.4311L41.7653 26.8552ZM41.7653 26.8552V28.4954L61.963 34.3531V33.4311L41.7653 26.8552ZM41.7653 26.8552V28.4954L61.963 34.3531V33.4311L41.7653 26.8552ZM41.7653 26.8552V28.4954L61.963 34.3531V33.4311L41.7653 26.8552ZM41.7653 26.8552V28.4954L61.963 34.3531V33.4311L41.7653 26.8552ZM41.7653 26.8552V28.4954L61.963 34.3531V33.4311L41.7653 26.8552ZM41.7653 26.8552V28.4954L61.963 34.3531V33.4311L41.7653 26.8552ZM41.7653 26.8552V28.4954L61.963 34.3531V33.4311L41.7653 26.8552Z" fill="black"/>
<path d="M16.0744 13.8385C16.2448 13.4605 16.1599 13.022 15.8579 12.7276C15.5565 12.4402 15.0999 12.3643 14.713 12.5308C14.5274 12.2666 14.2102 12.1078 13.8779 12.1303C13.545 12.1457 13.2436 12.3264 13.0889 12.6138C13.0113 12.4248 12.8567 12.2737 12.6632 12.1984C12.4698 12.1226 12.2454 12.138 12.0598 12.2286C11.6578 11.6314 10.9768 11.2687 10.2418 11.2687C9.50738 11.2687 8.82637 11.6314 8.4243 12.2286C7.867 11.8127 7.08592 11.8654 6.59107 12.3572C6.1035 12.8407 6.06469 13.6116 6.50557 14.1484C6.15748 14.4281 6.00284 14.8737 6.1035 15.3051C6.20417 15.7358 6.55226 16.0759 6.98525 16.1737C7.42612 16.2721 7.89065 16.121 8.17628 15.7809C8.40065 15.9853 8.7257 16.0528 9.01982 15.9699C9.31393 15.8792 9.5462 15.6446 9.61533 15.3501C9.67718 15.4941 9.8009 15.5995 9.95614 15.6375C10.1108 15.6748 10.2727 15.6375 10.3891 15.5391C10.4122 16.0759 10.8688 16.5067 11.4255 16.5067C11.9828 16.5067 12.4389 16.0759 12.4625 15.5391C12.6863 15.932 13.1199 16.1666 13.5838 16.1364C14.0398 16.0985 14.4425 15.8111 14.6129 15.3957C14.7281 15.5243 14.8712 15.6203 15.0295 15.6801C15.1805 15.7364 15.3443 15.7601 15.5092 15.7471L15.5122 15.7465C15.5783 15.7418 15.645 15.7299 15.7111 15.7127C15.7578 15.6979 15.8039 15.6825 15.8506 15.66C15.8015 15.4372 15.8258 15.4159 15.8415 15.2594C15.8458 15.2197 15.8488 15.1712 15.8506 15.1083C15.8537 14.9946 15.8712 14.8861 15.8925 14.783C15.9252 14.6177 15.9665 14.4678 15.9665 14.3375L16.4383 14.3072C16.3612 14.1259 16.2369 13.9677 16.0744 13.8385ZM12.7639 11.0347C12.7251 10.8759 12.5474 10.7781 12.3849 10.8232C12.2224 10.8682 12.1217 11.0347 12.1684 11.1935C12.2066 11.36 12.377 11.4507 12.5474 11.4127C12.7099 11.3671 12.81 11.2012 12.7639 11.0347ZM7.99071 11.0572C7.92885 10.9434 7.7821 10.9055 7.66566 10.9737C7.54983 11.0341 7.51163 11.1781 7.58076 11.2913C7.64262 11.4044 7.78998 11.4424 7.90581 11.3819C8.02224 11.3144 8.06045 11.171 7.99071 11.0572ZM10.4898 16.6353C10.3346 16.5452 10.1569 16.5221 9.98707 16.5677C9.8864 16.4089 9.68507 16.326 9.48373 16.3787C9.24419 16.4392 9.09744 16.6886 9.16657 16.9233C9.20538 17.0815 9.3291 17.1952 9.47646 17.2403C9.49162 17.4595 9.60745 17.6633 9.81666 17.7771C10.1411 17.9584 10.5517 17.8524 10.7372 17.5348C10.9228 17.2178 10.8142 16.8172 10.4898 16.6353ZM13.7384 16.8474C13.6845 16.6584 13.4831 16.5375 13.2824 16.5903C13.0889 16.643 12.9725 16.8397 13.0265 17.0364C13.0732 17.2255 13.2824 17.3386 13.4759 17.293C13.6766 17.2403 13.793 17.0435 13.7384 16.8474ZM20.8785 12.6221C20.7936 12.3199 20.4686 12.1386 20.1593 12.2138C19.8421 12.2968 19.6566 12.6144 19.7415 12.9172C19.827 13.2265 20.1435 13.4084 20.4607 13.3248C20.7706 13.2419 20.9561 12.9314 20.8785 12.6221ZM25.0944 5.14672C25.0016 4.79831 24.6384 4.59448 24.2824 4.68514C23.9264 4.7835 23.7178 5.13902 23.8106 5.48624C23.9034 5.83406 24.2745 6.03848 24.6305 5.94723C24.9865 5.84946 25.1951 5.49453 25.0944 5.14672ZM18.8828 5.47202C18.8361 5.29782 18.6584 5.19946 18.488 5.24508C18.3103 5.29011 18.2096 5.46491 18.2563 5.63852C18.3024 5.80384 18.4807 5.90279 18.6584 5.85716C18.8288 5.81213 18.9295 5.63852 18.8828 5.47202ZM31.1053 8.87255C30.9895 8.67583 30.7263 8.60058 30.5171 8.72146C30.3085 8.83463 30.2387 9.09179 30.3624 9.29621C30.4789 9.49234 30.7415 9.56048 30.9507 9.44671C31.152 9.33413 31.2211 9.07638 31.1053 8.87255ZM36.907 9.65943C36.6905 9.30391 36.2187 9.17533 35.8549 9.38687C35.4837 9.59129 35.36 10.0523 35.5686 10.4149C35.7851 10.7704 36.2497 10.899 36.6208 10.6875C36.9919 10.483 37.1156 10.0221 36.907 9.65943ZM45.246 3.92255C45.1611 3.59785 44.813 3.40053 44.4801 3.48408C44.1399 3.57533 43.9464 3.91544 44.0313 4.24015C44.1241 4.56545 44.4649 4.76158 44.8051 4.67092C45.1381 4.58737 45.3388 4.24726 45.246 3.92255ZM48.565 8.10937C48.565 7.4967 48.0544 7.00549 47.4273 7.00549C46.8239 7.00549 46.3291 7.47418 46.2982 8.05604C46.1278 8.04834 45.958 8.06375 45.7875 8.10937C45.2151 8.26047 44.7894 8.68353 44.6117 9.19785C44.5498 9.15993 44.4801 9.12971 44.4025 9.1066C44.3873 8.97091 44.3485 8.83463 44.2715 8.70605C43.9852 8.21484 43.343 8.04834 42.8403 8.33631C42.3376 8.61539 42.1672 9.24288 42.4534 9.73409C42.531 9.85497 42.6311 9.96103 42.7475 10.044C42.6778 10.3391 42.7245 10.6638 42.8864 10.9511C43.2503 11.5561 44.0392 11.76 44.6584 11.4121C44.8591 11.299 45.0137 11.1479 45.1223 10.966C45.5322 11.3061 46.1047 11.4578 46.662 11.3061C47.5668 11.072 48.1005 10.1649 47.8603 9.2808C47.8452 9.23518 47.8294 9.19015 47.8142 9.15223C48.2551 8.99402 48.565 8.58577 48.565 8.10937ZM42.9792 4.33851C43.266 3.70332 43.1187 2.95495 42.608 2.46374C42.0974 1.98024 41.3394 1.84395 40.6899 2.13844C40.3728 1.67745 39.8391 1.4203 39.2739 1.45051C38.7093 1.47362 38.2066 1.79063 37.9434 2.27413C37.8197 1.94943 37.5565 1.69227 37.2321 1.56428C36.8991 1.4434 36.528 1.45822 36.2187 1.61702C35.5377 0.604381 34.3849 0 33.1472 0C31.9173 0 30.7645 0.604381 30.0841 1.61702C29.1484 0.914275 27.8252 1.00493 26.9974 1.82855C26.1702 2.65987 26.1077 3.95277 26.8506 4.85223C26.286 5.30611 26.0228 6.01596 26.1466 6.70389C25.7136 6.73411 25.3188 6.98356 25.1102 7.3616C25.0095 7.10385 24.8082 6.90061 24.5456 6.79455C24.2824 6.69678 23.9883 6.71159 23.7409 6.83958C23.2072 6.03907 22.2866 5.55438 21.3115 5.55438C20.3297 5.55438 19.4164 6.03907 18.8749 6.83958C18.1326 6.28023 17.0805 6.35667 16.4304 7.00608C15.773 7.66438 15.719 8.69183 16.3067 9.40998C15.8427 9.78031 15.6335 10.3847 15.773 10.9594C15.9125 11.5336 16.3685 11.9798 16.9567 12.1161C17.5444 12.2518 18.1557 12.0479 18.5426 11.5869C18.8518 11.8589 19.2775 11.9573 19.6717 11.8358C20.0665 11.7226 20.3758 11.405 20.4686 11.0199C20.5462 11.2089 20.716 11.3523 20.9252 11.3973C21.1259 11.4507 21.343 11.3973 21.505 11.2616C21.5359 11.9875 22.1472 12.5616 22.89 12.5616C23.0326 12.5616 23.1702 12.5403 23.3 12.5012C23.5007 12.4402 23.682 12.3359 23.8324 12.1984L23.8336 12.1966C24.0174 12.0307 24.1544 11.8151 24.2242 11.5715C24.2527 11.4726 24.2703 11.3689 24.2745 11.2616C24.3982 11.4886 24.5765 11.6699 24.793 11.8062L24.8543 11.0951L24.9167 10.3699L26.2163 10.4605L26.2624 11.9496C26.6651 11.7908 26.9901 11.4732 27.1526 11.0726C27.5159 11.4732 28.0883 11.6397 28.622 11.4957C29.1557 11.3523 29.5583 10.9292 29.659 10.3924C29.7669 9.86326 29.5504 9.31932 29.1017 8.99402C29.2406 8.68413 29.2563 8.34401 29.1484 8.04182C29.3412 7.92865 29.5195 7.78466 29.6663 7.61105C30.0532 7.95117 30.5947 8.07204 31.0896 7.92095C31.585 7.76985 31.9719 7.37641 32.095 6.8852C32.1957 7.12696 32.4049 7.30827 32.6602 7.3693C32.9234 7.42974 33.1939 7.3693 33.3952 7.19569C33.434 8.10996 34.2072 8.83522 35.1429 8.83522C36.0792 8.83522 36.8452 8.10996 36.884 7.19569C37.263 7.86051 37.998 8.25336 38.7791 8.20062C39.5523 8.14729 40.2333 7.66438 40.5116 6.95335C40.9761 7.46707 41.6954 7.6709 42.3685 7.48959C43.041 7.30827 43.5444 6.77144 43.676 6.09892C43.807 5.4341 43.5365 4.74676 42.9792 4.33851Z" fill="black"/>
<path d="M131.677 60H138.195V84.3103L148.076 73.3965H155.733L144.662 85.5517L156.974 98.2241H149.318L138.195 86.7413V98.2241H131.677V60Z" fill="black"/>
<path d="M120.725 69.0519C119.69 69.0519 118.811 68.7071 118.086 68.0174C117.397 67.3277 117.052 66.4657 117.052 65.4312C117.052 64.3967 117.397 63.5346 118.086 62.845C118.811 62.1209 119.69 61.7588 120.725 61.7588C121.759 61.7588 122.639 62.1209 123.363 62.845C124.087 63.5346 124.45 64.3967 124.45 65.4312C124.45 66.4657 124.087 67.3277 123.363 68.0174C122.639 68.7071 121.759 69.0519 120.725 69.0519ZM117.414 73.3967H124.036V98.2243H117.414V73.3967Z" fill="black"/>
<path d="M94.9502 73.3955H101.262V77.3783C102.262 76.0334 103.676 75.0334 105.504 74.3783C107.366 73.7231 109.487 73.3955 111.867 73.3955V78.361C109.349 78.361 107.159 78.7576 105.297 79.5507C103.469 80.3093 102.193 81.5162 101.469 83.1714V98.2231H94.9502V73.3955Z" fill="black"/>
<path d="M83.8429 98.9989C81.1183 98.9989 79.049 98.2403 77.6349 96.7231C76.2209 95.2058 75.5139 93.0679 75.5139 90.3093V78.361H71.7891V73.3955H75.5139V65.9473H82.0322V73.3955H87.9816V78.361H82.0322V89.4817C82.0322 91.0679 82.3254 92.2058 82.9117 92.8955C83.498 93.5507 84.5672 93.8783 86.1192 93.8783C87.1883 93.8783 88.2402 93.6369 89.2749 93.1541V98.1196C87.7919 98.7058 85.9812 98.9989 83.8429 98.9989Z" fill="black"/>
<path d="M53.3848 98.9994C50.4188 98.9994 47.9873 98.2235 46.0904 96.6718C44.1936 95.0856 43.2451 92.9649 43.2451 90.3097C43.2451 87.5511 44.1418 85.396 45.9352 83.8442C47.7287 82.2925 50.2464 81.5167 53.4883 81.5167C56.6268 81.5167 59.3342 82.1546 61.6104 83.4304V82.758C61.6104 80.9994 61.0586 79.7236 59.955 78.9305C58.8858 78.1374 57.1441 77.7408 54.7299 77.7408C53.2124 77.7408 51.7121 77.896 50.2291 78.2063C48.7461 78.4822 47.4355 78.8787 46.2974 79.396V74.2753C47.332 73.7925 48.7116 73.396 50.436 73.0856C52.195 72.7753 53.8849 72.6201 55.5059 72.6201C59.817 72.6201 63.0072 73.5511 65.0766 75.4132C67.1459 77.2408 68.1806 79.7925 68.1806 83.0684V98.2235H62.0243V95.7925C60.9551 96.827 59.7308 97.6201 58.3512 98.1718C57.0062 98.7235 55.3507 98.9994 53.3848 98.9994ZM54.9886 94.2408C56.4371 94.2408 57.7477 93.9649 58.9203 93.4132C60.0929 92.827 60.9896 92.0339 61.6104 91.0339V88.2925C59.7135 86.9477 57.5407 86.2753 55.092 86.2753C51.6087 86.2753 49.867 87.6201 49.867 90.3097C49.867 91.6201 50.2981 92.6028 51.1603 93.258C52.057 93.9132 53.3331 94.2408 54.9886 94.2408Z" fill="black"/>
<path d="M0 62.0684H6.41493L18.5205 88.5511L30.6261 62.0684H37.041V98.2235H30.833V74.7408L20.0725 98.2235H16.9685L6.20799 74.7408V98.2235H0V62.0684Z" fill="black"/>
</svg>
