<svg width="157" height="95" viewBox="0 0 157 95" fill="none" xmlns="http://www.w3.org/2000/svg">
<path d="M84.7653 26.8552V28.4954L104.963 34.3531V33.4311L84.7653 26.8552ZM84.7653 26.8552V28.4954L104.963 34.3531V33.4311L84.7653 26.8552ZM84.7653 26.8552V28.4954L104.963 34.3531V33.4311L84.7653 26.8552ZM84.7653 26.8552V28.4954L104.963 34.3531V33.4311L84.7653 26.8552ZM84.7653 26.8552V28.4954L104.963 34.3531V33.4311L84.7653 26.8552ZM84.7653 26.8552V28.4954L104.963 34.3531V33.4311L84.7653 26.8552ZM84.7653 26.8552V28.4954L104.963 34.3531V33.4311L84.7653 26.8552ZM84.7653 26.8552V28.4954L104.963 34.3531V33.4311L84.7653 26.8552ZM84.7653 26.8552V28.4954L104.963 34.3531V33.4311L84.7653 26.8552ZM84.7653 26.8552V28.4954L104.963 34.3531V33.4311L84.7653 26.8552ZM84.7653 26.8552V28.4954L104.963 34.3531V33.4311L84.7653 26.8552ZM84.7653 26.8552V28.4954L104.963 34.3531V33.4311L84.7653 26.8552ZM84.7653 26.8552V28.4954L104.963 34.3531V33.4311L84.7653 26.8552ZM84.7653 26.8552V28.4954L104.963 34.3531V33.4311L84.7653 26.8552ZM84.7653 26.8552V28.4954L104.963 34.3531V33.4311L84.7653 26.8552ZM84.7653 26.8552V28.4954L104.963 34.3531V33.4311L84.7653 26.8552ZM63.1207 33.129V45.5928H113L108.73 44.4812V32.0405L81.9109 22.8717V18.3975L76.5494 20.3096L69.2244 17.8079L68.3111 11.0957H66.4936L66.3002 12.5018L65.2711 19.9843L60.9084 21.7002L59.9648 14.7842H58.1546L58.0303 15.676L58.0297 15.6813L56.9861 23.2497L52.5149 25.0113L51.618 18.4733H49.8078L48.701 26.5074L48.1831 26.7113V43.9752L43 45.5928H51.5252V35.9855C51.5252 34.2394 52.9794 32.8191 54.7659 32.8191C55.0758 32.8416 55.3542 33.0004 55.5397 33.2421C55.7174 33.4839 55.7871 33.7938 55.7174 34.0889C55.6095 34.9652 55.0988 35.54 54.2013 35.8196V45.5928H60.2583V33.3026C60.2583 31.4355 61.8132 29.9163 63.7162 29.9163C64.0491 29.9465 64.3511 30.1053 64.5518 30.3701C64.7453 30.6267 64.815 30.9591 64.7374 31.2767C64.6216 32.2141 64.08 32.8262 63.1207 33.129ZM50.7126 20.7937C50.4572 20.9596 50.225 21.164 50.0164 21.3903C50.2486 21.2849 50.4809 21.1865 50.7126 21.0958V22.0403C50.4112 22.2145 50.1328 22.4409 49.8927 22.7129C50.1637 22.5849 50.4342 22.4711 50.7126 22.3727V23.7107C50.2796 23.9074 49.8927 24.1948 49.5755 24.5497C49.9394 24.3684 50.3257 24.225 50.7126 24.1118V25.714L49.2195 26.3036L50.2329 18.9491H50.7126V20.7937ZM58.5094 15.7483L58.51 15.7441L58.5797 15.2606H59.0594V17.8908C58.8272 18.0496 58.6186 18.231 58.433 18.4425C58.6416 18.3447 58.8429 18.2535 59.0594 18.1705V19.1304C58.7811 19.3046 58.5258 19.5162 58.3093 19.7579C58.5567 19.6447 58.8041 19.5387 59.0594 19.448V20.7937C58.6495 20.9898 58.2935 21.2623 57.9921 21.5948C58.3402 21.4283 58.6956 21.2926 59.0594 21.1788V22.4338L57.5045 23.0382L58.5094 15.7483ZM54.5573 36.7641V36.1218C54.627 36.1295 54.6889 36.1366 54.7586 36.1366C55.5937 36.1366 56.2747 35.2449 56.2747 34.1416C56.2747 33.0454 55.5937 32.1536 54.7586 32.1536C54.3487 32.1536 53.977 32.3652 53.6986 32.7207C53.4512 32.7888 53.211 32.8866 52.9873 33.0152C53.3038 32.0174 54.0625 31.3223 54.9363 31.3223C56.1043 31.3223 57.0558 32.5465 57.0558 34.0657C57.0558 35.5779 56.1043 36.8098 54.9363 36.8098C54.8126 36.8098 54.681 36.7943 54.5573 36.7641ZM59.0904 44.3906H55.4469V43.5818H59.0904V44.3906ZM75.9618 22.7057L79.8921 21.4431V23.2124L75.9618 24.4667V22.7057ZM75.9618 26.9459L79.8921 25.6838V27.4448L75.9618 28.7069V26.9459ZM75.9618 31.186L79.8921 29.924V31.685L75.9618 32.947V31.186ZM69.3014 19.0546L74.8169 20.937L69.3014 22.9096V19.0546ZM69.456 30.7932V29.0322L73.3857 27.7695V29.5382L69.456 30.7932ZM73.3857 32.0103V33.7784L69.456 35.0333V33.2723L73.3857 32.0103ZM69.456 26.553V24.7915L73.3857 23.5294V25.2981L69.456 26.553ZM81.9109 43.5818V24.1492L83.7053 24.7612L107.5 32.8866V44.3906H104.963V35.9026L97.5058 33.9526V44.3906H94.6204V33.174L84.7653 30.5965V44.3906H64.3736V43.5818H81.9109ZM66.8338 12.199V12.1966L66.9187 11.5715H67.3984V14.988C67.1977 15.1314 67.0194 15.3056 66.849 15.4869C67.0352 15.4034 67.2129 15.3204 67.3984 15.2446V16.2199C67.151 16.3864 66.9266 16.5825 66.7253 16.8095C66.9497 16.7034 67.174 16.6051 67.3984 16.5221V17.8754C67.0273 18.0639 66.6871 18.3287 66.4081 18.6463C66.7332 18.4875 67.0582 18.3589 67.3984 18.2458V19.0771L67.1589 19.2359L65.7896 19.7798L66.8338 12.199ZM63.7162 29.2058C63.2753 29.2058 62.8733 29.4327 62.587 29.8108C62.3159 29.886 62.0606 29.9921 61.8211 30.1278C62.1613 29.0624 62.966 28.3141 63.9096 28.3141C65.1552 28.3141 66.1686 29.6289 66.1686 31.2465C66.1686 32.8718 65.1552 34.1795 63.9096 34.1795C63.7708 34.1795 63.6313 34.1641 63.4997 34.1339V33.446C63.5694 33.4614 63.6465 33.4691 63.7162 33.4691C64.6137 33.4691 65.3408 32.5092 65.3408 31.3377C65.3408 30.158 64.6137 29.2058 63.7162 29.2058ZM104.963 33.4311L84.7653 26.8552V28.4954L104.963 34.3531V33.4311ZM84.7653 26.8552V28.4954L104.963 34.3531V33.4311L84.7653 26.8552ZM84.7653 26.8552V28.4954L104.963 34.3531V33.4311L84.7653 26.8552ZM84.7653 26.8552V28.4954L104.963 34.3531V33.4311L84.7653 26.8552ZM84.7653 26.8552V28.4954L104.963 34.3531V33.4311L84.7653 26.8552ZM84.7653 26.8552V28.4954L104.963 34.3531V33.4311L84.7653 26.8552ZM84.7653 26.8552V28.4954L104.963 34.3531V33.4311L84.7653 26.8552ZM84.7653 26.8552V28.4954L104.963 34.3531V33.4311L84.7653 26.8552ZM84.7653 26.8552V28.4954L104.963 34.3531V33.4311L84.7653 26.8552ZM84.7653 26.8552V28.4954L104.963 34.3531V33.4311L84.7653 26.8552ZM84.7653 26.8552V28.4954L104.963 34.3531V33.4311L84.7653 26.8552ZM84.7653 26.8552V28.4954L104.963 34.3531V33.4311L84.7653 26.8552ZM84.7653 26.8552V28.4954L104.963 34.3531V33.4311L84.7653 26.8552ZM84.7653 26.8552V28.4954L104.963 34.3531V33.4311L84.7653 26.8552ZM84.7653 26.8552V28.4954L104.963 34.3531V33.4311L84.7653 26.8552ZM84.7653 26.8552V28.4954L104.963 34.3531V33.4311L84.7653 26.8552ZM84.7653 26.8552V28.4954L104.963 34.3531V33.4311L84.7653 26.8552Z" fill="white"/>
<path d="M59.0754 13.8385C59.2458 13.4605 59.1609 13.022 58.8589 12.7276C58.5575 12.4402 58.1008 12.3643 57.7139 12.5308C57.5284 12.2666 57.2112 12.1078 56.8789 12.1303C56.546 12.1457 56.2446 12.3264 56.0899 12.6138C56.0123 12.4248 55.8577 12.2737 55.6642 12.1984C55.4708 12.1226 55.2464 12.138 55.0608 12.2286C54.6588 11.6314 53.9777 11.2687 53.2427 11.2687C52.5084 11.2687 51.8273 11.6314 51.4253 12.2286C50.868 11.8127 50.0869 11.8654 49.592 12.3572C49.1045 12.8407 49.0657 13.6116 49.5065 14.1484C49.1585 14.4281 49.0038 14.8737 49.1045 15.3051C49.2051 15.7358 49.5532 16.0759 49.9862 16.1737C50.4271 16.2721 50.8916 16.121 51.1773 15.7809C51.4016 15.9853 51.7267 16.0528 52.0208 15.9699C52.3149 15.8792 52.5472 15.6446 52.6163 15.3501C52.6782 15.4941 52.8019 15.5995 52.9571 15.6375C53.1118 15.6748 53.2737 15.6375 53.3901 15.5391C53.4132 16.0759 53.8698 16.5067 54.4265 16.5067C54.9838 16.5067 55.4398 16.0759 55.4635 15.5391C55.6873 15.932 56.1209 16.1666 56.5848 16.1364C57.0408 16.0985 57.4435 15.8111 57.6139 15.3957C57.7291 15.5243 57.8722 15.6203 58.0305 15.6801C58.1815 15.7364 58.3452 15.7601 58.5102 15.7471L58.5132 15.7465C58.5793 15.7418 58.646 15.7299 58.7121 15.7127C58.7588 15.6979 58.8049 15.6825 58.8516 15.66C58.8025 15.4372 58.8267 15.4159 58.8425 15.2594C58.8467 15.2197 58.8498 15.1712 58.8516 15.1083C58.8546 14.9946 58.8722 14.8861 58.8934 14.783C58.9262 14.6177 58.9674 14.4678 58.9674 14.3375L59.4392 14.3072C59.3622 14.1259 59.2379 13.9677 59.0754 13.8385ZM55.7649 11.0347C55.7261 10.8759 55.5484 10.7781 55.3859 10.8232C55.2233 10.8682 55.1227 11.0347 55.1694 11.1935C55.2076 11.36 55.378 11.4507 55.5484 11.4127C55.7109 11.3671 55.811 11.2012 55.7649 11.0347ZM50.9917 11.0572C50.9298 10.9434 50.7831 10.9055 50.6666 10.9737C50.5508 11.0341 50.5126 11.1781 50.5817 11.2913C50.6436 11.4044 50.791 11.4424 50.9068 11.3819C51.0232 11.3144 51.0614 11.171 50.9917 11.0572ZM53.4908 16.6353C53.3355 16.5452 53.1578 16.5221 52.988 16.5677C52.8874 16.4089 52.686 16.326 52.4847 16.3787C52.2452 16.4392 52.0984 16.6886 52.1675 16.9233C52.2064 17.0815 52.3301 17.1952 52.4774 17.2403C52.4926 17.4595 52.6084 17.6633 52.8176 17.7771C53.1421 17.9584 53.5526 17.8524 53.7382 17.5348C53.9238 17.2178 53.8152 16.8172 53.4908 16.6353ZM56.7394 16.8474C56.6854 16.6584 56.4841 16.5375 56.2834 16.5903C56.0899 16.643 55.9735 16.8397 56.0275 17.0364C56.0742 17.2255 56.2834 17.3386 56.4768 17.293C56.6776 17.2403 56.794 17.0435 56.7394 16.8474ZM63.8795 12.6221C63.7946 12.3199 63.4695 12.1386 63.1603 12.2138C62.8431 12.2968 62.6575 12.6144 62.7424 12.9172C62.8279 13.2265 63.1445 13.4084 63.4617 13.3248C63.7716 13.2419 63.9571 12.9314 63.8795 12.6221ZM68.0954 5.14672C68.0026 4.79831 67.6393 4.59448 67.2834 4.68514C66.9274 4.7835 66.7188 5.13902 66.8116 5.48624C66.9044 5.83406 67.2755 6.03848 67.6315 5.94723C67.9874 5.84946 68.196 5.49453 68.0954 5.14672ZM61.8837 5.47202C61.837 5.29782 61.6594 5.19946 61.489 5.24508C61.3113 5.29011 61.2106 5.46491 61.2573 5.63852C61.3034 5.80384 61.4817 5.90279 61.6594 5.85716C61.8298 5.81213 61.9304 5.63852 61.8837 5.47202ZM74.1063 8.87255C73.9905 8.67583 73.7273 8.60058 73.5181 8.72146C73.3095 8.83463 73.2397 9.09179 73.3634 9.29621C73.4799 9.49234 73.7424 9.56048 73.9517 9.44671C74.153 9.33413 74.2221 9.07638 74.1063 8.87255ZM79.908 9.65943C79.6915 9.30391 79.2197 9.17533 78.8558 9.38687C78.4847 9.59129 78.361 10.0523 78.5696 10.4149C78.7861 10.7704 79.2506 10.899 79.6218 10.6875C79.9929 10.483 80.1166 10.0221 79.908 9.65943ZM88.247 3.92255C88.1621 3.59785 87.814 3.40053 87.4811 3.48408C87.1409 3.57533 86.9474 3.91544 87.0323 4.24015C87.1251 4.56545 87.4659 4.76158 87.8061 4.67092C88.139 4.58737 88.3398 4.24726 88.247 3.92255ZM91.566 8.10937C91.566 7.4967 91.0554 7.00549 90.4283 7.00549C89.8249 7.00549 89.3301 7.47418 89.2991 8.05604C89.1287 8.04834 88.9589 8.06375 88.7885 8.10937C88.2161 8.26047 87.7903 8.68353 87.6127 9.19785C87.5508 9.15993 87.4811 9.12971 87.4035 9.1066C87.3883 8.97091 87.3495 8.83463 87.2725 8.70605C86.9862 8.21484 86.344 8.04834 85.8413 8.33631C85.3386 8.61539 85.1682 9.24288 85.4544 9.73409C85.532 9.85497 85.6321 9.96103 85.7485 10.044C85.6788 10.3391 85.7255 10.6638 85.8874 10.9511C86.2512 11.5561 87.0402 11.76 87.6594 11.4121C87.8601 11.299 88.0147 11.1479 88.1233 10.966C88.5332 11.3061 89.1057 11.4578 89.663 11.3061C90.5678 11.072 91.1014 10.1649 90.8613 9.2808C90.8461 9.23518 90.8304 9.19015 90.8152 9.15223C91.2561 8.99402 91.566 8.58577 91.566 8.10937ZM85.9802 4.33851C86.267 3.70332 86.1196 2.95495 85.609 2.46374C85.0984 1.98024 84.3404 1.84395 83.6909 2.13844C83.3737 1.67745 82.8401 1.4203 82.2749 1.45051C81.7103 1.47362 81.2076 1.79063 80.9444 2.27413C80.8207 1.94943 80.5575 1.69227 80.233 1.56428C79.9001 1.4434 79.529 1.45822 79.2197 1.61702C78.5387 0.604381 77.3859 0 76.1481 0C74.9183 0 73.7655 0.604381 73.0851 1.61702C72.1494 0.914275 70.8261 1.00493 69.9984 1.82855C69.1712 2.65987 69.1087 3.95277 69.8516 4.85223C69.287 5.30611 69.0238 6.01596 69.1475 6.70389C68.7145 6.73411 68.3198 6.98356 68.1111 7.3616C68.0105 7.10385 67.8091 6.90061 67.5466 6.79455C67.2834 6.69678 66.9893 6.71159 66.7418 6.83958C66.2082 6.03907 65.2876 5.55438 64.3125 5.55438C63.3307 5.55438 62.4174 6.03907 61.8759 6.83958C61.1336 6.28023 60.0814 6.35667 59.4313 7.00608C58.774 7.66438 58.72 8.69183 59.3076 9.40998C58.8437 9.78031 58.6345 10.3847 58.774 10.9594C58.9135 11.5336 59.3695 11.9798 59.9577 12.1161C60.5454 12.2518 61.1566 12.0479 61.5435 11.5869C61.8528 11.8589 62.2785 11.9573 62.6727 11.8358C63.0675 11.7226 63.3768 11.405 63.4696 11.0199C63.5472 11.2089 63.717 11.3523 63.9262 11.3973C64.1269 11.4507 64.344 11.3973 64.5059 11.2616C64.5369 11.9875 65.1481 12.5616 65.891 12.5616C66.0335 12.5616 66.1712 12.5403 66.301 12.5012C66.5017 12.4402 66.683 12.3359 66.8334 12.1984L66.8346 12.1966C67.0184 12.0307 67.1554 11.8151 67.2252 11.5715C67.2537 11.4726 67.2712 11.3689 67.2755 11.2616C67.3992 11.4886 67.5775 11.6699 67.794 11.8062L67.8552 11.0951L67.9177 10.3699L69.2173 10.4605L69.2634 11.9496C69.666 11.7908 69.9911 11.4732 70.1536 11.0726C70.5168 11.4732 71.0893 11.6397 71.623 11.4957C72.1566 11.3523 72.5593 10.9292 72.66 10.3924C72.7679 9.86326 72.5514 9.31932 72.1027 8.99402C72.2415 8.68413 72.2573 8.34401 72.1494 8.04182C72.3422 7.92865 72.5205 7.78466 72.6672 7.61105C73.0541 7.95117 73.5957 8.07204 74.0905 7.92095C74.586 7.76985 74.9729 7.37641 75.096 6.8852C75.1967 7.12696 75.4059 7.30827 75.6612 7.3693C75.9244 7.42974 76.1948 7.3693 76.3962 7.19569C76.435 8.10996 77.2082 8.83522 78.1439 8.83522C79.0802 8.83522 79.8461 8.10996 79.885 7.19569C80.264 7.86051 80.999 8.25336 81.78 8.20062C82.5532 8.14729 83.2342 7.66438 83.5126 6.95335C83.9771 7.46707 84.6964 7.6709 85.3695 7.48959C86.042 7.30827 86.5453 6.77144 86.6769 6.09892C86.8079 5.4341 86.5375 4.74676 85.9802 4.33851Z" fill="white"/>
<path d="M131.678 55.5928H138.196V79.9031L148.077 68.9893H155.734L144.663 81.1445L156.975 93.8169H149.319L138.196 82.3341V93.8169H131.678V55.5928Z" fill="white"/>
<path d="M120.724 64.6447C119.689 64.6447 118.81 64.2998 118.085 63.6102C117.396 62.9205 117.051 62.0585 117.051 61.024C117.051 59.9895 117.396 59.1274 118.085 58.4378C118.81 57.7136 119.689 57.3516 120.724 57.3516C121.759 57.3516 122.638 57.7136 123.362 58.4378C124.087 59.1274 124.449 59.9895 124.449 61.024C124.449 62.0585 124.087 62.9205 123.362 63.6102C122.638 64.2998 121.759 64.6447 120.724 64.6447ZM117.413 68.9895H124.035V93.817H117.413V68.9895Z" fill="white"/>
<path d="M94.9492 68.9883H101.261V72.971C102.261 71.6262 103.675 70.6262 105.503 69.971C107.365 69.3159 109.486 68.9883 111.866 68.9883V73.9538C109.348 73.9538 107.158 74.3503 105.296 75.1434C103.468 75.9021 102.192 77.109 101.468 78.7641V93.8158H94.9492V68.9883Z" fill="white"/>
<path d="M83.8429 94.5917C81.1183 94.5917 79.049 93.8331 77.6349 92.3159C76.2209 90.7986 75.5139 88.6607 75.5139 85.9021V73.9538H71.7891V68.9883H75.5139V61.54H82.0322V68.9883H87.9816V73.9538H82.0322V85.0745C82.0322 86.6607 82.3254 87.7986 82.9117 88.4883C83.498 89.1434 84.5672 89.471 86.1192 89.471C87.1883 89.471 88.2402 89.2297 89.2749 88.7469V93.7124C87.7919 94.2986 85.9812 94.5917 83.8429 94.5917Z" fill="white"/>
<path d="M53.3839 94.5922C50.4178 94.5922 47.9864 93.8163 46.0895 92.2646C44.1926 90.6784 43.2441 88.5577 43.2441 85.9025C43.2441 83.1439 44.1409 80.9887 45.9343 79.437C47.7277 77.8853 50.2454 77.1094 53.4873 77.1094C56.6258 77.1094 59.3332 77.7474 61.6095 79.0232V78.3508C61.6095 76.5922 61.0576 75.3163 59.954 74.5232C58.8848 73.7301 57.1431 73.3336 54.7289 73.3336C53.2114 73.3336 51.7112 73.4887 50.2281 73.7991C48.7451 74.075 47.4345 74.4715 46.2964 74.9887V69.8681C47.3311 69.3853 48.7106 68.9888 50.4351 68.6784C52.194 68.3681 53.884 68.2129 55.5049 68.2129C59.816 68.2129 63.0063 69.1439 65.0756 71.006C67.1449 72.8336 68.1796 75.3853 68.1796 78.6611V93.8163H62.0233V91.3853C60.9542 92.4197 59.7298 93.2129 58.3503 93.7646C57.0052 94.3163 55.3497 94.5922 53.3839 94.5922ZM54.9876 89.8335C56.4361 89.8335 57.7467 89.5577 58.9193 89.006C60.0919 88.4198 60.9887 87.6267 61.6095 86.6267V83.8853C59.7126 82.5405 57.5398 81.868 55.0911 81.868C51.6077 81.868 49.866 83.2129 49.866 85.9025C49.866 87.2129 50.2971 88.1956 51.1593 88.8508C52.056 89.506 53.3321 89.8335 54.9876 89.8335Z" fill="white"/>
<path d="M0 57.6611H6.41493L18.5205 84.1439L30.6261 57.6611H37.041V93.8163H30.833V70.3335L20.0725 93.8163H16.9685L6.20799 70.3335V93.8163H0V57.6611Z" fill="white"/>
</svg>
