<svg width="54" height="35" viewBox="0 0 54 35" fill="none" xmlns="http://www.w3.org/2000/svg">
<path d="M32.219 20.6156V21.8747L47.8 26.3715V25.6638L32.219 20.6156ZM32.219 20.6156V21.8747L47.8 26.3715V25.6638L32.219 20.6156ZM32.219 20.6156V21.8747L47.8 26.3715V25.6638L32.219 20.6156ZM32.219 20.6156V21.8747L47.8 26.3715V25.6638L32.219 20.6156ZM32.219 20.6156V21.8747L47.8 26.3715V25.6638L32.219 20.6156ZM32.219 20.6156V21.8747L47.8 26.3715V25.6638L32.219 20.6156ZM32.219 20.6156V21.8747L47.8 26.3715V25.6638L32.219 20.6156ZM32.219 20.6156V21.8747L47.8 26.3715V25.6638L32.219 20.6156ZM32.219 20.6156V21.8747L47.8 26.3715V25.6638L32.219 20.6156ZM32.219 20.6156V21.8747L47.8 26.3715V25.6638L32.219 20.6156ZM32.219 20.6156V21.8747L47.8 26.3715V25.6638L32.219 20.6156ZM32.219 20.6156V21.8747L47.8 26.3715V25.6638L32.219 20.6156ZM32.219 20.6156V21.8747L47.8 26.3715V25.6638L32.219 20.6156ZM32.219 20.6156V21.8747L47.8 26.3715V25.6638L32.219 20.6156ZM32.219 20.6156V21.8747L47.8 26.3715V25.6638L32.219 20.6156ZM32.219 20.6156V21.8747L47.8 26.3715V25.6638L32.219 20.6156ZM15.5217 25.4318V35H54L50.7061 34.1466V24.5962L30.0169 17.5575V14.1228L25.881 15.5907L20.2302 13.6702L19.5257 8.51743H18.1237L17.9744 9.59683L17.1805 15.3409L13.8151 16.6582L13.0872 11.349H11.6907L11.5948 12.0336L11.5944 12.0377L10.7892 17.8477L7.34003 19.2001L6.64813 14.181H5.2517L4.39794 20.3486L3.99842 20.5051V33.7582L0 35H6.57656V27.6247C6.57656 26.2842 7.69838 25.1939 9.07657 25.1939C9.31562 25.2112 9.53035 25.3331 9.6735 25.5187C9.81057 25.7042 9.86437 25.9421 9.81057 26.1687C9.7273 26.8414 9.3334 27.2826 8.64103 27.4973V35H13.3136V25.5651C13.3136 24.1318 14.5131 22.9655 15.9811 22.9655C16.2379 22.9887 16.4709 23.1106 16.6257 23.3139C16.7749 23.5109 16.8287 23.766 16.7689 24.0099C16.6795 24.7295 16.2618 25.1993 15.5217 25.4318ZM5.94968 15.9623C5.75273 16.0897 5.57356 16.2466 5.41263 16.4203C5.5918 16.3394 5.77098 16.2639 5.94968 16.1943V16.9193C5.71718 17.0531 5.50245 17.2268 5.3172 17.4356C5.52631 17.3374 5.73496 17.25 5.94968 17.1745V18.2016C5.61566 18.3526 5.3172 18.5732 5.07253 18.8457C5.35322 18.7065 5.65122 18.5964 5.94968 18.5096V19.7395L4.79792 20.1921L5.57964 14.5463H5.94968V15.9623ZM11.9644 12.0891L11.9649 12.0859L12.0187 11.7147H12.3887V13.7339C12.2095 13.8558 12.0486 13.995 11.9054 14.1574C12.0664 14.0823 12.2217 14.0123 12.3887 13.9486V14.6855C12.174 14.8192 11.977 14.9816 11.81 15.1672C12.0009 15.0803 12.1918 14.9989 12.3887 14.9293V15.9623C12.0725 16.1128 11.7979 16.3221 11.5653 16.5773C11.8339 16.4495 12.108 16.3453 12.3887 16.258V17.2214L11.1892 17.6853L11.9644 12.0891ZM8.91564 28.2224V27.7293C8.96944 27.7352 9.01715 27.7407 9.07095 27.7407C9.71513 27.7407 10.2405 27.0561 10.2405 26.2092C10.2405 25.3676 9.71513 24.6831 9.07095 24.6831C8.75471 24.6831 8.46794 24.8454 8.25321 25.1184C8.06234 25.1707 7.87709 25.2457 7.70446 25.3444C7.94866 24.5784 8.5339 24.0449 9.20802 24.0449C10.109 24.0449 10.843 24.9846 10.843 26.1509C10.843 27.3118 10.109 28.2574 9.20802 28.2574C9.11259 28.2574 9.01107 28.2456 8.91564 28.2224ZM12.4126 34.077H9.60192V33.4561H12.4126V34.077ZM25.4277 17.4302L28.4596 16.4608V17.8191L25.4277 18.782V17.4302ZM25.4277 20.6852L28.4596 19.7163V21.0682L25.4277 22.0371V20.6852ZM25.4277 23.9403L28.4596 22.9714V24.3233L25.4277 25.2921V23.9403ZM20.2896 14.6272L24.5444 16.0724L20.2896 17.5866V14.6272ZM20.4089 23.6387V22.2868L23.4404 21.3175V22.6753L20.4089 23.6387ZM23.4404 24.573V25.9303L20.4089 26.8937V25.5419L23.4404 24.573ZM20.4089 20.3836V19.0313L23.4404 18.0624V19.4202L20.4089 20.3836ZM30.0169 33.4561V18.5382L31.4012 19.0081L49.7569 25.2457V34.077H47.8V27.561L42.0473 26.064V34.077H39.8214V25.4663L32.219 23.4877V34.077H16.4882V33.4561H30.0169ZM18.3861 9.36439V9.36257L18.4516 8.88269H18.8216V11.5055C18.6668 11.6155 18.5293 11.7493 18.3978 11.8885C18.5414 11.8243 18.6785 11.7607 18.8216 11.7024V12.4511C18.6308 12.579 18.4577 12.7295 18.3024 12.9037C18.4755 12.8223 18.6485 12.7468 18.8216 12.6831V13.7221C18.5353 13.8667 18.2729 14.07 18.0577 14.3138C18.3084 14.1919 18.5592 14.0932 18.8216 14.0063V14.6445L18.6369 14.7664L17.5805 15.184L18.3861 9.36439ZM15.9811 22.4201C15.641 22.4201 15.3308 22.5943 15.11 22.8845C14.9009 22.9423 14.7039 23.0237 14.5191 23.1279C14.7816 22.31 15.4024 21.7355 16.1303 21.7355C17.0912 21.7355 17.8729 22.7449 17.8729 23.9867C17.8729 25.2344 17.0912 26.2383 16.1303 26.2383C16.0232 26.2383 15.9156 26.2264 15.8141 26.2032V25.6751C15.8679 25.687 15.9273 25.6929 15.9811 25.6929C16.6734 25.6929 17.2343 24.956 17.2343 24.0567C17.2343 23.1511 16.6734 22.4201 15.9811 22.4201ZM47.8 25.6638L32.219 20.6156V21.8747L47.8 26.3715V25.6638ZM32.219 20.6156V21.8747L47.8 26.3715V25.6638L32.219 20.6156ZM32.219 20.6156V21.8747L47.8 26.3715V25.6638L32.219 20.6156ZM32.219 20.6156V21.8747L47.8 26.3715V25.6638L32.219 20.6156ZM32.219 20.6156V21.8747L47.8 26.3715V25.6638L32.219 20.6156ZM32.219 20.6156V21.8747L47.8 26.3715V25.6638L32.219 20.6156ZM32.219 20.6156V21.8747L47.8 26.3715V25.6638L32.219 20.6156ZM32.219 20.6156V21.8747L47.8 26.3715V25.6638L32.219 20.6156ZM32.219 20.6156V21.8747L47.8 26.3715V25.6638L32.219 20.6156ZM32.219 20.6156V21.8747L47.8 26.3715V25.6638L32.219 20.6156ZM32.219 20.6156V21.8747L47.8 26.3715V25.6638L32.219 20.6156ZM32.219 20.6156V21.8747L47.8 26.3715V25.6638L32.219 20.6156ZM32.219 20.6156V21.8747L47.8 26.3715V25.6638L32.219 20.6156ZM32.219 20.6156V21.8747L47.8 26.3715V25.6638L32.219 20.6156ZM32.219 20.6156V21.8747L47.8 26.3715V25.6638L32.219 20.6156ZM32.219 20.6156V21.8747L47.8 26.3715V25.6638L32.219 20.6156ZM32.219 20.6156V21.8747L47.8 26.3715V25.6638L32.219 20.6156Z" fill="white"/>
<path d="M12.4007 10.6235C12.5322 10.3333 12.4667 9.99668 12.2337 9.77061C12.0012 9.55 11.6489 9.49178 11.3505 9.6196C11.2073 9.41672 10.9627 9.29482 10.7063 9.3121C10.4495 9.32393 10.217 9.46267 10.0977 9.68328C10.0378 9.53817 9.91849 9.42218 9.76926 9.36441C9.62002 9.30619 9.44693 9.31802 9.30378 9.38761C8.99362 8.9291 8.46826 8.65072 7.90127 8.65072C7.33474 8.65072 6.80938 8.9291 6.49922 9.38761C6.0693 9.06829 5.46675 9.10878 5.08502 9.48632C4.70889 9.85749 4.67895 10.4493 5.01905 10.8614C4.75053 11.0761 4.63123 11.4182 4.70889 11.7493C4.78655 12.08 5.05508 12.3411 5.3891 12.4161C5.7292 12.4916 6.08755 12.3757 6.30789 12.1146C6.48098 12.2715 6.73173 12.3233 6.95862 12.2597C7.18551 12.1901 7.36468 12.0099 7.41801 11.7839C7.46573 11.8944 7.56117 11.9754 7.68093 12.0045C7.80022 12.0331 7.92513 12.0045 8.01495 11.929C8.03272 12.3411 8.38499 12.6718 8.81444 12.6718C9.24437 12.6718 9.59616 12.3411 9.61441 11.929C9.78703 12.2306 10.1215 12.4107 10.4794 12.3875C10.8312 12.3584 11.1418 12.1378 11.2733 11.8189C11.3622 11.9176 11.4726 11.9913 11.5947 12.0372C11.7112 12.0804 11.8375 12.0986 11.9647 12.0886L11.9671 12.0882C12.018 12.0845 12.0695 12.0754 12.1205 12.0623C12.1565 12.0509 12.1921 12.0391 12.2281 12.0218C12.1902 11.8507 12.2089 11.8344 12.2211 11.7143C12.2244 11.6838 12.2267 11.6465 12.2281 11.5983C12.2304 11.5109 12.244 11.4277 12.2604 11.3486C12.2856 11.2216 12.3175 11.1066 12.3175 11.0065L12.6814 10.9833C12.622 10.8441 12.5261 10.7227 12.4007 10.6235ZM9.84691 8.47105C9.81697 8.34914 9.6799 8.27409 9.55453 8.30866C9.42915 8.34323 9.3515 8.47105 9.38752 8.59295C9.41699 8.72077 9.54845 8.79037 9.6799 8.76126C9.80528 8.72623 9.88247 8.59887 9.84691 8.47105ZM6.16473 8.48833C6.11702 8.401 6.00381 8.37189 5.91399 8.4242C5.82463 8.47059 5.79516 8.58113 5.84849 8.66801C5.89621 8.75489 6.00989 8.784 6.09924 8.7376C6.18906 8.68575 6.21853 8.57567 6.16473 8.48833ZM8.0926 12.7705C7.97284 12.7013 7.83577 12.6836 7.70478 12.7186C7.62713 12.5967 7.47181 12.533 7.3165 12.5735C7.13171 12.6199 7.0185 12.8114 7.07183 12.9915C7.10177 13.113 7.1972 13.2003 7.31088 13.2349C7.32258 13.4032 7.41193 13.5597 7.57333 13.647C7.82361 13.7862 8.14032 13.7048 8.28347 13.461C8.42662 13.2176 8.34289 12.9101 8.0926 12.7705ZM10.5987 12.9333C10.5571 12.7882 10.4017 12.6954 10.2469 12.7359C10.0977 12.7764 10.0078 12.9274 10.0495 13.0784C10.0855 13.2235 10.2469 13.3104 10.3961 13.2754C10.551 13.2349 10.6408 13.0839 10.5987 12.9333ZM16.1068 9.68965C16.0413 9.45766 15.7905 9.31847 15.5519 9.37624C15.3073 9.43992 15.1641 9.68373 15.2296 9.91617C15.2956 10.1536 15.5398 10.2933 15.7844 10.2291C16.0235 10.1654 16.1666 9.92709 16.1068 9.68965ZM19.359 3.951C19.2874 3.68354 19.0072 3.52706 18.7326 3.59666C18.458 3.67217 18.2971 3.94509 18.3686 4.21164C18.4402 4.47865 18.7265 4.63558 19.0011 4.56553C19.2757 4.49048 19.4367 4.21801 19.359 3.951ZM14.5672 4.20073C14.5312 4.067 14.3941 3.99149 14.2626 4.02651C14.1256 4.06108 14.0479 4.19527 14.0839 4.32855C14.1195 4.45545 14.257 4.53142 14.3941 4.49639C14.5255 4.46182 14.6032 4.32855 14.5672 4.20073ZM23.996 6.81123C23.9067 6.66021 23.7036 6.60244 23.5422 6.69524C23.3813 6.78212 23.3275 6.97953 23.4229 7.13646C23.5128 7.28702 23.7153 7.33933 23.8767 7.252C24.032 7.16557 24.0854 6.9677 23.996 6.81123ZM28.4716 7.4153C28.3046 7.14237 27.9406 7.04367 27.6599 7.20605C27.3736 7.36298 27.2782 7.71687 27.4391 7.99525C27.6061 8.26818 27.9645 8.36688 28.2508 8.20449C28.5371 8.04756 28.6325 7.69368 28.4716 7.4153ZM34.9045 3.01124C34.839 2.76197 34.5705 2.6105 34.3137 2.67464C34.0512 2.74469 33.902 3.00578 33.9675 3.25505C34.0391 3.50478 34.302 3.65534 34.5644 3.58574C34.8213 3.52161 34.9761 3.26051 34.9045 3.01124ZM37.4649 6.22535C37.4649 5.75502 37.071 5.37793 36.5873 5.37793C36.1218 5.37793 35.7401 5.73773 35.7162 6.18442C35.5847 6.1785 35.4538 6.19033 35.3223 6.22535C34.8807 6.34135 34.5523 6.66612 34.4152 7.06095C34.3675 7.03184 34.3137 7.00864 34.2538 6.9909C34.2421 6.88674 34.2122 6.78212 34.1528 6.68341C33.9319 6.30632 33.4365 6.1785 33.0487 6.39957C32.6609 6.61381 32.5294 7.09552 32.7502 7.47261C32.8101 7.5654 32.8873 7.64682 32.9771 7.71051C32.9233 7.93703 32.9594 8.1863 33.0843 8.40691C33.365 8.87134 33.9736 9.02781 34.4512 8.7608C34.6061 8.67392 34.7254 8.55793 34.8091 8.41828C35.1253 8.67938 35.567 8.79583 35.9969 8.67938C36.6949 8.49971 37.1065 7.8033 36.9213 7.12463C36.9096 7.08961 36.8974 7.05504 36.8857 7.02593C37.2258 6.90448 37.4649 6.59107 37.4649 6.22535ZM33.1558 3.33056C33.3771 2.84294 33.2634 2.26844 32.8695 1.89135C32.4756 1.52018 31.8909 1.41556 31.3898 1.64163C31.1452 1.28774 30.7335 1.09032 30.2975 1.11352C29.862 1.13126 29.4741 1.37462 29.2711 1.74579C29.1757 1.49652 28.9726 1.29911 28.7224 1.20086C28.4655 1.10806 28.1792 1.11944 27.9406 1.24134C27.4153 0.463968 26.526 0 25.5711 0C24.6224 0 23.7331 0.463968 23.2082 1.24134C22.4864 0.701865 21.4656 0.77146 20.827 1.40373C20.1889 2.04191 20.1407 3.03444 20.7138 3.72493C20.2783 4.07336 20.0752 4.6183 20.1707 5.1464C19.8367 5.1696 19.5321 5.3611 19.3712 5.65131C19.2935 5.45344 19.1382 5.29742 18.9356 5.216C18.7326 5.14094 18.5057 5.15232 18.3148 5.25057C17.9032 4.63604 17.193 4.26395 16.4408 4.26395C15.6834 4.26395 14.9789 4.63604 14.5611 5.25057C13.9885 4.82117 13.1768 4.87985 12.6753 5.37839C12.1682 5.88375 12.1266 6.67249 12.5799 7.22379C12.222 7.50809 12.0606 7.97206 12.1682 8.41328C12.2758 8.85405 12.6276 9.19657 13.0814 9.30119C13.5347 9.40535 14.0063 9.24888 14.3047 8.89499C14.5433 9.10377 14.8717 9.17928 15.1758 9.08603C15.4804 8.99915 15.7189 8.75534 15.7905 8.45968C15.8504 8.60478 15.9814 8.71486 16.1428 8.74943C16.2976 8.79037 16.4651 8.74943 16.59 8.64526C16.6139 9.20248 17.0854 9.64325 17.6585 9.64325C17.7684 9.64325 17.8746 9.62687 17.9747 9.59685C18.1296 9.55 18.2695 9.46994 18.3855 9.36441L18.3864 9.36305C18.5282 9.23569 18.6339 9.07011 18.6877 8.88316C18.7097 8.8072 18.7233 8.7276 18.7265 8.64526C18.822 8.81948 18.9595 8.95867 19.1265 9.06329L19.1738 8.51745L19.2219 7.96068L20.2245 8.03028L20.26 9.17337C20.5707 9.05146 20.8214 8.80765 20.9468 8.50016C21.227 8.80765 21.6686 8.93547 22.0803 8.82494C22.492 8.71486 22.8026 8.39008 22.8803 7.97797C22.9635 7.57177 22.7965 7.1542 22.4503 6.90448C22.5575 6.66658 22.5696 6.40548 22.4864 6.1735C22.6351 6.08662 22.7727 5.97608 22.8859 5.84281C23.1843 6.1039 23.6021 6.1967 23.9838 6.08071C24.366 5.96471 24.6645 5.66268 24.7595 5.28559C24.8371 5.47118 24.9985 5.61037 25.1955 5.65722C25.3985 5.70362 25.6072 5.65722 25.7625 5.52394C25.7924 6.22581 26.3889 6.78257 27.1107 6.78257C27.833 6.78257 28.4239 6.22581 28.4538 5.52394C28.7462 6.03431 29.3132 6.33589 29.9157 6.2954C30.5122 6.25447 31.0376 5.88375 31.2523 5.3379C31.6106 5.73228 32.1655 5.88875 32.6848 5.74956C33.2036 5.61037 33.5918 5.19826 33.6934 4.68198C33.7944 4.17162 33.5858 3.64397 33.1558 3.33056Z" fill="white"/>
</svg>
