<svg width="157" height="34" viewBox="0 0 157 34" fill="none" xmlns="http://www.w3.org/2000/svg">
<path d="M31.1461 20.0266V21.2497L46.2083 25.6181V24.9305L31.1461 20.0266ZM31.1461 20.0266V21.2497L46.2083 25.6181V24.9305L31.1461 20.0266ZM31.1461 20.0266V21.2497L46.2083 25.6181V24.9305L31.1461 20.0266ZM31.1461 20.0266V21.2497L46.2083 25.6181V24.9305L31.1461 20.0266ZM31.1461 20.0266V21.2497L46.2083 25.6181V24.9305L31.1461 20.0266ZM31.1461 20.0266V21.2497L46.2083 25.6181V24.9305L31.1461 20.0266ZM31.1461 20.0266V21.2497L46.2083 25.6181V24.9305L31.1461 20.0266ZM31.1461 20.0266V21.2497L46.2083 25.6181V24.9305L31.1461 20.0266ZM31.1461 20.0266V21.2497L46.2083 25.6181V24.9305L31.1461 20.0266ZM31.1461 20.0266V21.2497L46.2083 25.6181V24.9305L31.1461 20.0266ZM31.1461 20.0266V21.2497L46.2083 25.6181V24.9305L31.1461 20.0266ZM31.1461 20.0266V21.2497L46.2083 25.6181V24.9305L31.1461 20.0266ZM31.1461 20.0266V21.2497L46.2083 25.6181V24.9305L31.1461 20.0266ZM31.1461 20.0266V21.2497L46.2083 25.6181V24.9305L31.1461 20.0266ZM31.1461 20.0266V21.2497L46.2083 25.6181V24.9305L31.1461 20.0266ZM31.1461 20.0266V21.2497L46.2083 25.6181V24.9305L31.1461 20.0266ZM15.0048 24.7052V34H52.2018L49.0176 33.1711V23.8935L29.0174 17.0559V13.7193L25.0192 15.1452L19.5566 13.2797L18.8755 8.27411H17.5201L17.3759 9.32268L16.6084 14.9027L13.355 16.1823L12.6514 11.0248H11.3014L11.2087 11.6898L11.2083 11.6938L10.43 17.3378L7.09561 18.6515L6.42675 13.7759H5.07682L4.25149 19.7672L3.86528 19.9193V32.7937L0 34H6.35756V26.8355C6.35756 25.5333 7.44203 24.4741 8.77432 24.4741C9.00541 24.4909 9.21299 24.6093 9.35138 24.7896C9.48388 24.9699 9.53589 25.201 9.48388 25.421C9.40338 26.0746 9.0226 26.5032 8.35329 26.7117V34H12.8702V24.8347C12.8702 23.4423 14.0298 22.3094 15.4489 22.3094C15.6972 22.3319 15.9224 22.4503 16.0721 22.6478C16.2163 22.8392 16.2684 23.087 16.2105 23.3239C16.1241 24.0229 15.7202 24.4794 15.0048 24.7052ZM5.75156 15.5063C5.56117 15.63 5.38796 15.7824 5.23239 15.9512C5.4056 15.8726 5.57881 15.7992 5.75156 15.7316V16.436C5.5268 16.5659 5.31922 16.7347 5.14014 16.9375C5.34229 16.842 5.54398 16.7572 5.75156 16.6839V17.6816C5.42866 17.8283 5.14014 18.0426 4.90362 18.3073C5.17496 18.1721 5.46303 18.0652 5.75156 17.9808V19.1756L4.63815 19.6152L5.39384 14.1307H5.75156V15.5063ZM11.566 11.7437L11.5664 11.7406L11.6184 11.38H11.9762V13.3415C11.803 13.4599 11.6474 13.5952 11.509 13.7529C11.6646 13.68 11.8147 13.6119 11.9762 13.5501V14.2659C11.7686 14.3958 11.5782 14.5536 11.4167 14.7339C11.6013 14.6495 11.7858 14.5704 11.9762 14.5028V15.5063C11.6705 15.6525 11.405 15.8558 11.1802 16.1037C11.4398 15.9795 11.7048 15.8783 11.9762 15.7935V16.7294L10.8166 17.1801L11.566 11.7437ZM8.61875 27.4161V26.9371C8.67076 26.9428 8.71689 26.9481 8.76889 26.9481C9.39162 26.9481 9.89949 26.2831 9.89949 25.4604C9.89949 24.6429 9.39162 23.9779 8.76889 23.9779C8.46318 23.9779 8.18596 24.1356 7.97838 24.4007C7.79387 24.4516 7.61478 24.5245 7.44791 24.6204C7.68397 23.8762 8.24972 23.3579 8.9014 23.3579C9.77241 23.3579 10.482 24.2708 10.482 25.4038C10.482 26.5315 9.77241 27.4501 8.9014 27.4501C8.80914 27.4501 8.71101 27.4386 8.61875 27.4161ZM11.9992 33.1034H9.28218V32.5003H11.9992V33.1034ZM24.5809 16.9322L27.5119 15.9906V17.31L24.5809 18.2454V16.9322ZM24.5809 20.0942L27.5119 19.153V20.4663L24.5809 21.4075V20.0942ZM24.5809 23.2563L27.5119 22.3151V23.6283L24.5809 24.5695V23.2563ZM19.614 14.2094L23.7271 15.6132L19.614 17.0842V14.2094ZM19.7293 22.9633V21.6501L22.6598 20.7084V22.0274L19.7293 22.9633ZM22.6598 23.8709V25.1895L19.7293 26.1254V24.8121L22.6598 23.8709ZM19.7293 19.8013V18.4876L22.6598 17.5464V18.8654L19.7293 19.8013ZM29.0174 32.5003V18.0086L30.3556 18.465L48.1 24.5245V33.1034H46.2083V26.7736L40.6471 25.3194V33.1034H38.4954V24.7388L31.1461 22.8166V33.1034H15.9391V32.5003H29.0174ZM17.7739 9.09688V9.09511L17.8372 8.62893H18.1949V11.1768C18.0452 11.2837 17.9122 11.4136 17.7852 11.5488C17.924 11.4865 18.0565 11.4247 18.1949 11.3681V12.0954C18.0104 12.2196 17.843 12.3659 17.6929 12.5351C17.8602 12.456 18.0276 12.3827 18.1949 12.3208V13.33C17.9181 13.4705 17.6644 13.6681 17.4564 13.9049C17.6988 13.7865 17.9412 13.6906 18.1949 13.6062V14.2262L18.0163 14.3446L16.9951 14.7502L17.7739 9.09688ZM15.4489 21.7795C15.1201 21.7795 14.8203 21.9488 14.6068 22.2307C14.4047 22.2868 14.2143 22.3659 14.0357 22.4671C14.2894 21.6726 14.8895 21.1145 15.5932 21.1145C16.5221 21.1145 17.2777 22.095 17.2777 23.3014C17.2777 24.5134 16.5221 25.4886 15.5932 25.4886C15.4896 25.4886 15.3856 25.4771 15.2875 25.4546V24.9416C15.3395 24.9531 15.3969 24.9588 15.4489 24.9588C16.1182 24.9588 16.6604 24.243 16.6604 23.3694C16.6604 22.4896 16.1182 21.7795 15.4489 21.7795ZM46.2083 24.9305L31.1461 20.0266V21.2497L46.2083 25.6181V24.9305ZM31.1461 20.0266V21.2497L46.2083 25.6181V24.9305L31.1461 20.0266ZM31.1461 20.0266V21.2497L46.2083 25.6181V24.9305L31.1461 20.0266ZM31.1461 20.0266V21.2497L46.2083 25.6181V24.9305L31.1461 20.0266ZM31.1461 20.0266V21.2497L46.2083 25.6181V24.9305L31.1461 20.0266ZM31.1461 20.0266V21.2497L46.2083 25.6181V24.9305L31.1461 20.0266ZM31.1461 20.0266V21.2497L46.2083 25.6181V24.9305L31.1461 20.0266ZM31.1461 20.0266V21.2497L46.2083 25.6181V24.9305L31.1461 20.0266ZM31.1461 20.0266V21.2497L46.2083 25.6181V24.9305L31.1461 20.0266ZM31.1461 20.0266V21.2497L46.2083 25.6181V24.9305L31.1461 20.0266ZM31.1461 20.0266V21.2497L46.2083 25.6181V24.9305L31.1461 20.0266ZM31.1461 20.0266V21.2497L46.2083 25.6181V24.9305L31.1461 20.0266ZM31.1461 20.0266V21.2497L46.2083 25.6181V24.9305L31.1461 20.0266ZM31.1461 20.0266V21.2497L46.2083 25.6181V24.9305L31.1461 20.0266ZM31.1461 20.0266V21.2497L46.2083 25.6181V24.9305L31.1461 20.0266ZM31.1461 20.0266V21.2497L46.2083 25.6181V24.9305L31.1461 20.0266ZM31.1461 20.0266V21.2497L46.2083 25.6181V24.9305L31.1461 20.0266Z" fill="white"/>
<path d="M11.9876 10.32C12.1146 10.038 12.0513 9.71106 11.8261 9.49145C11.6013 9.27714 11.2608 9.22058 10.9723 9.34475C10.8339 9.14767 10.5974 9.02925 10.3496 9.04604C10.1013 9.05753 9.87651 9.1923 9.76119 9.40661C9.70331 9.26565 9.58799 9.15298 9.44372 9.09686C9.29946 9.0403 9.13213 9.05179 8.99374 9.11939C8.69391 8.67398 8.18605 8.40356 7.63794 8.40356C7.09028 8.40356 6.58241 8.67398 6.28258 9.11939C5.86697 8.8092 5.28449 8.84853 4.91546 9.21528C4.55186 9.57585 4.52292 10.1507 4.8517 10.5511C4.59211 10.7596 4.47679 11.0919 4.55186 11.4136C4.62694 11.7348 4.88652 11.9885 5.20942 12.0614C5.5382 12.1347 5.88461 12.0221 6.09761 11.7684C6.26494 11.9209 6.50734 11.9712 6.72668 11.9094C6.94601 11.8418 7.11922 11.6668 7.17077 11.4472C7.2169 11.5546 7.30916 11.6332 7.42493 11.6615C7.54025 11.6893 7.661 11.6615 7.74783 11.5881C7.76502 11.9885 8.10555 12.3097 8.5207 12.3097C8.93631 12.3097 9.27639 11.9885 9.29403 11.5881C9.46091 11.8811 9.78426 12.0561 10.1302 12.0336C10.4703 12.0053 10.7706 11.791 10.8977 11.4812C10.9836 11.5771 11.0903 11.6487 11.2084 11.6933C11.321 11.7353 11.4431 11.753 11.5661 11.7432L11.5683 11.7428C11.6176 11.7393 11.6674 11.7304 11.7167 11.7176C11.7515 11.7066 11.7859 11.6951 11.8207 11.6783C11.7841 11.5121 11.8021 11.4962 11.8139 11.3796C11.8171 11.35 11.8193 11.3137 11.8207 11.2669C11.8229 11.1821 11.8361 11.1012 11.8519 11.0243C11.8763 10.901 11.9071 10.7892 11.9071 10.692L12.2589 10.6695C12.2015 10.5343 12.1088 10.4163 11.9876 10.32ZM9.51879 8.22902C9.48985 8.11059 9.35734 8.03769 9.23614 8.07127C9.11494 8.10485 9.03987 8.22902 9.0747 8.34744C9.10319 8.47161 9.23027 8.53921 9.35734 8.51093C9.47854 8.47691 9.55316 8.35318 9.51879 8.22902ZM5.95923 8.24581C5.9131 8.16097 5.80366 8.13269 5.71683 8.1835C5.63045 8.22858 5.60196 8.33595 5.65352 8.42035C5.69964 8.50475 5.80954 8.53303 5.89592 8.48796C5.98274 8.43758 6.01124 8.33065 5.95923 8.24581ZM7.8229 12.4056C7.70713 12.3384 7.57462 12.3212 7.448 12.3552C7.37292 12.2368 7.22278 12.175 7.07264 12.2143C6.894 12.2593 6.78456 12.4454 6.83612 12.6204C6.86506 12.7383 6.95732 12.8232 7.06721 12.8568C7.07852 13.0203 7.16489 13.1723 7.32092 13.2571C7.56286 13.3923 7.86903 13.3132 8.00741 13.0764C8.1458 12.84 8.06485 12.5413 7.8229 12.4056ZM10.2455 12.5638C10.2053 12.4228 10.0551 12.3327 9.90546 12.372C9.76119 12.4114 9.67436 12.5581 9.71461 12.7048C9.74943 12.8457 9.90546 12.9301 10.0497 12.8961C10.1994 12.8568 10.2862 12.7101 10.2455 12.5638ZM15.5702 9.4128C15.5069 9.18744 15.2645 9.05223 15.0338 9.10835C14.7973 9.17021 14.6589 9.40705 14.7222 9.63285C14.786 9.86351 15.0221 9.99916 15.2586 9.93686C15.4897 9.875 15.6281 9.64346 15.5702 9.4128ZM18.7141 3.83812C18.645 3.57829 18.3741 3.42629 18.1086 3.4939C17.8431 3.56725 17.6876 3.83237 17.7568 4.09131C17.826 4.35069 18.1027 4.50314 18.3682 4.43509C18.6336 4.36218 18.7892 4.0975 18.7141 3.83812ZM14.0819 4.08071C14.0471 3.95079 13.9145 3.87744 13.7875 3.91147C13.655 3.94505 13.5799 4.0754 13.6147 4.20487C13.6491 4.32816 13.782 4.40195 13.9145 4.36792C14.0416 4.33434 14.1167 4.20487 14.0819 4.08071ZM23.1967 6.61662C23.1103 6.46992 22.9141 6.4138 22.7581 6.50394C22.6025 6.58834 22.5505 6.78011 22.6427 6.93256C22.7296 7.07882 22.9254 7.12964 23.0814 7.0448C23.2316 6.96084 23.2831 6.76862 23.1967 6.61662ZM27.5233 7.20343C27.3618 6.9383 27.01 6.84242 26.7387 7.00017C26.4619 7.15261 26.3696 7.49639 26.5252 7.76682C26.6867 8.03194 27.0331 8.12783 27.3098 7.97008C27.5866 7.81763 27.6789 7.47386 27.5233 7.20343ZM33.742 2.92521C33.6787 2.68306 33.4191 2.53591 33.1708 2.59822C32.9171 2.66627 32.7729 2.9199 32.8362 3.16205C32.9054 3.40464 33.1595 3.5509 33.4132 3.48329C33.6615 3.42099 33.8112 3.16735 33.742 2.92521ZM36.2171 6.04749C36.2171 5.59059 35.8363 5.22427 35.3687 5.22427C34.9187 5.22427 34.5497 5.5738 34.5266 6.00772C34.3996 6.00197 34.2729 6.01346 34.1459 6.04749C33.7189 6.16016 33.4015 6.47566 33.269 6.85921C33.2228 6.83093 33.1708 6.80839 33.113 6.79116C33.1016 6.68997 33.0727 6.58834 33.0153 6.49245C32.8018 6.12614 32.3229 6.00197 31.948 6.21672C31.5731 6.42485 31.446 6.89279 31.6595 7.2591C31.7173 7.34925 31.792 7.42834 31.8788 7.4902C31.8268 7.71026 31.8616 7.9524 31.9824 8.16671C32.2537 8.61787 32.8421 8.76987 33.3038 8.51049C33.4535 8.42609 33.5688 8.31342 33.6498 8.17776C33.9555 8.4314 34.3824 8.54451 34.798 8.4314C35.4727 8.25686 35.8707 7.58035 35.6916 6.92107C35.6803 6.88705 35.6685 6.85346 35.6572 6.82518C35.986 6.7072 36.2171 6.40275 36.2171 6.04749ZM32.0515 3.2354C32.2655 2.76171 32.1556 2.20363 31.7748 1.83731C31.394 1.47674 30.8287 1.37511 30.3443 1.59472C30.1078 1.25094 29.7099 1.05917 29.2884 1.08171C28.8673 1.09894 28.4924 1.33534 28.2962 1.69591C28.2039 1.45377 28.0076 1.26199 27.7657 1.16655C27.5174 1.0764 27.2406 1.08745 27.01 1.20587C26.5021 0.450711 25.6424 0 24.7194 0C23.8023 0 22.9426 0.450711 22.4352 1.20587C21.7374 0.681811 20.7506 0.749418 20.1333 1.36362C19.5164 1.98357 19.4698 2.94774 20.0238 3.61851C19.6028 3.95698 19.4065 4.48635 19.4988 4.99936C19.1759 5.0219 18.8815 5.20793 18.7259 5.48984C18.6508 5.29763 18.5007 5.14606 18.3049 5.06697C18.1086 4.99406 17.8893 5.00511 17.7048 5.10055C17.3068 4.50358 16.6203 4.14213 15.8931 4.14213C15.1609 4.14213 14.4798 4.50358 14.076 5.10055C13.5225 4.68342 12.7378 4.74042 12.253 5.22472C11.7628 5.71564 11.7225 6.48185 12.1608 7.0174C11.8148 7.29357 11.6588 7.74428 11.7628 8.1729C11.8668 8.60108 12.2069 8.93381 12.6456 9.03544C13.0838 9.13663 13.5396 8.98462 13.8282 8.64084C14.0588 8.84366 14.3763 8.91702 14.6702 8.82643C14.9646 8.74203 15.1953 8.50519 15.2645 8.21797C15.3224 8.35893 15.449 8.46586 15.605 8.49944C15.7547 8.53921 15.9166 8.49944 16.0374 8.39826C16.0604 8.93955 16.5163 9.36773 17.0703 9.36773C17.1765 9.36773 17.2792 9.35182 17.376 9.32265C17.5257 9.27714 17.6609 9.19937 17.773 9.09686L17.7739 9.09553C17.911 8.97181 18.0132 8.81097 18.0652 8.62936C18.0864 8.55556 18.0996 8.47823 18.1027 8.39826C18.195 8.56749 18.3279 8.70271 18.4894 8.80434L18.5351 8.27409L18.5816 7.73324L19.5508 7.80084L19.5852 8.91127C19.8854 8.79285 20.1278 8.556 20.249 8.2573C20.5199 8.556 20.9468 8.68017 21.3448 8.5728C21.7428 8.46586 22.0431 8.15036 22.1181 7.75003C22.1986 7.35543 22.0372 6.94979 21.7025 6.7072C21.8061 6.4761 21.8179 6.22247 21.7374 5.99711C21.8812 5.91271 22.0141 5.80534 22.1236 5.67587C22.4121 5.92951 22.8159 6.01965 23.185 5.90697C23.5544 5.79429 23.843 5.50089 23.9348 5.13457C24.0099 5.31486 24.1659 5.45007 24.3563 5.49559C24.5525 5.54066 24.7542 5.49559 24.9044 5.36612C24.9333 6.04793 25.5099 6.58878 26.2077 6.58878C26.906 6.58878 27.4772 6.04793 27.5061 5.36612C27.7888 5.8619 28.3369 6.15486 28.9193 6.11553C29.4959 6.07577 30.0038 5.71564 30.2114 5.18539C30.5578 5.56849 31.0942 5.7205 31.5961 5.58529C32.0977 5.45007 32.473 5.04974 32.5712 4.54821C32.6689 4.05243 32.4672 3.53985 32.0515 3.2354Z" fill="white"/>
<path d="M141.046 9.36383H145.157V24.6954L151.388 17.8125H156.217L149.235 25.4783L157 33.4703H152.171L145.157 26.2285V33.4703H141.046V9.36383Z" fill="white"/>
<path d="M134.139 15.0724C133.486 15.0724 132.932 14.855 132.475 14.42C132.04 13.9851 131.822 13.4414 131.822 12.789C131.822 12.1366 132.04 11.5929 132.475 11.158C132.932 10.7013 133.486 10.473 134.139 10.473C134.791 10.473 135.346 10.7013 135.803 11.158C136.259 11.5929 136.488 12.1366 136.488 12.789C136.488 13.4414 136.259 13.9851 135.803 14.42C135.346 14.855 134.791 15.0724 134.139 15.0724ZM132.051 17.8125H136.227V33.4703H132.051V17.8125Z" fill="white"/>
<path d="M117.884 17.8125H121.864V20.3243C122.495 19.4762 123.387 18.8455 124.54 18.4323C125.714 18.0191 127.052 17.8125 128.553 17.8125V20.9441C126.965 20.9441 125.584 21.1942 124.409 21.6943C123.256 22.1728 122.451 22.9339 121.995 23.9778V33.4703H117.884V17.8125Z" fill="white"/>
<path d="M110.879 33.9596C109.161 33.9596 107.856 33.4812 106.964 32.5243C106.072 31.5674 105.626 30.2191 105.626 28.4794V20.9441H103.277V17.8125H105.626V13.1152H109.737V17.8125H113.489V20.9441H109.737V27.9575C109.737 28.9578 109.922 29.6755 110.292 30.1104C110.662 30.5236 111.336 30.7302 112.315 30.7302C112.989 30.7302 113.652 30.578 114.305 30.2735V33.4051C113.37 33.7747 112.228 33.9596 110.879 33.9596Z" fill="white"/>
<path d="M91.6701 33.9596C89.7995 33.9596 88.2661 33.4703 87.0698 32.4917C85.8735 31.4913 85.2754 30.1539 85.2754 28.4794C85.2754 26.7396 85.8409 25.3804 86.972 24.4018C88.103 23.4232 89.6908 22.9339 91.7354 22.9339C93.7147 22.9339 95.4221 23.3362 96.8577 24.1409V23.7168C96.8577 22.6077 96.5097 21.8031 95.8136 21.3029C95.1394 20.8027 94.0409 20.5526 92.5184 20.5526C91.5614 20.5526 90.6152 20.6505 89.6799 20.8462C88.7446 21.0202 87.9181 21.2703 87.2003 21.5965V18.3671C87.8529 18.0626 88.7229 17.8125 89.8104 17.6168C90.9197 17.4211 91.9855 17.3232 93.0078 17.3232C95.7266 17.3232 97.7386 17.9104 99.0436 19.0847C100.349 20.2373 101.001 21.8466 101.001 23.9125V33.4703H97.1187V31.9371C96.4444 32.5895 95.6723 33.0897 94.8022 33.4377C93.9539 33.7856 92.9099 33.9596 91.6701 33.9596ZM92.6815 30.9585C93.5951 30.9585 94.4216 30.7845 95.1611 30.4366C95.9006 30.0669 96.4662 29.5667 96.8577 28.9361V27.2072C95.6614 26.359 94.2911 25.935 92.7468 25.935C90.55 25.935 89.4515 26.7831 89.4515 28.4794C89.4515 29.3057 89.7234 29.9255 90.2672 30.3387C90.8327 30.7519 91.6375 30.9585 92.6815 30.9585Z" fill="white"/>
<path d="M58.0024 10.6687H62.0481L69.6826 27.3703L77.3171 10.6687H81.3628V33.4703H77.4476V18.6607L70.6614 33.4703H68.7038L61.9176 18.6607V33.4703H58.0024V10.6687Z" fill="white"/>
</svg>
