<svg width="16" height="16" viewBox="0 0 16 16" fill="none" xmlns="http://www.w3.org/2000/svg">
	<path d="M9.28343 4.90204L12.0423 2.14286L13.8571 3.95767L12.3358 5.47895H10.534L10.5216 5.47305L6.71655 3.78083V1H9.28343V4.90204Z" fill="#B6BCC0"/>
	<path d="M3.66383 10.521L5.47751 10.5263L9.2834 12.2191V15H6.71652L6.71568 11.0993L3.95763 13.8571L2.14282 12.0423L3.66383 10.521Z" fill="#B6BCC0"/>
	<path d="M15.0001 6.71704H12.2187L10.5217 10.533V12.3366L12.0425 13.8573L13.8573 12.0422L11.0981 9.28335L15.0001 9.28279V6.71704Z" fill="#B6BCC0"/>
	<path d="M3.95767 2.14282L5.47755 3.6627V5.46935L3.78139 9.28283H1V6.71709H4.90204L2.14286 3.95819L3.95767 2.14282Z" fill="#B6BCC0"/>
</svg>
