<svg width="266" height="174" viewBox="0 0 266 174" fill="none" xmlns="http://www.w3.org/2000/svg">
<g opacity="0.1">
<path d="M158.527 101.933V108.158L235.19 130.392V126.893L158.527 101.933ZM158.527 101.933V108.158L235.19 130.392V126.893L158.527 101.933ZM158.527 101.933V108.158L235.19 130.392V126.893L158.527 101.933ZM158.527 101.933V108.158L235.19 130.392V126.893L158.527 101.933ZM158.527 101.933V108.158L235.19 130.392V126.893L158.527 101.933ZM158.527 101.933V108.158L235.19 130.392V126.893L158.527 101.933ZM158.527 101.933V108.158L235.19 130.392V126.893L158.527 101.933ZM158.527 101.933V108.158L235.19 130.392V126.893L158.527 101.933ZM158.527 101.933V108.158L235.19 130.392V126.893L158.527 101.933ZM158.527 101.933V108.158L235.19 130.392V126.893L158.527 101.933ZM158.527 101.933V108.158L235.19 130.392V126.893L158.527 101.933ZM158.527 101.933V108.158L235.19 130.392V126.893L158.527 101.933ZM158.527 101.933V108.158L235.19 130.392V126.893L158.527 101.933ZM158.527 101.933V108.158L235.19 130.392V126.893L158.527 101.933ZM158.527 101.933V108.158L235.19 130.392V126.893L158.527 101.933ZM158.527 101.933V108.158L235.19 130.392V126.893L158.527 101.933ZM76.3711 125.746V173.054H265.696L249.489 168.835V121.614L147.692 86.8127V69.8302L127.342 77.0878L99.5387 67.5924L96.0722 42.1152H89.1737L88.4394 47.4522L84.5333 75.8531L67.9742 82.3663L64.3926 56.1155H57.5218L57.0499 59.5003L57.0476 59.5206L53.0862 88.2476L36.1151 94.934L32.7108 70.118H25.8399L21.6391 100.613L19.6734 101.386V166.915L0 173.054H32.3586V136.588C32.3586 129.961 37.8783 124.57 44.6594 124.57C45.8356 124.655 46.8921 125.258 47.5964 126.175C48.2709 127.093 48.5356 128.269 48.2709 129.389C47.8612 132.716 45.923 134.897 42.5164 135.959V173.054H65.5067V126.405C65.5067 119.318 71.4085 113.552 78.6315 113.552C79.8952 113.666 81.0415 114.269 81.8034 115.274C82.5376 116.248 82.8023 117.51 82.5077 118.715C82.0681 122.273 80.0126 124.597 76.3711 125.746ZM29.2742 78.9253C28.3051 79.555 27.4235 80.3309 26.6317 81.1901C27.5133 80.7897 28.3949 80.4164 29.2742 80.0723V83.6573C28.1302 84.3185 27.0737 85.1776 26.1622 86.2099C27.1911 85.7241 28.2177 85.2923 29.2742 84.919V89.9973C27.6307 90.744 26.1622 91.8348 24.9583 93.182C26.3394 92.4938 27.8056 91.9495 29.2742 91.5199V97.6013L23.6072 99.8391L27.4535 71.924H29.2742V78.9253ZM58.8683 59.7747L58.8706 59.759L59.1353 57.9237H60.956V67.9072C60.0745 68.51 59.2826 69.1982 58.5783 70.0011C59.3701 69.63 60.1343 69.2837 60.956 68.9688V72.6122C59.8995 73.2734 58.9305 74.0764 58.1087 74.994C59.0479 74.5644 59.987 74.1618 60.956 73.8177V78.9253C59.4 79.6697 58.0489 80.7043 56.9049 81.966C58.2261 81.334 59.575 80.819 60.956 80.3872V85.1506L55.0542 87.4447L58.8683 59.7747ZM43.8675 139.544V137.106C44.1322 137.135 44.367 137.162 44.6317 137.162C47.8013 137.162 50.3862 133.777 50.3862 129.589C50.3862 125.429 47.8013 122.044 44.6317 122.044C43.0757 122.044 41.6647 122.847 40.6082 124.196C39.6691 124.455 38.7576 124.826 37.9082 125.314C39.1097 121.527 41.9893 118.889 45.3062 118.889C49.7394 118.889 53.3509 123.535 53.3509 129.302C53.3509 135.041 49.7394 139.717 45.3062 139.717C44.8366 139.717 44.3371 139.658 43.8675 139.544ZM61.0734 168.491H47.2443V165.421H61.0734V168.491ZM125.112 86.183L140.029 81.3902V88.1059L125.112 92.8671V86.183ZM125.112 102.277L140.029 97.4866V104.171L125.112 108.961V102.277ZM125.112 118.371L140.029 113.581V120.265L125.112 125.055V118.371ZM99.831 72.3244L120.766 79.4696L99.831 86.9566V72.3244ZM100.418 116.88V110.196L115.334 105.403V112.117L100.418 116.88ZM115.334 121.5V128.211L100.418 132.974V126.29L115.334 121.5ZM100.418 100.786V94.0996L115.334 89.3091V96.0225L100.418 100.786ZM147.692 165.421V91.6616L154.503 93.9849L244.819 124.826V168.491H235.19V136.274L206.885 128.872V168.491H195.933V125.917L158.527 116.133V168.491H81.1266V165.421H147.692ZM90.465 46.303V46.294L90.7873 43.9212H92.608V56.8892C91.8461 57.4335 91.1694 58.0947 90.5226 58.7829C91.2292 58.4658 91.9036 58.1509 92.608 57.863V61.5649C91.6688 62.1969 90.8172 62.9414 90.053 63.8027C90.9047 63.4002 91.7563 63.0268 92.608 62.712V67.8488C91.1993 68.564 89.908 69.5693 88.8492 70.7748C90.0829 70.172 91.3167 69.684 92.608 69.2544V72.4098L91.6988 73.0126L86.5013 75.0772L90.465 46.303ZM78.6315 110.855C76.9581 110.855 75.432 111.716 74.3456 113.151C73.3167 113.437 72.3476 113.839 71.4384 114.354C72.7297 110.311 75.7842 107.47 79.3658 107.47C84.0936 107.47 87.9399 112.461 87.9399 118.601C87.9399 124.77 84.0936 129.733 79.3658 129.733C78.8387 129.733 78.3092 129.675 77.8098 129.56V126.949C78.0745 127.008 78.3668 127.037 78.6315 127.037C82.0381 127.037 84.798 123.393 84.798 118.947C84.798 114.469 82.0381 110.855 78.6315 110.855ZM235.19 126.893L158.527 101.933V108.158L235.19 130.392V126.893ZM158.527 101.933V108.158L235.19 130.392V126.893L158.527 101.933ZM158.527 101.933V108.158L235.19 130.392V126.893L158.527 101.933ZM158.527 101.933V108.158L235.19 130.392V126.893L158.527 101.933ZM158.527 101.933V108.158L235.19 130.392V126.893L158.527 101.933ZM158.527 101.933V108.158L235.19 130.392V126.893L158.527 101.933ZM158.527 101.933V108.158L235.19 130.392V126.893L158.527 101.933ZM158.527 101.933V108.158L235.19 130.392V126.893L158.527 101.933ZM158.527 101.933V108.158L235.19 130.392V126.893L158.527 101.933ZM158.527 101.933V108.158L235.19 130.392V126.893L158.527 101.933ZM158.527 101.933V108.158L235.19 130.392V126.893L158.527 101.933ZM158.527 101.933V108.158L235.19 130.392V126.893L158.527 101.933ZM158.527 101.933V108.158L235.19 130.392V126.893L158.527 101.933ZM158.527 101.933V108.158L235.19 130.392V126.893L158.527 101.933ZM158.527 101.933V108.158L235.19 130.392V126.893L158.527 101.933ZM158.527 101.933V108.158L235.19 130.392V126.893L158.527 101.933ZM158.527 101.933V108.158L235.19 130.392V126.893L158.527 101.933Z" fill="white"/>
<path d="M61.0144 52.5263C61.6612 51.0915 61.3389 49.4272 60.1926 48.3094C59.0487 47.2186 57.3154 46.9307 55.8469 47.5627C55.1425 46.5596 53.9387 45.9569 52.6773 46.0424C51.4136 46.1008 50.2696 46.7868 49.6827 47.8776C49.388 47.1601 48.8011 46.5866 48.0668 46.301C47.3325 46.0131 46.4809 46.0716 45.7765 46.4157C44.2504 44.1487 41.6655 42.7723 38.8758 42.7723C36.0883 42.7723 33.5034 44.1487 31.9773 46.4157C29.8619 44.8369 26.8972 45.037 25.019 46.9037C23.1683 48.739 23.021 51.665 24.6944 53.7026C23.3732 54.7641 22.7862 56.4554 23.1683 58.0927C23.5504 59.7278 24.8717 61.0187 26.5151 61.3898C28.1885 61.7632 29.9517 61.1897 31.0359 59.8987C31.8875 60.6746 33.1213 60.931 34.2376 60.6161C35.354 60.272 36.2356 59.3814 36.498 58.2637C36.7328 58.8102 37.2023 59.2105 37.7916 59.3544C38.3786 59.4961 38.9931 59.3544 39.4351 58.9811C39.5226 61.0187 41.2558 62.6538 43.3689 62.6538C45.4842 62.6538 47.2151 61.0187 47.3049 58.9811C48.1543 60.4722 49.8001 61.3628 51.5609 61.2481C53.2919 61.1042 54.8203 60.0134 55.4671 58.4368C55.9044 58.9249 56.4476 59.2892 57.0484 59.5164C57.6215 59.73 58.243 59.82 58.8691 59.7705L58.8806 59.7683C59.1315 59.7503 59.3847 59.7053 59.6356 59.6401C59.8128 59.5838 59.9878 59.5254 60.165 59.4399C59.9786 58.5943 60.0706 58.5133 60.1305 57.9195C60.1466 57.7689 60.1581 57.5844 60.165 57.346C60.1765 56.9142 60.2433 56.5027 60.3238 56.1113C60.4481 55.4838 60.6047 54.9148 60.6047 54.42L62.3955 54.3053C62.1031 53.6171 61.6313 53.0166 61.0144 52.5263ZM48.4489 41.8839C48.3016 41.2811 47.6272 40.9101 47.0103 41.081C46.3934 41.2519 46.0113 41.8839 46.1885 42.4866C46.3336 43.1186 46.9804 43.4627 47.6272 43.3188C48.244 43.1456 48.6238 42.5159 48.4489 41.8839ZM30.3315 41.9693C30.0967 41.5375 29.5397 41.3936 29.0977 41.6522C28.6581 41.8816 28.5131 42.4282 28.7755 42.8577C29.0103 43.2873 29.5696 43.4312 30.0093 43.2018C30.4512 42.9454 30.5962 42.4012 30.3315 41.9693ZM39.8172 63.1418C39.2279 62.8 38.5535 62.7122 37.909 62.8854C37.5269 62.2827 36.7627 61.9678 35.9985 62.168C35.0893 62.3974 34.5323 63.3442 34.7947 64.2349C34.942 64.8354 35.4116 65.2672 35.9709 65.4381C36.0284 66.2702 36.4681 67.0439 37.2622 67.4757C38.4937 68.1639 40.052 67.7614 40.7563 66.5559C41.4607 65.3526 41.0486 63.8323 39.8172 63.1418ZM52.1479 63.947C51.943 63.2295 51.1788 62.7707 50.4169 62.9709C49.6827 63.1711 49.2407 63.9177 49.4456 64.6644C49.6228 65.3819 50.4169 65.8114 51.1512 65.6383C51.9131 65.4381 52.355 64.6914 52.1479 63.947ZM79.2492 47.9091C78.9269 46.7621 77.6932 46.0739 76.5192 46.3595C75.3154 46.6743 74.6111 47.8798 74.9333 49.0291C75.2579 50.2031 76.4594 50.8935 77.6632 50.5764C78.8395 50.2616 79.5438 49.0831 79.2492 47.9091ZM95.2512 19.5352C94.899 18.2127 93.5203 17.4391 92.1691 17.7832C90.818 18.1565 90.0262 19.5059 90.3783 20.8239C90.7305 22.1441 92.1392 22.92 93.4904 22.5736C94.8415 22.2025 95.6333 20.8554 95.2512 19.5352ZM71.674 20.7699C71.4967 20.1087 70.8223 19.7353 70.1755 19.9085C69.5011 20.0794 69.119 20.7429 69.2962 21.4019C69.4712 22.0294 70.1479 22.4049 70.8223 22.2318C71.4691 22.0608 71.8512 21.4019 71.674 20.7699ZM118.067 33.6771C117.627 32.9305 116.628 32.6448 115.834 33.1036C115.042 33.5332 114.777 34.5093 115.247 35.2852C115.689 36.0296 116.686 36.2883 117.48 35.8565C118.244 35.4291 118.506 34.4508 118.067 33.6771ZM140.088 36.6639C139.266 35.3144 137.475 34.8264 136.094 35.6293C134.686 36.4052 134.216 38.155 135.008 39.5314C135.83 40.8808 137.593 41.3689 139.001 40.5659C140.41 39.79 140.88 38.0403 140.088 36.6639ZM171.74 14.8887C171.417 13.6562 170.096 12.9072 168.833 13.2244C167.541 13.5707 166.807 14.8617 167.129 16.0941C167.481 17.3289 168.775 18.0733 170.066 17.7292C171.33 17.4121 172.092 16.1211 171.74 14.8887ZM184.337 30.7804C184.337 28.4549 182.399 26.5904 180.019 26.5904C177.729 26.5904 175.851 28.3694 175.733 30.578C175.087 30.5487 174.442 30.6072 173.795 30.7804C171.622 31.3539 170.007 32.9597 169.332 34.9119C169.097 34.7679 168.833 34.6532 168.538 34.5655C168.48 34.0505 168.333 33.5332 168.041 33.0452C166.954 31.1807 164.517 30.5487 162.609 31.6418C160.7 32.7011 160.054 35.0828 161.14 36.9472C161.435 37.406 161.814 37.8086 162.256 38.1235C161.992 39.2435 162.169 40.476 162.783 41.5668C164.165 43.863 167.159 44.6367 169.509 43.3165C170.271 42.887 170.858 42.3135 171.27 41.623C172.826 42.9139 174.999 43.4897 177.114 42.9139C180.549 42.0256 182.574 38.5823 181.663 35.2267C181.605 35.0535 181.545 34.8826 181.488 34.7387C183.161 34.1382 184.337 32.5886 184.337 30.7804ZM163.136 16.4675C164.224 14.0565 163.665 11.216 161.727 9.35151C159.789 7.51629 156.912 6.99901 154.446 8.11679C153.243 6.36703 151.217 5.39095 149.072 5.50565C146.929 5.59336 145.021 6.7966 144.022 8.63182C143.552 7.39934 142.553 6.42326 141.322 5.93747C140.058 5.47866 138.649 5.53489 137.475 6.13763C134.89 2.29402 130.515 0 125.817 0C121.149 0 116.773 2.29402 114.19 6.13763C110.639 3.47027 105.616 3.81437 102.474 6.94054C99.3346 10.0959 99.0975 15.0034 101.917 18.4174C99.7742 20.1402 98.7753 22.8345 99.2448 25.4456C97.6013 25.5603 96.1029 26.5072 95.3111 27.9421C94.929 26.9638 94.1648 26.1923 93.1681 25.7897C92.1691 25.4187 91.0528 25.4749 90.1136 25.9607C88.0881 22.9222 84.5939 21.0825 80.8926 21.0825C77.166 21.0825 73.6996 22.9222 71.6441 25.9607C68.8267 23.8376 64.8331 24.1277 62.3655 26.5927C59.8704 29.0913 59.6655 32.9912 61.896 35.717C60.1351 37.1227 59.341 39.4167 59.8704 41.5983C60.3998 43.7776 62.1307 45.4711 64.3635 45.9884C66.5939 46.5034 68.9141 45.7297 70.3827 43.98C71.5566 45.0123 73.1724 45.3856 74.6686 44.9246C76.1671 44.495 77.341 43.2895 77.6932 41.8277C77.9878 42.5451 78.6323 43.0894 79.4264 43.2603C80.1883 43.4627 81.0123 43.2603 81.6269 42.7453C81.7443 45.5003 84.0645 47.6797 86.8842 47.6797C87.4251 47.6797 87.9476 47.5987 88.4402 47.4503C89.2021 47.2186 89.8904 46.8228 90.4612 46.301L90.4658 46.2943C91.1632 45.6645 91.6834 44.8459 91.9482 43.9215C92.0563 43.5459 92.1231 43.1523 92.1392 42.7453C92.6088 43.6067 93.2855 44.2949 94.1072 44.8121L94.3397 42.1133L94.5768 39.3605L99.5095 39.7046L99.6845 45.3564C101.213 44.7537 102.447 43.5482 103.063 42.0278C104.442 43.5482 106.615 44.1802 108.641 43.6336C110.666 43.0894 112.195 41.4836 112.577 39.4459C112.987 37.4375 112.165 35.3729 110.461 34.1382C110.989 32.9619 111.048 31.671 110.639 30.524C111.371 30.0944 112.047 29.5479 112.604 28.8889C114.073 30.1799 116.128 30.6387 118.007 30.0652C119.887 29.4917 121.356 27.9983 121.823 26.1339C122.205 27.0515 122.999 27.7397 123.968 27.9713C124.967 28.2007 125.994 27.9713 126.758 27.3124C126.905 30.7826 129.84 33.5354 133.392 33.5354C136.946 33.5354 139.853 30.7826 140 27.3124C141.439 29.8358 144.229 31.3269 147.193 31.1267C150.128 30.9243 152.713 29.0913 153.77 26.3925C155.533 28.3424 158.263 29.1161 160.818 28.4279C163.37 27.7397 165.281 25.702 165.78 23.1494C166.278 20.626 165.251 18.0171 163.136 16.4675Z" fill="white"/>
</g>
</svg>
