<svg width="210" height="28" viewBox="0 0 210 28" fill="none" xmlns="http://www.w3.org/2000/svg">
<g clip-path="url(#clip0_9697_102453)">
<path d="M8.95524 19.0529L5.32791 19.041L2.28558 22.0835L5.91461 25.7143L11.4313 20.1991L11.433 28H16.567V22.4372L8.95524 19.0529Z" fill="#1D1E20"/>
<path d="M22.0837 2.28566L16.567 7.80423V0H11.433V5.56109L19.0431 8.94706L19.0686 8.95896H22.6704L25.7144 5.91482L22.0837 2.28566Z" fill="#1D1E20"/>
<path d="M28 11.4346H22.4374L19.0431 19.0653V22.6741L22.0837 25.7148L25.7144 22.084L20.1961 16.5671L20.1944 16.5654H28V11.4346Z" fill="#1D1E20"/>
<path d="M8.95523 5.32883L5.9146 2.28809L2.28557 5.91895L7.80224 11.4358H7.80394V11.4375H0V16.5683H5.56258L7.84475 11.4358L8.95523 8.94098V5.32883Z" fill="#1D1E20"/>
<path d="M47.1216 8.80078H49.7803V20.482H47.1216V15.5266H42.6586V20.482H39.9999V8.80078H42.6586V13.2682H47.1216V8.80078Z" fill="#1D1E20"/>
<path d="M56.0338 14.562C56.0338 15.1351 56.1053 15.6555 56.2449 16.1129C56.3861 16.5772 56.5904 16.9768 56.8542 17.3067C57.118 17.6366 57.4448 17.8934 57.8261 18.0754C58.2108 18.254 58.6499 18.3492 59.1469 18.3492C59.644 18.3492 60.0712 18.254 60.4593 18.0754C60.8491 17.8968 61.1776 17.6366 61.4414 17.3067C61.7052 16.9768 61.9095 16.5772 62.0507 16.1129C62.1903 15.6521 62.2618 15.1317 62.2618 14.562C62.2618 13.9923 62.1903 13.4634 62.0507 12.9924C61.9095 12.5281 61.7052 12.1234 61.4414 11.7935C61.1776 11.4636 60.8491 11.2068 60.4593 11.0248C60.0695 10.8462 59.632 10.751 59.1469 10.751C58.6618 10.751 58.2091 10.8462 57.8261 11.0333C57.4414 11.2187 57.118 11.4806 56.8542 11.8122C56.5904 12.1421 56.3861 12.5468 56.2449 13.0111C56.1036 13.4804 56.0338 13.9974 56.0338 14.562ZM64.9937 14.562C64.9937 15.5653 64.8439 16.4462 64.546 17.2081C64.2465 17.97 63.838 18.6026 63.3188 19.1195C62.7997 19.628 62.1818 20.0158 61.4652 20.2793C60.7469 20.5361 59.9776 20.6654 59.1521 20.6654C58.3265 20.6654 57.5946 20.5361 56.8831 20.2793C56.1734 20.0158 55.5504 19.628 55.021 19.1195C54.49 18.6026 54.073 17.97 53.7666 17.2081C53.4636 16.4462 53.3087 15.5653 53.3087 14.562C53.3087 13.5587 53.4687 12.6727 53.7836 11.9108C54.1002 11.1489 54.5257 10.5078 55.0619 9.99425C55.598 9.47218 56.2176 9.08614 56.924 8.82255C57.6304 8.56577 58.3725 8.43652 59.1503 8.43652C59.9282 8.43652 60.7078 8.56577 61.4193 8.82255C62.129 9.08614 62.752 9.47388 63.2814 9.99425C63.8107 10.5112 64.2294 11.1489 64.5324 11.9108C64.8388 12.6727 64.9903 13.5536 64.9903 14.562H64.992H64.9937Z" fill="#1D1E20"/>
<path d="M71.637 18.4206C72.0098 18.4206 72.3178 18.3866 72.5612 18.3254C72.8029 18.2642 73.0004 18.1791 73.1434 18.0737C73.2897 17.9666 73.3902 17.839 73.4497 17.6911C73.5059 17.5448 73.5348 17.3782 73.5348 17.1962C73.5348 16.8136 73.3544 16.4956 72.9936 16.2439C72.6327 15.9871 72.0115 15.7184 71.1315 15.4191C70.7468 15.2847 70.3621 15.1283 69.9808 14.9548C69.5962 14.7814 69.2523 14.5637 68.9477 14.2984C68.6447 14.0297 68.3945 13.7117 68.2021 13.3342C68.0115 12.9516 67.9145 12.4924 67.9145 11.9567C67.9145 11.421 68.0149 10.9262 68.2192 10.4925C68.4217 10.0538 68.7094 9.68475 69.0838 9.38374C69.4566 9.08104 69.9077 8.84466 70.4387 8.68311C70.9698 8.52155 71.5672 8.43652 72.2344 8.43652C73.0259 8.43652 73.7085 8.51985 74.2855 8.68821C74.8608 8.85657 75.334 9.04873 75.7084 9.2494L74.9476 11.3292C74.6191 11.1608 74.2565 11.0078 73.8548 10.882C73.4531 10.7527 72.9714 10.6864 72.4081 10.6864C71.7766 10.6864 71.3204 10.7765 71.043 10.95C70.7655 11.1234 70.6293 11.3921 70.6293 11.7526C70.6293 11.9703 70.6804 12.1523 70.7808 12.2968C70.8813 12.4431 71.0259 12.5774 71.2115 12.6965C71.3987 12.8138 71.6132 12.9209 71.8566 13.0179C72.0983 13.1131 72.3655 13.2134 72.66 13.3138C73.2693 13.5383 73.7987 13.761 74.2514 13.9821C74.7025 14.2066 75.077 14.46 75.3782 14.7559C75.6778 15.0467 75.9008 15.3902 76.0472 15.7864C76.1935 16.1776 76.2684 16.6605 76.2684 17.22C76.2684 18.3135 75.8838 19.1655 75.1161 19.7658C74.3502 20.3695 73.191 20.6739 71.6455 20.6739C71.1264 20.6739 70.6583 20.6399 70.2396 20.5786C69.8208 20.5174 69.4515 20.4443 69.1298 20.3542C68.8081 20.2589 68.5323 20.1637 68.2992 20.0634C68.0694 19.963 67.8736 19.8678 67.717 19.7777L68.4626 17.6809C68.8132 17.8713 69.2438 18.0448 69.7579 18.1978C70.2719 18.3492 70.9017 18.4274 71.6472 18.4274H71.6404L71.637 18.4206Z" fill="#1D1E20"/>
<path d="M87.8973 8.70508V10.96H84.3569V20.4323H81.7169V10.96H78.1765V8.70508H87.8973Z" fill="#1D1E20"/>
<path d="M90.8334 20.4306H93.4733V8.70508H90.8334V20.4306Z" fill="#1D1E20"/>
<path d="M105.298 20.4306C104.54 19.0837 103.722 17.7624 102.843 16.4512C101.962 15.1435 101.026 13.9139 100.033 12.7456V20.4306H97.4274V8.70508H99.5788C99.9516 9.07921 100.364 9.53496 100.816 10.0774C101.267 10.6165 101.727 11.193 102.197 11.8103C102.665 12.4276 103.129 13.0603 103.592 13.7218C104.055 14.3833 104.489 15.0159 104.896 15.6281V8.70678H107.523V20.4323H105.301L105.298 20.4306Z" fill="#1D1E20"/>
<path d="M117.192 10.734C115.962 10.734 115.073 11.0758 114.523 11.7595C113.975 12.4431 113.703 13.375 113.703 14.5569C113.703 15.1351 113.769 15.6555 113.905 16.1265C114.04 16.5908 114.244 16.9955 114.515 17.3305C114.787 17.6724 115.124 17.9342 115.531 18.1213C115.938 18.3067 116.411 18.3951 116.952 18.3951C117.247 18.3951 117.499 18.39 117.706 18.3781C117.914 18.373 118.098 18.3441 118.258 18.3118V14.2372H120.898V20.0379C120.583 20.1603 120.074 20.2946 119.374 20.4375C118.673 20.5769 117.812 20.6501 116.782 20.6501C115.9 20.6501 115.1 20.5157 114.385 20.2419C113.667 19.9732 113.056 19.5804 112.549 19.06C112.042 18.5431 111.647 17.9053 111.373 17.1486C111.095 16.3918 110.959 15.5279 110.959 14.5586C110.959 13.5893 111.111 12.7084 111.417 11.9567C111.722 11.2 112.14 10.5622 112.671 10.0334C113.201 9.51129 113.825 9.11335 114.544 8.83956C115.259 8.57087 116.026 8.43652 116.836 8.43652C117.39 8.43652 117.89 8.47054 118.336 8.54366C118.782 8.62189 119.163 8.70521 119.488 8.80045C119.808 8.89568 120.076 8.99091 120.285 9.09635C120.493 9.19668 120.642 9.27491 120.733 9.33103L119.97 11.4431C119.608 11.2527 119.194 11.0826 118.726 10.9432C118.258 10.8037 117.745 10.7306 117.192 10.7306V10.7357V10.734Z" fill="#1D1E20"/>
<path d="M124.596 20.4306V8.70508H132.521V10.9243H127.238V13.2218H131.929V15.3849H127.238V18.2096H132.911V20.4289H124.596V20.4306Z" fill="#1D1E20"/>
<path d="M139.689 10.8231C139.498 10.8231 139.326 10.8282 139.171 10.8401C139.02 10.852 138.875 10.8673 138.741 10.8741V14.0576H139.486C140.479 14.0576 141.192 13.9352 141.621 13.6835C142.05 13.4369 142.266 13.0151 142.266 12.4148C142.266 11.8145 142.048 11.4336 141.614 11.1853C141.182 10.9455 140.54 10.8214 139.691 10.8214L139.689 10.8231ZM139.537 8.57324C141.299 8.57324 142.645 8.88615 143.585 9.51536C144.521 10.1378 144.991 11.1139 144.991 12.4302C144.991 13.2549 144.802 13.9199 144.422 14.4368C144.045 14.9453 143.5 15.35 142.788 15.6476C143.025 15.9384 143.274 16.2769 143.534 16.651C143.793 17.0336 144.051 17.4247 144.305 17.8329C144.56 18.2461 144.805 18.6747 145.042 19.1219C145.28 19.5641 145.498 20.0028 145.701 20.4331H142.746C142.53 20.047 142.314 19.6593 142.092 19.2614C141.871 18.8702 141.645 18.4876 141.411 18.1118C141.178 17.7428 140.95 17.389 140.724 17.0574C140.496 16.7224 140.268 16.418 140.043 16.1493H138.739V20.4331H136.099V8.87594C136.674 8.76371 137.27 8.68548 137.885 8.64126C138.499 8.59705 139.051 8.57494 139.536 8.57494H139.537V8.57324Z" fill="#1D1E20"/>
<path d="M156.45 8.77539H155.684V20.4873H156.45V8.77539Z" fill="#1D1E20"/>
<path d="M171.083 15.5651C171.265 15.7913 171.495 16.0889 171.772 16.4579C172.05 16.827 172.337 17.2351 172.632 17.6824C172.926 18.1296 173.219 18.5973 173.508 19.0853C173.798 19.5734 174.044 20.0428 174.249 20.4968H172.444C172.218 20.0666 171.971 19.6295 171.704 19.1874C171.437 18.7452 171.168 18.3235 170.896 17.9204C170.623 17.5174 170.354 17.1416 170.087 16.7896C169.82 16.4375 169.58 16.1314 169.364 15.8712C169.216 15.8831 169.066 15.8882 168.913 15.8882H166.964V20.4968H165.313V8.88187C165.777 8.76793 166.296 8.69141 166.87 8.65229C167.444 8.61318 167.968 8.59277 168.444 8.59277C170.101 8.59277 171.364 8.90398 172.232 9.52809C173.1 10.1522 173.534 11.0807 173.534 12.317C173.534 13.0993 173.326 13.7676 172.913 14.3237C172.499 14.8798 171.888 15.293 171.083 15.5651ZM168.581 10.0383C167.878 10.0383 167.338 10.0553 166.964 10.0893V14.5278H168.138C168.705 14.5278 169.216 14.4989 169.67 14.4428C170.124 14.3866 170.507 14.2778 170.819 14.1196C171.13 13.9615 171.372 13.737 171.542 13.4479C171.713 13.1588 171.798 12.7762 171.798 12.3C171.798 11.8579 171.713 11.4889 171.542 11.1947C171.372 10.9005 171.142 10.6675 170.853 10.4974C170.564 10.3274 170.223 10.2083 169.832 10.1403C169.44 10.0723 169.023 10.0383 168.581 10.0383Z" fill="#1D1E20"/>
<path d="M175.423 16.0922C175.423 15.3099 175.537 14.6263 175.764 14.043C175.99 13.4597 176.291 12.975 176.666 12.589C177.04 12.203 177.471 11.9139 177.959 11.7217C178.448 11.5296 178.947 11.4326 179.457 11.4326C180.649 11.4326 181.563 11.8033 182.198 12.5465C182.832 13.2896 183.151 14.4205 183.151 15.9391V16.2027C183.151 16.3099 183.146 16.4102 183.134 16.5003H177.074C177.142 17.4186 177.41 18.1159 177.874 18.592C178.339 19.0682 179.066 19.3063 180.053 19.3063C180.61 19.3063 181.078 19.2587 181.457 19.1617C181.837 19.0648 182.124 18.9713 182.317 18.8811L182.538 20.2076C182.346 20.3096 182.007 20.4168 181.525 20.5307C181.044 20.6446 180.495 20.7008 179.883 20.7008C179.112 20.7008 178.444 20.5851 177.883 20.3521C177.321 20.1192 176.858 19.7995 176.496 19.3913C176.133 18.9832 175.862 18.4985 175.687 17.9373C175.51 17.3761 175.423 16.7605 175.423 16.0922ZM181.5 15.2249C181.512 14.5107 181.333 13.924 180.964 13.4648C180.594 13.0057 180.087 12.7761 179.44 12.7761C179.078 12.7761 178.756 12.8475 178.478 12.9886C178.201 13.1298 177.964 13.3152 177.772 13.5413C177.58 13.7675 177.428 14.0294 177.321 14.3236C177.214 14.6178 177.142 14.9188 177.108 15.2249H181.5Z" fill="#1D1E20"/>
<path d="M188.291 11.4326C188.926 11.4326 189.462 11.5142 189.9 11.6792C190.337 11.8442 190.688 12.0754 190.955 12.3764C191.222 12.6774 191.411 13.0346 191.525 13.4478C191.639 13.861 191.695 14.3185 191.695 14.8168V20.3436C191.559 20.3657 191.369 20.3981 191.125 20.4372C190.882 20.4763 190.606 20.5137 190.3 20.5477C189.993 20.5817 189.661 20.6123 189.304 20.6412C188.947 20.6702 188.592 20.6838 188.24 20.6838C187.741 20.6838 187.282 20.6327 186.861 20.5307C186.441 20.4287 186.078 20.2671 185.772 20.046C185.466 19.825 185.227 19.5325 185.057 19.1702C184.887 18.808 184.802 18.371 184.802 17.8608C184.802 17.3506 184.901 16.9544 185.1 16.6024C185.299 16.2504 185.568 15.9681 185.908 15.7521C186.249 15.5361 186.645 15.378 187.1 15.2759C187.554 15.1739 188.031 15.1229 188.53 15.1229C188.688 15.1229 188.853 15.1314 189.023 15.1484C189.193 15.1654 189.355 15.1875 189.508 15.2164C189.661 15.2453 189.794 15.2708 189.908 15.2929C190.022 15.315 190.101 15.332 190.147 15.3439V14.9018C190.147 14.6416 190.118 14.3831 190.061 14.128C190.005 13.8729 189.903 13.6468 189.755 13.4478C189.607 13.2488 189.406 13.0907 189.151 12.9716C188.895 12.8526 188.564 12.7931 188.155 12.7931C187.632 12.7931 187.176 12.8305 186.785 12.9036C186.393 12.9767 186.101 13.0533 185.908 13.1332L185.721 11.8237C185.925 11.7336 186.266 11.6452 186.742 11.5602C187.219 11.4751 187.735 11.4326 188.291 11.4326ZM188.427 19.3573C188.802 19.3573 189.134 19.3488 189.423 19.3318C189.712 19.3148 189.954 19.2842 190.147 19.2383V16.6024C190.032 16.5463 189.849 16.4969 189.593 16.4578C189.338 16.4187 189.028 16.3983 188.666 16.3983C188.427 16.3983 188.175 16.4153 187.908 16.4493C187.641 16.4833 187.398 16.5548 187.176 16.6619C186.955 16.769 186.771 16.917 186.623 17.104C186.475 17.2911 186.402 17.5377 186.402 17.8438C186.402 18.4101 186.584 18.8046 186.947 19.0257C187.309 19.2468 187.803 19.3573 188.427 19.3573Z" fill="#1D1E20"/>
<path d="M198.162 20.7008C197.447 20.7008 196.82 20.5868 196.281 20.3606C195.741 20.1345 195.288 19.8165 194.919 19.4083C194.55 19.0002 194.276 18.5155 194.094 17.9543C193.911 17.3931 193.821 16.7724 193.821 16.0922C193.821 15.412 193.92 14.7879 194.119 14.2216C194.318 13.6553 194.599 13.1655 194.962 12.7506C195.324 12.3373 195.77 12.0142 196.298 11.7812C196.826 11.5483 197.413 11.4326 198.06 11.4326C198.456 11.4326 198.854 11.4666 199.251 11.5347C199.648 11.6027 200.029 11.7098 200.391 11.8578L200.034 13.2012C199.796 13.0873 199.52 12.9971 199.208 12.9291C198.897 12.8611 198.565 12.8271 198.213 12.8271C197.328 12.8271 196.65 13.1043 196.179 13.6604C195.707 14.2165 195.472 15.0259 195.472 16.0922C195.472 16.5684 195.527 17.0054 195.634 17.4016C195.741 17.7979 195.911 18.138 196.145 18.422C196.378 18.706 196.676 18.9237 197.038 19.0767C197.401 19.2298 197.843 19.3063 198.366 19.3063C198.786 19.3063 199.166 19.2672 199.506 19.1872C199.847 19.1073 200.114 19.0223 200.306 18.9322L200.528 20.2586C200.437 20.3147 200.306 20.3692 200.136 20.4202C199.966 20.4712 199.774 20.5171 199.557 20.5562C199.341 20.5953 199.111 20.6293 198.868 20.6582C198.625 20.6872 198.388 20.7008 198.162 20.7008Z" fill="#1D1E20"/>
<path d="M202.231 20.4953V7.57092L203.814 7.29883V11.8224C204.109 11.7084 204.424 11.6217 204.759 11.5588C205.094 11.4959 205.426 11.4652 205.755 11.4652C206.458 11.4652 207.043 11.5639 207.508 11.7628C207.973 11.9618 208.345 12.239 208.623 12.5961C208.9 12.9532 209.096 13.3818 209.21 13.8801C209.324 14.3783 209.38 14.9293 209.38 15.5296V20.4953H207.797V15.8697C207.797 15.3256 207.76 14.8613 207.687 14.4753C207.613 14.0892 207.491 13.778 207.321 13.5399C207.15 13.3019 206.924 13.1284 206.64 13.0213C206.356 12.9141 206.005 12.8597 205.585 12.8597C205.414 12.8597 205.239 12.8716 205.057 12.8937C204.875 12.9158 204.703 12.9413 204.538 12.9703C204.373 12.9992 204.226 13.0298 204.095 13.0638C203.964 13.0978 203.871 13.1267 203.814 13.1488V20.4953H202.231Z" fill="#1D1E20"/>
</g>
<defs>
<clipPath id="clip0_9697_102453">
<rect width="209.38" height="28" fill="white"/>
</clipPath>
</defs>
</svg>
