<svg width="69" height="20" viewBox="0 0 69 20" fill="none" xmlns="http://www.w3.org/2000/svg">
<g clip-path="url(#clip0_347_360)">
<path d="M50.8383 15.0154C52.0843 15.0154 53.0945 14.0103 53.0945 12.7704C53.0945 11.5305 52.0843 10.5254 50.8383 10.5254C49.5922 10.5254 48.582 11.5305 48.582 12.7704C48.582 14.0103 49.5922 15.0154 50.8383 15.0154Z" fill="#E62415"/>
<path d="M17.9957 0.0595703H20.9814V19.2181H17.9957V0.0595703ZM31.8554 13.3102C31.8554 16.2811 29.4125 16.5174 28.6661 16.5174C26.8001 16.5174 26.5286 14.7788 26.5286 13.7322V6.32197H23.526V13.7153C23.509 15.5552 24.0349 17.0744 25.0528 18.0872C25.9772 18.9071 27.1548 19.389 28.3915 19.4535C29.6282 19.5179 30.85 19.161 31.8554 18.4417V19.2181H34.858V6.32197H31.8554V13.3102ZM41.3383 1.98387H38.3357V6.32197H36.2491V9.1409H38.3357V19.2181H41.3383V9.1409H43.7981V6.32197H41.3383V1.98387ZM53.5186 15.5552C52.84 16.1629 51.9409 16.5005 50.957 16.5005C50.4572 16.5146 49.9597 16.4267 49.4953 16.2423C49.0308 16.0579 48.6092 15.7809 48.2564 15.4283C47.9036 15.0756 47.6271 14.6549 47.4439 14.1919C47.2606 13.729 47.1746 13.2336 47.191 12.7363C47.191 10.5588 48.7347 9.03962 50.957 9.03962C51.924 9.03962 52.84 9.36034 53.5356 9.96801L54.0106 10.3731L56.1141 8.28003L55.5882 7.8074C54.3143 6.67684 52.6639 6.05725 50.957 6.06878C47.0553 6.06878 44.2222 8.87082 44.2222 12.7194C44.2015 13.6067 44.3613 14.4889 44.692 15.3131C45.0227 16.1374 45.5174 16.8866 46.1465 17.5157C46.7756 18.1448 47.526 18.6409 48.3527 18.974C49.1794 19.3072 50.0652 19.4706 50.957 19.4545C52.7382 19.4545 54.4007 18.8299 55.6221 17.699L56.1311 17.2263L53.9936 15.1332L53.5186 15.5552ZM67.3783 7.45292C66.4539 6.63299 65.2762 6.15106 64.0396 6.08662C62.8029 6.02218 61.5811 6.37908 60.5757 7.09844V0.0595703H57.573V19.2181H60.5757V12.2468C60.5757 9.27594 63.0185 9.03962 63.7649 9.03962C65.631 9.03962 65.9024 10.7782 65.9024 11.8248V19.235H68.9051V11.8248C68.9957 10.2242 68.4469 8.65276 67.3783 7.45292ZM13.568 14.6268C12.9839 15.2239 12.2847 15.6976 11.5122 16.0196C10.7398 16.3415 9.90999 16.5051 9.07254 16.5005C5.59489 16.5005 3.06723 13.7828 3.06723 10.0524C3.06723 6.30509 5.59489 3.58745 9.07254 3.58745C10.752 3.58745 12.3466 4.24576 13.5511 5.44422L14.0261 5.91686L16.1127 3.84064L15.6546 3.36801C14.7939 2.49691 13.7665 1.80615 12.6331 1.3365C11.4997 0.866848 10.2833 0.627808 9.05558 0.633483C3.94937 0.633483 0.081543 4.68463 0.081543 10.0693C0.081543 15.4202 3.94937 19.4713 9.05558 19.4713C11.5832 19.4713 13.9243 18.4923 15.6546 16.7199L16.1127 16.2473L14.043 14.1373L13.568 14.6268Z" fill="#17313B"/>
</g>
<defs>
<clipPath id="clip0_347_360">
<rect width="68.8235" height="19.4118" fill="white" transform="translate(0.081543 0.0595703)"/>
</clipPath>
</defs>
</svg>
