<svg width="12" height="10" viewBox="0 0 12 10" fill="none" xmlns="http://www.w3.org/2000/svg">
<path d="M6.75 1C6.75 0.585786 6.41421 0.25 6 0.25C5.58579 0.25 5.25 0.585786 5.25 1H6.75ZM5.46967 9.53033C5.76256 9.82322 6.23744 9.82322 6.53033 9.53033L11.3033 4.75736C11.5962 4.46447 11.5962 3.98959 11.3033 3.6967C11.0104 3.40381 10.5355 3.40381 10.2426 3.6967L6 7.93934L1.75736 3.6967C1.46447 3.40381 0.989593 3.40381 0.696699 3.6967C0.403806 3.98959 0.403806 4.46447 0.696699 4.75736L5.46967 9.53033ZM5.25 1V9H6.75V1H5.25Z" fill="black"/>
</svg>
