<svg width="60" height="21" viewBox="0 0 60 21" fill="none" xmlns="http://www.w3.org/2000/svg">
<g clip-path="url(#clip0_347_466)">
<path d="M7.53927 0.865234H8.06485C9.88949 0.90555 11.6844 1.65139 12.9735 2.97174C12.4975 3.46561 12.0116 3.93932 11.5456 4.43319C10.8216 3.76798 9.94899 3.25395 8.997 3.07253C7.58886 2.77016 6.07163 3.04229 4.89156 3.85869C3.60241 4.7154 2.72976 6.16678 2.54134 7.71894C2.3331 9.25094 2.75951 10.8636 3.74124 12.0529C4.68331 13.212 6.12121 13.9377 7.60869 13.9881C8.997 14.0687 10.4448 13.6353 11.4563 12.6476C12.2496 11.9521 12.6165 10.8938 12.7355 9.86576C11.0894 9.86576 9.44325 9.87584 7.7971 9.86576V7.78949H14.7288C15.0858 10.0169 14.5701 12.5266 12.9041 14.1191C11.7935 15.2479 10.2564 15.9131 8.68959 16.0442C7.17236 16.1954 5.60555 15.9031 4.2569 15.1572C2.64051 14.2804 1.35136 12.7987 0.716703 11.0551C0.121711 9.45252 0.111795 7.63831 0.66712 6.02567C1.17286 4.55414 2.14468 3.25395 3.39417 2.34684C4.59407 1.44982 6.0518 0.955945 7.53927 0.865234Z" fill="#3780FF"/>
<path d="M47.3037 1.38916H49.4258V15.7819C48.7218 15.7819 48.0078 15.792 47.3037 15.7719C47.3136 10.9843 47.3037 6.18675 47.3037 1.38916Z" fill="#38B137"/>
<path d="M19.449 6.37847C20.758 6.1265 22.176 6.40871 23.2569 7.20495C24.2387 7.91047 24.9229 9.01916 25.1312 10.2286C25.3989 11.6296 25.0617 13.1616 24.1693 14.2703C23.2074 15.51 21.6306 16.1752 20.0936 16.0744C18.6854 15.9938 17.3169 15.2782 16.4839 14.109C15.5419 12.8189 15.3138 11.045 15.8295 9.53319C16.3451 7.91047 17.8028 6.67076 19.449 6.37847ZM19.7465 8.29348C19.211 8.43458 18.7152 8.74703 18.3582 9.1905C17.3963 10.3597 17.4558 12.2646 18.5168 13.3531C19.1217 13.978 20.0341 14.2703 20.877 14.099C21.6604 13.9579 22.3446 13.4237 22.7214 12.7181C23.3759 11.5187 23.1875 9.8658 22.1859 8.92845C21.5414 8.32371 20.5993 8.07174 19.7465 8.29348Z" fill="#FA3913"/>
<path d="M29.9605 6.37824C31.4579 6.08595 33.0941 6.50926 34.2147 7.57763C36.0394 9.24066 36.2377 12.3551 34.6808 14.2701C33.7387 15.4795 32.2116 16.1448 30.7043 16.0742C29.2664 16.0339 27.8483 15.3082 26.9955 14.1088C26.0336 12.7885 25.8253 10.9742 26.3707 9.43216C26.9161 7.85984 28.3441 6.66045 29.9605 6.37824ZM30.258 8.29324C29.7225 8.43435 29.2267 8.74679 28.8697 9.18019C27.9177 10.3292 27.9574 12.2039 28.9788 13.3025C29.5837 13.9576 30.5258 14.2802 31.3984 14.0987C32.1719 13.9475 32.8661 13.4234 33.2429 12.7179C33.8875 11.5084 33.6991 9.85548 32.6876 8.91814C32.043 8.3134 31.1009 8.0715 30.258 8.29324Z" fill="#FCBD06"/>
<path d="M38.8751 6.96264C40.0155 6.23696 41.5327 6.03538 42.7624 6.66027C43.1491 6.83161 43.4664 7.12391 43.7739 7.4162C43.7838 7.14406 43.7739 6.86185 43.7838 6.57964C44.4482 6.58972 45.1126 6.57964 45.7869 6.58972V15.4794C45.777 16.8199 45.4398 18.241 44.4878 19.2187C43.4466 20.2971 41.8501 20.6297 40.4122 20.408C38.8751 20.1762 37.5364 19.0373 36.9414 17.596C37.5364 17.3037 38.1611 17.0719 38.7759 16.7997C39.123 17.6262 39.8271 18.3317 40.7097 18.493C41.5922 18.6543 42.6136 18.4325 43.1888 17.6867C43.8036 16.9207 43.8036 15.8725 43.7739 14.9351C43.3177 15.3887 42.7921 15.7918 42.1575 15.943C40.7791 16.3361 39.2618 15.8523 38.2008 14.9049C37.1298 13.9575 36.4951 12.496 36.5546 11.0446C36.5844 9.40175 37.4967 7.81935 38.8751 6.96264ZM40.9278 8.25275C40.3229 8.35354 39.7577 8.69623 39.3709 9.16994C38.4388 10.2988 38.4388 12.1029 39.3808 13.2116C39.9163 13.8667 40.7791 14.2296 41.6121 14.1389C42.3955 14.0582 43.1194 13.5543 43.5061 12.8588C44.1606 11.6796 44.0515 10.077 43.169 9.04899C42.6235 8.41401 41.7509 8.10157 40.9278 8.25275Z" fill="#3780FF"/>
<path d="M51.9743 7.47661C53.1642 6.34777 54.9988 5.96477 56.5259 6.55943C57.9738 7.11377 58.896 8.51475 59.3621 9.95604C57.2102 10.8631 55.0682 11.7602 52.9163 12.6673C53.2138 13.2418 53.67 13.7659 54.2848 13.9776C55.1475 14.29 56.1789 14.1791 56.9028 13.5946C57.1903 13.3728 57.4184 13.0805 57.6366 12.7983C58.182 13.1712 58.7274 13.5341 59.2728 13.907C58.4993 15.0862 57.2003 15.9127 55.802 16.0437C54.2551 16.2352 52.6089 15.6305 51.6073 14.4009C49.9612 12.4657 50.1199 9.22028 51.9743 7.47661ZM53.0353 9.34122C52.6982 9.83509 52.5593 10.4398 52.5692 11.0345C54.0071 10.4298 55.445 9.82501 56.8829 9.2102C56.6449 8.64577 56.0698 8.30309 55.4847 8.21238C54.5426 8.04104 53.5609 8.55506 53.0353 9.34122Z" fill="#FA3913"/>
</g>
<defs>
<clipPath id="clip0_347_466">
<rect width="59.1025" height="19.6071" fill="white" transform="translate(0.260254 0.863281)"/>
</clipPath>
</defs>
</svg>
